<?xml version="1.0" standalone="no"?>
<!DOCTYPE svg PUBLIC "-//W3C//DTD SVG 1.1//EN" "http://www.w3.org/Graphics/SVG/1.1/DTD/svg11.dtd" >
<svg xmlns="http://www.w3.org/2000/svg">
<metadata></metadata>
<defs>
<font id="NewsGothicFSBookItalic" horiz-adv-x="1009" >
<font-face units-per-em="2048" ascent="1638" descent="-410" />
<missing-glyph horiz-adv-x="512" />
<glyph unicode="&#xfb01;" horiz-adv-x="935" d="M127 868l12 105h150l10 84q19 157 66 227q71 102 223 102q49 0 90 -8l-14 -114q-53 12 -78 12q-37 0 -68.5 -15t-46.5 -40q-22 -32 -33 -117l-16 -131h504l-119 -973h-133l106 868h-370l-107 -868h-133l106 868h-149zM815 1161l19 150h133l-19 -150h-133z" />
<glyph unicode="&#xfb02;" horiz-adv-x="935" d="M125 860l14 113h150l10 84q19 157 66 227q71 102 223 102q49 0 90 -8l-14 -114q-53 12 -78 12q-37 0 -68.5 -15t-46.5 -40q-22 -32 -33 -117l-16 -131h207l-15 -113h-206l-105 -860h-133l104 860h-149zM674 0l166 1366h133l-166 -1366h-133z" />
<glyph unicode="&#xfb03;" horiz-adv-x="1439" d="M127 868l12 105h150l10 84q7 58 16 99.5t21 72t29 55.5q71 102 223 102q49 0 90 -8l-14 -114q-53 12 -78 12q-37 0 -68.5 -15t-46.5 -40q-22 -32 -33 -117l-16 -131h371l10 84q7 58 16 99.5t20.5 72t28.5 55.5q71 102 224 102q47 0 88 -8l-15 -114q-53 12 -78 12 q-38 0 -64 -12t-42 -36t-25 -53t-14 -71l-16 -131h501l-118 -973h-133l106 868h-369l-106 -868h-133l106 868h-370l-107 -868h-133l106 868h-149zM1317 1161l18 150h133l-18 -150h-133z" />
<glyph unicode="&#xfb04;" horiz-adv-x="1439" d="M127 868l12 105h150l10 84q7 58 16 99.5t21 72t29 55.5q71 102 223 102q49 0 90 -8l-14 -114q-53 12 -78 12q-37 0 -68.5 -15t-46.5 -40q-22 -32 -33 -117l-16 -131h371l10 84q7 58 16 99.5t20.5 72t28.5 55.5q71 102 224 102q47 0 88 -8l-15 -114q-53 12 -78 12 q-38 0 -64 -12t-42 -36t-25 -53t-14 -71l-16 -131h204l-12 -105h-205l-106 -868h-133l106 868h-370l-107 -868h-133l106 868h-149zM1176 0l165 1366h134l-166 -1366h-133z" />
<glyph horiz-adv-x="0" />
<glyph horiz-adv-x="2048" />
<glyph unicode=" "  horiz-adv-x="512" />
<glyph unicode="&#x09;" horiz-adv-x="512" />
<glyph unicode="&#xa0;" horiz-adv-x="512" />
<glyph unicode="!" horiz-adv-x="546" d="M190 0l23 190h164l-23 -190h-164zM272 432l84 934h164l-145 -934h-103z" />
<glyph unicode="&#x22;" horiz-adv-x="763" d="M242 819l47 547h137l-86 -547h-98zM625 819l47 547h135l-84 -547h-98z" />
<glyph unicode="#" d="M51 416l41 123h217l101 315h-220l39 123h220l122 389h125l-123 -389h207l123 389h129l-123 -389h219l-38 -123h-220l-98 -315h217l-39 -123h-219l-131 -416h-129l131 416h-207l-129 -416h-127l131 416h-219zM436 539h205l100 315h-204z" />
<glyph unicode="$" d="M131 344l135 45q19 -132 72 -203t147 -90l68 553l-12 6q-114 52 -152.5 76.5t-66.5 63.5q-71 96 -56 237q19 150 119 245.5t260 115.5l19 147h86l-19 -147q117 -3 200 -100t93 -244l-131 -37q-7 110 -54.5 180t-121.5 82l-64 -510q94 -42 156 -74q88 -49 128 -135.5 t26 -196.5q-20 -164 -129.5 -265.5t-276.5 -112.5l-16 -136h-86l16 136q-133 10 -225 109t-115 255zM397 1044q-11 -91 31.5 -151.5t142.5 -97.5l60 483q-95 -9 -158.5 -73t-75.5 -161zM571 90q102 5 173.5 74.5t84.5 177.5q7 66 -15.5 125t-68.5 94q-37 29 -108 57z" />
<glyph unicode="%" horiz-adv-x="1064" d="M104 0l922 1366h100l-919 -1366h-103zM209 1079q17 138 85.5 219.5t168.5 81.5q68 0 117.5 -42t62.5 -113q10 -62 0 -154q-17 -137 -87 -219t-171 -82q-100 0 -146.5 81.5t-29.5 227.5zM309 1079q-25 -219 88 -219q59 0 96.5 52.5t49.5 152.5q30 231 -86 231 q-59 0 -97 -55.5t-51 -161.5zM594 297q17 137 87.5 219t170.5 82q101 0 148 -81.5t30 -229.5q-17 -134 -87 -216.5t-167 -82.5q-101 0 -150 83t-32 226zM698 285q-27 -209 86 -209q57 0 95.5 58.5t50.5 164.5q13 102 -9.5 156.5t-78.5 54.5q-118 0 -144 -225z" />
<glyph unicode="&#x26;" horiz-adv-x="1136" d="M125 367q22 159 149 280q11 9 24.5 17t51 32.5t96.5 69.5l15 10q-42 109 -56.5 179t-5.5 137q17 132 100 213t201 81q117 0 179 -75t47 -197t-105 -219q-47 -50 -174 -141l-20 -15q82 -160 235 -403q47 72 90 168t60 168l123 -21q-46 -208 -203 -407q34 -48 97.5 -89.5 t96.5 -35.5l-16 -121q-69 -3 -134 31.5t-138 113.5q-104 -91 -186.5 -127t-184.5 -36q-166 0 -264 111.5t-78 275.5zM262 373q-15 -118 48 -200.5t167 -82.5q147 0 293 137q-62 72 -117.5 164t-150.5 279q-123 -77 -176.5 -142.5t-63.5 -154.5zM541 1120q-14 -115 43 -274 q9 7 21.5 16.5t15.5 11.5q84 63 123.5 119t48.5 125q8 68 -22.5 113t-82.5 45q-55 0 -97 -45t-50 -111z" />
<glyph unicode="'" horiz-adv-x="382" d="M242 819l47 547h137l-86 -547h-98z" />
<glyph unicode="(" horiz-adv-x="538" d="M215 543q25 199 118.5 452t198.5 406l111 -39q-120 -225 -185 -423t-91 -415q-26 -212 -8.5 -406t81.5 -405l-106 -41q-82 172 -114.5 410t-4.5 461z" />
<glyph unicode=")" horiz-adv-x="538" d="M25 -287q117 211 182.5 404t91.5 407q26 218 9.5 414.5t-81.5 423.5l119 39q69 -154 101.5 -407t7.5 -451q-28 -225 -118 -463t-214 -408z" />
<glyph unicode="*" horiz-adv-x="770" d="M246 1133l37 81l211 -77l10 229h92l-35 -229l221 77l17 -81l-228 -66l123 -184l-78 -52l-106 189l-156 -189l-63 52l164 184z" />
<glyph unicode="+" d="M147 541l11 92h377l47 377h92l-47 -377h377l-11 -92h-377l-47 -377h-92l47 377h-377z" />
<glyph unicode="," horiz-adv-x="491" d="M102 -272l129 272h-67l22 190h164l-22 -190l-131 -272h-95z" />
<glyph unicode="-" horiz-adv-x="409" d="M51 420l15 129h409l-14 -129h-410z" />
<glyph unicode="." horiz-adv-x="491" d="M164 0l22 190h164l-22 -190h-164z" />
<glyph unicode="/" horiz-adv-x="921" d="M-27 -328l873 1694h104l-874 -1694h-103z" />
<glyph unicode="0" d="M164 682q41 334 176 518t336 184q108 0 189.5 -58t115.5 -159q68 -185 31 -483q-36 -268 -127 -446q-61 -118 -165 -187t-220 -69q-117 0 -202.5 69.5t-117.5 190.5q-49 179 -16 440zM295 676q-34 -278 22.5 -428t194.5 -150q69 0 132.5 42t113.5 120q85 138 121 432 q43 336 -41 473q-65 103 -170 103q-145 0 -241.5 -153.5t-131.5 -438.5z" />
<glyph unicode="1" d="M268 0l15 123h202l133 1089l-227 -20l10 90l277 96h98l-153 -1255h186l-14 -123h-527z" />
<glyph unicode="2" d="M104 0l13 106q47 111 167 246.5t271 251.5q112 85 157 126t76 81q75 96 86 197q14 110 -44 185t-158 75q-66 0 -132 -38.5t-106 -99.5q-41 -60 -84 -176l-125 33q48 130 97 201q60 91 158.5 143.5t207.5 52.5q164 0 252 -106.5t66 -278.5q-18 -148 -123 -268 q-58 -67 -250 -209q-132 -97 -243 -212t-142 -187h653l-14 -123h-783z" />
<glyph unicode="3" d="M109 246l116 73q58 -118 126 -169.5t165 -51.5q122 0 206 76.5t99 200.5q17 140 -60.5 212t-244.5 72q-44 0 -104 -8l16 135q94 -4 107 -4q148 0 233 64.5t100 187.5q12 105 -44 169.5t-160 64.5q-83 0 -153 -40.5t-144 -131.5l-91 78q81 102 186 156t220 54 q160 0 249 -94.5t70 -245.5q-27 -232 -262 -319q122 -37 177 -124.5t38 -217.5q-22 -180 -148 -290.5t-308 -110.5q-136 0 -227 62t-162 202z" />
<glyph unicode="4" d="M125 338l12 108l606 936h199l-113 -921h207l-14 -123h-207l-41 -338h-137l41 338h-553zM270 461h422l76 618l6 97q0 19 9 59.5t12 58.5q-27 -74 -56 -116z" />
<glyph unicode="5" d="M152 236l120 65q40 -106 99.5 -154.5t148.5 -48.5q129 0 216.5 100.5t109.5 274.5q19 152 -39 240t-178 88q-84 0 -162.5 -52.5t-118.5 -134.5l-110 29l133 723h630l-14 -123h-510l-84 -434q109 109 266 109q169 0 256.5 -124.5t61.5 -326.5q-26 -220 -158.5 -352.5 t-324.5 -132.5q-124 0 -213 66t-129 188z" />
<glyph unicode="6" d="M170 569q46 385 210.5 600t412.5 215q69 0 124.5 -18.5t137.5 -67.5l-80 -106q-60 42 -103 59t-94 17q-206 0 -342 -236q-66 -118 -123 -350q73 96 154 140t184 44q167 0 261 -120t71 -306q-25 -198 -156.5 -328t-308.5 -130q-195 0 -288.5 157.5t-59.5 429.5zM293 504 q-11 -140 20 -234q23 -79 83.5 -125.5t138.5 -46.5q120 0 208 95t107 245q17 141 -42.5 226.5t-176.5 85.5q-193 0 -338 -246z" />
<glyph unicode="7" d="M221 0l662 1243h-625l14 123h768l-10 -82l-655 -1284h-154z" />
<glyph unicode="8" d="M115 352q30 249 334 375q-120 66 -167.5 144t-33.5 184q17 144 139.5 236.5t296.5 92.5q166 0 260.5 -92.5t77.5 -238.5q-13 -109 -82 -186t-209 -140q146 -71 205.5 -157.5t44.5 -209.5q-22 -170 -156 -274t-333 -104q-189 0 -294 103t-83 267zM246 356 q-14 -113 63.5 -185.5t210.5 -72.5q131 0 224 72t106 184q8 71 -21 129.5t-92 96.5q-43 28 -176 90q-154 -62 -228.5 -136t-86.5 -178zM379 1051q-13 -127 102 -201q63 -36 131 -70q145 59 206 116.5t71 147.5q12 102 -48.5 163t-174.5 61q-113 0 -194 -61t-93 -156z" />
<glyph unicode="9" d="M121 72l80 106q59 -45 102 -62.5t96 -17.5q204 0 340 238q66 118 123 350q-73 -95 -154 -138.5t-184 -43.5q-168 0 -261 119.5t-70 306.5q25 196 156.5 325t307.5 129q195 0 289 -158t60 -429q-47 -386 -211.5 -600.5t-411.5 -214.5q-68 0 -123.5 19.5t-138.5 70.5z M326 930q-17 -141 42.5 -225t176.5 -84q196 0 338 245q13 192 -50 297t-192 105q-120 0 -208 -94.5t-107 -243.5z" />
<glyph unicode=":" horiz-adv-x="491" d="M164 0l22 190h164l-22 -190h-164zM258 782l25 191h163l-24 -191h-164z" />
<glyph unicode=";" horiz-adv-x="491" d="M102 -272l129 272h-67l22 190h164l-22 -190l-131 -272h-95zM258 782l25 191h163l-24 -191h-164z" />
<glyph unicode="&#x3c;" horiz-adv-x="1024" d="M143 631l15 117l938 409l-17 -133l-784 -336l702 -336l-16 -133z" />
<glyph unicode="=" d="M131 403l10 93h846l-10 -93h-846zM164 678l12 92h846l-12 -92h-846z" />
<glyph unicode="&#x3e;" horiz-adv-x="1024" d="M96 219l17 133l784 336l-702 336l16 133l836 -412l-15 -116z" />
<glyph unicode="?" horiz-adv-x="702" d="M195 0l22 190h164l-23 -190h-163zM221 1196q126 184 297 184q109 0 171.5 -79t49.5 -199q-13 -102 -67 -180q-33 -49 -59 -79.5t-136 -144.5q-29 -32 -45 -59.5t-26 -64.5t-17 -95l-4 -45h-111q7 125 37 207q15 39 36 66t128 147q120 138 131 240q9 80 -22 129t-92 49 q-51 0 -87.5 -27.5t-91.5 -109.5z" />
<glyph unicode="@" horiz-adv-x="1460" d="M158 649q22 170 98.5 314.5t198.5 244.5q105 86 230 132t251 46q125 0 233 -45.5t180 -122.5t107 -184.5t21 -226.5q-27 -235 -226 -383q-139 -102 -262 -102q-55 0 -89 27t-40 77q-65 -56 -118 -80t-113 -24q-95 0 -147.5 70.5t-39.5 180.5q14 115 83 225t166 178 t190 68q123 0 163 -120l43 90h123l-221 -484q-21 -46 -28 -81q-3 -28 15 -45t50 -17q92 0 197 102q134 131 155 310q26 211 -105 354t-349 143q-126 0 -248.5 -53.5t-216.5 -150.5q-78 -80 -131 -196.5t-68 -244.5q-32 -262 103.5 -420.5t390.5 -158.5q164 0 310.5 77.5 t240.5 212.5l100 -2q-38 -69 -81.5 -118t-109.5 -99q-216 -163 -475 -163q-194 0 -334.5 84t-205 236.5t-41.5 348.5zM573 541q-7 -66 16 -104t70 -38q33 0 70 16.5t66 45.5q48 43 98 145l61 131q31 63 37 107q6 51 -19.5 85t-68.5 34q-65 0 -138 -62.5t-126.5 -161.5 t-65.5 -198z" />
<glyph unicode="A" horiz-adv-x="995" d="M6 0l572 1378h206l211 -1378h-149l-64 432h-452l-178 -432h-146zM381 557h383l-86 594q-10 68 -12 113q-5 -19 -25 -72q-50 -124 -143 -350.5t-117 -284.5z" />
<glyph unicode="B" horiz-adv-x="1097" d="M158 0l166 1366h393q134 0 214 -26.5t126 -86.5q74 -100 59 -233q-16 -118 -86 -197q-35 -39 -76.5 -61.5t-117.5 -42.5q138 -46 190 -125.5t35 -218.5q-24 -191 -160 -293q-112 -82 -307 -82h-436zM319 125h232q119 0 178 13t100 48q74 65 86 181q12 90 -19.5 157.5 t-96.5 93.5q-98 37 -291 37h-123zM399 780h170q107 0 169.5 9t107.5 32q49 24 82.5 78t42.5 119q18 171 -133 209q-58 14 -211 14h-170z" />
<glyph unicode="C" horiz-adv-x="1120" d="M162 657q43 350 197.5 543t390.5 193q167 0 263.5 -101t125.5 -307l-144 -35q-35 322 -262 322q-169 0 -280 -158t-148 -450q-21 -185 4 -312q22 -118 97.5 -187t181.5 -69q174 0 299 189q45 73 63 141l135 -31q-70 -201 -204.5 -310.5t-309.5 -109.5q-233 0 -341 179.5 t-68 502.5z" />
<glyph unicode="D" horiz-adv-x="1155" d="M158 0l166 1366h227q172 0 268.5 -19.5t161.5 -68.5q112 -79 156.5 -229.5t19.5 -360.5q-26 -215 -109 -371t-212 -231q-70 -40 -172 -63t-215 -23h-291zM319 125h99q139 0 195.5 9.5t127.5 43.5q109 53 178.5 181t92.5 321q22 177 -0.5 292t-91.5 181q-94 88 -340 88 h-123z" />
<glyph unicode="E" horiz-adv-x="999" d="M158 0l166 1366h759l-14 -125h-612l-58 -461h449l-14 -125h-449l-66 -530h642l-15 -125h-788z" />
<glyph unicode="F" horiz-adv-x="931" d="M158 0l166 1366h733l-15 -125h-585l-58 -461h437l-15 -125h-436l-80 -655h-147z" />
<glyph unicode="G" horiz-adv-x="1132" d="M166 684q40 330 201 520.5t399 190.5q170 0 273 -110.5t106 -297.5l-135 -37q-27 322 -265 322q-171 0 -286.5 -155t-149.5 -429q-35 -289 40 -440.5t255 -151.5q101 0 180 56t125 159q28 61 49 217h-296l16 125h426l-80 -653h-113l19 164q-88 -105 -167.5 -147 t-189.5 -42q-229 0 -338.5 190.5t-68.5 518.5z" />
<glyph unicode="H" horiz-adv-x="1230" d="M158 0l166 1366h147l-72 -586h623l72 586h147l-166 -1366h-147l80 655h-623l-80 -655h-147z" />
<glyph unicode="I" horiz-adv-x="460" d="M158 0l166 1366h147l-166 -1366h-147z" />
<glyph unicode="J" horiz-adv-x="757" d="M14 176l127 68l9 -21q27 -73 58.5 -100t84.5 -27q55 0 102.5 31.5t75.5 87.5q18 35 27.5 81.5t27.5 195.5l107 874h147l-108 -897q-17 -131 -33 -193t-45 -114q-47 -86 -134 -136.5t-188 -50.5q-100 0 -163 49t-95 152z" />
<glyph unicode="K" horiz-adv-x="1087" d="M158 0l166 1366h147l-86 -713l625 713h155l-448 -508l350 -858h-164l-293 737l-250 -274l-55 -463h-147z" />
<glyph unicode="L" horiz-adv-x="903" d="M158 0l166 1366h147l-152 -1241h592l-14 -125h-739z" />
<glyph unicode="M" horiz-adv-x="1411" d="M158 0l166 1366h254l133 -846q28 -182 28 -284q14 74 92 274l338 856h250l-166 -1366h-147l133 1085l8 80l13 86l2 31h-11q-51 -144 -61 -168l-432 -1114h-94l-177 1128l-10 50q0 1 -8 63q-1 3 -2 8.5t-2.5 15t-3.5 17.5q-12 -53 -12 -55l-5 -47q0 -38 -4 -66l-135 -1114 h-147z" />
<glyph unicode="N" horiz-adv-x="1196" d="M158 0l166 1366h204l365 -932q27 -81 55 -188q-8 130 15 338l96 782h147l-166 -1366h-120l-422 1102q-15 34 -25 63l-16 60q0 1 -3 8t-6 16t-6 19q0 -149 -24 -334l-113 -934h-147z" />
<glyph unicode="O" horiz-adv-x="1177" d="M166 688q40 323 200 514t390 191q129 0 228.5 -63t150.5 -177q78 -182 45 -463q-41 -330 -201 -522.5t-395 -192.5q-233 0 -346 192.5t-72 520.5zM307 676q-34 -276 43 -428t252 -152q173 0 286 156.5t150 449.5q17 139 11 226.5t-37 161.5q-38 87 -107.5 134.5 t-159.5 47.5q-81 0 -160 -43t-132 -115q-109 -153 -146 -438z" />
<glyph unicode="P" horiz-adv-x="1030" d="M158 0l166 1366h344q94 0 149 -7.5t107 -27.5q95 -38 144 -133t34 -215q-18 -166 -152 -278q-71 -57 -146.5 -78t-213.5 -21h-211l-74 -606h-147zM393 731h201q100 0 155 12.5t101 44.5q95 70 108 195q11 78 -19.5 142t-88.5 87q-69 29 -215 29h-178z" />
<glyph unicode="Q" horiz-adv-x="1177" d="M164 688q40 324 199.5 514.5t392.5 190.5t347.5 -188t74.5 -509q-38 -315 -177.5 -501t-359.5 -215q0 -91 46 -127.5t161 -36.5q43 0 110 6l-16 -123q-62 -6 -92 -6q-189 0 -268.5 67.5t-73.5 221.5q-202 37 -291.5 220.5t-52.5 485.5zM305 676q-34 -276 43 -428 t252 -152q173 0 286 156.5t150 449.5q17 139 11 226.5t-37 161.5q-38 87 -107.5 134.5t-159.5 47.5q-81 0 -160 -43t-132 -115q-109 -153 -146 -438z" />
<glyph unicode="R" horiz-adv-x="1046" d="M158 0l166 1366h342q105 0 164.5 -7.5t113.5 -27.5q95 -35 144 -126t34 -206q-15 -124 -96.5 -217t-204.5 -127l185 -655h-160l-172 623l-21 4h-241l-31 -4l-76 -623h-147zM395 748h187q123 0 184 11t104 42q93 68 109 196q21 159 -107 217q-68 27 -264 27h-151z" />
<glyph unicode="S" horiz-adv-x="999" d="M82 344l139 45q20 -89 47 -145q34 -70 103.5 -109t160.5 -39q120 0 202 69t95 181q14 116 -71 195q-47 41 -166 84q-153 57 -207 86q-188 99 -164 317q20 160 146 262.5t303 102.5q311 0 366 -344l-137 -41q-35 264 -254 264q-109 0 -187.5 -65t-90.5 -163 q-5 -46 5.5 -83.5t29.5 -63t55 -48.5t68.5 -37.5t84.5 -33.5q170 -63 250 -121q66 -49 96 -126.5t19 -170.5q-22 -172 -149.5 -278.5t-311.5 -106.5q-178 0 -288 94.5t-144 274.5z" />
<glyph unicode="T" horiz-adv-x="929" d="M166 1241l14 125h903l-14 -125h-381l-151 -1241h-148l152 1241h-375z" />
<glyph unicode="U" horiz-adv-x="1173" d="M203 489l106 877h148l-109 -887q-23 -188 14 -262q56 -121 236 -121q88 0 158.5 33.5t111.5 95.5q50 76 70 236l111 905h147l-109 -887q-15 -129 -38.5 -198.5t-71.5 -130.5q-68 -85 -173 -130t-235 -45q-233 0 -327 148q-41 66 -49.5 142t10.5 224z" />
<glyph unicode="V" horiz-adv-x="935" d="M172 1366h150l135 -846q22 -138 28 -195t9 -145q27 103 55 174q17 43 37 98t26 68l346 846h138l-570 -1366h-118z" />
<glyph unicode="W" horiz-adv-x="1409" d="M186 1366h144l67 -868l4 -49q10 -112 10.5 -150t-5.5 -106q15 73 30 123.5t56 164.5l319 885h131l88 -868q13 -127 15 -168.5t-3 -136.5q14 78 72 256l168 504t137 413h135l-485 -1374h-115l-92 936q-18 183 -14 254q-15 -97 -74 -254l-342 -936h-121z" />
<glyph unicode="X" horiz-adv-x="962" d="M14 0l471 707l-276 659h162l186 -473q4 -9 8 -18.5t9 -20.5t8 -18q3 10 36 57l306 473h147l-422 -647l301 -719h-157l-218 537q-5 12 -12.5 31t-11.5 28q-10 -15 -10 -16q-13 -23 -15 -25q-70 -107 -199.5 -304.5t-164.5 -250.5h-148z" />
<glyph unicode="Y" horiz-adv-x="903" d="M145 1366h158l225 -575q2 -14 10 -37t11 -37q8 22 35 74l348 575h158l-486 -766l-72 -600h-147l70 578z" />
<glyph unicode="Z" horiz-adv-x="901" d="M27 0l10 88l799 1153h-600l14 125h776l-10 -96l-801 -1145h651l-14 -125h-825z" />
<glyph unicode="[" horiz-adv-x="538" d="M129 -328l207 1694h328l-13 -104h-205q4 -46 -12 -191l-131 -1071q-24 -160 -39 -223h205l-12 -105h-328z" />
<glyph unicode="\" horiz-adv-x="921" d="M303 1366h107l456 -1694h-100z" />
<glyph unicode="]" horiz-adv-x="538" d="M0 -328l12 105h205q0 97 19 223l131 1071q11 99 15.5 128t16.5 63h-204l12 104h328l-207 -1694h-328z" />
<glyph unicode="^" horiz-adv-x="1024" d="M150 756l442 612h176l291 -612h-148l-247 508l-369 -508h-145z" />
<glyph unicode="_" horiz-adv-x="1024" d="M0 -139h1024v-123h-1024v123z" />
<glyph unicode="`" horiz-adv-x="1024" d="M514 1341h154l45 -245h-103z" />
<glyph unicode="a" horiz-adv-x="899" d="M96 258q15 121 94 197t244 127q54 17 281 73q7 83 -6 127q-13 46 -58 72.5t-108 26.5q-79 0 -146.5 -40.5t-113.5 -115.5l-97 70q134 196 369 196q154 0 238 -84q41 -43 53 -103.5t0 -164.5l-47 -383q-18 -154 -4 -256h-146q-3 54 4 156q-95 -101 -163.5 -138.5 t-159.5 -37.5q-121 0 -185 76t-49 202zM225 262q-9 -75 28.5 -123.5t106.5 -48.5q143 0 310 197l30 260q-219 -60 -286 -88q-94 -38 -137 -83t-52 -114z" />
<glyph unicode="b" horiz-adv-x="942" d="M129 0l166 1366h133l-61 -506q122 131 278 131q160 0 239.5 -134t51.5 -357q-28 -232 -148 -376t-286 -144q-75 0 -128 29.5t-112 103.5l-37 -113h-96zM289 223q59 -75 105 -105t104 -30q121 0 203.5 109.5t105.5 300.5q23 184 -29 283.5t-172 99.5q-66 0 -113.5 -27 t-140.5 -115z" />
<glyph unicode="c" horiz-adv-x="837" d="M123 479q29 230 153 371t297 141q229 0 287 -262l-125 -41q-10 90 -59 141.5t-123 51.5q-118 0 -198 -107.5t-103 -298.5q-22 -178 33.5 -282.5t171.5 -104.5q74 0 138.5 49.5t111.5 143.5l104 -48q-133 -253 -367 -253q-173 0 -261 136.5t-60 362.5z" />
<glyph unicode="d" horiz-adv-x="940" d="M123 483q28 224 149 366t285 142q72 0 122 -29.5t101 -101.5l62 506h133l-129 -1055q-23 -193 -23 -311h-133q-4 25 -2 53q-3 42 2 47v29q-64 -78 -128.5 -113.5t-139.5 -35.5q-161 0 -244 138.5t-55 364.5zM252 479q-22 -177 30.5 -283t161.5 -106q66 0 135 44t128 122 l4 31l6 61q11 78 29 224.5t22 179.5q-54 71 -100 100t-105 29q-120 0 -204 -109t-107 -293z" />
<glyph unicode="e" horiz-adv-x="882" d="M125 494q28 225 149 361t293 136q170 0 244 -134.5t45 -389.5h-598q-20 -172 40 -274.5t181 -102.5q80 0 141 41.5t136 147.5l86 -64q-72 -114 -170 -174.5t-211 -60.5q-182 0 -273.5 140.5t-62.5 373.5zM272 580h455q17 137 -31.5 219t-146.5 82q-62 0 -120 -35t-93 -94 q-26 -39 -40 -75t-24 -97z" />
<glyph unicode="f" horiz-adv-x="475" d="M125 860l14 113h150l10 84q19 157 66 227q71 102 223 102q49 0 90 -8l-14 -114q-53 12 -78 12q-37 0 -68.5 -15t-46.5 -40q-22 -32 -33 -117l-16 -131h207l-15 -113h-206l-105 -860h-133l104 860h-149z" />
<glyph unicode="g" horiz-adv-x="872" d="M49 -109q9 71 59 120t148 83q-63 10 -96 45.5t-27 85.5q6 45 42.5 82.5t117.5 79.5q-65 56 -90 121t-15 149q19 147 125.5 240.5t255.5 93.5q127 0 205 -67q108 86 234 86l-15 -117h-20q-80 0 -148 -33q62 -98 47 -215q-17 -140 -126.5 -235t-253.5 -95q-79 0 -144 33 l-14 -14q-11 -9 -24 -20.5t-18 -16t-11.5 -11t-8.5 -10t-3.5 -8t-2.5 -10.5q-2 -21 5.5 -32.5t40 -21t85.5 -15t154 -11.5q140 -9 207.5 -32.5t105.5 -77.5q34 -53 25 -123q-15 -129 -141.5 -202t-335.5 -73q-180 0 -277.5 60t-85.5 161zM180 -88q-8 -66 52.5 -98.5 t193.5 -32.5q149 0 237 39.5t95 109.5q6 47 -24 76t-99 41q-34 6 -119.5 12.5t-132.5 6.5l-49 -19q-79 -30 -113.5 -59.5t-40.5 -75.5zM315 649q-12 -100 39.5 -161.5t145.5 -61.5q97 0 165 62.5t80 162.5q12 101 -40.5 165.5t-147.5 64.5t-161.5 -64.5t-80.5 -167.5z" />
<glyph unicode="h" horiz-adv-x="952" d="M129 0l166 1366h133l-66 -543q116 102 180 135t146 33q67 0 119.5 -27.5t77.5 -74.5q23 -39 26 -92.5t-10 -155.5l-78 -641h-133l78 641q15 113 2 162q-9 34 -43.5 56t-77.5 22q-63 0 -148 -48t-153 -120l-86 -713h-133z" />
<glyph unicode="i" horiz-adv-x="393" d="M129 0l119 973h133l-119 -973h-133zM270 1161l19 150h133l-19 -150h-133z" />
<glyph unicode="j" horiz-adv-x="393" d="M-47 -324l14 111q35 -6 47 -6q54 0 76 36.5t37 153.5l123 1002h133l-129 -1043q-14 -133 -53 -180q-68 -80 -185 -80q-19 0 -63 6zM272 1161l19 150h133l-18 -150h-134z" />
<glyph unicode="k" horiz-adv-x="837" d="M129 0l166 1366h133l-109 -895l441 502h141l-303 -340l223 -633h-141l-178 528l-203 -215l-37 -313h-133z" />
<glyph unicode="l" horiz-adv-x="393" d="M129 0l166 1366h133l-166 -1366h-133z" />
<glyph unicode="m" horiz-adv-x="1488" d="M129 0l119 973h133l-19 -150q90 90 164.5 129t155.5 39q83 0 137 -45t68 -123q174 168 334 168q70 0 125.5 -29t78.5 -79q33 -65 15 -205l-82 -678h-133l84 694q10 74 -6 113q-12 33 -44.5 53.5t-72.5 20.5q-62 0 -130.5 -36t-160.5 -118l-88 -727h-133l82 678 q6 50 6 71.5t-6 47.5q-10 38 -42 61t-73 23q-63 0 -127.5 -34.5t-163.5 -119.5l-88 -727h-133z" />
<glyph unicode="n" horiz-adv-x="952" d="M129 0l119 973h133l-8 -68l-4 -22l-2 -21l-5 -43q166 172 334 172q65 0 117.5 -29.5t75.5 -80.5q18 -38 20 -89t-10 -153l-78 -639h-133l78 639q11 101 6 143q-4 42 -39.5 70.5t-83.5 28.5q-61 0 -129.5 -37.5t-171.5 -126.5l-86 -717h-133z" />
<glyph unicode="o" horiz-adv-x="899" d="M123 479q29 238 148.5 375t297.5 137q186 0 270.5 -134.5t53.5 -381.5q-29 -234 -147 -364.5t-300 -130.5q-180 0 -265.5 132.5t-57.5 366.5zM254 489q-25 -194 28.5 -296.5t178.5 -102.5q121 0 200.5 102.5t102.5 290.5q25 189 -30.5 293.5t-178.5 104.5 q-59 0 -114.5 -30.5t-92.5 -82.5q-73 -98 -94 -279z" />
<glyph unicode="p" horiz-adv-x="946" d="M88 -328l160 1301h133l-14 -113q80 72 141 101.5t133 29.5q162 0 243.5 -134.5t53.5 -356.5q-28 -232 -149 -377.5t-287 -145.5q-67 0 -115.5 29.5t-112.5 106.5l-53 -441h-133zM289 223q56 -74 103.5 -104.5t107.5 -30.5q123 0 204.5 109.5t106.5 304.5q15 131 -6 214 t-82 128q-50 37 -113 37q-64 0 -123.5 -34t-136.5 -114z" />
<glyph unicode="q" horiz-adv-x="944" d="M123 481q28 224 148 367t280 143q75 0 130 -31t105 -100l52 113h96l-160 -1301h-133l53 441q-86 -78 -143.5 -105.5t-134.5 -27.5q-161 0 -241 136t-52 365zM250 481q-23 -192 29 -291.5t178 -99.5q63 0 122.5 35t131.5 113l61 512q-86 131 -209 131 q-121 0 -205.5 -107.5t-107.5 -292.5z" />
<glyph unicode="r" horiz-adv-x="600" d="M129 0l119 973h133l-31 -254q30 69 65 116t89 89q44 35 85 49t101 14h17l-17 -127q-117 -5 -200.5 -77t-161.5 -238l-66 -545h-133z" />
<glyph unicode="s" horiz-adv-x="806" d="M80 180l119 64q43 -80 101 -117t140 -37q85 0 143 44.5t66 113.5q7 57 -23 96t-104 68q-87 34 -122.5 48.5t-70.5 28.5t-47 23t-20.5 16t-21.5 23q-66 69 -54 174q13 118 107.5 192t228.5 74q102 0 169.5 -38t135.5 -134l-108 -71q-71 133 -207 133q-76 0 -132.5 -42.5 t-64.5 -105.5q-6 -51 24 -84t105 -61q160 -59 195.5 -75t69.5 -46q41 -32 60 -85t13 -114q-17 -127 -117 -207.5t-241 -80.5q-115 0 -204.5 52.5t-139.5 147.5z" />
<glyph unicode="t" horiz-adv-x="501" d="M111 860l14 113h149l39 327h133l-38 -327h206l-14 -113h-207l-74 -604q-4 -41 0 -83t13 -54q19 -31 80 -31q37 0 96 12l-12 -100q-76 -23 -142 -23q-129 0 -166 78q-14 32 -14.5 59t16.5 171l70 575h-149z" />
<glyph unicode="u" horiz-adv-x="950" d="M174 375l74 598h133l-74 -598q-19 -150 0 -205q27 -80 107 -80q70 0 133.5 36t169.5 136l88 711h133l-119 -973h-133l19 154q-89 -92 -165.5 -133t-158.5 -41q-64 0 -115.5 23.5t-77.5 64.5q-43 66 -14 307z" />
<glyph unicode="v" horiz-adv-x="761" d="M113 973h139l131 -760q14 -80 14 -109l2 -24q7 20 15 45t15 44t17 44l316 760h127l-402 -973h-196z" />
<glyph unicode="w" horiz-adv-x="1181" d="M139 973h129l78 -615q15 -140 12 -217q28 107 66 217l223 615h129l74 -580q21 -170 16 -252q23 113 74 252l213 580h127l-375 -973h-119l-81 627q-18 128 -15 196q-13 -65 -61 -196l-226 -627h-118z" />
<glyph unicode="x" horiz-adv-x="729" d="M-6 0l354 508l-223 465h145l166 -359l242 359h139l-319 -465l239 -508h-141l-184 401l-275 -401h-143z" />
<glyph unicode="y" horiz-adv-x="774" d="M-45 -315l29 116q60 -18 94 -18q72 0 130.5 49.5t125.5 167.5l-207 973h129l139 -635q24 -123 29 -154q19 70 59 154l285 635h133l-412 -910q-69 -153 -143 -253q-56 -73 -118.5 -107.5t-143.5 -34.5q-40 0 -129 17z" />
<glyph unicode="z" horiz-adv-x="763" d="M37 0l10 86l602 774h-479l14 113h647l-10 -80l-612 -780h516l-12 -113h-676z" />
<glyph unicode="{" horiz-adv-x="532" d="M133 494l12 96q65 19 97.5 61t42.5 121l45 363q17 142 92 207t223 65q23 0 39 -2l-14 -107q-114 -3 -157.5 -39t-55.5 -139l-45 -354q-10 -93 -42 -143t-100 -84q59 -35 78 -86.5t8 -147.5l-43 -340q-12 -109 21.5 -146t148.5 -40l-12 -107h-41q-151 0 -207.5 68.5 t-36.5 228.5l41 334q11 88 -10 130t-84 61z" />
<glyph unicode="|" horiz-adv-x="1024" d="M403 -342l209 1708h133l-208 -1708h-134z" />
<glyph unicode="}" horiz-adv-x="532" d="M-20 -328l12 107q116 3 159.5 40.5t55.5 145.5l43 340q10 95 42 147t101 87q-61 33 -80 82.5t-8 144.5l45 354q12 103 -23 139t-149 39l15 107q16 2 38 2q148 0 207.5 -65t42.5 -207l-45 -363q-11 -80 11 -121.5t83 -60.5l-12 -96q-66 -19 -97.5 -61.5t-41.5 -129.5 l-41 -334q-20 -160 -93.5 -228.5t-224.5 -68.5h-40z" />
<glyph unicode="~" horiz-adv-x="1366" d="M344 1251q80 127 147 178.5t156 51.5q78 0 223 -74q87 -42 123 -55t72 -13q58 0 103.5 32t105.5 114l76 -49q-74 -116 -150.5 -170t-167.5 -54q-44 0 -93.5 18.5t-180.5 82.5q-78 41 -135 41q-54 0 -103 -36t-104 -118z" />
<glyph unicode="&#xa1;" horiz-adv-x="546" d="M150 -328l145 934h102l-84 -934h-163zM285 782l24 191h164l-24 -191h-164z" />
<glyph unicode="&#xa2;" d="M219 98l103 191q-60 67 -84 172t-9 231q28 227 151.5 369.5t291.5 142.5q44 0 98 -12l74 156l71 -29l-77 -160q95 -65 129 -215l-125 -43q-12 91 -62 141l-344 -690q59 -51 125 -51q75 0 140 50t112 145l105 -47q-133 -256 -369 -256q-95 0 -166 45l-98 -177zM358 688 q-11 -83 -5.5 -141t30.5 -125l328 663q-41 9 -58 9q-114 0 -193 -108.5t-102 -297.5z" />
<glyph unicode="&#xa3;" d="M166 172q9 78 74.5 132t150.5 54q81 0 139 -55q26 91 18.5 179t-48.5 200h-228l17 123h184q-25 143 -14 235q19 151 114.5 248.5t225.5 97.5q95 0 156.5 -50t107.5 -165l-119 -51q-36 82 -74.5 116t-99.5 34q-71 0 -120.5 -61t-61.5 -165q-15 -120 26 -239h295l-16 -123 h-262q32 -97 41.5 -156.5t1.5 -122.5q-12 -84 -47 -163q126 -138 176 -138q29 0 58 36.5t52 101.5l99 -33q-35 -80 -60 -121q-30 -45 -78 -72.5t-100 -27.5q-54 0 -86.5 22t-124.5 121q-53 -75 -106.5 -109t-120.5 -34q-81 0 -130 54t-40 132zM281 170q-4 -28 18.5 -48 t56.5 -20q37 0 64.5 21.5t58.5 73.5q-53 45 -98 45q-38 0 -67.5 -21.5t-32.5 -50.5z" />
<glyph unicode="&#xa4;" horiz-adv-x="1366" d="M152 201l208 190q-48 74 -64 154t-2.5 154.5t48.5 143.5t90 132l-170 190l82 74l168 -190q83 57 156 82.5t155 25.5q159 0 281 -108l215 188l63 -72l-213 -190q63 -101 71 -207.5t-29.5 -199.5t-112.5 -177l170 -190l-82 -74l-168 190q-152 -104 -309 -104 q-151 0 -283 104l-213 -190zM408 682q-11 -96 26.5 -178t113.5 -130t173 -48t185 47.5t146 130t70 180.5q11 96 -26.5 178.5t-112.5 131t-170 48.5q-99 0 -188 -47.5t-147 -130.5t-70 -182z" />
<glyph unicode="&#xa5;" d="M205 784l14 123h166l-152 459h129l121 -371q48 -149 49 -161l31 -99q2 -12 25 -78q26 46 45 78l49 99q16 30 94 167l207 365h125l-260 -459h164l-15 -123h-219l-106 -182h246l-17 -123h-270l-58 -479h-137l58 479h-256l16 123h235l-63 182h-221z" />
<glyph unicode="&#xa6;" horiz-adv-x="1024" d="M403 -342l80 655h133l-79 -655h-134zM530 688l82 678h133l-81 -678h-134z" />
<glyph unicode="&#xa7;" d="M63 68l132 36q17 -113 57 -176q38 -63 108 -99t150 -36q105 0 183.5 59t88.5 146q9 60 -26 104q-37 41 -95.5 73.5t-246.5 115.5q-149 66 -205.5 134.5t-44.5 166.5q9 76 49.5 129.5t130.5 109.5q-95 92 -80 234q19 145 136 237.5t284 92.5q169 0 266 -97t109 -278 l-125 -31q-35 295 -268 295q-103 0 -178 -57t-85 -144q-9 -83 48 -141t215 -125q116 -49 175 -81.5t97 -67.5q88 -83 74 -207q-17 -138 -160 -240q46 -51 62 -99.5t8 -111.5q-19 -150 -136.5 -238.5t-296.5 -88.5q-183 0 -287 94t-139 291zM305 629q-4 -38 11 -75t44 -60 q39 -30 75.5 -48.5t207.5 -95.5q115 -52 143 -80q77 83 86 154q9 78 -53 134.5t-246 135.5q-112 49 -159 86q-54 -39 -78.5 -73t-30.5 -78z" />
<glyph unicode="&#xa8;" horiz-adv-x="1024" d="M438 1153l17 135h133l-17 -135h-133zM737 1153l17 135h133l-17 -135h-133z" />
<glyph unicode="&#xa9;" horiz-adv-x="1531" d="M164 682q25 205 134.5 370.5t278.5 259t365 93.5q189 0 333 -95t213 -261t44 -367q-24 -201 -134 -366.5t-278.5 -260t-359.5 -94.5t-336 94.5t-214.5 260t-45.5 366.5zM256 684q-21 -172 40 -318.5t187 -231.5t287 -85q121 0 237.5 50.5t207 135.5t152 203t77.5 248 q15 126 -15.5 246t-99.5 205q-67 83 -174.5 131.5t-220.5 48.5q-171 0 -318.5 -82t-243 -227t-116.5 -324zM549 668q25 209 122 324.5t247 115.5q108 0 168.5 -61.5t82.5 -192.5l-104 -23q-18 193 -158 193q-103 0 -169.5 -91.5t-86.5 -260.5q-20 -156 25 -242t147 -86 q72 0 131.5 53t87.5 142l97 -23q-46 -125 -130 -191.5t-198 -66.5q-148 0 -217.5 108.5t-44.5 301.5z" />
<glyph unicode="&#xaa;" horiz-adv-x="681" d="M250 967q9 68 54.5 111.5t139.5 72.5q40 13 148 39q6 63 -14.5 90t-73.5 27q-91 0 -142 -88l-63 43q76 116 211 116q88 0 135 -47q25 -26 32 -60.5t-1 -92.5l-27 -211q-9 -95 0 -148h-92q-2 29 0 78q-47 -51 -84.5 -70.5t-87.5 -19.5q-69 0 -106 44t-29 116zM334 969 q-6 -40 13 -65t54 -25q76 0 168 106l17 135q-157 -44 -201.5 -70.5t-50.5 -80.5z" />
<glyph unicode="&#xab;" horiz-adv-x="851" d="M119 471l297 375h116l-288 -375l221 -348h-123zM408 471l292 375h121l-293 -375l222 -348h-121z" />
<glyph unicode="&#xac;" horiz-adv-x="1024" d="M119 422l14 125h887l-66 -547h-133l51 422h-753z" />
<glyph unicode="&#xad;" horiz-adv-x="409" d="M51 420l15 129h409l-14 -129h-410z" />
<glyph unicode="&#xae;" horiz-adv-x="1531" d="M164 682q25 205 134.5 370.5t278.5 259t365 93.5q189 0 333 -95t213 -261t44 -367q-24 -201 -134 -366.5t-278.5 -260t-359.5 -94.5t-336 94.5t-214.5 260t-45.5 366.5zM256 684q-21 -172 40 -318.5t187 -231.5t287 -85q121 0 237.5 50.5t207 135.5t152 203t77.5 248 q15 126 -15.5 246t-99.5 205q-67 83 -174.5 131.5t-220.5 48.5q-171 0 -318.5 -82t-243 -227t-116.5 -324zM547 272l100 820h219q112 0 174 -21q60 -22 92.5 -78t24.5 -125q-9 -73 -59 -128t-127 -78l119 -390h-115l-109 369l-8 2h-149l-13 -2l-45 -369h-104zM707 727h108 q74 0 111.5 7t62.5 24q58 41 64 108q12 89 -62 121q-49 17 -162 17h-88z" />
<glyph unicode="&#xaf;" horiz-adv-x="1024" d="M391 1167l15 101h522l-15 -101h-522z" />
<glyph unicode="&#xb0;" d="M330 1077q15 129 116.5 219t229.5 90q129 0 206 -90t62 -221q-15 -124 -116.5 -213.5t-227.5 -89.5q-127 0 -206 89.5t-64 215.5zM422 1079q-11 -89 44.5 -154t143.5 -65q86 0 158.5 64t83.5 149q11 94 -44.5 159.5t-145.5 65.5q-86 0 -157.5 -65.5t-82.5 -153.5z" />
<glyph unicode="&#xb1;" d="M80 -14l10 92h846l-10 -92h-846zM147 541l11 92h377l47 377h92l-47 -377h377l-11 -92h-377l-41 -336h-92l41 336h-377z" />
<glyph unicode="&#xb2;" horiz-adv-x="681" d="M152 547l10 71q15 33 41.5 71t61 76.5t77.5 77.5t88 72q113 83 150 127.5t45 104.5q5 41 -9 74t-43.5 52t-68.5 19q-31 0 -57 -10t-45.5 -27t-37 -41.5t-29 -49.5t-22.5 -56l-92 22q30 75 64 127q38 55 100 87t131 32q104 0 160.5 -64.5t44.5 -168.5q-9 -81 -54 -137 t-178 -150q-77 -57 -143 -119.5t-88 -103.5h401l-10 -86h-497z" />
<glyph unicode="&#xb3;" horiz-adv-x="681" d="M152 700l86 52q39 -72 79.5 -103t100.5 -31q71 0 120 43t58 113q9 80 -36 121t-146 41q-28 0 -74 -6l12 96q33 -4 74 -4q182 0 197 141q7 58 -26 93.5t-95 35.5q-51 0 -93.5 -23.5t-89.5 -78.5l-67 55q113 131 262 131q101 0 159.5 -58t47.5 -149q-18 -135 -148 -186 q74 -37 101 -83.5t18 -121.5q-12 -107 -92 -174t-194 -67q-88 0 -146.5 37t-107.5 126z" />
<glyph unicode="&#xb4;" horiz-adv-x="1024" d="M590 1094l104 247h148l-154 -247h-98z" />
<glyph unicode="&#xb6;" d="M182 999q12 100 68.5 183t142.5 129q107 55 281 55h524l-12 -100h-117l-195 -1594h-137l195 1594h-172l-195 -1594h-137l119 971q-14 -2 -35 -2q-163 0 -256 100.5t-74 257.5z" />
<glyph unicode="&#xb7;" horiz-adv-x="491" d="M213 410l23 190h163l-22 -190h-164z" />
<glyph unicode="&#xb8;" horiz-adv-x="1024" d="M408 -299l26 72q44 -29 82 -29q25 0 42 12t20 31q3 23 -19.5 38t-60.5 15q-25 0 -41 -2l59 162h72l-39 -102q63 -7 91 -35t22 -76q-6 -49 -47 -82t-95 -33q-61 0 -112 29z" />
<glyph unicode="&#xb9;" horiz-adv-x="681" d="M254 547l10 86h125l78 629l-141 -13l8 66l176 59h70l-93 -741h117l-10 -86h-340z" />
<glyph unicode="&#xba;" horiz-adv-x="681" d="M256 1090q17 134 84.5 211t167.5 77q104 0 152.5 -76.5t31.5 -214.5q-17 -131 -84 -204.5t-170 -73.5q-100 0 -149.5 75.5t-32.5 205.5zM338 1096q-12 -105 15 -160t93 -55t109 55.5t55 155.5q12 103 -16 159t-94 56q-65 0 -107.5 -55t-54.5 -156z" />
<glyph unicode="&#xbb;" horiz-adv-x="851" d="M131 123l307 348l-202 375h120l203 -375l-307 -348h-121zM416 123l307 348l-199 375h117l207 -375l-309 -348h-123z" />
<glyph unicode="&#xbc;" horiz-adv-x="1595" d="M254 547l10 86h125l78 629l-141 -13l8 66l176 59h70l-93 -741h117l-10 -86h-340zM369 0l921 1366h103l-922 -1366h-102zM1010 199l10 71l375 559h135l-66 -544h127l-12 -86h-127l-22 -199h-99l23 199h-344zM1122 285h242l53 436z" />
<glyph unicode="&#xbd;" horiz-adv-x="1595" d="M254 547l10 86h125l78 629l-141 -13l8 66l176 59h70l-93 -741h117l-10 -86h-340zM369 0l921 1366h103l-922 -1366h-102zM999 0l9 72q30 67 103.5 148.5t166.5 148.5q113 84 149.5 127.5t42.5 103.5q8 62 -26 103.5t-94 41.5q-39 0 -69.5 -14.5t-53 -43.5t-37 -56.5 t-31.5 -69.5l-92 23q31 79 63 127q40 55 101.5 86.5t130.5 31.5q104 0 161 -64.5t44 -168.5q-9 -82 -54 -138t-178 -149q-78 -57 -143 -119.5t-86 -103.5h401l-10 -86h-498z" />
<glyph unicode="&#xbe;" horiz-adv-x="1595" d="M152 700l86 52q39 -72 79.5 -103t100.5 -31q71 0 120 43t58 113q9 80 -36 121t-146 41q-28 0 -74 -6l12 96q33 -4 74 -4q182 0 197 141q7 58 -26 93.5t-95 35.5q-51 0 -93.5 -23.5t-89.5 -78.5l-67 55q113 131 262 131q101 0 159.5 -58t47.5 -149q-18 -135 -148 -186 q74 -37 101 -83.5t18 -121.5q-12 -107 -92 -174t-194 -67q-88 0 -146.5 37t-107.5 126zM369 0l921 1366h103l-922 -1366h-102zM1008 199l10 71l375 559h135l-66 -544h129l-12 -86h-129l-23 -199h-98l23 199h-344zM1120 285h242l53 436z" />
<glyph unicode="&#xbf;" horiz-adv-x="702" d="M92 -49q9 94 66 180q10 16 18 27t15 20.5t22.5 26.5t28.5 31t46.5 50t63.5 68q45 50 61 90.5t27 126.5l4 45h111q-7 -128 -35 -206q-15 -38 -35 -63.5t-131 -147.5q-120 -134 -131 -242q-9 -78 22.5 -127t92.5 -49q51 0 88 28t92 109l92 -63q-127 -183 -297 -183 q-110 0 -173 79.5t-48 199.5zM438 782l25 191h164l-25 -191h-164z" />
<glyph unicode="&#xc0;" horiz-adv-x="995" d="M6 0l572 1378h206l211 -1378h-149l-64 432h-452l-178 -432h-146zM381 557h383l-86 594q-10 68 -12 113q-5 -19 -25 -72q-50 -124 -143 -350.5t-117 -284.5zM547 1722h153l45 -245h-102z" />
<glyph unicode="&#xc1;" horiz-adv-x="995" d="M6 0l572 1378h206l211 -1378h-149l-64 432h-452l-178 -432h-146zM381 557h383l-86 594q-10 68 -12 113q-5 -19 -25 -72q-50 -124 -143 -350.5t-117 -284.5zM655 1477l105 247h147l-153 -247h-99z" />
<glyph unicode="&#xc2;" horiz-adv-x="995" d="M6 0l572 1378h206l211 -1378h-149l-64 432h-452l-178 -432h-146zM381 557h383l-86 594q-10 68 -12 113q-5 -19 -25 -72q-50 -124 -143 -350.5t-117 -284.5zM408 1477l245 192h138l196 -192h-133l-143 104l-170 -104h-133z" />
<glyph unicode="&#xc3;" horiz-adv-x="995" d="M6 0l572 1378h206l211 -1378h-149l-64 432h-452l-178 -432h-146zM381 557h383l-86 594q-10 68 -12 113q-5 -19 -25 -72q-50 -124 -143 -350.5t-117 -284.5zM432 1513q15 76 69 122t126 46q34 0 57 -7t115 -46q27 -10 51 -10q34 0 59.5 17t34.5 46h88q-9 -70 -67 -120 t-129 -50q-55 0 -129 39q-52 29 -86 29q-67 0 -95 -66h-94z" />
<glyph unicode="&#xc4;" horiz-adv-x="995" d="M6 0l572 1378h206l211 -1378h-149l-64 432h-452l-178 -432h-146zM381 557h383l-86 594q-10 68 -12 113q-5 -19 -25 -72q-50 -124 -143 -350.5t-117 -284.5zM487 1534l19 135h133l-18 -135h-134zM786 1534l19 135h133l-18 -135h-134z" />
<glyph unicode="&#xc5;" horiz-adv-x="995" d="M6 0l572 1378h206l211 -1378h-149l-64 432h-452l-178 -432h-146zM381 557h383l-86 594q-10 68 -12 113q-5 -19 -25 -72q-50 -124 -143 -350.5t-117 -284.5zM561 1638q7 67 62.5 116.5t121.5 49.5q69 0 111.5 -49.5t34.5 -118.5q-9 -68 -63 -115.5t-121 -47.5 q-69 0 -112 48t-34 117zM635 1638q-5 -39 19 -65.5t63 -26.5q37 0 67.5 27.5t34.5 66.5q5 40 -17.5 66.5t-60.5 26.5q-41 0 -71 -27.5t-35 -67.5z" />
<glyph unicode="&#xc6;" horiz-adv-x="1597" d="M-14 0l815 1366h874l-14 -125h-612l-58 -461h445l-15 -125h-444l-66 -530h645l-14 -125h-792l51 432h-418l-254 -432h-143zM461 557h356l86 698h-18z" />
<glyph unicode="&#xc7;" horiz-adv-x="1114" d="M162 653q43 352 197 544t393 192q341 0 385 -406l-142 -35q-27 318 -264 318q-164 0 -273.5 -161t-146.5 -456q-26 -229 25 -364q32 -88 99.5 -137.5t156.5 -49.5q240 0 358 326l129 -31q-54 -184 -187.5 -301.5t-291.5 -118.5l-25 -77q55 -3 85.5 -33.5t25.5 -75.5 q-6 -49 -47.5 -82t-97.5 -33q-60 0 -113 29l27 68q52 -25 90 -25q22 0 37 12t18 31q3 25 -22.5 41.5t-67.5 13.5l-29 -2l47 133q-215 22 -309.5 197.5t-56.5 482.5z" />
<glyph unicode="&#xc8;" horiz-adv-x="999" d="M158 0l166 1366h759l-14 -125h-612l-58 -461h449l-14 -125h-449l-66 -530h642l-15 -125h-788zM590 1722h153l45 -245h-102z" />
<glyph unicode="&#xc9;" horiz-adv-x="999" d="M158 0l166 1366h759l-14 -125h-612l-58 -461h449l-14 -125h-449l-66 -530h642l-15 -125h-788zM680 1477l104 247h148l-154 -247h-98z" />
<glyph unicode="&#xca;" horiz-adv-x="999" d="M158 0l166 1366h759l-14 -125h-612l-58 -461h449l-14 -125h-449l-66 -530h642l-15 -125h-788zM426 1477l246 192h137l197 -192h-134l-143 104l-170 -104h-133z" />
<glyph unicode="&#xcb;" horiz-adv-x="999" d="M158 0l166 1366h759l-14 -125h-612l-58 -461h449l-14 -125h-449l-66 -530h642l-15 -125h-788zM526 1534l19 135h133l-19 -135h-133zM825 1534l19 135h133l-19 -135h-133z" />
<glyph unicode="&#xcc;" horiz-adv-x="460" d="M158 0l166 1366h147l-166 -1366h-147zM272 1722h154l45 -245h-102z" />
<glyph unicode="&#xcd;" horiz-adv-x="460" d="M158 0l166 1366h147l-166 -1366h-147zM377 1477l104 247h148l-154 -247h-98z" />
<glyph unicode="&#xce;" horiz-adv-x="460" d="M135 1477l246 192h137l197 -192h-133l-144 104l-170 -104h-133zM158 0l166 1366h147l-166 -1366h-147z" />
<glyph unicode="&#xcf;" horiz-adv-x="460" d="M158 0l166 1366h147l-166 -1366h-147zM236 1534l18 135h133l-18 -135h-133zM479 1534l19 135h133l-19 -135h-133z" />
<glyph unicode="&#xd0;" horiz-adv-x="1155" d="M115 655l14 125h123l72 586h227q172 0 268.5 -19.5t161.5 -68.5q112 -79 156.5 -229.5t19.5 -358.5q-26 -216 -109 -372.5t-212 -231.5q-70 -40 -172 -63t-215 -23h-291l80 655h-123zM319 125h99q139 0 195.5 9.5t127.5 43.5q109 53 178.5 181t92.5 321q22 177 -0.5 292 t-91.5 181q-94 88 -340 88h-123l-58 -461h353l-15 -125h-352z" />
<glyph unicode="&#xd1;" horiz-adv-x="1196" d="M158 0l166 1366h204l365 -932q27 -81 55 -188q-8 130 15 338l96 782h147l-166 -1366h-120l-422 1102q-15 34 -25 63l-16 60q0 1 -3 8t-6 16t-6 19q0 -149 -24 -334l-113 -934h-147zM520 1513q15 76 69 122t126 46q34 0 57 -7t115 -46q27 -10 51 -10q34 0 59.5 17t34.5 46 h88q-9 -70 -67 -120t-129 -50q-55 0 -129 39q-52 29 -86 29q-67 0 -95 -66h-94z" />
<glyph unicode="&#xd2;" horiz-adv-x="1177" d="M166 688q40 323 200 514t390 191q129 0 228.5 -63t150.5 -177q78 -182 45 -463q-41 -330 -201 -522.5t-395 -192.5q-233 0 -346 192.5t-72 520.5zM307 676q-34 -276 43 -428t252 -152q173 0 286 156.5t150 449.5q17 139 11 226.5t-37 161.5q-38 87 -107.5 134.5 t-159.5 47.5q-81 0 -160 -43t-132 -115q-109 -153 -146 -438zM631 1722h153l45 -245h-102z" />
<glyph unicode="&#xd3;" horiz-adv-x="1177" d="M166 688q40 323 200 514t390 191q129 0 228.5 -63t150.5 -177q78 -182 45 -463q-41 -330 -201 -522.5t-395 -192.5q-233 0 -346 192.5t-72 520.5zM307 676q-34 -276 43 -428t252 -152q173 0 286 156.5t150 449.5q17 139 11 226.5t-37 161.5q-38 87 -107.5 134.5 t-159.5 47.5q-81 0 -160 -43t-132 -115q-109 -153 -146 -438zM727 1477l104 247h148l-154 -247h-98z" />
<glyph unicode="&#xd4;" horiz-adv-x="1177" d="M166 688q40 323 200 514t390 191q129 0 228.5 -63t150.5 -177q78 -182 45 -463q-41 -330 -201 -522.5t-395 -192.5q-233 0 -346 192.5t-72 520.5zM307 676q-34 -276 43 -428t252 -152q173 0 286 156.5t150 449.5q17 139 11 226.5t-37 161.5q-38 87 -107.5 134.5 t-159.5 47.5q-81 0 -160 -43t-132 -115q-109 -153 -146 -438zM485 1477l246 192h137l197 -192h-133l-144 104l-170 -104h-133z" />
<glyph unicode="&#xd5;" horiz-adv-x="1177" d="M166 688q40 323 200 514t390 191q129 0 228.5 -63t150.5 -177q78 -182 45 -463q-41 -330 -201 -522.5t-395 -192.5q-233 0 -346 192.5t-72 520.5zM307 676q-34 -276 43 -428t252 -152q173 0 286 156.5t150 449.5q17 139 11 226.5t-37 161.5q-38 87 -107.5 134.5 t-159.5 47.5q-81 0 -160 -43t-132 -115q-109 -153 -146 -438zM510 1513q15 76 69 122t126 46q34 0 57 -7t115 -46q27 -10 51 -10q34 0 59.5 17t34.5 46h88q-9 -70 -67.5 -120t-129.5 -50q-55 0 -129 39q-52 29 -86 29q-66 0 -94 -66h-94z" />
<glyph unicode="&#xd6;" horiz-adv-x="1177" d="M166 688q40 323 200 514t390 191q129 0 228.5 -63t150.5 -177q78 -182 45 -463q-41 -330 -201 -522.5t-395 -192.5q-233 0 -346 192.5t-72 520.5zM307 676q-34 -276 43 -428t252 -152q173 0 286 156.5t150 449.5q17 139 11 226.5t-37 161.5q-38 87 -107.5 134.5 t-159.5 47.5q-81 0 -160 -43t-132 -115q-109 -153 -146 -438zM565 1534l19 135h133l-19 -135h-133zM864 1534l19 135h133l-19 -135h-133z" />
<glyph unicode="&#xd7;" d="M158 272l354 316l-276 315l73 66l277 -316l352 316l57 -66l-352 -315l275 -316l-74 -65l-275 315l-354 -315z" />
<glyph unicode="&#xd8;" horiz-adv-x="1175" d="M49 10l160 199q-43 105 -53.5 215t6.5 254q44 342 200 524q75 91 178.5 140t217.5 49q188 0 299 -129l129 155l65 -65l-137 -168q104 -179 66 -500q-41 -332 -200.5 -522.5t-395.5 -190.5q-207 0 -324 156l-147 -178zM301 674q-22 -176 12 -340l660 817q-87 115 -225 115 q-116 0 -212.5 -74.5t-156.5 -208.5q-57 -139 -78 -309zM348 240q55 -77 112 -110.5t138 -33.5q172 0 286.5 156.5t149.5 439.5q26 221 -18 373z" />
<glyph unicode="&#xd9;" horiz-adv-x="1173" d="M203 489l106 877h148l-109 -887q-23 -188 14 -262q56 -121 236 -121q88 0 158.5 33.5t111.5 95.5q50 76 70 236l111 905h147l-109 -887q-15 -129 -38.5 -198.5t-71.5 -130.5q-68 -85 -173 -130t-235 -45q-233 0 -327 148q-41 66 -49.5 142t10.5 224zM649 1722h154 l45 -245h-103z" />
<glyph unicode="&#xda;" horiz-adv-x="1173" d="M203 489l106 877h148l-109 -887q-23 -188 14 -262q56 -121 236 -121q88 0 158.5 33.5t111.5 95.5q50 76 70 236l111 905h147l-109 -887q-15 -129 -38.5 -198.5t-71.5 -130.5q-68 -85 -173 -130t-235 -45q-233 0 -327 148q-41 66 -49.5 142t10.5 224zM737 1477l105 247 h147l-153 -247h-99z" />
<glyph unicode="&#xdb;" horiz-adv-x="1173" d="M203 489l106 877h148l-109 -887q-23 -188 14 -262q56 -121 236 -121q88 0 158.5 33.5t111.5 95.5q50 76 70 236l111 905h147l-109 -887q-15 -129 -38.5 -198.5t-71.5 -130.5q-68 -85 -173 -130t-235 -45q-233 0 -327 148q-41 66 -49.5 142t10.5 224zM498 1477l245 192 h138l196 -192h-133l-143 104l-170 -104h-133z" />
<glyph unicode="&#xdc;" horiz-adv-x="1173" d="M203 489l106 877h148l-109 -887q-23 -188 14 -262q56 -121 236 -121q88 0 158.5 33.5t111.5 95.5q50 76 70 236l111 905h147l-109 -887q-15 -129 -38.5 -198.5t-71.5 -130.5q-68 -85 -173 -130t-235 -45q-233 0 -327 148q-41 66 -49.5 142t10.5 224zM571 1534l19 135h133 l-18 -135h-134zM870 1534l19 135h133l-18 -135h-134z" />
<glyph unicode="&#xdd;" horiz-adv-x="903" d="M145 1366h158l225 -575q2 -14 10 -37t11 -37q8 22 35 74l348 575h158l-486 -766l-72 -600h-147l70 578zM590 1477l104 247h148l-154 -247h-98z" />
<glyph unicode="&#xde;" horiz-adv-x="1030" d="M158 0l166 1366h147l-25 -205h197q94 0 149 -7.5t107 -27.5q95 -38 144 -133t34 -215q-18 -168 -153 -278q-69 -57 -145 -78t-214 -21h-211l-49 -401h-147zM369 526h200q99 0 154 13t100 45q95 67 111 194q9 79 -21 143t-88 87q-67 28 -215 28h-178z" />
<glyph unicode="&#xdf;" horiz-adv-x="915" d="M129 0l129 1063q9 71 23 110.5t45 79.5q46 63 122 98t164 35q131 0 197 -76.5t49 -209.5q-10 -88 -47 -140t-115 -90q119 -43 172 -159.5t31 -288.5q-26 -204 -142.5 -323t-291.5 -119q-60 0 -127 20l12 113q23 -15 43 -20t58 -5q97 0 161 39q62 38 104 118.5t54 184.5 q22 162 -37 252q-32 52 -90.5 74t-163.5 22q-31 0 -47 -2l12 94q14 -2 33 -2q109 0 173.5 55t76.5 158q12 92 -25 143.5t-114 51.5q-55 0 -97.5 -25.5t-64.5 -70.5q-29 -64 -43 -195l-121 -985h-133z" />
<glyph unicode="&#xe0;" horiz-adv-x="899" d="M96 258q15 121 94 197t244 127q54 17 281 73q7 83 -6 127q-13 46 -58 72.5t-108 26.5q-79 0 -146.5 -40.5t-113.5 -115.5l-97 70q134 196 369 196q154 0 238 -84q41 -43 53 -103.5t0 -164.5l-47 -383q-18 -154 -4 -256h-146q-3 54 4 156q-95 -101 -163.5 -138.5 t-159.5 -37.5q-121 0 -185 76t-49 202zM225 262q-9 -75 28.5 -123.5t106.5 -48.5q143 0 310 197l30 260q-219 -60 -286 -88q-94 -38 -137 -83t-52 -114zM436 1341h154l45 -245h-103z" />
<glyph unicode="&#xe1;" horiz-adv-x="899" d="M96 258q15 121 94 197t244 127q54 17 281 73q7 83 -6 127q-13 46 -58 72.5t-108 26.5q-79 0 -146.5 -40.5t-113.5 -115.5l-97 70q134 196 369 196q154 0 238 -84q41 -43 53 -103.5t0 -164.5l-47 -383q-18 -154 -4 -256h-146q-3 54 4 156q-95 -101 -163.5 -138.5 t-159.5 -37.5q-121 0 -185 76t-49 202zM225 262q-9 -75 28.5 -123.5t106.5 -48.5q143 0 310 197l30 260q-219 -60 -286 -88q-94 -38 -137 -83t-52 -114zM537 1094l104 247h147l-153 -247h-98z" />
<glyph unicode="&#xe2;" horiz-adv-x="899" d="M96 258q15 121 94 197t244 127q54 17 281 73q7 83 -6 127q-13 46 -58 72.5t-108 26.5q-79 0 -146.5 -40.5t-113.5 -115.5l-97 70q134 196 369 196q154 0 238 -84q41 -43 53 -103.5t0 -164.5l-47 -383q-18 -154 -4 -256h-146q-3 54 4 156q-95 -101 -163.5 -138.5 t-159.5 -37.5q-121 0 -185 76t-49 202zM225 262q-9 -75 28.5 -123.5t106.5 -48.5q143 0 310 197l30 260q-219 -60 -286 -88q-94 -38 -137 -83t-52 -114zM340 1096l199 245h135l137 -245h-133l-82 157l-123 -157h-133z" />
<glyph unicode="&#xe3;" horiz-adv-x="899" d="M96 258q15 121 94 197t244 127q54 17 281 73q7 83 -6 127q-13 46 -58 72.5t-108 26.5q-79 0 -146.5 -40.5t-113.5 -115.5l-97 70q134 196 369 196q154 0 238 -84q41 -43 53 -103.5t0 -164.5l-47 -383q-18 -154 -4 -256h-146q-3 54 4 156q-95 -101 -163.5 -138.5 t-159.5 -37.5q-121 0 -185 76t-49 202zM225 262q-9 -75 28.5 -123.5t106.5 -48.5q143 0 310 197l30 260q-219 -60 -286 -88q-94 -38 -137 -83t-52 -114zM332 1130q13 76 58.5 122t105.5 46q30 0 52 -7t118 -46q27 -10 47 -10q49 0 61 63h88q-7 -71 -55.5 -120.5 t-108.5 -49.5q-44 0 -125 37q-59 29 -79 29q-44 0 -68 -64h-94z" />
<glyph unicode="&#xe4;" horiz-adv-x="899" d="M96 258q15 121 94 197t244 127q54 17 281 73q7 83 -6 127q-13 46 -58 72.5t-108 26.5q-79 0 -146.5 -40.5t-113.5 -115.5l-97 70q134 196 369 196q154 0 238 -84q41 -43 53 -103.5t0 -164.5l-47 -383q-18 -154 -4 -256h-146q-3 54 4 156q-95 -101 -163.5 -138.5 t-159.5 -37.5q-121 0 -185 76t-49 202zM225 262q-9 -75 28.5 -123.5t106.5 -48.5q143 0 310 197l30 260q-219 -60 -286 -88q-94 -38 -137 -83t-52 -114zM389 1153l17 135h133l-17 -135h-133zM688 1153l17 135h133l-17 -135h-133z" />
<glyph unicode="&#xe5;" horiz-adv-x="899" d="M96 258q15 121 94 197t244 127q54 17 281 73q7 83 -6 127q-13 46 -58 72.5t-108 26.5q-79 0 -146.5 -40.5t-113.5 -115.5l-97 70q134 196 369 196q154 0 238 -84q41 -43 53 -103.5t0 -164.5l-47 -383q-18 -154 -4 -256h-146q-3 54 4 156q-95 -101 -163.5 -138.5 t-159.5 -37.5q-121 0 -185 76t-49 202zM225 262q-9 -75 28.5 -123.5t106.5 -48.5q143 0 310 197l30 260q-219 -60 -286 -88q-94 -38 -137 -83t-52 -114zM432 1255q7 69 62.5 118.5t121.5 49.5q69 0 111.5 -49.5t34.5 -118.5q-9 -69 -62.5 -117t-121.5 -48q-69 0 -112 48 t-34 117zM506 1255q-5 -39 19 -65.5t63 -26.5q37 0 67.5 27.5t34.5 66.5q5 41 -16.5 68t-59.5 27q-41 0 -72.5 -28t-35.5 -69z" />
<glyph unicode="&#xe6;" horiz-adv-x="1437" d="M84 244q10 81 43.5 136.5t107 103t184.5 84t288 75.5q10 91 -2 131q-12 47 -58.5 77t-107.5 30q-58 0 -115.5 -26t-99.5 -69q-22 -22 -56 -71l-94 71q80 106 169.5 155.5t201.5 49.5q146 0 215 -78q19 -21 28 -44t19 -70q122 192 321 192q117 0 193 -71.5t98 -200.5 q12 -91 -4 -252h-606q-11 -185 49 -281t186 -96q74 0 133.5 39.5t135.5 140.5l84 -63q-164 -227 -375 -227q-106 0 -187.5 55t-119.5 153q-202 -208 -402 -208q-117 0 -180 72.5t-49 191.5zM211 246q-8 -68 32 -114t107 -46q70 0 151.5 48.5t188.5 154.5q-17 73 -2 211l6 39 q-190 -49 -287.5 -89t-142 -86.5t-53.5 -117.5zM823 580h469q10 146 -37 223.5t-145 77.5q-101 0 -176.5 -79.5t-110.5 -221.5z" />
<glyph unicode="&#xe7;" horiz-adv-x="837" d="M123 471q28 233 152.5 376.5t297.5 143.5q116 0 189.5 -66.5t101.5 -195.5l-125 -41q-17 92 -65.5 141.5t-122.5 49.5q-110 0 -189 -110t-102 -296q-19 -155 16 -250q22 -60 73.5 -96.5t113.5 -36.5q141 0 254 191l98 -45q-62 -122 -147 -183.5t-205 -70.5l-29 -82 q58 -7 87 -37t24 -78q-6 -48 -47 -81.5t-95 -33.5q-67 0 -112 31l24 70q51 -29 84 -29q23 0 41 12t19 29q4 30 -22.5 42.5t-94.5 14.5l49 142q-106 17 -170 84q-62 68 -87.5 173.5t-10.5 231.5z" />
<glyph unicode="&#xe8;" horiz-adv-x="882" d="M125 494q28 225 149 361t293 136q170 0 244 -134.5t45 -389.5h-598q-20 -172 40 -274.5t181 -102.5q80 0 141 41.5t136 147.5l86 -64q-72 -114 -170 -174.5t-211 -60.5q-182 0 -273.5 140.5t-62.5 373.5zM272 580h455q17 137 -31.5 219t-146.5 82q-62 0 -120 -35t-93 -94 q-26 -39 -40 -75t-24 -97zM436 1341h154l45 -245h-103z" />
<glyph unicode="&#xe9;" horiz-adv-x="882" d="M125 494q28 225 149 361t293 136q170 0 244 -134.5t45 -389.5h-598q-20 -172 40 -274.5t181 -102.5q80 0 141 41.5t136 147.5l86 -64q-72 -114 -170 -174.5t-211 -60.5q-182 0 -273.5 140.5t-62.5 373.5zM272 580h455q17 137 -31.5 219t-146.5 82q-62 0 -120 -35t-93 -94 q-26 -39 -40 -75t-24 -97zM532 1094l105 247h147l-153 -247h-99z" />
<glyph unicode="&#xea;" horiz-adv-x="882" d="M125 494q28 225 149 361t293 136q170 0 244 -134.5t45 -389.5h-598q-20 -172 40 -274.5t181 -102.5q80 0 141 41.5t136 147.5l86 -64q-72 -114 -170 -174.5t-211 -60.5q-182 0 -273.5 140.5t-62.5 373.5zM272 580h455q17 137 -31.5 219t-146.5 82q-62 0 -120 -35t-93 -94 q-26 -39 -40 -75t-24 -97zM358 1096l199 245h135l137 -245h-133l-82 157l-122 -157h-134z" />
<glyph unicode="&#xeb;" horiz-adv-x="882" d="M125 494q28 225 149 361t293 136q170 0 244 -134.5t45 -389.5h-598q-20 -172 40 -274.5t181 -102.5q80 0 141 41.5t136 147.5l86 -64q-72 -114 -170 -174.5t-211 -60.5q-182 0 -273.5 140.5t-62.5 373.5zM272 580h455q17 137 -31.5 219t-146.5 82q-62 0 -120 -35t-93 -94 q-26 -39 -40 -75t-24 -97zM381 1153l16 135h133l-16 -135h-133zM680 1153l16 135h133l-16 -135h-133z" />
<glyph unicode="&#xec;" horiz-adv-x="393" d="M129 0l119 973h133l-119 -973h-133zM190 1341h154l45 -245h-102z" />
<glyph unicode="&#xed;" horiz-adv-x="393" d="M129 0l119 973h133l-119 -973h-133zM287 1094l104 247h148l-154 -247h-98z" />
<glyph unicode="&#xee;" horiz-adv-x="393" d="M102 1096l199 245h135l137 -245h-133l-82 157l-122 -157h-134zM131 0l119 973h133l-119 -973h-133z" />
<glyph unicode="&#xef;" horiz-adv-x="393" d="M129 0l119 973h133l-119 -973h-133zM156 1153l16 135h133l-16 -135h-133zM399 1153l17 135h133l-17 -135h-133z" />
<glyph unicode="&#xf0;" horiz-adv-x="899" d="M123 477q27 224 145 369q116 145 314 145q44 0 84 -12l-78 215l-152 -76l-30 76l157 80l-53 147l78 41l63 -143l164 82l29 -70l-160 -84l113 -266q72 -168 84 -217q31 -106 12 -272q-31 -249 -146 -382t-301 -133q-180 0 -266 133.5t-57 366.5zM254 489 q-25 -194 28.5 -296.5t178.5 -102.5q121 0 200.5 102.5t102.5 290.5q25 189 -30.5 293.5t-178.5 104.5q-59 0 -114.5 -30.5t-92.5 -82.5q-73 -98 -94 -279z" />
<glyph unicode="&#xf1;" horiz-adv-x="952" d="M129 0l119 973h133l-8 -68l-4 -22l-2 -21l-5 -43q166 172 334 172q65 0 117.5 -29.5t75.5 -80.5q18 -38 20 -89t-10 -153l-78 -639h-133l78 639q11 101 6 143q-4 42 -39.5 70.5t-83.5 28.5q-61 0 -129.5 -37.5t-171.5 -126.5l-86 -717h-133zM391 1130q13 76 58.5 122 t105.5 46q30 0 52 -7t118 -46q27 -10 47 -10q50 0 62 63h88q-7 -71 -55.5 -120.5t-108.5 -49.5q-44 0 -125 37q-59 29 -80 29q-44 0 -68 -64h-94z" />
<glyph unicode="&#xf2;" horiz-adv-x="899" d="M123 479q29 238 148.5 375t297.5 137q186 0 270.5 -134.5t53.5 -381.5q-29 -234 -147 -364.5t-300 -130.5q-180 0 -265.5 132.5t-57.5 366.5zM254 489q-25 -194 28.5 -296.5t178.5 -102.5q121 0 200.5 102.5t102.5 290.5q25 189 -30.5 293.5t-178.5 104.5 q-59 0 -114.5 -30.5t-92.5 -82.5q-73 -98 -94 -279zM444 1341h154l45 -245h-102z" />
<glyph unicode="&#xf3;" horiz-adv-x="899" d="M123 479q29 238 148.5 375t297.5 137q186 0 270.5 -134.5t53.5 -381.5q-29 -234 -147 -364.5t-300 -130.5q-180 0 -265.5 132.5t-57.5 366.5zM254 489q-25 -194 28.5 -296.5t178.5 -102.5q121 0 200.5 102.5t102.5 290.5q25 189 -30.5 293.5t-178.5 104.5 q-59 0 -114.5 -30.5t-92.5 -82.5q-73 -98 -94 -279zM541 1094l104 247h148l-154 -247h-98z" />
<glyph unicode="&#xf4;" horiz-adv-x="899" d="M123 479q29 238 148.5 375t297.5 137q186 0 270.5 -134.5t53.5 -381.5q-29 -234 -147 -364.5t-300 -130.5q-180 0 -265.5 132.5t-57.5 366.5zM254 489q-25 -194 28.5 -296.5t178.5 -102.5q121 0 200.5 102.5t102.5 290.5q25 189 -30.5 293.5t-178.5 104.5 q-59 0 -114.5 -30.5t-92.5 -82.5q-73 -98 -94 -279zM354 1096l199 245h135l137 -245h-133l-82 157l-123 -157h-133z" />
<glyph unicode="&#xf5;" horiz-adv-x="899" d="M123 479q29 238 148.5 375t297.5 137q186 0 270.5 -134.5t53.5 -381.5q-29 -234 -147 -364.5t-300 -130.5q-180 0 -265.5 132.5t-57.5 366.5zM254 489q-25 -194 28.5 -296.5t178.5 -102.5q121 0 200.5 102.5t102.5 290.5q25 189 -30.5 293.5t-178.5 104.5 q-59 0 -114.5 -30.5t-92.5 -82.5q-73 -98 -94 -279zM352 1130q13 76 58.5 122t105.5 46q30 0 52 -7t118 -46q27 -10 47 -10q50 0 62 63h88q-7 -71 -55.5 -120.5t-108.5 -49.5q-44 0 -125 37q-59 29 -80 29q-44 0 -68 -64h-94z" />
<glyph unicode="&#xf6;" horiz-adv-x="899" d="M123 479q29 238 148.5 375t297.5 137q186 0 270.5 -134.5t53.5 -381.5q-29 -234 -147 -364.5t-300 -130.5q-180 0 -265.5 132.5t-57.5 366.5zM254 489q-25 -194 28.5 -296.5t178.5 -102.5q121 0 200.5 102.5t102.5 290.5q25 189 -30.5 293.5t-178.5 104.5 q-59 0 -114.5 -30.5t-92.5 -82.5q-73 -98 -94 -279zM389 1153l17 135h133l-17 -135h-133zM688 1153l17 135h133l-17 -135h-133z" />
<glyph unicode="&#xf7;" d="M147 541l11 92h846l-11 -92h-846zM432 180l27 219h190l-26 -219h-191zM504 766l28 219h191l-29 -219h-190z" />
<glyph unicode="&#xf8;" horiz-adv-x="903" d="M106 0l78 113q-90 129 -59 374q28 232 148.5 368t297.5 136q134 0 226 -86l86 111l57 -60l-90 -118q72 -129 45 -363q-29 -235 -146.5 -365t-299.5 -130q-121 0 -209 61l-76 -94zM250 477q-17 -158 14 -264l457 592q-38 40 -75.5 57t-86.5 17q-123 0 -204.5 -106.5 t-104.5 -295.5zM311 139q68 -51 148 -51q124 0 205 101.5t104 283.5q18 153 -6 248z" />
<glyph unicode="&#xf9;" horiz-adv-x="950" d="M174 375l74 598h133l-74 -598q-19 -150 0 -205q27 -80 107 -80q70 0 133.5 36t169.5 136l88 711h133l-119 -973h-133l19 154q-89 -92 -165.5 -133t-158.5 -41q-64 0 -115.5 23.5t-77.5 64.5q-43 66 -14 307zM483 1341h154l45 -245h-102z" />
<glyph unicode="&#xfa;" horiz-adv-x="950" d="M174 375l74 598h133l-74 -598q-19 -150 0 -205q27 -80 107 -80q70 0 133.5 36t169.5 136l88 711h133l-119 -973h-133l19 154q-89 -92 -165.5 -133t-158.5 -41q-64 0 -115.5 23.5t-77.5 64.5q-43 66 -14 307zM580 1094l104 247h147l-153 -247h-98z" />
<glyph unicode="&#xfb;" horiz-adv-x="950" d="M174 375l74 598h133l-74 -598q-19 -150 0 -205q27 -80 107 -80q70 0 133.5 36t169.5 136l88 711h133l-119 -973h-133l19 154q-89 -92 -165.5 -133t-158.5 -41q-64 0 -115.5 23.5t-77.5 64.5q-43 66 -14 307zM387 1096l199 245h135l137 -245h-133l-82 157l-123 -157h-133z " />
<glyph unicode="&#xfc;" horiz-adv-x="950" d="M174 375l74 598h133l-74 -598q-19 -150 0 -205q27 -80 107 -80q70 0 133.5 36t169.5 136l88 711h133l-119 -973h-133l19 154q-89 -92 -165.5 -133t-158.5 -41q-64 0 -115.5 23.5t-77.5 64.5q-43 66 -14 307zM414 1153l16 135h133l-16 -135h-133zM713 1153l16 135h133 l-16 -135h-133z" />
<glyph unicode="&#xfd;" horiz-adv-x="774" d="M-45 -315l29 116q60 -18 94 -18q72 0 130.5 49.5t125.5 167.5l-207 973h129l139 -635q24 -123 29 -154q19 70 59 154l285 635h133l-412 -910q-69 -153 -143 -253q-56 -73 -118.5 -107.5t-143.5 -34.5q-40 0 -129 17zM494 1094l104 247h147l-153 -247h-98z" />
<glyph unicode="&#xfe;" horiz-adv-x="946" d="M88 -328l207 1694h133l-61 -506q80 72 141 101.5t133 29.5q162 0 243.5 -134.5t53.5 -356.5q-28 -232 -149 -377.5t-287 -145.5q-67 0 -115.5 29.5t-112.5 106.5l-53 -441h-133zM289 223q56 -74 103.5 -104.5t107.5 -30.5q123 0 204.5 109.5t106.5 304.5q15 131 -6 214 t-82 128q-50 37 -113 37q-64 0 -123.5 -34t-136.5 -114z" />
<glyph unicode="&#xff;" horiz-adv-x="774" d="M-45 -315l29 116q60 -18 94 -18q72 0 130.5 49.5t125.5 167.5l-207 973h129l139 -635q24 -123 29 -154q19 70 59 154l285 635h133l-412 -910q-69 -153 -143 -253q-56 -73 -118.5 -107.5t-143.5 -34.5q-40 0 -129 17zM334 1153l16 135h133l-16 -135h-133zM633 1153l16 135 h133l-16 -135h-133z" />
<glyph unicode="&#x152;" horiz-adv-x="1775" d="M166 698q40 325 196.5 511t391.5 186q122 0 207.5 -51t123.5 -146l21 168h749l-14 -125h-610l-57 -461h440l-15 -125h-440l-65 -530h641l-15 -125h-780l18 156q-153 -181 -370 -181q-235 0 -348.5 195t-73.5 528zM311 702q-35 -287 41.5 -446.5t251.5 -159.5 q173 0 281 149t143 437q33 262 -29 410q-34 85 -103 132.5t-157 47.5q-82 0 -159 -41.5t-127 -112.5q-112 -152 -142 -416z" />
<glyph unicode="&#x153;" horiz-adv-x="1515" d="M123 479q29 238 150 375t302 137q222 0 299 -196q73 103 154 149.5t186 46.5q117 0 190.5 -64.5t98.5 -187.5q18 -87 2 -272h-602q-22 -170 40.5 -273.5t186.5 -103.5q73 0 134 40.5t133 137.5l78 -61q-73 -110 -169 -168.5t-202 -58.5q-217 0 -305 196 q-139 -196 -344 -196q-185 0 -273 132.5t-59 366.5zM254 485q-25 -188 30 -291.5t177 -103.5q124 0 204 101t103 286q23 192 -33 298t-180 106q-68 0 -130 -39.5t-99 -106.5q-54 -96 -72 -250zM918 580h458q12 146 -34 223.5t-146 77.5q-99 0 -171.5 -79t-106.5 -222z" />
<glyph unicode="&#x178;" horiz-adv-x="903" d="M145 1366h158l225 -575q2 -14 10 -37t11 -37q8 22 35 74l348 575h158l-486 -766l-72 -600h-147l70 578zM436 1534l19 135h133l-19 -135h-133zM735 1534l19 135h133l-19 -135h-133z" />
<glyph unicode="&#x2c6;" horiz-adv-x="1024" d="M410 1096l198 245h135l138 -245h-133l-82 157l-123 -157h-133z" />
<glyph unicode="&#x2dc;" horiz-adv-x="1024" d="M393 1130q13 76 58.5 122t105.5 46q30 0 52 -7t118 -46q27 -10 47 -10q50 0 62 63h88q-7 -71 -55.5 -120.5t-108.5 -49.5q-44 0 -125 37q-59 29 -80 29q-44 0 -68 -64h-94z" />
<glyph unicode="&#x2000;" horiz-adv-x="902" />
<glyph unicode="&#x2001;" horiz-adv-x="1804" />
<glyph unicode="&#x2002;" horiz-adv-x="902" />
<glyph unicode="&#x2003;" horiz-adv-x="1804" />
<glyph unicode="&#x2004;" horiz-adv-x="601" />
<glyph unicode="&#x2005;" horiz-adv-x="451" />
<glyph unicode="&#x2006;" horiz-adv-x="300" />
<glyph unicode="&#x2007;" horiz-adv-x="300" />
<glyph unicode="&#x2008;" horiz-adv-x="225" />
<glyph unicode="&#x2009;" horiz-adv-x="360" />
<glyph unicode="&#x200a;" horiz-adv-x="100" />
<glyph unicode="&#x2010;" horiz-adv-x="409" d="M51 420l15 129h409l-14 -129h-410z" />
<glyph unicode="&#x2011;" horiz-adv-x="409" d="M51 420l15 129h409l-14 -129h-410z" />
<glyph unicode="&#x2012;" horiz-adv-x="409" d="M51 420l15 129h409l-14 -129h-410z" />
<glyph unicode="&#x2013;" d="M133 420l14 129h846l-14 -129h-846z" />
<glyph unicode="&#x2014;" horiz-adv-x="1228" d="M51 420l15 129h1228l-14 -129h-1229z" />
<glyph unicode="&#x2018;" horiz-adv-x="491" d="M274 901l23 191l129 274h94l-127 -274h68l-23 -191h-164z" />
<glyph unicode="&#x2019;" horiz-adv-x="491" d="M248 901l127 275h-68l23 190h164l-23 -190l-129 -275h-94z" />
<glyph unicode="&#x201a;" horiz-adv-x="491" d="M102 -272l129 272h-67l22 190h164l-22 -190l-131 -272h-95z" />
<glyph unicode="&#x201c;" horiz-adv-x="819" d="M274 901l23 191l129 274h94l-127 -274h68l-23 -191h-164zM602 901l23 191l129 274h94l-127 -274h67l-22 -191h-164z" />
<glyph unicode="&#x201d;" horiz-adv-x="819" d="M248 901l127 275h-68l23 190h164l-23 -190l-129 -275h-94zM575 901l127 275h-67l22 190h164l-22 -190l-129 -275h-95z" />
<glyph unicode="&#x201e;" horiz-adv-x="819" d="M102 -272l129 272h-67l22 190h164l-22 -190l-131 -272h-95zM430 -272l129 272h-67l22 190h164l-23 -190l-131 -272h-94z" />
<glyph unicode="&#x2022;" horiz-adv-x="1366" d="M485 694q15 120 109 202.5t215 82.5q114 0 186 -83.5t58 -199.5q-13 -118 -106.5 -201t-211.5 -83q-117 0 -190 82.5t-60 199.5z" />
<glyph unicode="&#x2026;" horiz-adv-x="1474" d="M164 0l22 190h164l-22 -190h-164zM655 0l23 190h164l-23 -190h-164zM1147 0l22 190h164l-22 -190h-164z" />
<glyph unicode="&#x202f;" horiz-adv-x="360" />
<glyph unicode="&#x2039;" horiz-adv-x="567" d="M119 471l297 375h116l-288 -375l221 -348h-123z" />
<glyph unicode="&#x203a;" horiz-adv-x="567" d="M131 123l309 348l-198 375h114l207 -375l-309 -348h-123z" />
<glyph unicode="&#x205f;" horiz-adv-x="451" />
<glyph unicode="&#x20ac;" horiz-adv-x="1296" d="M141 500l68 123h125q0 60 16 122h-178l68 123h139q33 119 70 199q79 160 201 243t276 83q167 0 263.5 -101t125.5 -307l-146 -35q-30 322 -260 322q-135 0 -233.5 -102.5t-155.5 -301.5h500l-68 -123h-458q-6 -26 -15 -79q0 -4 -1 -18t-1 -25h410l-70 -123h-348 q0 -189 78.5 -296.5t216.5 -107.5q174 0 299 189q40 65 63 141l136 -33q-70 -199 -204.5 -308.5t-309.5 -109.5q-203 0 -310.5 133.5t-111.5 391.5h-185z" />
<glyph unicode="&#x2122;" horiz-adv-x="1380" d="M158 1282l10 84h547l-10 -84h-226l-84 -694h-100l84 694h-221zM707 588l94 778h162l84 -477q13 -95 16 -119q7 22 41 113l199 483h159l-94 -778h-100l75 614l9 80q-7 -24 -13 -33q-2 -6 -5 -14l-4.5 -12t-2.5 -6l-254 -629h-65l-109 637l-6 26l-2 9q-2 8 -2 14l-2 -19 q0 -11 -1 -23l-1 -13l-78 -631h-100z" />
</font>
</defs>
</svg>
