<?xml version="1.0" standalone="no"?>
<!DOCTYPE svg PUBLIC "-//W3C//DTD SVG 1.1//EN" "http://www.w3.org/Graphics/SVG/1.1/DTD/svg11.dtd" >
<svg xmlns="http://www.w3.org/2000/svg">
<metadata></metadata>
<defs>
<font id="NewsGothicFSBookBold" horiz-adv-x="1091" >
<font-face units-per-em="2048" ascent="1638" descent="-410" />
<missing-glyph horiz-adv-x="512" />
<glyph unicode="&#xfb01;" horiz-adv-x="1067" d="M6 791v165h150v88q0 105 22 165.5t76 103.5q41 32 94 45.5t135 13.5q43 0 111 -6v-190q-67 16 -98 16q-60 0 -86 -41q-15 -24 -15 -107v-88l555 2v-958h-239v791h-316v-791h-239v791h-150zM711 1145v221h239v-221h-239z" />
<glyph unicode="&#xfb02;" horiz-adv-x="1067" d="M6 791v165h150v88q0 105 22 165.5t76 103.5q41 32 94 45.5t135 13.5q43 0 111 -6v-190q-67 16 -96 16q-62 0 -88 -41q-15 -24 -15 -107v-88h199v-165h-199v-791h-239v791h-150zM711 0v1366h239v-1366h-239z" />
<glyph unicode="&#xfb03;" horiz-adv-x="1622" d="M6 791v165h150v88q0 105 22 165.5t76 103.5q41 32 94 45.5t135 13.5q43 0 111 -6v-190q-67 16 -96 16q-62 0 -88 -41q-15 -24 -15 -107v-88h316v88q0 105 22 165.5t76 103.5q41 32 94 45.5t135 13.5q44 0 111 -6v-190q-67 16 -96 16q-62 0 -88 -41q-15 -24 -15 -107v-88 l555 2v-958h-239v791h-316v-791h-239v791h-316v-791h-239v791h-150zM1266 1145v221h239v-221h-239z" />
<glyph unicode="&#xfb04;" horiz-adv-x="1622" d="M6 791v165h150v88q0 105 22 165.5t76 103.5q41 32 94 45.5t135 13.5q43 0 111 -6v-190q-67 16 -96 16q-62 0 -88 -41q-15 -24 -15 -107v-88h316v88q0 105 22 165.5t76 103.5q41 32 94 45.5t135 13.5q44 0 111 -6v-190q-67 16 -96 16q-62 0 -88 -41q-15 -24 -15 -107v-88 h199v-165h-199v-791h-239v791h-316v-791h-239v791h-150zM1266 0v1366h239v-1366h-239z" />
<glyph horiz-adv-x="0" />
<glyph horiz-adv-x="2048" />
<glyph unicode=" "  horiz-adv-x="512" />
<glyph unicode="&#x09;" horiz-adv-x="512" />
<glyph unicode="&#xa0;" horiz-adv-x="512" />
<glyph unicode="!" horiz-adv-x="559" d="M150 1366h260l-37 -932h-201zM164 0v246h231v-246h-231z" />
<glyph unicode="&#x22;" horiz-adv-x="872" d="M82 1366h272l-45 -549h-182zM518 1366h273l-46 -549h-182z" />
<glyph unicode="#" horiz-adv-x="1132" d="M16 383l39 195h164l43 225h-164l41 207h164l68 356h207l-70 -356h237l70 356h207l-70 -356h164l-41 -207h-164l-43 -225h164l-39 -195h-164l-73 -383h-207l74 383h-238l-74 -383h-205l74 383h-164zM424 578h238l43 225h-238z" />
<glyph unicode="$" d="M74 348l248 53q11 -88 66 -149.5t128 -67.5v398q-158 47 -215 75q-86 40 -135 123.5t-49 190.5q0 170 109.5 283t289.5 128v164h84v-164q167 -11 273.5 -104t119.5 -242l-229 -37q-18 163 -164 193v-375q225 -52 328.5 -153t103.5 -267q0 -180 -114 -290.5t-318 -129.5 v-206h-84v206h-22q-94 0 -192.5 50.5t-158.5 128.5q-58 74 -69 192zM358 1012q0 -63 41.5 -107t116.5 -63v350q-72 -12 -115 -61.5t-43 -118.5zM600 180q92 12 140 60.5t48 126.5q0 71 -46 117.5t-142 72.5v-377z" />
<glyph unicode="%" horiz-adv-x="1421" d="M53 1026q0 161 78 255.5t211 94.5q128 0 206.5 -92.5t78.5 -243.5q0 -158 -79 -254t-208 -96q-132 0 -209.5 91t-77.5 245zM236 1034q0 -110 25 -162.5t77 -52.5q56 0 81 52t25 169q0 207 -104 207t-104 -213zM408 0l473 1366h133l-471 -1366h-135zM791 332 q0 161 77.5 253.5t212.5 92.5q129 0 207 -95t78 -253q0 -156 -79.5 -247t-215.5 -91q-129 0 -204.5 91.5t-75.5 248.5zM975 344q0 -225 104 -225q55 0 79 51t24 168q0 211 -105 211q-102 0 -102 -205z" />
<glyph unicode="&#x26;" horiz-adv-x="1239" d="M76 356q0 117 61 207t193 166q-62 115 -83.5 178t-21.5 133q0 146 97.5 246t242.5 100q134 0 226 -91t92 -224q0 -114 -62 -203t-207 -184l17 -20q18 -22 50 -62t41.5 -51.5t30.5 -36t34.5 -38.5t35.5 -35t51 -48q69 124 84 252l207 -39q-27 -194 -121 -325 q92 -56 183 -60v-223q-199 3 -342 113q-162 -131 -377 -131q-187 0 -309.5 106.5t-122.5 269.5zM307 393q0 -97 68 -163t166 -66q113 0 188 72q-135 132 -194.5 199t-104.5 140q-70 -44 -96.5 -83t-26.5 -99zM430 1067q0 -54 19.5 -107.5t70.5 -136.5q3 2 15 8 q65 38 104 102.5t39 133.5q0 60 -32.5 97.5t-84.5 37.5q-57 0 -94 -38t-37 -97z" />
<glyph unicode="'" horiz-adv-x="436" d="M82 1366h272l-45 -549h-182z" />
<glyph unicode="(" horiz-adv-x="628" d="M158 594q0 203 62 450.5t159 430.5l188 -60q-95 -224 -136.5 -422.5t-41.5 -419.5q0 -218 43 -421.5t135 -421.5l-184 -58q-96 219 -147 385q-36 124 -57 269t-21 268z" />
<glyph unicode=")" horiz-adv-x="628" d="M61 -270q93 219 136 421.5t43 421.5q0 221 -42 418t-137 424l189 60q97 -183 159 -430.5t62 -450.5q0 -123 -21 -268t-57 -269q-48 -159 -147 -385z" />
<glyph unicode="*" horiz-adv-x="819" d="M109 1106l53 158l164 -60l-13 162h187l-8 -162l165 51l52 -174l-158 -43l106 -147l-147 -100l-100 157l-125 -143l-135 115l120 133z" />
<glyph unicode="+" d="M68 608v148h403v405h147v-405h406v-148h-406v-403h-147v403h-403z" />
<glyph unicode="," horiz-adv-x="505" d="M137 0v246h232v-199l-172 -293l-60 27l78 219h-78z" />
<glyph unicode="-" horiz-adv-x="454" d="M0 379v199h455v-199h-455z" />
<glyph unicode="." horiz-adv-x="505" d="M137 0v246h232v-246h-232z" />
<glyph unicode="/" horiz-adv-x="880" d="M0 -328l586 1694h186l-586 -1694h-186z" />
<glyph unicode="0" d="M68 680q0 203 62 364.5t172.5 251.5t250.5 90q214 0 342.5 -192.5t128.5 -511.5q0 -316 -129.5 -509t-341.5 -193t-348.5 196.5t-136.5 503.5zM311 684q0 -230 65 -370t171 -140q37 0 72.5 18.5t58.5 49.5q47 65 75.5 181t28.5 249q0 224 -69 399q-23 57 -65.5 89 t-94.5 32q-54 0 -97 -33t-69.5 -85t-44 -121t-24.5 -135.5t-7 -133.5z" />
<glyph unicode="1" d="M229 0v197h224v936h-224v135l326 98h127v-1169h221v-197h-674z" />
<glyph unicode="2" d="M80 0v197q107 207 383 426q163 128 219.5 204.5t56.5 165.5q0 88 -50 142.5t-132 54.5q-52 0 -98 -24.5t-72 -65.5q-19 -31 -28.5 -62t-18.5 -88l-238 41q31 194 144.5 294.5t302.5 100.5q201 0 317.5 -107t116.5 -292q0 -184 -129 -319q-41 -44 -195 -154 q-118 -87 -190.5 -154t-151.5 -163h666v-197h-903z" />
<glyph unicode="3" d="M61 324l226 51q31 -106 86 -153.5t147 -47.5q100 0 162.5 63t62.5 164q0 116 -82 171t-255 55h-56v186q149 0 217 23q61 22 94 67.5t33 108.5q0 77 -51 127.5t-129 50.5q-70 0 -122 -39.5t-95 -124.5l-201 78q57 137 167.5 209.5t262.5 72.5q177 0 294.5 -99.5 t117.5 -250.5q0 -210 -213 -297q125 -29 193.5 -117.5t68.5 -220.5q0 -186 -132 -303.5t-339 -117.5q-220 0 -350 133q-40 42 -63 86t-44 125z" />
<glyph unicode="4" d="M82 332v172l457 862h309v-838h199v-196h-199v-332h-230v332h-536zM313 528h305v641q-22 -72 -47 -118z" />
<glyph unicode="5" d="M88 266l213 94q41 -101 92 -143.5t129 -42.5q107 0 177.5 85.5t70.5 217.5q0 125 -63.5 206t-161.5 81q-132 0 -213 -158l-207 53l16 707h760v-197h-569v-340q61 69 123.5 99t144.5 30q180 0 297 -131.5t117 -334.5q0 -144 -62 -261.5t-172 -184t-245 -66.5 q-152 0 -273 77.5t-174 208.5z" />
<glyph unicode="6" d="M80 666q0 213 68 376.5t191 253.5t282 90q171 0 274 -100q51 -48 88 -141l-213 -64q-39 109 -158 109q-78 0 -139.5 -55t-93.5 -152q-26 -81 -37 -227q145 133 303 133q169 0 277 -123t108 -315q0 -209 -125 -340t-325 -131q-149 0 -259 76.5t-171 224.5q-70 168 -70 385 zM342 573q0 -181 65.5 -290t174.5 -109q91 0 147.5 73t56.5 191q0 119 -54 187.5t-148 68.5q-133 0 -242 -121z" />
<glyph unicode="7" d="M129 1169v197h875v-92l-562 -1274h-274l541 1169h-580z" />
<glyph unicode="8" d="M74 360q0 125 77 225.5t203 137.5q-107 32 -169 114t-62 191q0 154 122.5 256t307.5 102q179 0 297.5 -102.5t118.5 -257.5q0 -100 -56 -178.5t-159 -124.5q127 -49 195.5 -140.5t68.5 -211.5q0 -170 -136 -280.5t-347 -110.5q-201 0 -331 107t-130 273zM317 385 q0 -92 66.5 -151.5t169.5 -59.5t162 55t59 152q0 86 -57 149q-28 32 -129 91q-2 1 -29 16q-153 -80 -178 -105q-64 -58 -64 -147zM367 1022q0 -148 192 -221q8 4 16 6q69 29 109.5 89t40.5 132q0 77 -45.5 119.5t-128.5 42.5q-88 0 -136 -44t-48 -124z" />
<glyph unicode="9" d="M61 915q0 209 125 340t324 131q149 0 259 -76.5t171 -224.5q70 -168 70 -385q0 -213 -68 -376.5t-191 -253.5t-282 -90q-171 0 -274 100q-50 50 -89 141l213 64q39 -109 160 -109q77 0 140 55.5t94 151.5q26 81 37 227q-147 -133 -304 -133q-169 0 -277 123t-108 315z M305 928q0 -118 54.5 -187t148.5 -69q130 0 242 121q0 181 -66 290t-174 109q-92 0 -148.5 -72.5t-56.5 -191.5z" />
<glyph unicode=":" horiz-adv-x="505" d="M137 0v246h232v-246h-232zM137 713v245h232v-245h-232z" />
<glyph unicode=";" horiz-adv-x="505" d="M137 0v246h232v-199l-172 -293l-60 27l78 219h-78zM137 713v245h232v-245h-232z" />
<glyph unicode="&#x3c;" horiz-adv-x="1024" d="M68 594v203l886 442v-235l-635 -310l635 -309v-233z" />
<glyph unicode="=" d="M68 444v148h956v-148h-956zM68 772v148h956v-148h-956z" />
<glyph unicode="&#x3e;" horiz-adv-x="1024" d="M68 150v237l634 307l-634 310v235l886 -444v-201z" />
<glyph unicode="?" horiz-adv-x="819" d="M47 1145q38 106 134.5 170.5t217.5 64.5q148 0 240 -86.5t92 -224.5q0 -99 -51 -184q-24 -42 -48.5 -70t-115.5 -119q-65 -63 -86 -123t-18 -176h-226v19q0 148 42.5 238t187.5 241q53 56 72.5 91.5t19.5 76.5q0 54 -33 90.5t-80 36.5q-110 0 -166 -152zM180 0v244h240 v-244h-240z" />
<glyph unicode="@" horiz-adv-x="1460" d="M78 674q0 148 54 281t145.5 228.5t219.5 151.5t271 56q168 0 310 -77.5t224 -212t82 -294.5q0 -243 -180 -385q-60 -49 -127.5 -77t-124.5 -28t-94 28t-49 81q-59 -56 -109 -80t-110 -24q-95 0 -156 70.5t-61 180.5q0 114 55 224t143.5 178.5t180.5 68.5q105 0 147 -120 l35 90h153l-169 -484q-11 -33 -11 -59q0 -25 19.5 -41t50.5 -16q65 0 127 55t100.5 144t38.5 182q0 195 -137 327.5t-338 132.5q-152 0 -277 -76t-196.5 -208.5t-71.5 -294.5q0 -111 36 -223.5t93 -176.5q64 -73 179.5 -118t238.5 -45q90 0 166 26.5t197 98.5l86 -78 q-125 -102 -230 -143.5t-241 -41.5q-148 0 -282 55t-220 152q-75 87 -121.5 221.5t-46.5 270.5zM539 561q0 -54 23 -85.5t63 -31.5q115 0 176 172l39 111q18 56 18 96t-24.5 68.5t-59.5 28.5q-55 0 -110 -53.5t-90 -137.5t-35 -168z" />
<glyph unicode="A" horiz-adv-x="1107" d="M-14 0l395 1366h346l387 -1366h-268l-96 362h-416l-98 -362h-250zM381 547h321l-133 526q-22 84 -28 117q-2 -22 -5 -39t-5.5 -26.5t-7.5 -28t-9 -33.5z" />
<glyph unicode="B" horiz-adv-x="1185" d="M143 0v1366h447q136 0 203.5 -12.5t128.5 -50.5q71 -44 114 -125.5t43 -171.5q0 -105 -50 -180.5t-144 -110.5q107 -32 166 -116t59 -204q0 -92 -38 -174t-107 -137q-59 -46 -126 -65t-175 -19h-521zM395 203h189q87 0 117.5 6t64.5 29q84 59 84 174q0 63 -29.5 114 t-75.5 70q-53 22 -182 22h-168v-415zM395 805h164q71 0 107.5 6t66.5 23q84 47 84 165q0 122 -98 164q-46 17 -146 17h-178v-375z" />
<glyph unicode="C" horiz-adv-x="1218" d="M76 686q0 322 153 511t414 189q116 0 217 -42.5t168 -120.5q46 -54 72 -114t45 -153l-250 -41q-13 123 -80.5 196t-167.5 73q-149 0 -230 -126.5t-81 -361.5q0 -252 76.5 -383t222.5 -131q211 0 260 285l250 -37q-32 -215 -164.5 -332.5t-341.5 -117.5q-267 0 -415 185 t-148 521z" />
<glyph unicode="D" horiz-adv-x="1247" d="M143 0v1366h330q144 0 215.5 -6.5t108.5 -20t92 -47.5q137 -88 211 -246.5t74 -363.5q0 -187 -63 -338t-179 -242q-75 -58 -164.5 -80t-251.5 -22h-373zM395 203h113q218 0 311.5 114.5t93.5 380.5q0 304 -151 406q-85 59 -268 59h-99v-960z" />
<glyph unicode="E" horiz-adv-x="1087" d="M143 0v1366h850v-203h-598v-358h498v-203h-498v-399h631v-203h-883z" />
<glyph unicode="F" horiz-adv-x="1003" d="M143 0v1366h813v-203h-561v-358h447v-203h-447v-602h-252z" />
<glyph unicode="G" horiz-adv-x="1230" d="M74 657q0 335 153 532t414 197q117 0 218 -43t159 -118q77 -102 104 -271l-237 -34q-23 140 -77.5 202t-154.5 62q-150 0 -233.5 -133t-83.5 -371q0 -500 309 -500q121 0 180.5 63.5t59.5 194.5v33h-254v203h491v-674h-186l-23 109q-69 -129 -295 -129q-255 0 -399.5 180 t-144.5 497z" />
<glyph unicode="H" horiz-adv-x="1282" d="M143 0v1366h252v-537h492v537h252v-1366h-252v627h-492v-627h-252z" />
<glyph unicode="I" horiz-adv-x="538" d="M143 0v1366h252v-1366h-252z" />
<glyph unicode="J" horiz-adv-x="923" d="M6 281l246 53q27 -154 143 -154q96 0 131 101q15 49 15 194v891h252v-932q0 -226 -103.5 -341.5t-304.5 -115.5q-148 0 -245 78t-134 226z" />
<glyph unicode="K" horiz-adv-x="1187" d="M143 0v1366h252v-618l451 618h276l-405 -535l450 -831h-280l-330 616l-162 -204v-412h-252z" />
<glyph unicode="L" horiz-adv-x="987" d="M143 0v1366h252v-1163h566v-203h-818z" />
<glyph unicode="M" horiz-adv-x="1570" d="M143 0v1366h426l179 -723q9 -27 20 -72q20 -71 27.5 -117.5t9.5 -101.5q1 18 2 34.5t2 28t3 28t3 23.5t5 26t5 25t6 30.5t7 32.5q33 153 95 434t77 352h417v-1366h-239v1047q0 17 2 40v33q0 37 -2 78q-2 -14 -6 -40.5t-9.5 -52t-17.5 -73.5l-252 -1032h-215l-272 1032 l-15 53q-11 44 -26 113q8 -91 8 -166v-1032h-240z" />
<glyph unicode="N" horiz-adv-x="1325" d="M143 0v1366h365l362 -725q52 -105 95 -260q-23 168 -23 283v702h240v-1366h-248l-483 934q-42 80 -82 182q14 -62 14 -229v-887h-240z" />
<glyph unicode="O" horiz-adv-x="1247" d="M76 664q0 336 148.5 529t406.5 193q249 0 396 -187.5t147 -506.5q0 -239 -87 -430q-62 -135 -182 -208.5t-280 -73.5q-255 0 -402 183.5t-147 500.5zM336 672q0 -490 280 -490q76 0 138 40.5t102 117.5q57 111 57 334q0 510 -288 510q-141 0 -215 -131t-74 -381z" />
<glyph unicode="P" horiz-adv-x="1161" d="M143 0v1366h443q109 0 182 -13.5t137 -45.5q92 -46 146.5 -143.5t54.5 -217.5q0 -173 -113 -289q-61 -63 -144 -89.5t-216 -26.5h-238v-541h-252zM395 743h201q128 0 182 43q68 55 68 168q0 132 -94 185q-31 15 -66 19.5t-121 4.5h-170v-420z" />
<glyph unicode="Q" horiz-adv-x="1247" d="M74 664q0 337 148.5 529.5t408.5 192.5q248 0 394 -187t146 -503q0 -178 -43.5 -325t-123.5 -236q-57 -63 -124.5 -97.5t-166.5 -51.5q-4 -28 -4 -35q0 -49 24 -68.5t84 -19.5h207v-172q-168 -4 -203 -4q-169 0 -239 51t-70 174q0 28 6 78q-96 20 -158.5 54t-117.5 95 q-168 186 -168 525zM334 672q0 -490 280 -490q76 0 138 40.5t102 117.5q57 111 57 334q0 510 -288 510q-141 0 -215 -131t-74 -381z" />
<glyph unicode="R" horiz-adv-x="1155" d="M143 0v1366h414q136 0 190 -7.5t119 -35.5q101 -43 163.5 -138.5t62.5 -209.5q0 -111 -63.5 -196t-182.5 -132l289 -647h-275l-262 604l-20 -4h-164l-19 4v-604h-252zM395 797h191q70 0 104.5 6.5t65.5 25.5q73 45 73 144q0 113 -81 162q-51 28 -191 28h-162v-366z" />
<glyph unicode="S" horiz-adv-x="1062" d="M47 348l256 55q44 -221 240 -221q94 0 149.5 50t55.5 133q0 77 -54.5 123.5t-181.5 78.5q-123 32 -171.5 49.5t-94.5 47.5q-74 47 -115 128.5t-41 180.5q0 183 128 298t329 115q177 0 287 -91t133 -257l-238 -41q-8 91 -57.5 140t-134.5 49q-83 0 -135 -47.5t-52 -124.5 q0 -82 43 -118t182 -71q154 -38 252 -96q86 -51 133.5 -136.5t47.5 -189.5q0 -191 -128.5 -307t-340.5 -116q-211 0 -339 95.5t-153 272.5z" />
<glyph unicode="T" horiz-adv-x="1044" d="M14 1149v217h1018v-217h-385v-1149h-252v1149h-381z" />
<glyph unicode="U" horiz-adv-x="1216" d="M129 526v840h252v-840q0 -119 8.5 -169.5t34.5 -88.5q61 -86 184 -86q74 0 127.5 31t75.5 88q23 61 23 209v856h251v-856q0 -228 -77 -338q-61 -89 -173.5 -140.5t-242.5 -51.5q-113 0 -211.5 40.5t-159.5 112.5q-58 67 -75 139t-17 254z" />
<glyph unicode="V" horiz-adv-x="1024" d="M-14 1366h260l235 -870q34 -126 47 -213q5 98 35 213l228 870h245l-389 -1366h-258z" />
<glyph unicode="W" horiz-adv-x="1536" d="M14 1366h258l154 -803q22 -120 25 -235q2 108 26 235l160 803h266l168 -819q20 -98 25 -129.5t8 -89.5q2 42 10 110q4 23 7.5 44t7 40t4.5 25l143 819h248l-301 -1366h-262l-183 831q-16 70 -22 213q0 -8 -1 -32.5t-1.5 -29.5t-1.5 -23t-1.5 -24t-2.5 -20.5t-4 -25 t-4.5 -25.5t-6.5 -33l-180 -831h-246z" />
<glyph unicode="X" horiz-adv-x="1097" d="M0 0l420 713l-387 653h282q20 -36 97.5 -178t119.5 -219q8 -15 23 -58q9 34 29 76l204 379h259l-373 -645l424 -721h-291l-236 440q-20 42 -30 66q-10 -33 -27 -66l-248 -440h-266z" />
<glyph unicode="Y" horiz-adv-x="1038" d="M-27 1366h269l250 -543q26 -61 32 -82q9 43 27 82l260 543h256l-424 -784v-582h-252v561z" />
<glyph unicode="Z" horiz-adv-x="970" d="M35 0v180l598 983h-580v203h885v-178l-600 -985h600v-203h-903z" />
<glyph unicode="[" horiz-adv-x="628" d="M199 -328v1694h409v-174h-194v-1346h182v-174h-397z" />
<glyph unicode="\" horiz-adv-x="880" d="M109 1366h184l588 -1694h-187z" />
<glyph unicode="]" horiz-adv-x="628" d="M20 1192v174h410v-1694h-397v174h182v1346h-195z" />
<glyph unicode="^" horiz-adv-x="1024" d="M18 700l336 672h314l336 -672h-250l-242 484l-244 -484h-250z" />
<glyph unicode="_" horiz-adv-x="1024" d="M0 -104h1024v-215h-1024v215z" />
<glyph unicode="`" horiz-adv-x="1024" d="M246 1362h254l112 -252h-168z" />
<glyph unicode="a" horiz-adv-x="1017" d="M74 256q0 150 131.5 229t456.5 125q0 95 -7 131q-15 78 -133 78q-151 0 -172 -125l-227 33q26 126 125.5 192t263.5 66q389 0 389 -319v-439q0 -95 1.5 -123.5t12.5 -103.5h-231q-12 37 -22 96q-83 -63 -151 -89.5t-146 -26.5q-131 0 -211 76t-80 200zM313 244 q0 -46 29 -73.5t76 -27.5q97 0 244 113v174q-134 -18 -226 -53q-65 -23 -94 -54.5t-29 -78.5z" />
<glyph unicode="b" horiz-adv-x="1026" d="M117 0v1366h239v-510q119 131 265 131q154 0 250 -140t96 -366q0 -227 -102 -364t-269 -137q-75 0 -134.5 27.5t-131.5 96.5l-19 -104h-194zM356 260l21 -20q54 -54 91.5 -73.5t82.5 -19.5q176 0 176 320q0 157 -47.5 246.5t-130.5 89.5q-47 0 -92.5 -28.5t-100.5 -94.5 v-420z" />
<glyph unicode="c" horiz-adv-x="940" d="M59 463q0 234 125 379t326 145q145 0 246.5 -90.5t126.5 -239.5l-213 -34q-4 93 -49 145.5t-119 52.5q-99 0 -151 -84t-52 -245q0 -163 53 -254t148 -91q69 0 113 49t57 142l213 -29q-19 -154 -121.5 -241.5t-265.5 -87.5q-198 0 -317.5 131.5t-119.5 351.5z" />
<glyph unicode="d" horiz-adv-x="1028" d="M59 469q0 218 91 358q47 72 122.5 116t153.5 44q135 0 248 -125v504h239v-1366h-206l-17 125q-64 -79 -124 -112t-140 -33q-167 0 -267 133t-100 356zM299 471q0 -149 52.5 -237.5t140.5 -88.5q51 0 87 24t95 95v426q-34 52 -84 82.5t-101 30.5q-85 0 -137.5 -92 t-52.5 -240z" />
<glyph unicode="e" horiz-adv-x="950" d="M59 473q0 236 115.5 375t312.5 139q190 0 298 -131.5t108 -363.5q0 -35 -2 -62h-590q0 -133 55 -209t150 -76q66 0 108.5 38t67.5 120l209 -33q-20 -128 -131.5 -209t-267.5 -81q-201 0 -317 132t-116 361zM301 573h367q-7 99 -33 154q-20 43 -59.5 67.5t-86.5 24.5 q-83 0 -131.5 -63.5t-56.5 -182.5z" />
<glyph unicode="f" horiz-adv-x="555" d="M6 791v165h150v88q0 105 22 165.5t76 103.5q41 32 94 45.5t135 13.5q43 0 111 -6v-190q-67 16 -96 16q-62 0 -88 -41q-15 -24 -15 -107v-88h199v-165h-199v-791h-239v791h-150z" />
<glyph unicode="g" horiz-adv-x="976" d="M61 -94q0 51 27 86.5t88 66.5q-50 35 -68 64t-18 74q0 63 42 104.5t140 73.5q-172 90 -172 272q0 148 109 243t276 95q171 0 263 -96q74 98 174 98q25 0 59 -10v-154q-20 29 -66 29q-45 0 -94 -29q51 -94 51 -174q0 -140 -104 -233.5t-260 -93.5q-55 0 -139 20 q-78 -26 -78 -68q0 -25 26 -38q25 -12 64.5 -15.5t236.5 -9.5q120 -5 189.5 -27t120.5 -73q63 -63 63 -158q0 -129 -123.5 -202t-343.5 -73q-218 0 -340.5 60.5t-122.5 167.5zM231 -53q0 -57 74 -89t205 -32q301 0 301 98q0 77 -164 74q-101 -1 -211.5 5t-163.5 17 q-41 -41 -41 -73zM340 649q0 -82 40.5 -131t106.5 -49t105 46.5t39 125.5q0 84 -38 131t-104 47q-67 0 -108 -46.5t-41 -123.5z" />
<glyph unicode="h" horiz-adv-x="1017" d="M117 0v1366h239v-539q142 158 293 158q66 0 124 -31.5t89 -83.5q41 -65 41 -200v-670h-239v629q0 75 -13 108q-12 28 -40 46t-60 18q-45 0 -88 -23.5t-107 -77.5v-700h-239z" />
<glyph unicode="i" horiz-adv-x="473" d="M117 0v958h239v-958h-239zM117 1145v221h239v-221h-239z" />
<glyph unicode="j" horiz-adv-x="473" d="M-63 -145q61 -5 77 -5q60 0 81.5 28.5t21.5 107.5v972h239v-991q0 -141 -51 -209q-34 -46 -103.5 -72t-158.5 -26q-50 0 -106 12v183zM117 1145v221h239v-221h-239z" />
<glyph unicode="k" horiz-adv-x="960" d="M117 0v1366h239v-793l289 385h258l-278 -344l323 -614h-258l-225 430l-109 -135v-295h-239z" />
<glyph unicode="l" horiz-adv-x="473" d="M117 0v1366h239v-1366h-239z" />
<glyph unicode="m" horiz-adv-x="1587" d="M117 0v958h239v-133q95 86 169.5 123t152.5 37q180 0 227 -174q152 174 314 174q65 0 120.5 -25t90.5 -71q53 -67 53 -193v-696h-240v668q0 72 -28 102.5t-95 30.5q-52 0 -94 -22.5t-102 -82.5v-696h-240v606q0 69 -4 97t-16 47q-31 51 -103 51q-94 0 -205 -105v-696 h-239z" />
<glyph unicode="n" horiz-adv-x="1021" d="M117 0v958h239v-143q114 170 301 170q69 0 132 -39.5t88 -97.5q28 -71 28 -227v-621h-239v621q0 60 -3 84t-14 43q-12 25 -40 39t-64 14q-96 0 -189 -99v-702h-239z" />
<glyph unicode="o" horiz-adv-x="976" d="M59 479q0 233 116 369.5t314 136.5t314.5 -136.5t116.5 -369.5q0 -180 -84 -317q-110 -182 -347 -182q-198 0 -314 134.5t-116 364.5zM299 489q0 -344 188 -344q94 0 143.5 88.5t49.5 255.5q0 330 -188 330q-94 0 -143.5 -84.5t-49.5 -245.5z" />
<glyph unicode="p" horiz-adv-x="1034" d="M117 -328v1286h239v-147q49 90 114 132t155 42q162 0 257 -135.5t95 -366.5q0 -203 -72 -329q-44 -78 -124 -126t-167 -48q-180 0 -258 186v-494h-239zM356 291q46 -68 90 -97.5t101 -29.5q190 0 190 311q0 168 -46.5 256t-135.5 88q-54 0 -96 -29t-103 -110v-389z" />
<glyph unicode="q" horiz-adv-x="1021" d="M59 469q0 213 91 352q53 77 129 120.5t159 43.5q72 0 140.5 -30.5t115.5 -84.5l21 88h192v-1286h-239v422q-66 -61 -123 -87.5t-125 -26.5q-163 0 -262 134t-99 355zM299 467q0 -142 52.5 -222.5t144.5 -80.5q95 0 172 80v471q-70 106 -166 106q-94 0 -148.5 -95 t-54.5 -259z" />
<glyph unicode="r" horiz-adv-x="724" d="M117 0v958h239v-223q73 132 148 192t164 60q13 0 45 -4v-223l-47 2q-72 3 -122 -15.5t-95 -62.5q-40 -39 -66.5 -88.5t-26.5 -87.5v-508h-239z" />
<glyph unicode="s" horiz-adv-x="808" d="M41 250l213 35q13 -75 46.5 -107.5t96.5 -32.5t103.5 34t40.5 87q0 40 -30.5 64t-100.5 37q-227 43 -304 135q-57 66 -57 172q0 138 103 225.5t264 87.5q150 0 243 -90q34 -33 50.5 -65t25.5 -87l-211 -34q-12 60 -39.5 84t-81.5 24q-60 0 -98.5 -34t-38.5 -87 q0 -33 17 -53q13 -15 19 -20.5t30.5 -14.5t59 -16.5t112.5 -24.5q125 -28 190.5 -100t65.5 -182q0 -141 -101.5 -224t-273.5 -83q-149 0 -231 64.5t-113 205.5z" />
<glyph unicode="t" horiz-adv-x="595" d="M-6 791v165h149v279h240v-279h199v-165h-199v-474q0 -65 2.5 -83.5t11.5 -32.5q24 -41 88 -41q30 0 97 20v-180q-112 -23 -172 -23q-122 0 -183 52q-50 41 -67 96.5t-17 175.5v490h-149z" />
<glyph unicode="u" horiz-adv-x="1021" d="M117 354v604h239v-604q0 -96 4.5 -125t20.5 -47q30 -37 96 -37q99 0 191 99v714h239v-958h-219v127q-75 -83 -139 -115t-152 -32q-150 0 -223 98q-37 50 -47 98t-10 178z" />
<glyph unicode="v" horiz-adv-x="825" d="M-14 958h241l179 -639q2 -8 28 -124q10 48 10 57q8 36 9 39q33 128 90 366t73 301h222l-281 -958h-268z" />
<glyph unicode="w" horiz-adv-x="1273" d="M14 958h228l129 -550q30 -127 35 -170q2 61 24 170l111 550h233l98 -512q29 -161 31 -208q10 91 15 112q18 86 20 96l121 512h203l-269 -958h-219l-98 514q-29 148 -29 193q-11 -100 -31 -193l-112 -514h-221z" />
<glyph unicode="x" horiz-adv-x="905" d="M0 0l332 492l-291 466h264l152 -278l168 278h243l-295 -450l332 -508h-280l-168 319l-201 -319h-256z" />
<glyph unicode="y" horiz-adv-x="843" d="M-14 958h247l170 -596l9 -28q9 -31 22 -88l9 36t22 80l174 596h217l-324 -952q-55 -164 -112 -231q-98 -109 -248 -109q-64 0 -147 29v188q78 -33 135 -33q56 0 90.5 34t66.5 122z" />
<glyph unicode="z" horiz-adv-x="876" d="M43 0v135l498 658h-465v165h749v-141l-489 -651h489v-166h-782z" />
<glyph unicode="{" horiz-adv-x="628" d="M47 434v207q61 12 87 52.5t26 125.5v305q0 158 73.5 226.5t243.5 68.5q2 0 25 -1t45 -1h61v-217h-33q-58 0 -88 -4.5t-48 -22t-22.5 -43t-4.5 -77.5v-250q0 -101 -27 -156.5t-98 -99.5q73 -47 99 -100t26 -156v-252q0 -69 7 -92t32 -37q32 -19 124 -19h33v-215l-61 -2 q-35 -2 -72 -2q-169 0 -242 68t-73 225v309q0 72 -26.5 110t-86.5 50z" />
<glyph unicode="|" horiz-adv-x="1024" d="M393 -342v1708h240v-1708h-240z" />
<glyph unicode="}" horiz-adv-x="628" d="M20 -109h33q94 0 129 21q22 15 28.5 38t6.5 89v252q0 103 26 156t99 100q-71 44 -98 99.5t-27 156.5v250q0 51 -4.5 77t-23 43.5t-48.5 22t-88 4.5h-33v217h62q22 0 45 1t25 1q170 0 243.5 -68.5t73.5 -226.5v-305q0 -85 26 -125.5t87 -52.5v-207q-60 -12 -86.5 -50 t-26.5 -110v-309q0 -157 -73 -225t-242 -68q-37 0 -72 2l-62 2v215z" />
<glyph unicode="~" horiz-adv-x="1366" d="M186 1245q3 7 8.5 18.5t6.5 14.5q62 134 126 187t165 53q66 0 215 -56q90 -34 120 -42.5t62 -8.5q51 0 83 23t72 88l136 -80q-40 -86 -70.5 -128.5t-71.5 -74.5q-80 -59 -178 -59q-37 0 -89.5 15.5t-207.5 72.5q-46 18 -88 18q-52 0 -85 -27t-71 -102z" />
<glyph unicode="&#xa1;" horiz-adv-x="559" d="M150 -328l22 887h201l37 -887h-260zM164 713v245h231v-245h-231z" />
<glyph unicode="&#xa2;" d="M141 666q0 233 123.5 379.5t319.5 146.5q53 0 112 -12l68 188l80 -31l-70 -190q75 -41 127 -118.5t64 -166.5l-213 -35q0 35 -15 77t-35 67l-215 -590q51 -29 95 -29q69 0 113 49t57 142l213 -29q-22 -157 -123 -243.5t-264 -86.5q-71 0 -148 21l-80 -201l-78 31l78 207 q-102 65 -155.5 173.5t-53.5 250.5zM381 686q0 -71 9 -119.5t34 -105.5l207 559q-35 6 -47 6q-100 0 -151.5 -86.5t-51.5 -253.5z" />
<glyph unicode="&#xa3;" d="M129 221q0 94 66.5 157.5t166.5 63.5q31 0 53 -7t52 -27q3 33 -18 100.5t-52 124.5h-241v196h168q-35 111 -35 201q0 151 96.5 248.5t247.5 97.5q123 0 217 -68t131 -184l-209 -69q-15 58 -50 92.5t-79 34.5q-52 0 -81.5 -38.5t-29.5 -107.5q0 -91 39 -207h334v-196h-264 q70 -181 70 -264q0 -24 -13 -74l7 -4q8 -7 23.5 -22.5t24.5 -23.5t21.5 -17.5t23.5 -14t21 -4.5q29 0 51 17.5t54 68.5l190 -84q-120 -225 -293 -225q-50 0 -89 23t-128 104q-69 -127 -213 -127q-114 0 -188 67t-74 168zM305 225q0 -32 27 -58t61 -26q52 0 82 92 q-25 39 -43 52.5t-45 13.5q-33 0 -57.5 -22t-24.5 -52z" />
<glyph unicode="&#xa4;" horiz-adv-x="1366" d="M51 1174l133 135l211 -211q137 94 289 94t283 -92l207 207l133 -133l-205 -207q51 -78 72.5 -144t21.5 -143q0 -144 -90 -281l207 -209l-131 -133l-209 207q-140 -94 -291 -94q-76 0 -143 21.5t-146 72.5l-207 -207l-133 133l207 207q-92 136 -92 285q0 146 94 283z M365 680q0 -131 93.5 -224.5t223.5 -93.5q131 0 224 94t93 226q0 129 -93 223t-220 94q-135 0 -228 -92.5t-93 -226.5z" />
<glyph unicode="&#xa5;" d="M51 1366h262l148 -365q50 -122 90 -276q55 193 94 289l143 352h252l-184 -424h115v-172h-185l-98 -211h223v-172h-237v-387h-252v387h-236v172h224l-99 211h-190v172h121z" />
<glyph unicode="&#xa6;" horiz-adv-x="1024" d="M393 313h240v-655h-240v655zM393 662v704h240v-704h-240z" />
<glyph unicode="&#xa7;" d="M84 547q0 89 41.5 151t138.5 121q-102 95 -102 225q0 145 115.5 247t279.5 102q142 0 247.5 -76t151.5 -211l-217 -72q-35 83 -80.5 119.5t-111.5 36.5q-58 0 -96.5 -34t-38.5 -85q0 -38 18 -53q23 -27 54.5 -43t203.5 -86q163 -66 232 -135q88 -94 88 -209 q0 -165 -174 -293q96 -92 96 -211q0 -154 -117.5 -252t-300.5 -98q-326 0 -418 307l236 65q35 -94 78.5 -131.5t115.5 -37.5q67 0 111.5 37.5t44.5 93.5q0 33 -18 55q-20 23 -52.5 38.5t-208.5 88.5q-104 43 -161.5 78.5t-89.5 76.5q-66 81 -66 185zM315 604 q0 -47 31.5 -79.5t118.5 -73.5q66 -34 248 -119q65 77 65 147q0 58 -57.5 106.5t-183.5 98.5q-116 47 -152 68q-38 -41 -54 -74.5t-16 -73.5z" />
<glyph unicode="&#xa8;" horiz-adv-x="1024" d="M199 1139v219h231v-219h-231zM596 1139v219h231v-219h-231z" />
<glyph unicode="&#xa9;" horiz-adv-x="1503" d="M68 682q0 205 88.5 370.5t246 259t353.5 93.5q141 0 267.5 -56t216.5 -152t143 -230.5t53 -284.5q0 -151 -53 -284.5t-143.5 -229.5t-217.5 -151.5t-270 -55.5t-270 55.5t-217.5 151.5t-143.5 229.5t-53 284.5zM176 684q0 -166 77.5 -308t210 -225t288.5 -83t288.5 82.5 t209.5 225t77 310.5q0 122 -44 239t-120 199q-75 79 -185.5 126.5t-219.5 47.5q-164 0 -297 -79.5t-209 -220.5t-76 -314zM428 684q0 193 92.5 306.5t249.5 113.5q125 0 202.5 -68t100.5 -198l-160 -25q-9 74 -45.5 116t-93.5 42q-86 0 -132 -73t-46 -208 q0 -146 43.5 -221.5t126.5 -75.5q120 0 147 170l160 -24q-19 -134 -98.5 -206.5t-206.5 -72.5q-161 0 -250.5 111.5t-89.5 312.5z" />
<glyph unicode="&#xaa;" horiz-adv-x="710" d="M37 621v108h641v-108h-641zM117 967q0 86 71 130t256 72v27q0 46 -15 63t-56 17q-83 0 -92 -70l-138 21q13 75 70.5 114t153.5 39q223 0 223 -184v-244q0 -78 8 -133h-139q-8 18 -13 49q-46 -34 -82 -47.5t-79 -13.5q-75 0 -121.5 44.5t-46.5 115.5zM262 961 q0 -23 14 -37.5t39 -14.5q50 0 129 62v88q-182 -26 -182 -98z" />
<glyph unicode="&#xab;" horiz-adv-x="757" d="M47 479l158 383h162l-152 -383l152 -385h-162zM350 479l152 383h168l-148 -383l140 -385h-160z" />
<glyph unicode="&#xac;" horiz-adv-x="1024" d="M68 324v223h886v-547h-239v324h-647z" />
<glyph unicode="&#xad;" horiz-adv-x="454" d="M0 379v199h455v-199h-455z" />
<glyph unicode="&#xae;" horiz-adv-x="1503" d="M68 682q0 205 88.5 370.5t246 259t353.5 93.5q141 0 267.5 -56t216.5 -152t143 -230.5t53 -284.5q0 -151 -53 -284.5t-143.5 -229.5t-217.5 -151.5t-270 -55.5t-270 55.5t-217.5 151.5t-143.5 229.5t-53 284.5zM176 684q0 -166 77.5 -308t210 -225t288.5 -83t288.5 82.5 t209.5 225t77 310.5q0 122 -44 239t-120 199q-75 79 -185.5 126.5t-219.5 47.5q-164 0 -297 -79.5t-209 -220.5t-76 -314zM471 272v820h250q81 0 113.5 -5t72.5 -22q61 -26 98 -84t37 -127q0 -66 -37 -117.5t-104 -79.5l172 -385h-176l-156 355q-10 -2 -24 -2h-35l-49 2 v-355h-162zM633 756h104q73 0 105 22.5t32 75.5q0 57 -35 80.5t-118 23.5h-88v-202z" />
<glyph unicode="&#xaf;" horiz-adv-x="1024" d="M213 1147v174h600v-174h-600z" />
<glyph unicode="&#xb0;" horiz-adv-x="778" d="M82 1077q0 129 89.5 219t217.5 90q129 0 218 -90t89 -221q0 -124 -90.5 -213.5t-216.5 -89.5q-127 0 -217 89.5t-90 215.5zM211 1079q0 -75 52.5 -128.5t125.5 -53.5q71 0 124.5 53t53.5 125q0 77 -52.5 132t-127.5 55q-70 0 -123 -55.5t-53 -127.5z" />
<glyph unicode="&#xb1;" d="M68 0v147h956v-147h-956zM68 608v148h403v405h147v-405h406v-148h-406v-348h-147v348h-403z" />
<glyph unicode="&#xb2;" horiz-adv-x="733" d="M61 547v123q67 122 248 256q103 74 138.5 118.5t35.5 94.5t-29.5 80t-78.5 30q-59 0 -91 -34t-44 -109l-164 27q41 245 293 245q132 0 208 -64.5t76 -176.5q0 -114 -84 -195q-41 -36 -125 -92q-72 -49 -114 -84t-94 -90h417v-129h-592z" />
<glyph unicode="&#xb3;" horiz-adv-x="733" d="M47 750l158 32q22 -65 54 -91.5t89 -26.5q63 0 101 35.5t38 93.5q0 64 -51 94.5t-160 30.5q-13 0 -40 -3v125q105 0 143 13q78 24 78 98q0 42 -31 70t-78 28q-85 0 -135 -100l-141 51q75 178 284 178q117 0 194 -61t77 -152q0 -58 -33 -104.5t-90 -69.5q81 -32 117 -79 t36 -121q0 -112 -87 -184t-222 -72q-144 0 -229 79q-27 27 -42 55.5t-30 80.5z" />
<glyph unicode="&#xb4;" horiz-adv-x="1024" d="M426 1110l106 252h256l-190 -252h-172z" />
<glyph unicode="&#xb6;" d="M72 999q0 100 48.5 184t131.5 128q104 55 287 55h538v-123h-98v-1571h-172v1571h-135v-1571h-172v971q-16 -2 -35 -2q-172 0 -282.5 100.5t-110.5 257.5z" />
<glyph unicode="&#xb7;" horiz-adv-x="505" d="M137 383v246h232v-246h-232z" />
<glyph unicode="&#xb8;" horiz-adv-x="1024" d="M385 -362l23 81q42 -20 98 -20q26 0 43.5 15.5t17.5 37.5q0 55 -82 55h-47l45 193h90l-28 -129q71 -8 109 -41t38 -88q0 -59 -47.5 -94t-126.5 -35q-56 0 -133 25z" />
<glyph unicode="&#xb9;" horiz-adv-x="733" d="M158 547v129h143v538h-143v93l215 59h88v-690h141v-129h-444z" />
<glyph unicode="&#xba;" horiz-adv-x="710" d="M35 621v108h641v-108h-641zM111 1092q0 133 65 210.5t178 77.5q114 0 180 -77t66 -209q0 -129 -67 -207t-179 -78q-110 0 -176.5 77t-66.5 206zM256 1098q0 -185 98 -185q49 0 75 47.5t26 137.5q0 178 -99 178q-100 0 -100 -178z" />
<glyph unicode="&#xbb;" horiz-adv-x="757" d="M88 862h168l150 -383l-150 -385h-160l140 385zM391 94l152 385l-152 383h160l160 -383l-160 -385h-160z" />
<glyph unicode="&#xbc;" horiz-adv-x="1665" d="M158 547v129h143v538h-143v93l215 59h88v-690h141v-129h-444zM528 0l473 1366h136l-471 -1366h-138zM995 197v110l291 512h213v-493h127v-129h-127v-197h-160v197h-344zM1139 324h194v364q-9 -22 -18 -37z" />
<glyph unicode="&#xbd;" horiz-adv-x="1665" d="M158 547v129h143v538h-143v93l215 59h88v-690h141v-129h-444zM528 0l473 1366h136l-471 -1366h-138zM995 0v123q67 122 248 256q103 74 138.5 118.5t35.5 94.5t-29.5 80t-78.5 30q-59 0 -91 -34t-44 -109l-164 27q41 245 293 245q132 0 208 -64.5t76 -176.5 q0 -114 -84 -195q-41 -36 -125 -92q-73 -49 -115.5 -84.5t-93.5 -89.5h418v-129h-592z" />
<glyph unicode="&#xbe;" horiz-adv-x="1665" d="M47 750l158 32q22 -65 54 -91.5t89 -26.5q63 0 101 35.5t38 93.5q0 64 -51 94.5t-160 30.5q-13 0 -40 -3v125q105 0 143 13q78 24 78 98q0 42 -31 70t-78 28q-85 0 -135 -100l-141 51q75 178 284 178q117 0 194 -61t77 -152q0 -58 -33 -104.5t-90 -69.5q81 -32 117 -79 t36 -121q0 -112 -87 -184t-222 -72q-144 0 -229 79q-27 27 -42 55.5t-30 80.5zM528 0l471 1366h138l-471 -1366h-138zM993 197v110l291 512h213v-493h127v-129h-127v-197h-160v197h-344zM1137 324h194v364q-9 -22 -18 -37z" />
<glyph unicode="&#xbf;" horiz-adv-x="819" d="M86 -51q0 96 51 184q25 42 49.5 70t114.5 116q58 56 81.5 110.5t23.5 135.5v25h225v-17q0 -142 -42.5 -228t-187.5 -230q-52 -51 -72 -85t-20 -71q0 -44 32 -73t79 -29q112 0 168 149l182 -104q-38 -107 -134.5 -171.5t-219.5 -64.5q-146 0 -238 78.5t-92 204.5zM397 715 v243h240v-243h-240z" />
<glyph unicode="&#xc0;" horiz-adv-x="1107" d="M-14 0l395 1366h346l387 -1366h-268l-96 362h-416l-98 -362h-250zM274 1743h254l113 -252h-168zM381 547h321l-133 526q-22 84 -28 117q-2 -22 -5 -39t-5.5 -26.5t-7.5 -28t-9 -33.5z" />
<glyph unicode="&#xc1;" horiz-adv-x="1107" d="M-14 0l395 1366h346l387 -1366h-268l-96 362h-416l-98 -362h-250zM381 547h321l-133 526q-22 84 -28 117q-2 -22 -5 -39t-5.5 -26.5t-7.5 -28t-9 -33.5zM487 1491l107 252h256l-191 -252h-172z" />
<glyph unicode="&#xc2;" horiz-adv-x="1107" d="M-14 0l395 1366h346l387 -1366h-268l-96 362h-416l-98 -362h-250zM225 1493l209 209h250l209 -209h-207l-127 104l-129 -104h-205zM381 547h321l-133 526q-22 84 -28 117q-2 -22 -5 -39t-5.5 -26.5t-7.5 -28t-9 -33.5z" />
<glyph unicode="&#xc3;" horiz-adv-x="1107" d="M-14 0l395 1366h346l387 -1366h-268l-96 362h-416l-98 -362h-250zM250 1493q-1 106 58.5 173t154.5 67q37 0 60 -6.5t132 -47.5q27 -12 60 -12q32 0 47.5 17t23.5 59h127q-6 -119 -59.5 -181.5t-148.5 -62.5q-55 0 -140 31q-66 25 -82 30t-34 5q-60 0 -72 -72h-127z M381 547h321l-133 526q-22 84 -28 117q-2 -22 -5 -39t-5.5 -26.5t-7.5 -28t-9 -33.5z" />
<glyph unicode="&#xc4;" horiz-adv-x="1107" d="M-14 0l395 1366h346l387 -1366h-268l-96 362h-416l-98 -362h-250zM236 1522v219h231v-219h-231zM381 547h321l-133 526q-22 84 -28 117q-2 -22 -5 -39t-5.5 -26.5t-7.5 -28t-9 -33.5zM633 1522v219h231v-219h-231z" />
<glyph unicode="&#xc5;" horiz-adv-x="1107" d="M-14 0l395 1366h346l387 -1366h-268l-96 362h-416l-98 -362h-250zM358 1671q0 83 61 143t144 60q85 0 145 -60t60 -143t-60 -142t-143 -59q-86 0 -146.5 59t-60.5 142zM381 547h321l-133 526q-22 84 -28 117q-2 -22 -5 -39t-5.5 -26.5t-7.5 -28t-9 -33.5zM477 1671 q0 -34 25.5 -57t60.5 -23t59.5 24t24.5 58t-23.5 57t-58.5 23q-37 0 -62.5 -24t-25.5 -58z" />
<glyph unicode="&#xc6;" horiz-adv-x="1826" d="M-27 0l789 1366h969v-203h-596v-370h499v-203h-499v-387h630v-203h-882v365h-441l-200 -365h-269zM541 547l342 2v627z" />
<glyph unicode="&#xc7;" horiz-adv-x="1216" d="M76 684q0 327 153 516t418 189q201 0 334.5 -117t159.5 -316l-248 -36q-52 282 -250 282q-82 0 -147 -50t-103 -142q-51 -121 -51 -312q0 -260 75.5 -395t221.5 -135q47 0 90.5 16.5t69.5 46.5q36 39 55.5 88.5t38.5 145.5l248 -35q-26 -202 -160.5 -326.5t-323.5 -121.5 l-22 -97q131 -15 131 -112q0 -54 -40 -84.5t-110 -30.5q-53 0 -120 20l18 70q49 -14 82 -14q28 0 44.5 12.5t16.5 34.5q0 49 -90 49h-24l32 152q-116 20 -192.5 59t-142.5 111q-164 181 -164 532z" />
<glyph unicode="&#xc8;" horiz-adv-x="1087" d="M143 0v1366h850v-203h-598v-358h498v-203h-498v-399h631v-203h-883zM313 1743h254l113 -252h-168z" />
<glyph unicode="&#xc9;" horiz-adv-x="1087" d="M143 0v1366h850v-203h-598v-358h498v-203h-498v-399h631v-203h-883zM492 1491l106 252h256l-190 -252h-172z" />
<glyph unicode="&#xca;" horiz-adv-x="1087" d="M143 0v1366h850v-203h-598v-358h498v-203h-498v-399h631v-203h-883zM252 1493l209 209h250l209 -209h-207l-127 104l-129 -104h-205z" />
<glyph unicode="&#xcb;" horiz-adv-x="1087" d="M143 0v1366h850v-203h-598v-358h498v-203h-498v-399h631v-203h-883zM270 1522v219h232v-219h-232zM668 1522v219h231v-219h-231z" />
<glyph unicode="&#xcc;" horiz-adv-x="538" d="M-2 1743h254l113 -252h-168zM143 0v1366h252v-1366h-252z" />
<glyph unicode="&#xcd;" horiz-adv-x="538" d="M143 0v1366h252v-1366h-252zM197 1491l106 252h256l-190 -252h-172z" />
<glyph unicode="&#xce;" horiz-adv-x="538" d="M-57 1493l209 209h249l209 -209h-207l-127 104l-129 -104h-204zM143 0v1366h252v-1366h-252z" />
<glyph unicode="&#xcf;" horiz-adv-x="538" d="M4 1522v219h232v-219h-232zM143 0v1366h252v-1366h-252zM332 1522v219h231v-219h-231z" />
<glyph unicode="&#xd0;" horiz-adv-x="1247" d="M6 627v202h137v537h330q205 0 272 -12.5t144 -61.5q136 -86 209 -245t73 -367q0 -186 -63 -336.5t-178 -241.5q-75 -58 -164.5 -80t-249.5 -22h-373v627h-137zM395 203h113q217 0 310 114.5t93 378.5q0 306 -151 408q-85 59 -266 59h-99v-334h285v-202h-285v-424z" />
<glyph unicode="&#xd1;" horiz-adv-x="1325" d="M143 0v1366h365l362 -725q52 -105 95 -260q-23 168 -23 283v702h240v-1366h-248l-483 934q-42 80 -82 182q14 -62 14 -229v-887h-240zM408 1493q-1 106 58.5 173t154.5 67q37 0 60 -6.5t132 -47.5q27 -12 59 -12t48 17.5t24 58.5h127q-6 -118 -60 -181t-149 -63 q-54 0 -139 31q-65 24 -82 29.5t-35 5.5q-59 0 -71 -72h-127z" />
<glyph unicode="&#xd2;" horiz-adv-x="1247" d="M76 664q0 336 148.5 529t406.5 193q249 0 396 -187.5t147 -506.5q0 -239 -87 -430q-62 -135 -182 -208.5t-280 -73.5q-255 0 -402 183.5t-147 500.5zM336 672q0 -490 280 -490q76 0 138 40.5t102 117.5q57 111 57 334q0 510 -288 510q-141 0 -215 -131t-74 -381z M365 1743h253l113 -252h-168z" />
<glyph unicode="&#xd3;" horiz-adv-x="1247" d="M76 664q0 336 148.5 529t406.5 193q249 0 396 -187.5t147 -506.5q0 -239 -87 -430q-62 -135 -182 -208.5t-280 -73.5q-255 0 -402 183.5t-147 500.5zM336 672q0 -490 280 -490q76 0 138 40.5t102 117.5q57 111 57 334q0 510 -288 510q-141 0 -215 -131t-74 -381z M559 1491l107 252h256l-191 -252h-172z" />
<glyph unicode="&#xd4;" horiz-adv-x="1247" d="M76 664q0 336 148.5 529t406.5 193q249 0 396 -187.5t147 -506.5q0 -239 -87 -430q-62 -135 -182 -208.5t-280 -73.5q-255 0 -402 183.5t-147 500.5zM303 1493l209 209h250l209 -209h-207l-127 104l-129 -104h-205zM336 672q0 -490 280 -490q76 0 138 40.5t102 117.5 q57 111 57 334q0 510 -288 510q-141 0 -215 -131t-74 -381z" />
<glyph unicode="&#xd5;" horiz-adv-x="1247" d="M76 664q0 336 148.5 529t406.5 193q249 0 396 -187.5t147 -506.5q0 -239 -87 -430q-62 -135 -182 -208.5t-280 -73.5q-255 0 -402 183.5t-147 500.5zM336 672q0 -490 280 -490q76 0 138 40.5t102 117.5q57 111 57 334q0 510 -288 510q-141 0 -215 -131t-74 -381z M336 1493q-1 106 58.5 173t154.5 67q37 0 60 -6.5t132 -47.5q27 -12 60 -12q32 0 47.5 17t23.5 59h127q-6 -119 -59.5 -181.5t-148.5 -62.5q-55 0 -140 31q-66 25 -82 30t-34 5q-60 0 -72 -72h-127z" />
<glyph unicode="&#xd6;" horiz-adv-x="1247" d="M76 664q0 336 148.5 529t406.5 193q249 0 396 -187.5t147 -506.5q0 -239 -87 -430q-62 -135 -182 -208.5t-280 -73.5q-255 0 -402 183.5t-147 500.5zM330 1522v219h233v-219h-233zM336 672q0 -490 280 -490q76 0 138 40.5t102 117.5q57 111 57 334q0 510 -288 510 q-141 0 -215 -131t-74 -381zM711 1522v219h233v-219h-233z" />
<glyph unicode="&#xd7;" d="M127 369l315 313l-315 315l104 105l316 -316l313 316l105 -105l-314 -315l314 -313l-105 -105l-313 314l-316 -314z" />
<glyph unicode="&#xd8;" horiz-adv-x="1247" d="M76 664q0 336 148.5 529t406.5 193q106 0 188 -31.5t158 -101.5l86 117l74 -70l-95 -124q132 -189 132 -480q0 -341 -144 -528.5t-405 -187.5q-212 0 -353 129l-98 -132l-70 74l103 133q-69 106 -100 219t-31 261zM336 674q0 -181 29 -264l473 651q-43 65 -93.5 94 t-119.5 29q-141 0 -215 -130.5t-74 -379.5zM412 297q75 -115 204 -115q76 0 139 41.5t101 116.5q57 111 57 348q0 144 -30 264z" />
<glyph unicode="&#xd9;" horiz-adv-x="1216" d="M129 526v840h252v-840q0 -119 8.5 -169.5t34.5 -88.5q61 -86 184 -86q74 0 127.5 31t75.5 88q23 61 23 209v856h251v-856q0 -228 -77 -338q-61 -89 -173.5 -140.5t-242.5 -51.5q-113 0 -211.5 40.5t-159.5 112.5q-58 67 -75 139t-17 254zM356 1743h254l113 -252h-168z " />
<glyph unicode="&#xda;" horiz-adv-x="1216" d="M129 526v840h252v-840q0 -119 8.5 -169.5t34.5 -88.5q61 -86 184 -86q74 0 127.5 31t75.5 88q23 61 23 209v856h251v-856q0 -228 -77 -338q-61 -89 -173.5 -140.5t-242.5 -51.5q-113 0 -211.5 40.5t-159.5 112.5q-58 67 -75 139t-17 254zM543 1491l106 252h256l-190 -252 h-172z" />
<glyph unicode="&#xdb;" horiz-adv-x="1216" d="M129 526v840h252v-840q0 -119 8.5 -169.5t34.5 -88.5q61 -86 184 -86q74 0 127.5 31t75.5 88q23 61 23 209v856h251v-856q0 -228 -77 -338q-61 -89 -173.5 -140.5t-242.5 -51.5q-113 0 -211.5 40.5t-159.5 112.5q-58 67 -75 139t-17 254zM295 1493l209 209h250l209 -209 h-207l-127 104l-129 -104h-205z" />
<glyph unicode="&#xdc;" horiz-adv-x="1216" d="M129 526v840h252v-840q0 -119 8.5 -169.5t34.5 -88.5q61 -86 184 -86q74 0 127.5 31t75.5 88q23 61 23 209v856h251v-856q0 -228 -77 -338q-61 -89 -173.5 -140.5t-242.5 -51.5q-113 0 -211.5 40.5t-159.5 112.5q-58 67 -75 139t-17 254zM322 1522v219h233v-219h-233z M702 1522v219h234v-219h-234z" />
<glyph unicode="&#xdd;" horiz-adv-x="1038" d="M-27 1366h269l250 -543q26 -61 32 -82q9 43 27 82l260 543h256l-424 -784v-582h-252v561zM455 1491l106 252h256l-190 -252h-172z" />
<glyph unicode="&#xde;" horiz-adv-x="1099" d="M143 0v1366h252v-205h137q109 0 182 -13.5t136 -45.5q93 -46 148 -143t55 -216q0 -172 -113 -288q-63 -63 -146.5 -90t-215.5 -27h-183v-338h-252zM395 541h146q124 0 182 43q70 54 70 166q0 64 -25.5 112.5t-71.5 71.5q-29 15 -64.5 19.5t-121.5 4.5h-115v-417z" />
<glyph unicode="&#xdf;" horiz-adv-x="1024" d="M117 0v903q0 136 12 209.5t43 120.5q50 75 142 116.5t210 41.5q166 0 270.5 -91t104.5 -237q0 -89 -48 -154.5t-134 -93.5q121 -22 185.5 -120.5t64.5 -262.5q0 -209 -98 -333t-263 -124q-46 0 -104 19v172q12 -2 28 -2q91 0 144 74.5t53 203.5q0 150 -70 220 q-24 26 -55.5 36.5t-99.5 18.5v172q157 24 157 170q0 74 -40 119t-107 45q-43 0 -80.5 -22.5t-52.5 -57.5q-23 -56 -23 -185v-958h-239z" />
<glyph unicode="&#xe0;" horiz-adv-x="1017" d="M74 256q0 150 131.5 229t456.5 125q0 95 -7 131q-15 78 -133 78q-151 0 -172 -125l-227 33q26 126 125.5 192t263.5 66q389 0 389 -319v-439q0 -95 1.5 -123.5t12.5 -103.5h-231q-12 37 -22 96q-83 -63 -151 -89.5t-146 -26.5q-131 0 -211 76t-80 200zM256 1362h254 l113 -252h-168zM313 244q0 -46 29 -73.5t76 -27.5q97 0 244 113v174q-134 -18 -226 -53q-65 -23 -94 -54.5t-29 -78.5z" />
<glyph unicode="&#xe1;" horiz-adv-x="1017" d="M74 256q0 150 131.5 229t456.5 125q0 95 -7 131q-15 78 -133 78q-151 0 -172 -125l-227 33q26 126 125.5 192t263.5 66q389 0 389 -319v-439q0 -95 1.5 -123.5t12.5 -103.5h-231q-12 37 -22 96q-83 -63 -151 -89.5t-146 -26.5q-131 0 -211 76t-80 200zM313 244 q0 -46 29 -73.5t76 -27.5q97 0 244 113v174q-134 -18 -226 -53q-65 -23 -94 -54.5t-29 -78.5zM442 1110l107 252h256l-191 -252h-172z" />
<glyph unicode="&#xe2;" horiz-adv-x="1017" d="M74 256q0 150 131.5 229t456.5 125q0 95 -7 131q-15 78 -133 78q-151 0 -172 -125l-227 33q26 126 125.5 192t263.5 66q389 0 389 -319v-439q0 -95 1.5 -123.5t12.5 -103.5h-231q-12 37 -22 96q-83 -63 -151 -89.5t-146 -26.5q-131 0 -211 76t-80 200zM209 1110l197 252 h247l197 -252h-207l-113 119l-116 -119h-205zM313 244q0 -46 29 -73.5t76 -27.5q97 0 244 113v174q-134 -18 -226 -53q-65 -23 -94 -54.5t-29 -78.5z" />
<glyph unicode="&#xe3;" horiz-adv-x="1017" d="M74 256q0 150 131.5 229t456.5 125q0 95 -7 131q-15 78 -133 78q-151 0 -172 -125l-227 33q26 126 125.5 192t263.5 66q389 0 389 -319v-439q0 -95 1.5 -123.5t12.5 -103.5h-231q-12 37 -22 96q-83 -63 -151 -89.5t-146 -26.5q-131 0 -211 76t-80 200zM268 1112 q0 108 52.5 174t138.5 66q31 0 51.5 -6.5t116.5 -47.5q27 -12 53 -12q29 0 43 17t22 59h113q-6 -119 -53.5 -181.5t-132.5 -62.5q-50 0 -123 31q-60 25 -74.5 30t-30.5 5q-54 0 -63 -72h-113zM313 244q0 -46 29 -73.5t76 -27.5q97 0 244 113v174q-134 -18 -226 -53 q-65 -23 -94 -54.5t-29 -78.5z" />
<glyph unicode="&#xe4;" horiz-adv-x="1017" d="M74 256q0 150 131.5 229t456.5 125q0 95 -7 131q-15 78 -133 78q-151 0 -172 -125l-227 33q26 126 125.5 192t263.5 66q389 0 389 -319v-439q0 -95 1.5 -123.5t12.5 -103.5h-231q-12 37 -22 96q-83 -63 -151 -89.5t-146 -26.5q-131 0 -211 76t-80 200zM225 1139v219h232 v-219h-232zM313 244q0 -46 29 -73.5t76 -27.5q97 0 244 113v174q-134 -18 -226 -53q-65 -23 -94 -54.5t-29 -78.5zM623 1139v219h231v-219h-231z" />
<glyph unicode="&#xe5;" horiz-adv-x="1017" d="M74 256q0 150 131.5 229t456.5 125q0 95 -7 131q-15 78 -133 78q-151 0 -172 -125l-227 33q26 126 125.5 192t263.5 66q389 0 389 -319v-439q0 -95 1.5 -123.5t12.5 -103.5h-231q-12 37 -22 96q-83 -63 -151 -89.5t-146 -26.5q-131 0 -211 76t-80 200zM313 244 q0 -46 29 -73.5t76 -27.5q97 0 244 113v174q-134 -18 -226 -53q-65 -23 -94 -54.5t-29 -78.5zM330 1290q0 83 61 143t144 60q85 0 144.5 -59.5t59.5 -143.5q0 -83 -59.5 -141.5t-142.5 -58.5q-86 0 -146.5 58.5t-60.5 141.5zM449 1290q0 -34 25.5 -57t60.5 -23t59 24t24 58 t-23 57t-58 23q-37 0 -62.5 -24t-25.5 -58z" />
<glyph unicode="&#xe6;" horiz-adv-x="1529" d="M72 250q0 75 32 131t70.5 88.5t126 61t142 40t175.5 32.5q26 5 39 7q2 27 2 56q0 153 -151 153q-136 0 -162 -129l-223 33q47 262 387 262q214 0 299 -104q106 106 270 106q180 0 285.5 -134.5t105.5 -363.5q0 -32 -2 -59h-583q2 -136 53.5 -210.5t144.5 -74.5 q65 0 108 37.5t71 118.5l206 -33q-38 -141 -140 -214.5t-257 -73.5q-209 0 -336 153q-173 -153 -370 -153q-135 0 -214 73t-79 197zM309 244q0 -44 30 -71.5t77 -27.5q113 0 258 121q-19 81 -19 131q0 19 2 33q-187 -35 -267.5 -78t-80.5 -108zM885 573h364 q-18 248 -176 248q-83 0 -131 -64t-57 -184z" />
<glyph unicode="&#xe7;" horiz-adv-x="942" d="M59 465q0 233 125 378.5t326 145.5q148 0 251 -90.5t122 -236.5l-213 -33q-9 92 -51 140t-111 48q-199 0 -199 -334q0 -158 52 -249t143 -91q68 0 108.5 49t57.5 152l213 -31q-11 -141 -118 -236.5t-253 -92.5l-18 -95q129 -15 129 -112q0 -54 -40.5 -84.5t-109.5 -30.5 q-63 0 -125 21l21 71q59 -16 84 -16q27 0 43 12.5t16 34.5q0 49 -96 49h-21l33 150q-129 28 -203 84q-78 60 -122 165t-44 232z" />
<glyph unicode="&#xe8;" horiz-adv-x="950" d="M59 473q0 236 115.5 375t312.5 139q190 0 298 -131.5t108 -363.5q0 -35 -2 -62h-590q0 -133 55 -209t150 -76q66 0 108.5 38t67.5 120l209 -33q-20 -128 -131.5 -209t-267.5 -81q-201 0 -317 132t-116 361zM217 1362h254l113 -252h-168zM301 573h367q-7 99 -33 154 q-20 43 -59.5 67.5t-86.5 24.5q-83 0 -131.5 -63.5t-56.5 -182.5z" />
<glyph unicode="&#xe9;" horiz-adv-x="950" d="M59 473q0 236 115.5 375t312.5 139q190 0 298 -131.5t108 -363.5q0 -35 -2 -62h-590q0 -133 55 -209t150 -76q66 0 108.5 38t67.5 120l209 -33q-20 -128 -131.5 -209t-267.5 -81q-201 0 -317 132t-116 361zM301 573h367q-7 99 -33 154q-20 43 -59.5 67.5t-86.5 24.5 q-83 0 -131.5 -63.5t-56.5 -182.5zM418 1110l106 252h256l-190 -252h-172z" />
<glyph unicode="&#xea;" horiz-adv-x="950" d="M59 473q0 236 115.5 375t312.5 139q190 0 298 -131.5t108 -363.5q0 -35 -2 -62h-590q0 -133 55 -209t150 -76q66 0 108.5 38t67.5 120l209 -33q-20 -128 -131.5 -209t-267.5 -81q-201 0 -317 132t-116 361zM176 1110l197 252h248l196 -252h-207l-112 119l-117 -119h-205z M301 573h367q-7 99 -33 154q-20 43 -59.5 67.5t-86.5 24.5q-83 0 -131.5 -63.5t-56.5 -182.5z" />
<glyph unicode="&#xeb;" horiz-adv-x="950" d="M59 473q0 236 115.5 375t312.5 139q190 0 298 -131.5t108 -363.5q0 -35 -2 -62h-590q0 -133 55 -209t150 -76q66 0 108.5 38t67.5 120l209 -33q-20 -128 -131.5 -209t-267.5 -81q-201 0 -317 132t-116 361zM182 1139v219h232v-219h-232zM301 573h367q-7 99 -33 154 q-20 43 -59.5 67.5t-86.5 24.5q-83 0 -131.5 -63.5t-56.5 -182.5zM580 1139v219h231v-219h-231z" />
<glyph unicode="&#xec;" horiz-adv-x="473" d="M-43 1362h254l113 -252h-168zM117 0v958h239v-958h-239z" />
<glyph unicode="&#xed;" horiz-adv-x="473" d="M117 0v958h239v-958h-239zM172 1110l107 252h256l-191 -252h-172z" />
<glyph unicode="&#xee;" horiz-adv-x="473" d="M-78 1110l197 252h248l196 -252h-207l-112 119l-117 -119h-205zM115 0v958h239v-958h-239z" />
<glyph unicode="&#xef;" horiz-adv-x="473" d="M-37 1139v219h232v-219h-232zM117 0v958h239v-958h-239zM291 1139v219h231v-219h-231z" />
<glyph unicode="&#xf0;" horiz-adv-x="976" d="M59 473q0 94 21 178t59 144q54 86 146.5 138t191.5 52q17 0 35 -2l-57 119l-162 -84l-76 137l168 88l-76 154l146 78l86 -148l159 84l76 -139l-158 -84q16 -27 84 -145t105 -181q60 -98 85.5 -184.5t25.5 -188.5q0 -233 -117 -371t-312 -138q-198 0 -314 133t-116 360z M299 489q0 -344 188 -344q92 0 141.5 88.5t49.5 255.5q0 163 -47 246.5t-139 83.5q-94 0 -143.5 -84.5t-49.5 -245.5z" />
<glyph unicode="&#xf1;" horiz-adv-x="1021" d="M117 0v958h239v-143q114 170 301 170q69 0 132 -39.5t88 -97.5q28 -71 28 -227v-621h-239v621q0 60 -3 84t-14 43q-12 25 -40 39t-64 14q-96 0 -189 -99v-702h-239zM244 1112q0 108 52 174t138 66q31 0 51.5 -6.5t116.5 -47.5q27 -12 53 -12q29 0 43.5 17t22.5 59h113 q-6 -118 -54 -181t-133 -63q-50 0 -123 31q-79 33 -94 35h-10q-55 0 -64 -72h-112z" />
<glyph unicode="&#xf2;" horiz-adv-x="976" d="M59 479q0 233 116 369.5t314 136.5t314.5 -136.5t116.5 -369.5q0 -180 -84 -317q-110 -182 -347 -182q-198 0 -314 134.5t-116 364.5zM217 1362h254l113 -252h-168zM299 489q0 -344 188 -344q94 0 143.5 88.5t49.5 255.5q0 330 -188 330q-94 0 -143.5 -84.5t-49.5 -245.5 z" />
<glyph unicode="&#xf3;" horiz-adv-x="976" d="M59 479q0 233 116 369.5t314 136.5t314.5 -136.5t116.5 -369.5q0 -180 -84 -317q-110 -182 -347 -182q-198 0 -314 134.5t-116 364.5zM299 489q0 -344 188 -344q94 0 143.5 88.5t49.5 255.5q0 330 -188 330q-94 0 -143.5 -84.5t-49.5 -245.5zM416 1110l106 252h256 l-190 -252h-172z" />
<glyph unicode="&#xf4;" horiz-adv-x="976" d="M59 479q0 233 116 369.5t314 136.5t314.5 -136.5t116.5 -369.5q0 -180 -84 -317q-110 -182 -347 -182q-198 0 -314 134.5t-116 364.5zM176 1110l197 252h248l196 -252h-207l-112 119l-117 -119h-205zM299 489q0 -344 188 -344q94 0 143.5 88.5t49.5 255.5q0 330 -188 330 q-94 0 -143.5 -84.5t-49.5 -245.5z" />
<glyph unicode="&#xf5;" horiz-adv-x="976" d="M59 479q0 233 116 369.5t314 136.5t314.5 -136.5t116.5 -369.5q0 -180 -84 -317q-110 -182 -347 -182q-198 0 -314 134.5t-116 364.5zM242 1112q0 108 52 174t138 66q31 0 51.5 -6.5t116.5 -47.5q27 -12 53 -12q29 0 43.5 17t22.5 59h112q-6 -119 -53.5 -181.5 t-132.5 -62.5q-50 0 -123 31q-79 33 -94 35h-10q-55 0 -64 -72h-112zM299 489q0 -344 188 -344q94 0 143.5 88.5t49.5 255.5q0 330 -188 330q-94 0 -143.5 -84.5t-49.5 -245.5z" />
<glyph unicode="&#xf6;" horiz-adv-x="976" d="M59 479q0 233 116 369.5t314 136.5t314.5 -136.5t116.5 -369.5q0 -180 -84 -317q-110 -182 -347 -182q-198 0 -314 134.5t-116 364.5zM203 1139v219h233v-219h-233zM299 489q0 -344 188 -344q94 0 143.5 88.5t49.5 255.5q0 330 -188 330q-94 0 -143.5 -84.5t-49.5 -245.5 zM584 1139v219h233v-219h-233z" />
<glyph unicode="&#xf7;" d="M68 608v148h956v-148h-956zM430 211v246h232v-246h-232zM430 903v246h232v-246h-232z" />
<glyph unicode="&#xf8;" horiz-adv-x="976" d="M59 477q0 235 115.5 371.5t314.5 136.5q133 0 236 -67l72 104l67 -55l-71 -105q127 -142 127 -379q0 -180 -84 -321q-111 -182 -353 -182q-108 0 -176 36q-34 17 -35 17l-20 8l-76 -102l-72 45l84 116q-68 77 -98.5 166.5t-30.5 210.5zM299 489q0 -108 20 -192l299 459 q-51 63 -126 63q-94 0 -143.5 -84.5t-49.5 -245.5zM360 209q55 -64 127 -64q193 0 193 351q0 90 -21 170z" />
<glyph unicode="&#xf9;" horiz-adv-x="1021" d="M117 354v604h239v-604q0 -96 4.5 -125t20.5 -47q30 -37 96 -37q99 0 191 99v714h239v-958h-219v127q-75 -83 -139 -115t-152 -32q-150 0 -223 98q-37 50 -47 98t-10 178zM254 1362h254l113 -252h-168z" />
<glyph unicode="&#xfa;" horiz-adv-x="1021" d="M117 354v604h239v-604q0 -96 4.5 -125t20.5 -47q30 -37 96 -37q99 0 191 99v714h239v-958h-219v127q-75 -83 -139 -115t-152 -32q-150 0 -223 98q-37 50 -47 98t-10 178zM446 1110l107 252h256l-191 -252h-172z" />
<glyph unicode="&#xfb;" horiz-adv-x="1021" d="M117 354v604h239v-604q0 -96 4.5 -125t20.5 -47q30 -37 96 -37q99 0 191 99v714h239v-958h-219v127q-75 -83 -139 -115t-152 -32q-150 0 -223 98q-37 50 -47 98t-10 178zM213 1110l197 252h247l197 -252h-207l-112 119l-117 -119h-205z" />
<glyph unicode="&#xfc;" horiz-adv-x="1021" d="M117 354v604h239v-604q0 -96 4.5 -125t20.5 -47q30 -37 96 -37q99 0 191 99v714h239v-958h-219v127q-75 -83 -139 -115t-152 -32q-150 0 -223 98q-37 50 -47 98t-10 178zM231 1139v219h234v-219h-234zM612 1139v219h234v-219h-234z" />
<glyph unicode="&#xfd;" horiz-adv-x="843" d="M-14 958h247l170 -596l9 -28q9 -31 22 -88l9 36t22 80l174 596h217l-324 -952q-55 -164 -112 -231q-98 -109 -248 -109q-64 0 -147 29v188q78 -33 135 -33q56 0 90.5 34t66.5 122zM369 1110l106 252h256l-190 -252h-172z" />
<glyph unicode="&#xfe;" horiz-adv-x="1034" d="M117 -328v1694h239v-555q49 90 114 132t155 42q162 0 257 -135.5t95 -366.5q0 -203 -72 -329q-44 -78 -124 -126t-167 -48q-180 0 -258 186v-494h-239zM356 291q46 -68 90 -97.5t101 -29.5q190 0 190 311q0 168 -46.5 256t-135.5 88q-54 0 -96 -29t-103 -110v-389z" />
<glyph unicode="&#xff;" horiz-adv-x="843" d="M-14 958h247l170 -596l9 -28q9 -31 22 -88l9 36t22 80l174 596h217l-324 -952q-55 -164 -112 -231q-98 -109 -248 -109q-64 0 -147 29v188q78 -33 135 -33q56 0 90.5 34t66.5 122zM127 1139v219h231v-219h-231zM524 1139v219h232v-219h-232z" />
<glyph unicode="&#x152;" horiz-adv-x="1859" d="M76 680q0 309 125 487q64 94 176 156.5t213 62.5q75 0 162 -36t163 -99v99h850v-203h-598v-359h500v-202h-500v-383h631v-203h-883v94q-77 -63 -147 -88.5t-160 -25.5q-244 0 -388 189.5t-144 510.5zM336 676q0 -243 74 -368.5t217 -125.5q137 0 212.5 124.5t75.5 350.5 q0 261 -73.5 394t-218.5 133q-138 0 -212.5 -132.5t-74.5 -375.5z" />
<glyph unicode="&#x153;" horiz-adv-x="1558" d="M59 479q0 232 117.5 370t315.5 138q196 0 313 -141q63 73 136 107t167 34q180 0 285.5 -133t105.5 -362v-62h-588q3 -94 17 -145q19 -65 67.5 -102.5t112.5 -37.5q141 0 182 152l209 -39q-28 -126 -135.5 -202t-259.5 -76q-208 0 -299 126q-66 -67 -137.5 -96.5 t-169.5 -29.5q-204 0 -321.5 133t-117.5 366zM301 498q0 -353 193 -353q47 0 86.5 25.5t60.5 67.5q41 81 41 241q0 168 -41 246q-52 96 -149 96q-92 0 -141.5 -83t-49.5 -240zM911 573h365q2 117 -44.5 182.5t-131.5 65.5q-82 0 -130 -64t-59 -184z" />
<glyph unicode="&#x178;" horiz-adv-x="1038" d="M-27 1366h269l250 -543q26 -61 32 -82q9 43 27 82l260 543h256l-424 -784v-582h-252v561zM219 1522v219h232v-219h-232zM616 1522v219h232v-219h-232z" />
<glyph unicode="&#x2c6;" horiz-adv-x="1024" d="M193 1110l196 252h248l197 -252h-207l-113 119l-117 -119h-204z" />
<glyph unicode="&#x2dc;" horiz-adv-x="1024" d="M217 1112q0 108 52.5 174t138.5 66q31 0 50.5 -6.5t116.5 -47.5q27 -12 54 -12q29 0 43 17t22 59h113q-6 -119 -53.5 -181.5t-132.5 -62.5q-50 0 -123 31q-60 25 -74.5 30t-30.5 5q-54 0 -63 -72h-113z" />
<glyph unicode="&#x2000;" horiz-adv-x="937" />
<glyph unicode="&#x2001;" horiz-adv-x="1874" />
<glyph unicode="&#x2002;" horiz-adv-x="937" />
<glyph unicode="&#x2003;" horiz-adv-x="1874" />
<glyph unicode="&#x2004;" horiz-adv-x="624" />
<glyph unicode="&#x2005;" horiz-adv-x="468" />
<glyph unicode="&#x2006;" horiz-adv-x="312" />
<glyph unicode="&#x2007;" horiz-adv-x="312" />
<glyph unicode="&#x2008;" horiz-adv-x="234" />
<glyph unicode="&#x2009;" horiz-adv-x="374" />
<glyph unicode="&#x200a;" horiz-adv-x="104" />
<glyph unicode="&#x2010;" horiz-adv-x="454" d="M0 379v199h455v-199h-455z" />
<glyph unicode="&#x2011;" horiz-adv-x="454" d="M0 379v199h455v-199h-455z" />
<glyph unicode="&#x2012;" horiz-adv-x="454" d="M0 379v199h455v-199h-455z" />
<glyph unicode="&#x2013;" d="M68 379v199h956v-199h-956z" />
<glyph unicode="&#x2014;" horiz-adv-x="1366" d="M0 399v199h1366v-199h-1366z" />
<glyph unicode="&#x2018;" horiz-adv-x="505" d="M137 901v199l172 293l60 -27l-78 -219h78v-246h-232z" />
<glyph unicode="&#x2019;" horiz-adv-x="505" d="M137 901l78 219h-78v246h232v-199l-172 -293z" />
<glyph unicode="&#x201a;" horiz-adv-x="505" d="M137 0v246h232v-199l-172 -293l-60 27l78 219h-78z" />
<glyph unicode="&#x201c;" horiz-adv-x="874" d="M137 901v199l172 293l60 -27l-78 -219h78v-246h-232zM506 901v199l172 293l59 -27l-78 -219h78v-246h-231z" />
<glyph unicode="&#x201d;" horiz-adv-x="874" d="M137 901l78 219h-78v246h232v-199l-172 -293zM506 901l78 219h-78v246h231v-199l-172 -293z" />
<glyph unicode="&#x201e;" horiz-adv-x="874" d="M137 0v246h232v-199l-172 -293l-60 27l78 219h-78zM506 0v246h231v-199l-172 -293l-59 27l78 219h-78z" />
<glyph unicode="&#x2022;" horiz-adv-x="1366" d="M401 692q0 120 83.5 202.5t205.5 82.5q114 0 196.5 -83.5t82.5 -199.5q0 -118 -83 -201t-200 -83t-201 82.5t-84 199.5z" />
<glyph unicode="&#x2026;" horiz-adv-x="1515" d="M137 0v246h232v-246h-232zM643 0v246h231v-246h-231zM1149 0v246h231v-246h-231z" />
<glyph unicode="&#x202f;" horiz-adv-x="374" />
<glyph unicode="&#x2039;" horiz-adv-x="458" d="M47 477l154 389h168l-144 -389l144 -387h-179z" />
<glyph unicode="&#x203a;" horiz-adv-x="462" d="M88 866h172l154 -389l-144 -387h-174l142 387z" />
<glyph unicode="&#x205f;" horiz-adv-x="468" />
<glyph unicode="&#x20ac;" horiz-adv-x="1390" d="M68 465l82 192h104v52h-186l82 192h122q41 222 190 353.5t359 131.5q116 0 216 -42.5t167 -120.5q47 -54 73.5 -114t43.5 -153l-250 -41q-14 123 -80 196t-166 73q-110 0 -188.5 -75.5t-104.5 -207.5h394l-82 -192h-330v-52h307l-82 -192h-204q65 -283 278 -283 q211 0 258 285l250 -37q-32 -215 -163.5 -332.5t-340.5 -117.5q-220 0 -361 125.5t-184 359.5h-204z" />
<glyph unicode="&#x2122;" horiz-adv-x="1595" d="M2 1231v135h635v-135h-236v-643h-168v643h-231zM719 588v778h272l137 -508l121 508h267v-778h-160l2 614l-164 -614h-141l-174 606v-606h-160z" />
</font>
</defs>
</svg>
