<?xml version="1.0" standalone="no"?>
<!DOCTYPE svg PUBLIC "-//W3C//DTD SVG 1.1//EN" "http://www.w3.org/Graphics/SVG/1.1/DTD/svg11.dtd" >
<svg xmlns="http://www.w3.org/2000/svg">
<metadata></metadata>
<defs>
<font id="NewsGothicFSMediumBold" horiz-adv-x="1187" >
<font-face units-per-em="2048" ascent="1638" descent="-410" />
<missing-glyph horiz-adv-x="512" />
<glyph unicode="&#xfb01;" horiz-adv-x="1144" d="M43 750v213h150v57q0 194 57 266q81 107 260 107q73 0 190 -27v-209q-41 14 -79 14q-68 0 -94.5 -30.5t-26.5 -106.5v-71h200v-213h-200v-750h-307v750h-150zM772 0v963h307v-963h-307zM772 1092v274h307v-274h-307z" />
<glyph unicode="&#xfb02;" horiz-adv-x="1161" d="M43 750v213h150v57q0 194 57 266q81 107 260 107q73 0 190 -27v-209q-41 14 -79 14q-68 0 -94.5 -30.5t-26.5 -106.5v-71h200v-213h-200v-750h-307v750h-150zM772 0v1366h307v-1366h-307z" />
<glyph unicode="&#xfb03;" horiz-adv-x="1685" d="M-6 752v211h149v57q0 125 22.5 195.5t74.5 111.5q81 66 223 66q78 0 186 -27v-209q-43 14 -78 14q-67 0 -93.5 -30t-26.5 -107v-71h260v57q0 125 22 195.5t74 111.5q81 66 223 66q79 0 187 -27v-209q-43 14 -78 14q-68 0 -94.5 -30.5t-26.5 -106.5v-71h199v-211h-199 v-752h-307v752h-260v-752h-308v752h-149zM1278 0v963h307v-963h-307zM1278 1092v274h307v-274h-307z" />
<glyph unicode="&#xfb04;" horiz-adv-x="1685" d="M-6 752v211h149v57q0 125 22.5 195.5t74.5 111.5q81 66 223 66q78 0 186 -27v-209q-43 14 -78 14q-67 0 -93.5 -30t-26.5 -107v-71h260v57q0 125 22 195.5t74 111.5q81 66 223 66q79 0 187 -27v-209q-43 14 -78 14q-68 0 -94.5 -30.5t-26.5 -106.5v-71h199v-211h-199 v-752h-307v752h-260v-752h-308v752h-149zM1278 0v1366h307v-1366h-307z" />
<glyph horiz-adv-x="0" />
<glyph horiz-adv-x="2048" />
<glyph unicode=" "  horiz-adv-x="512" />
<glyph unicode="&#x09;" horiz-adv-x="512" />
<glyph unicode="&#xa0;" horiz-adv-x="512" />
<glyph unicode="!" horiz-adv-x="655" d="M150 1366h354l-47 -909h-262zM170 0v328h313v-328h-313z" />
<glyph unicode="&#x22;" horiz-adv-x="872" d="M82 1366h272l-45 -549h-182zM518 1366h273l-46 -549h-182z" />
<glyph unicode="#" d="M45 383l41 195h164l39 225h-164l43 207h164l67 356h219l-67 -356h211l69 356h220l-70 -356h164l-43 -207h-164l-39 -225h164l-41 -195h-164l-74 -383h-219l74 383h-211l-74 -383h-219l74 383h-164zM469 578h211l39 225h-211z" />
<glyph unicode="$" d="M70 362l299 62q34 -193 159 -219v350q-142 39 -196 59q-117 43 -181.5 135.5t-64.5 217.5q0 179 123.5 297t318.5 125v165h99v-165q170 0 289 -104t128 -261l-296 -45q-4 70 -37 118t-84 60v-315q117 -25 217 -62q268 -99 268 -374q0 -110 -49 -202.5t-137 -146.5 q-65 -40 -130 -58.5t-169 -25.5v-204h-99v204q-198 9 -319.5 112.5t-138.5 276.5zM397 1014q0 -57 33.5 -95t97.5 -51v291q-131 -30 -131 -145zM627 203q72 9 110.5 52t38.5 114q0 61 -35 98.5t-114 62.5v-327z" />
<glyph unicode="%" horiz-adv-x="1597" d="M82 1036q0 163 80 258t217 95q143 0 223 -94t80 -263q0 -160 -81.5 -253t-221.5 -93q-139 0 -218 93t-79 257zM285 1032q0 -103 23.5 -150.5t74.5 -47.5q49 0 72.5 50.5t23.5 157.5q0 201 -94 201q-52 0 -76 -50.5t-24 -160.5zM410 -27l591 1422h170l-589 -1422h-172z M909 338q0 161 80 254.5t217 93.5q141 0 221 -93t80 -257q0 -167 -80.5 -259.5t-226.5 -92.5q-135 0 -213 94.5t-78 259.5zM1112 330q0 -106 22.5 -153.5t73.5 -47.5t74 48t23 157t-22 158t-73 49q-52 0 -75 -50t-23 -161z" />
<glyph unicode="&#x26;" horiz-adv-x="1320" d="M68 365q0 118 61 208t195 170q-101 165 -101 312q0 145 107 239.5t270 94.5q161 0 264 -91.5t103 -236.5q0 -114 -64 -201.5t-215 -179.5q95 -142 207 -231q25 46 34 75.5t32 143.5l4 12l276 -55q-26 -128 -53.5 -200t-71.5 -130q98 -49 182 -49v-271q-46 -4 -51 -4 q-147 0 -315 111q-100 -57 -189.5 -82t-199.5 -25q-217 0 -346 106t-129 284zM375 393q0 -78 60.5 -133t146.5 -55q83 0 135 41q-115 87 -262 291q-80 -56 -80 -144zM504 1061q0 -74 61 -193q7 7 17 13q106 86 106 184q0 50 -25.5 80.5t-66.5 30.5t-66.5 -31.5t-25.5 -83.5z " />
<glyph unicode="'" horiz-adv-x="436" d="M82 1366h272l-45 -549h-182z" />
<glyph unicode="(" horiz-adv-x="681" d="M119 586q0 151 49 332t127 317q38 61 154 227l180 -110q-100 -155 -155.5 -358t-55.5 -412q0 -459 219 -828l-182 -108q-146 172 -241 437.5t-95 502.5z" />
<glyph unicode=")" horiz-adv-x="681" d="M45 -246q221 364 221 828q0 210 -56 412.5t-157 357.5l183 110q116 -167 153 -227q78 -136 127 -317t49 -332q0 -237 -95 -502t-243 -438z" />
<glyph unicode="*" horiz-adv-x="776" d="M68 1079l53 156l182 -64l-14 195h190l-8 -195l184 58l52 -174l-179 -49l113 -156l-145 -102l-109 165l-137 -159l-135 114l135 150z" />
<glyph unicode="+" d="M68 582v200h426v426h200v-426h424v-200h-424v-424h-200v424h-426z" />
<glyph unicode="," horiz-adv-x="559" d="M96 -299l123 299h-96v328h313v-273l-235 -409z" />
<glyph unicode="-" horiz-adv-x="464" d="M0 348v260h465v-260h-465z" />
<glyph unicode="." horiz-adv-x="559" d="M123 0v328h313v-328h-313z" />
<glyph unicode="/" horiz-adv-x="849" d="M-27 -354l602 1720h181l-602 -1720h-181z" />
<glyph unicode="0" d="M68 684q0 330 140.5 517.5t389.5 187.5q248 0 384 -185.5t136 -523.5q0 -280 -114 -473q-133 -232 -416 -232q-296 0 -426 261q-94 187 -94 448zM410 674q0 -256 41 -362.5t139 -106.5q104 0 145 108.5t41 382.5q0 252 -40.5 357.5t-137.5 105.5q-104 0 -146 -108 t-42 -377z" />
<glyph unicode="1" d="M240 0v248h237v833h-237v168q5 2 80 25.5t162.5 51t123.5 40.5h178v-1118h234v-248h-778z" />
<glyph unicode="2" d="M82 0v219q79 130 164 219.5t286 255.5q114 95 159.5 163.5t45.5 143.5q0 72 -37 115t-100 43q-140 0 -170 -223l-326 57q35 195 160.5 295.5t335.5 100.5q223 0 350 -106.5t127 -293.5q0 -125 -55.5 -217t-194.5 -199q-200 -155 -273 -217.5t-108 -107.5q25 -2 48 -2 l133 2h444v-248h-989z" />
<glyph unicode="3" d="M43 334l319 67q40 -196 203 -196q85 0 138 52.5t53 137.5q0 113 -75 160t-255 47h-35v229h49q129 0 191 29q37 19 59.5 58t22.5 86q0 69 -42 112t-110 43q-73 0 -119 -41.5t-80 -138.5l-276 86q66 167 185.5 245.5t308.5 78.5q210 0 334 -97.5t124 -261.5 q0 -222 -231 -289q140 -25 214.5 -111t74.5 -224q0 -200 -144.5 -315.5t-396.5 -115.5q-223 0 -345.5 86t-166.5 273z" />
<glyph unicode="4" d="M68 313v201l460 852h422v-819h172v-234h-172v-313h-307v313h-575zM375 547h268v364l-2 68l2 94v43q-1 -2 -7 -20t-12.5 -36t-19.5 -49t-29 -63z" />
<glyph unicode="5" d="M63 279l293 114q22 -91 73 -139.5t124 -48.5q94 0 147.5 71t53.5 195q0 111 -50.5 177.5t-134.5 66.5q-60 0 -107 -36.5t-73 -103.5l-283 72l33 719h854v-248h-577l-27 -289q53 60 116.5 87.5t151.5 27.5q193 0 316 -128t123 -329q0 -196 -111 -335q-71 -91 -176 -134 t-260 -43q-187 0 -310 77t-176 227z" />
<glyph unicode="6" d="M78 647q0 344 159.5 543t434.5 199q344 0 422 -271l-306 -69q-30 110 -135 110q-60 0 -107 -39.5t-75 -113.5q-27 -75 -43 -230q122 119 287 119q184 0 298.5 -122.5t114.5 -317.5q0 -101 -34.5 -192t-96.5 -154q-131 -134 -391 -134q-292 0 -420 215q-108 180 -108 457z M420 504q0 -64 22.5 -132t59.5 -114q40 -53 114 -53q77 0 124.5 65.5t47.5 171.5q0 105 -46.5 164.5t-129.5 59.5q-95 0 -184 -95q-8 -62 -8 -67z" />
<glyph unicode="7" d="M109 1118v248h985v-141l-549 -1225h-377l469 983l18 45l23 45l18 45h-587z" />
<glyph unicode="8" d="M72 358q0 131 77 229.5t207 135.5q-115 37 -176 114t-61 185q0 167 132 267t353 100q215 0 340 -97t125 -264q0 -216 -223 -305q121 -35 194.5 -132t73.5 -220q0 -94 -44.5 -174.5t-127.5 -135.5q-62 -40 -158 -63t-204 -23q-236 0 -372 102.5t-136 280.5zM414 383 q0 -78 50.5 -128t127.5 -50q79 0 129.5 48.5t50.5 123.5q0 46 -13 80.5t-42.5 62t-54 43.5t-70.5 41q-103 -58 -140.5 -105t-37.5 -116zM444 1022q0 -59 36 -98.5t130 -83.5q133 68 133 182q0 62 -40.5 99.5t-106.5 37.5q-68 0 -110 -38t-42 -99z" />
<glyph unicode="9" d="M57 899q0 224 139.5 357t374.5 133q309 0 437 -232q100 -177 100 -440q0 -289 -127 -496q-149 -246 -481 -246q-160 0 -258.5 60.5t-145.5 189.5l303 88q11 -50 46 -79t87 -29q133 0 187 170q22 66 41 221q-68 -69 -133.5 -98t-155.5 -29q-183 0 -298.5 120t-115.5 310z M401 922q0 -103 47 -163.5t127 -60.5q99 0 185 95q0 176 -48.5 271t-138.5 95q-77 0 -124.5 -65.5t-47.5 -171.5z" />
<glyph unicode=":" horiz-adv-x="559" d="M123 0v328h313v-328h-313zM123 635v328h313v-328h-313z" />
<glyph unicode=";" horiz-adv-x="559" d="M96 -299l123 299h-96v328h313v-273l-235 -409zM123 635v328h313v-328h-313z" />
<glyph unicode="&#x3c;" horiz-adv-x="1024" d="M68 551v280l886 476v-334l-532 -283l530 -282l2 -332z" />
<glyph unicode="=" d="M68 406v200h1050v-200h-1050zM68 762v201h1050v-201h-1050z" />
<glyph unicode="&#x3e;" horiz-adv-x="1024" d="M68 76v334l532 282l-530 283l-2 332l886 -476v-280z" />
<glyph unicode="?" horiz-adv-x="927" d="M55 1145q51 123 159 189.5t257 66.5q169 0 272 -87.5t103 -232.5q0 -116 -74 -211q-13 -18 -28 -32.5t-111 -104.5q-72 -67 -93.5 -119t-21.5 -155h-291q-2 139 38.5 230t152.5 198q79 76 101 108t22 72q0 41 -26 67.5t-66 26.5q-103 0 -146 -147zM215 0v328h313v-328 h-313z" />
<glyph unicode="@" horiz-adv-x="1447" d="M66 647q0 158 52.5 296.5t144.5 237t221 155.5t276 57q169 0 311.5 -78t224.5 -212t82 -294q0 -245 -180 -387q-60 -49 -127.5 -77t-126.5 -28q-57 0 -94 28.5t-47 80.5q-59 -56 -110 -80t-109 -24q-97 0 -158 70.5t-61 180.5q0 114 55 224t143 178.5t180 68.5 q53 0 88 -28.5t58 -91.5l33 90h159l-170 -484q-12 -36 -12 -59q0 -25 19.5 -41t50.5 -16q65 0 127 55t100.5 144.5t38.5 183.5q0 194 -137 326t-338 132q-118 0 -226 -50t-184 -140q-64 -75 -99.5 -184t-35.5 -234q0 -246 136 -390t366 -144q118 0 201.5 28t207.5 111 l84 -92q-128 -106 -232 -146.5t-253 -40.5q-327 0 -508 220q-151 186 -151 454zM539 567q0 -52 22 -82t60 -30q110 0 167 166l37 104q17 46 17 90q0 38 -23 65t-57 27q-52 0 -104 -50.5t-85.5 -130.5t-33.5 -159z" />
<glyph unicode="A" horiz-adv-x="1148" d="M-14 0l379 1366h426l370 -1366h-348l-80 322h-338l-82 -322h-327zM453 561h225l-82 377q-22 100 -31 205q-22 -168 -30 -205z" />
<glyph unicode="B" horiz-adv-x="1218" d="M129 0v1366h498q143 0 212 -15.5t130 -60.5q67 -51 104 -125t37 -157q0 -213 -195 -293q106 -22 170 -111.5t64 -214.5q0 -170 -113 -283q-59 -56 -135 -81t-188 -25h-584zM467 254h108q117 0 171.5 38t54.5 120q0 53 -28 95t-71 56q-50 17 -139 17h-96v-326zM467 834 h108q89 0 130 24q55 36 55 117q0 72 -43.5 104.5t-141.5 32.5h-108v-278z" />
<glyph unicode="C" horiz-adv-x="1286" d="M68 678q0 343 156.5 529t443.5 186q138 0 247 -46.5t177 -132.5q43 -54 66.5 -110t43.5 -152l-336 -61q-15 140 -61 201t-137 61q-120 0 -176 -122t-56 -384q0 -434 215 -434q90 0 142.5 69t72.5 212l351 -45q-31 -229 -177.5 -353.5t-382.5 -124.5q-284 0 -436.5 183 t-152.5 524z" />
<glyph unicode="D" horiz-adv-x="1280" d="M129 0v1366h410q162 0 252 -18t159 -64q124 -82 192 -237.5t68 -358.5q0 -160 -47 -297t-133 -231q-82 -89 -186 -124.5t-281 -35.5h-434zM467 254h59q180 0 257 94t77 314q0 249 -68.5 349.5t-238.5 100.5h-86v-858z" />
<glyph unicode="E" horiz-adv-x="1144" d="M129 0v1366h897v-254h-559v-278h461v-254h-461v-326h594v-254h-932z" />
<glyph unicode="F" horiz-adv-x="1085" d="M129 0v1366h895v-254h-557v-278h459v-254h-459v-580h-338z" />
<glyph unicode="G" horiz-adv-x="1255" d="M68 678q0 335 156.5 525t434.5 190q128 0 232.5 -43.5t167.5 -122.5q36 -45 58.5 -99.5t41.5 -142.5l-307 -55q-12 117 -60 177t-128 60q-118 0 -174 -119.5t-56 -371.5q0 -243 55.5 -353t178.5 -110q88 0 136 58.5t48 164.5v29h-201v254h508v-719h-213l-24 102 q-94 -129 -310 -129q-255 0 -399.5 187.5t-144.5 517.5z" />
<glyph unicode="H" horiz-adv-x="1304" d="M129 0v1366h338v-532h371v532h338v-1366h-338v594h-371v-594h-338z" />
<glyph unicode="I" horiz-adv-x="598" d="M129 0v1366h338v-1366h-338z" />
<glyph unicode="J" horiz-adv-x="995" d="M16 317l314 60q12 -90 37.5 -128t72.5 -38q74 0 95 84q8 39 8 215v856h338v-891q0 -117 -9.5 -178t-35.5 -117q-101 -209 -396 -209q-104 0 -176.5 26t-132.5 85q-92 92 -115 235z" />
<glyph unicode="K" horiz-adv-x="1234" d="M129 0v1366h338v-532l354 532h373l-418 -547l445 -819h-377l-291 555l-86 -111v-444h-338z" />
<glyph unicode="L" horiz-adv-x="1017" d="M129 0v1366h338v-1112h528v-254h-866z" />
<glyph unicode="M" horiz-adv-x="1726" d="M129 0v1366h539l166 -690q32 -133 40 -230q7 54 21 132q7 33 11 59t7 39l144 690h540v-1366h-337v905l-3 58l3 90v59q-9 -40 -41 -174l-224 -938h-268l-219 905q-27 116 -41 207v-1112h-338z" />
<glyph unicode="N" horiz-adv-x="1374" d="M129 0v1366h430l219 -496q42 -97 127 -317v813h338v-1366h-338q-32 70 -167 370t-208 461q-5 12 -18 44.5t-20 50.5l-50 116q17 -132 19 -194q5 -131 6 -154v-694h-338z" />
<glyph unicode="O" horiz-adv-x="1302" d="M68 668q0 307 122 495q70 112 188 171t271 59q163 0 274 -52.5t187 -166.5q125 -188 125 -488q0 -310 -139 -512q-139 -201 -451 -201q-280 0 -422 179q-155 198 -155 516zM438 686q0 -236 33 -342q19 -60 66 -95.5t108 -35.5q116 0 164.5 109t48.5 368q0 246 -37 342 q-20 57 -64.5 89t-103.5 32q-115 0 -165 -109t-50 -358z" />
<glyph unicode="P" horiz-adv-x="1177" d="M129 0v1366h418q151 0 236.5 -11.5t144.5 -39.5q99 -47 154 -144t55 -223q0 -196 -130.5 -301.5t-373.5 -105.5h-166v-541h-338zM467 788h123q196 0 196 164q0 85 -46 122.5t-150 37.5h-123v-324z" />
<glyph unicode="Q" horiz-adv-x="1302" d="M68 668q0 301 122 495q71 113 188.5 171.5t272.5 58.5q160 0 272 -53.5t187 -165.5q125 -185 125 -480q0 -215 -63 -378t-179 -246q-49 -35 -97.5 -53.5t-123.5 -32.5q-2 -10 -2 -25q0 -27 6.5 -39.5t40 -21t83.5 -10t157 -1.5h41v-237h-23l-209 -4q-191 -3 -271.5 58 t-80.5 206q0 39 2 74q-77 15 -125 36t-98 62q-109 89 -167 240.5t-58 345.5zM438 686q0 -236 33 -342q19 -60 66 -95.5t110 -35.5q116 0 164.5 109t48.5 368q0 246 -37 342q-20 57 -64.5 89t-103.5 32q-117 0 -167 -108.5t-50 -358.5z" />
<glyph unicode="R" horiz-adv-x="1193" d="M129 0v1366h461q123 0 194.5 -9.5t126.5 -33.5q100 -44 155.5 -133t55.5 -205q0 -135 -61 -224t-178 -124l297 -637h-369l-258 580l-12 -5h-66l-8 5v-580h-338zM467 834h123q182 0 182 139q0 75 -46.5 107t-156.5 32h-102v-278z" />
<glyph unicode="S" horiz-adv-x="1132" d="M55 362l320 68q19 -110 68 -163.5t132 -53.5q70 0 117 43.5t47 108.5q0 69 -47 105t-182 73q-193 53 -272 106q-72 47 -113 131.5t-41 184.5q0 193 133.5 310.5t353.5 117.5q200 0 320 -96t139 -271l-311 -51q-3 83 -45 130.5t-113 47.5q-63 0 -105 -39.5t-42 -99.5 q0 -66 48 -101t185 -69q203 -49 303 -131q127 -105 127 -295q0 -212 -132.5 -328.5t-375.5 -116.5q-229 0 -354 94.5t-160 294.5z" />
<glyph unicode="T" horiz-adv-x="1091" d="M14 1112v254h1065v-254h-364v-1112h-338v1112h-363z" />
<glyph unicode="U" horiz-adv-x="1236" d="M117 510v856h338v-895q0 -118 16 -164q39 -94 143 -94q59 0 103.5 32.5t56.5 84.5q10 46 10 141v895h338v-895q0 -113 -14 -178t-49 -121q-132 -199 -451 -199q-258 0 -391 148q-58 66 -79 147t-21 242z" />
<glyph unicode="V" horiz-adv-x="1126" d="M-14 1366h362l168 -756q35 -157 55 -282q18 135 54 282l182 756h334l-377 -1366h-397z" />
<glyph unicode="W" horiz-adv-x="1687" d="M0 1366h346l135 -817q24 -139 31 -203q28 163 35 203l139 817h346l144 -817q21 -112 28 -203q12 110 27 203l131 817h326l-293 -1366h-363l-137 784q-30 179 -37 240q-17 -126 -33 -207q-1 -7 -2 -15l-1.5 -12t-0.5 -6l-135 -784h-367z" />
<glyph unicode="X" horiz-adv-x="1120" d="M-14 0l403 717l-373 649h373l154 -283q11 -39 20 -59q0 -2 1 -6t2.5 -10.5t2.5 -12.5l4 12t3.5 9.5t1.5 5.5l22 59q10 29 12 31l131 254h338l-352 -649l404 -717h-375l-170 317q-30 54 -45 95q-26 -85 -43 -115l-164 -297h-350z" />
<glyph unicode="Y" horiz-adv-x="1107" d="M-35 1366h359l200 -440q12 -26 17.5 -41.5t9 -28.5t6.5 -22q27 74 33 92l207 440h344l-422 -805v-561h-338v561z" />
<glyph unicode="Z" horiz-adv-x="1050" d="M61 0v231l560 881h-541v254h930v-227l-564 -885h564v-254h-949z" />
<glyph unicode="[" horiz-adv-x="681" d="M150 -354v1720h518v-201h-242v-1319h242v-200h-518z" />
<glyph unicode="\" horiz-adv-x="849" d="M96 1366h180l603 -1720h-181z" />
<glyph unicode="]" horiz-adv-x="681" d="M14 -154h242v1319h-242v201h518v-1720h-518v200z" />
<glyph unicode="^" horiz-adv-x="1024" d="M25 709l301 665h372l301 -665h-294l-193 440l-193 -440h-294z" />
<glyph unicode="_" horiz-adv-x="1024" d="M0 -109h1024v-198h-1024v198z" />
<glyph unicode="`" horiz-adv-x="1024" d="M209 1368h319l150 -272h-221z" />
<glyph unicode="a" horiz-adv-x="1050" d="M59 242q0 122 82 199.5t265 131.5q110 30 237 56v24q0 69 -25 96t-90 27q-111 0 -131 -114l-297 36q26 154 131.5 226.5t303.5 72.5q242 0 344 -108q44 -47 57.5 -102t13.5 -189v-246q0 -247 15 -352h-297l-13 80q-71 -57 -136.5 -82t-147.5 -25q-141 0 -226.5 73.5 t-85.5 195.5zM383 274q0 -35 25.5 -57t66.5 -22q77 0 168 65v176q-73 -9 -158 -41q-102 -41 -102 -121z" />
<glyph unicode="b" horiz-adv-x="1062" d="M102 0v1366h308v-502q98 133 252 133q158 0 251 -134t93 -361q0 -221 -86 -363q-46 -75 -125.5 -120.5t-165.5 -45.5q-135 0 -246 117l-18 -90h-263zM410 268q43 -40 72.5 -56.5t58.5 -16.5q70 0 106.5 74.5t36.5 217.5q0 128 -34.5 195.5t-98.5 67.5q-36 0 -65 -18.5 t-76 -72.5v-391z" />
<glyph unicode="c" horiz-adv-x="995" d="M59 481q0 238 127 377t344 139q173 0 278 -87t130 -253l-276 -43q-3 75 -38 118.5t-92 43.5q-151 0 -151 -289q0 -292 143 -292q59 0 91 37.5t47 123.5l276 -32q-38 -351 -426 -351q-216 0 -334.5 132.5t-118.5 375.5z" />
<glyph unicode="d" horiz-adv-x="1067" d="M59 481q0 214 86 350q50 77 125 121.5t154 44.5q70 0 124.5 -29.5t110.5 -95.5v494h308v-1366h-269l-14 98q-60 -66 -120.5 -95.5t-135.5 -29.5q-169 0 -269 138t-100 370zM381 485q0 -135 40 -212.5t109 -77.5q78 0 129 88v379q-54 88 -135 88q-67 0 -105 -70.5 t-38 -194.5z" />
<glyph unicode="e" horiz-adv-x="1026" d="M59 469q0 250 121.5 389t339.5 139q254 0 365 -198q43 -76 56 -138t13 -219v-24h-571q3 -111 25 -154q38 -69 122 -69q110 0 138 110l284 -22q-71 -310 -432 -310q-221 0 -341 129t-120 367zM383 584h285q-3 94 -40 143t-104 49q-64 0 -101.5 -51.5t-39.5 -140.5z" />
<glyph unicode="f" horiz-adv-x="661" d="M-6 752v211h149v57q0 125 22.5 195.5t74.5 111.5q81 66 223 66q78 0 186 -27v-209q-43 14 -78 14q-67 0 -93.5 -30t-26.5 -107v-71h198v-211h-198v-752h-308v752h-149z" />
<glyph unicode="g" horiz-adv-x="1064" d="M72 -145q0 101 114 161q-86 58 -86 152q0 137 185 205q-199 81 -199 284q0 152 117 246t309 94t301 -92q73 109 223 109q17 0 31 -2v-207q-37 18 -74 18q-39 0 -84 -18q64 -73 64 -164q0 -143 -119.5 -227t-321.5 -84q-49 0 -114 10q-53 -18 -53 -55q0 -20 18 -27 q19 -11 52 -15t194 -14q191 -12 229.5 -17.5t81.5 -27.5q60 -31 92.5 -89t32.5 -134q0 -161 -137 -245.5t-398 -84.5q-217 0 -337.5 59t-120.5 165zM281 -82q0 -102 305 -102q245 0 245 78q0 27 -22 39t-72 12q-241 0 -432 35q-24 -30 -24 -62zM408 655q0 -69 32 -108 t90 -39q56 0 88.5 39t32.5 108q0 72 -31 113t-88 41q-60 0 -92 -40t-32 -114z" />
<glyph unicode="h" horiz-adv-x="1071" d="M102 0v1366h308v-516q52 63 141.5 105t169.5 42q69 0 125 -31t82 -85q23 -44 32 -97.5t9 -144.5v-639h-307v616q0 63 -27 97.5t-80 34.5q-69 0 -145 -76v-672h-308z" />
<glyph unicode="i" horiz-adv-x="512" d="M102 0v963h308v-963h-308zM102 1092v274h308v-274h-308z" />
<glyph unicode="j" horiz-adv-x="512" d="M-80 -129q52 -8 72 -8q32 0 59 15.5t39 41.5q12 27 12 113v930h308v-930q0 -114 -9 -173t-34 -102q-72 -131 -297 -131q-56 0 -150 13v231zM102 1094v272h308v-272h-308z" />
<glyph unicode="k" horiz-adv-x="1001" d="M102 0v1366h308v-692l204 289h351l-287 -349l323 -614h-348l-186 373l-57 -68v-305h-308z" />
<glyph unicode="l" horiz-adv-x="512" d="M102 0v1366h308v-1366h-308z" />
<glyph unicode="m" horiz-adv-x="1591" d="M102 0v963h308v-113q150 147 301 147q72 0 128.5 -39t84.5 -108q70 70 153.5 108.5t163.5 38.5q66 0 121.5 -29.5t83.5 -80.5q43 -76 43 -240v-647h-307v614q0 72 -21.5 104t-70.5 32q-75 0 -142 -76v-674h-307v614q0 136 -90 136q-71 0 -141 -76v-674h-308z" />
<glyph unicode="n" horiz-adv-x="1073" d="M102 0v963h308v-109q161 143 323 143q64 0 118.5 -31t78.5 -83q23 -47 32 -104t9 -161v-618h-307v618q0 132 -105 132q-67 0 -149 -76v-674h-308z" />
<glyph unicode="o" horiz-adv-x="1046" d="M59 481q0 238 126 377t343 139t339 -136.5t122 -379.5q0 -107 -34 -208t-91 -164q-58 -64 -152 -100t-204 -36q-209 0 -329 136t-120 372zM381 492q0 -152 35 -224.5t108 -72.5q144 0 144 311q0 270 -144 270q-143 0 -143 -284z" />
<glyph unicode="p" horiz-adv-x="1064" d="M102 -354v1317h308v-101q110 135 260 135q152 0 245 -134.5t93 -354.5q0 -198 -66 -342q-40 -87 -123 -140t-180 -53q-68 0 -122 25.5t-107 81.5v-434h-308zM410 281q55 -86 127 -86t109.5 75.5t37.5 218.5q0 124 -34.5 192.5t-96.5 68.5q-68 0 -143 -84v-385z" />
<glyph unicode="q" horiz-adv-x="1067" d="M59 485q0 205 80 338q50 82 124 128t157 46q72 0 128.5 -32.5t110.5 -104.5l33 103h275v-1317h-308v432q-99 -105 -237 -105q-166 0 -264.5 139.5t-98.5 372.5zM381 489q0 -139 39 -216.5t110 -77.5q73 0 129 88v379q-58 88 -133 88q-69 0 -107 -69.5t-38 -191.5z" />
<glyph unicode="r" horiz-adv-x="784" d="M102 0v963h308v-86q0 -11 -2 -23v-55l2 -37q56 110 135.5 169.5t173.5 59.5q5 0 45 -4v-291q-37 11 -68 11q-192 0 -286 -177v-530h-308z" />
<glyph unicode="s" horiz-adv-x="897" d="M59 676q0 143 103.5 232t269.5 89q218 0 313 -118q44 -58 56 -150l-283 -24q-9 88 -88 88q-38 0 -64 -23.5t-26 -58.5q0 -60 59 -86q9 -5 168 -37q269 -53 269 -291q0 -151 -112 -238.5t-304 -87.5q-330 0 -357 295l285 19q6 -52 34 -80.5t73 -28.5q40 0 67 24.5t27 61.5 q0 39 -28 62.5t-89 35.5q-126 24 -169.5 37.5t-82.5 38.5q-121 79 -121 240z" />
<glyph unicode="t" horiz-adv-x="649" d="M-20 752v211h149v264h307v-264h199v-211h-199v-385q0 -81 8 -101q9 -26 39 -44.5t62 -18.5q23 0 90 22v-225q-85 -12 -201 -12q-153 0 -217 53q-49 38 -68.5 95t-19.5 161v455h-149z" />
<glyph unicode="u" horiz-adv-x="1071" d="M102 350v613h308v-574q0 -95 18 -125q27 -43 84 -43q78 0 150 72v670h307v-963h-299v127q-17 -51 -125.5 -102.5t-200.5 -51.5q-68 0 -121.5 32t-81.5 89q-23 49 -31 102t-8 154z" />
<glyph unicode="v" horiz-adv-x="897" d="M-20 963h337l97 -385q40 -160 59 -336q12 155 53 354l74 367h318l-285 -963h-344z" />
<glyph unicode="w" horiz-adv-x="1454" d="M0 963h324l102 -514q22 -114 25 -213q5 84 28 213l88 514h332l86 -498q24 -142 27 -229q9 129 30 229l101 498h311l-272 -963h-334l-90 504q-18 100 -29 190q-5 -45 -10 -88q-20 -120 -59.5 -346t-45.5 -260h-342z" />
<glyph unicode="x" horiz-adv-x="935" d="M-27 0l320 498l-283 465h346l76 -150q24 -48 47 -137q27 86 53 137l74 150h334l-289 -465l314 -498h-359l-90 195q-25 56 -37 112q-13 -52 -47 -112l-108 -195h-351z" />
<glyph unicode="y" horiz-adv-x="901" d="M-20 963h335l119 -451q26 -99 35 -176q13 85 33 176l100 451h320l-306 -936q-69 -214 -120 -279q-92 -123 -293 -123q-63 0 -168 21v225q67 -21 115 -21q69 0 105.5 33.5t59.5 116.5z" />
<glyph unicode="z" horiz-adv-x="931" d="M47 0v205l383 489q14 17 37 43q0 2 10 15h-401v211h801v-201l-388 -483q-6 -9 -43 -48l-4 -3l-6 -6t-6 -7h447v-215h-830z" />
<glyph unicode="{" horiz-adv-x="681" d="M109 459v207q59 12 85.5 50t26.5 109v344q0 157 74 225t244 68q34 0 69 -2l62 -2v-217q-71 1 -106 -2.5t-58 -21t-28 -43.5t-5 -80v-285q0 -104 -25.5 -156.5t-99.5 -99.5q55 -34 80.5 -67.5t35 -86t9.5 -155.5v-232q0 -38 1 -58.5t9 -39.5t18 -26.5t36 -13.5t53.5 -7 t79.5 -2v-217h-62q-23 0 -49 -1t-27 -1q-166 0 -238.5 69t-72.5 226v340q0 85 -25.5 125.5t-86.5 52.5z" />
<glyph unicode="|" horiz-adv-x="1024" d="M344 -342v1708h338v-1708h-338z" />
<glyph unicode="}" horiz-adv-x="681" d="M14 -135q52 1 79.5 2t53.5 7t36 13.5t18 26.5t9 39.5t1 58.5v232q0 103 9.5 155.5t35 86t80.5 67.5q-74 47 -99.5 99.5t-25.5 156.5v285q0 54 -5 80t-28 43.5t-58 21t-106 2.5v217l62 2q35 2 69 2q170 0 244 -68t74 -225v-344q0 -71 26.5 -109t85.5 -50v-207 q-61 -12 -86.5 -52.5t-25.5 -125.5v-340q0 -157 -73 -226t-240 -69q-2 0 -12 0.5t-27 1t-35 0.5h-62v217z" />
<glyph unicode="~" horiz-adv-x="1366" d="M188 1255q114 289 312 289q64 0 229 -67q81 -34 104 -42t46 -8q41 0 73 28.5t66 94.5l162 -137q-63 -155 -136.5 -220t-185.5 -65q-42 0 -80 12t-147 58q-103 43 -146 43q-38 0 -69 -27.5t-66 -93.5z" />
<glyph unicode="&#xa1;" horiz-adv-x="655" d="M150 -354l47 880h262l45 -880h-354zM170 635v328h313v-328h-313z" />
<glyph unicode="&#xa2;" d="M147 682q0 239 128 378.5t348 139.5q48 0 102 -10l68 178l86 -27l-64 -178q88 -38 143.5 -118.5t67.5 -184.5l-276 -43q-2 60 -25 101l-182 -498q35 -23 69 -23q57 0 91 39t47 123l276 -33q-41 -350 -422 -350q-64 0 -145 17l-84 -209l-84 36l82 203q-108 56 -167 175.5 t-59 283.5zM457 707q0 -84 28 -179l162 447q-32 4 -43 4q-69 0 -108 -72t-39 -200z" />
<glyph unicode="&#xa3;" d="M125 229q0 103 66 172.5t163 69.5q63 0 115 -41q0 41 -9.5 79.5t-39.5 117.5h-246v198h154q-54 108 -54 203q0 163 116.5 262t307.5 99q201 0 318 -111q37 -37 57.5 -74.5t34.5 -99.5l-274 -100q-29 87 -58 118q-37 37 -74 37t-61.5 -37t-24.5 -92q0 -41 13.5 -80.5 t56.5 -124.5h285v-198h-226q23 -88 23 -172q0 -77 -23 -156q81 -66 123 -66q26 0 44.5 28.5t45.5 107.5l230 -119q-56 -145 -124.5 -210t-166.5 -65q-59 0 -109.5 23t-128.5 84q-57 -59 -111.5 -83t-131.5 -24q-131 0 -211 69.5t-80 184.5zM305 223q0 -41 30.5 -71.5 t70.5 -30.5t62.5 33t31.5 106q-2 3 -11 12q-42 54 -86 54q-38 0 -68 -31.5t-30 -71.5z" />
<glyph unicode="&#xa4;" horiz-adv-x="1366" d="M51 1174l133 135l211 -211q137 94 289 94t283 -92l207 207l133 -133l-205 -207q51 -78 72.5 -144t21.5 -143q0 -144 -90 -281l207 -209l-131 -133l-209 207q-140 -94 -291 -94q-76 0 -143 21.5t-146 72.5l-207 -207l-133 133l207 207q-92 136 -92 285q0 146 94 283z M393 680q0 -118 85.5 -203.5t203.5 -85.5q120 0 204.5 85.5t84.5 205.5q0 119 -84 204t-201 85q-123 0 -208 -84t-85 -207z" />
<glyph unicode="&#xa5;" d="M35 1366h334l223 -569l219 569h340l-188 -418h118v-207h-209l-65 -141h237v-207h-278v-393h-350v393h-275v207h232l-64 141h-207v207h117z" />
<glyph unicode="&#xa6;" horiz-adv-x="1024" d="M344 313h338v-655h-338v655zM344 639v727h338v-727h-338z" />
<glyph unicode="&#xa7;" d="M96 547q0 92 42.5 160t133.5 124q-98 76 -98 209q0 154 119.5 251.5t308.5 97.5q158 0 271 -72t169 -209l-280 -94q-20 66 -67 105.5t-105 39.5q-46 0 -75.5 -23.5t-29.5 -60.5q0 -26 15 -41q17 -18 46 -31.5t204 -82.5q186 -73 263 -157t77 -212q0 -89 -41 -160.5 t-129 -134.5q96 -83 96 -209q0 -152 -122.5 -246t-320.5 -94q-188 0 -308 76.5t-161 222.5l302 92q26 -88 66.5 -124.5t109.5 -36.5q54 0 88.5 25t34.5 63q0 34 -34 60t-114 54q-166 56 -283 123q-178 99 -178 285zM379 604q0 -36 13 -52q22 -28 157 -95q51 -26 196 -95 q62 79 62 130q0 56 -74 102q-47 26 -282 139q-72 -72 -72 -129z" />
<glyph unicode="&#xa8;" horiz-adv-x="1024" d="M170 1094v260h260v-260h-260zM592 1094v260h260v-260h-260z" />
<glyph unicode="&#xa9;" horiz-adv-x="1490" d="M61 682q0 205 89 370.5t246.5 259t353.5 93.5q141 0 267.5 -56t216.5 -152t143 -230.5t53 -284.5q0 -201 -90 -366.5t-247 -260t-348 -94.5q-143 0 -270 55.5t-217.5 151.5t-143.5 229.5t-53 284.5zM170 684q0 -166 77 -308t209.5 -225t288.5 -83t288.5 82.5t210 225 t77.5 310.5q0 122 -44 239t-120 199q-75 79 -185.5 126.5t-219.5 47.5q-164 0 -297 -79.5t-209 -220.5t-76 -314zM399 680q0 204 94.5 316t266.5 112q136 0 214 -65t109 -205l-211 -37q-9 85 -34 119t-78 34q-68 0 -99.5 -70t-31.5 -222q0 -252 121 -252q53 0 81.5 39.5 t40.5 128.5l220 -29q-19 -141 -106 -217t-232 -76q-170 0 -262.5 110t-92.5 314z" />
<glyph unicode="&#xaa;" horiz-adv-x="792" d="M76 598v145h641v-145h-641zM129 952q0 36 12.5 65t39 51t54 37.5t72.5 29.5t79 22t87 19v18q0 43 -15 60.5t-52 17.5q-66 0 -78 -68l-174 23q27 151 252 151q147 0 206 -59q26 -26 33.5 -56.5t7.5 -105.5v-143q0 -136 9 -195h-175l-8 33q-80 -49 -166 -49 q-85 0 -134.5 40t-49.5 109zM311 965q0 -23 17 -37.5t45 -14.5q48 0 106 41v115q-168 -24 -168 -104z" />
<glyph unicode="&#xab;" horiz-adv-x="901" d="M55 479l164 387h232l-158 -387l158 -389h-232zM424 479l164 387h231l-157 -387l157 -389h-231z" />
<glyph unicode="&#xac;" horiz-adv-x="1024" d="M68 307v293h886v-600h-327v307h-559z" />
<glyph unicode="&#xad;" horiz-adv-x="464" d="M0 348v260h465v-260h-465z" />
<glyph unicode="&#xae;" horiz-adv-x="1490" d="M61 682q0 205 89 370.5t246.5 259t353.5 93.5q141 0 267.5 -56t216.5 -152t143 -230.5t53 -284.5q0 -201 -90 -366.5t-247 -260t-348 -94.5q-143 0 -270 55.5t-217.5 151.5t-143.5 229.5t-53 284.5zM170 684q0 -166 77 -308t209.5 -225t288.5 -83t288.5 82.5t210 225 t77.5 310.5q0 122 -44 239t-120 199q-75 79 -185.5 126.5t-219.5 47.5q-164 0 -297 -79.5t-209 -220.5t-76 -314zM446 272v820h279q128 0 193 -27q60 -26 93 -80t33 -123q0 -80 -36 -133.5t-103 -75.5l178 -381h-231l-152 344q-4 -2 -10 -2h-33v-342h-211zM649 770h74 q113 0 113 84q0 46 -28 65t-97 19h-62v-168z" />
<glyph unicode="&#xaf;" horiz-adv-x="1024" d="M184 1137v182h656v-182h-656z" />
<glyph unicode="&#xb0;" horiz-adv-x="778" d="M82 1077q0 129 89.5 219t217.5 90q129 0 218 -90t89 -221q0 -124 -90.5 -213.5t-216.5 -89.5q-127 0 -217 89.5t-90 215.5zM231 1077q0 -66 46.5 -112.5t109.5 -46.5q64 0 112 47t48 110q0 69 -47 117.5t-113 48.5q-63 0 -109.5 -49t-46.5 -115z" />
<glyph unicode="&#xb1;" d="M68 -100v200h1050v-200h-1050zM68 582v200h426v426h200v-426h424v-200h-424v-357h-200v357h-426z" />
<glyph unicode="&#xb2;" horiz-adv-x="735" d="M59 547v137q45 75 98 130.5t171 152.5q65 55 91.5 94.5t26.5 81.5q0 39 -20 62.5t-53 23.5q-40 0 -63.5 -31t-33.5 -100l-204 35q40 245 301 245q135 0 212 -64t77 -177q0 -104 -70 -181q-23 -23 -43 -39.5t-117 -91.5q-87 -70 -137 -118l14 -2l80 2h268v-160h-598z" />
<glyph unicode="&#xb3;" horiz-adv-x="735" d="M35 756l203 43q20 -117 112 -117q47 0 77 29.5t30 76.5q0 63 -42.5 89t-146.5 26q-14 0 -26 -2v150h34q85 0 120.5 21.5t35.5 72.5q0 38 -22.5 61t-59.5 23q-43 0 -68.5 -24t-45.5 -83l-177 56q41 105 112.5 152.5t188.5 47.5q126 0 201.5 -59.5t75.5 -157.5 q0 -60 -31 -104.5t-86 -63.5q82 -31 117 -77t35 -123q0 -121 -87.5 -191t-238.5 -70q-136 0 -209.5 53.5t-101.5 170.5z" />
<glyph unicode="&#xb4;" horiz-adv-x="1024" d="M362 1096l150 272h313l-245 -272h-218z" />
<glyph unicode="&#xb6;" d="M135 1008q0 102 44.5 182.5t125.5 122.5q55 30 119 41.5t178 11.5h533v-129h-103v-1606h-178v1606h-145v-1606h-179v1026h-26q-167 0 -268 97t-101 254z" />
<glyph unicode="&#xb7;" horiz-adv-x="559" d="M123 342v328h313v-328h-313z" />
<glyph unicode="&#xb8;" horiz-adv-x="1024" d="M379 -365l31 101l8 -2l39 -15q20 -4 35 -4q67 0 67 45q0 27 -23 38.5t-79 11.5h-25l47 190h113l-25 -98q78 -6 120 -43t42 -99q0 -71 -54 -115t-140 -44q-78 0 -156 34z" />
<glyph unicode="&#xb9;" horiz-adv-x="735" d="M152 547v160h139v477h-139v110q51 19 221 72h112v-659h140v-160h-473z" />
<glyph unicode="&#xba;" horiz-adv-x="792" d="M76 598v145h641v-145h-641zM123 1090q0 133 74 210.5t200 77.5q129 0 201 -77t72 -214q0 -133 -75.5 -208.5t-207.5 -75.5q-123 0 -193.5 76.5t-70.5 210.5zM313 1094q0 -174 82 -174q84 0 84 182q0 160 -84 160q-82 0 -82 -168z" />
<glyph unicode="&#xbb;" horiz-adv-x="901" d="M82 90l160 389l-160 387h233l162 -387l-162 -389h-233zM451 90l159 389l-159 387h233l162 -387l-162 -389h-233z" />
<glyph unicode="&#xbc;" horiz-adv-x="1662" d="M152 547v160h139v477h-139v110q51 19 221 72h112v-659h140v-160h-473zM463 0l567 1366h172l-569 -1366h-170zM979 184v127l272 508h260v-483h103v-152h-103v-184h-194v184h-338zM1155 313h170l-2 351z" />
<glyph unicode="&#xbd;" horiz-adv-x="1662" d="M152 547v160h139v477h-139v110q51 19 221 72h112v-659h140v-160h-473zM463 0l567 1366h172l-569 -1366h-170zM987 0v137q46 75 98.5 130.5t169.5 152.5q66 55 92.5 95t26.5 81q0 38 -20 62t-54 24q-40 0 -63 -31t-33 -100l-205 35q41 245 301 245q135 0 212 -64t77 -177 q0 -105 -69 -180q-23 -23 -43 -39.5t-117 -91.5q-81 -65 -137 -119l14 -2l80 2h268v-160h-598z" />
<glyph unicode="&#xbe;" horiz-adv-x="1662" d="M35 756l203 43q20 -117 112 -117q47 0 77 29.5t30 76.5q0 63 -42.5 89t-146.5 26q-14 0 -26 -2v150h34q85 0 120.5 21.5t35.5 72.5q0 38 -22.5 61t-59.5 23q-43 0 -68.5 -24t-45.5 -83l-177 56q41 105 112.5 152.5t188.5 47.5q126 0 201.5 -59.5t75.5 -157.5 q0 -60 -31 -104.5t-86 -63.5q82 -31 117 -77t35 -123q0 -121 -87.5 -191t-238.5 -70q-136 0 -209.5 53.5t-101.5 170.5zM463 0l567 1366h170l-567 -1366h-170zM977 184v127l274 508h260v-483h103v-152h-103v-184h-194v184h-340zM1155 313h170l-2 351z" />
<glyph unicode="&#xbf;" horiz-adv-x="927" d="M82 -68q0 114 74 209q16 20 95 94q27 25 44 41q68 65 91 113.5t24 134.5h290q2 -133 -38 -219t-152 -188q-79 -73 -101 -103.5t-22 -66.5q0 -31 25 -50.5t65 -19.5q105 0 148 121l247 -131q-53 -111 -159 -170t-256 -59q-171 0 -273 79.5t-102 214.5zM397 635v328h314 v-328h-314z" />
<glyph unicode="&#xc0;" horiz-adv-x="1148" d="M-14 0l379 1366h426l370 -1366h-348l-80 322h-338l-82 -322h-327zM217 1751h320l149 -272h-221zM453 561h225l-82 377q-22 100 -31 205q-22 -168 -30 -205z" />
<glyph unicode="&#xc1;" horiz-adv-x="1148" d="M-14 0l379 1366h426l370 -1366h-348l-80 322h-338l-82 -322h-327zM453 561h225l-82 377q-22 100 -31 205q-22 -168 -30 -205zM485 1479l150 272h313l-246 -272h-217z" />
<glyph unicode="&#xc2;" horiz-adv-x="1148" d="M-14 0l379 1366h426l370 -1366h-348l-80 322h-338l-82 -322h-327zM223 1479l217 256h285l213 -256h-256l-102 116l-109 -116h-248zM453 561h225l-82 377q-22 100 -31 205q-22 -168 -30 -205z" />
<glyph unicode="&#xc3;" horiz-adv-x="1148" d="M-14 0l379 1366h426l370 -1366h-348l-80 322h-338l-82 -322h-327zM270 1483q0 115 57 187.5t148 72.5q33 0 62 -7t137 -42q37 -13 61 -13q22 0 33 15.5t14 50.5h148q-4 -126 -58 -195t-147 -69q-29 0 -56.5 7t-162.5 48q-16 4 -31 4q-23 0 -36 -13.5t-19 -45.5h-150z M453 561h225l-82 377q-22 100 -31 205q-22 -168 -30 -205z" />
<glyph unicode="&#xc4;" horiz-adv-x="1148" d="M-14 0l379 1366h426l370 -1366h-348l-80 322h-338l-82 -322h-327zM231 1477v260h261v-260h-261zM453 561h225l-82 377q-22 100 -31 205q-22 -168 -30 -205zM653 1477v260h260v-260h-260z" />
<glyph unicode="&#xc5;" horiz-adv-x="1148" d="M-14 0l379 1366h426l370 -1366h-348l-80 322h-338l-82 -322h-327zM354 1671q0 91 67 157t159 66q94 0 159.5 -65.5t65.5 -159.5q0 -91 -65.5 -155t-157.5 -64q-95 0 -161.5 64.5t-66.5 156.5zM453 561h225l-82 377q-22 100 -31 205q-22 -168 -30 -205zM492 1667 q0 -34 25.5 -58t62.5 -24q35 0 60.5 24.5t25.5 59.5q0 37 -23.5 60.5t-60.5 23.5q-38 0 -64 -24.5t-26 -61.5z" />
<glyph unicode="&#xc6;" horiz-adv-x="1882" d="M-27 0l715 1366h1075v-254h-551v-278h455v-254h-455v-326h588v-254h-926v322h-376l-148 -322h-377zM610 575h264v553z" />
<glyph unicode="&#xc7;" horiz-adv-x="1284" d="M68 676q0 160 36.5 290t108.5 225.5t188 147.5t267 52q283 0 424 -179q42 -53 65.5 -109.5t44.5 -150.5l-340 -61q-17 141 -62 201.5t-134 60.5q-118 0 -173 -119.5t-55 -376.5q0 -225 53 -334.5t162 -109.5q112 0 170 106q29 56 47 177l347 -47q-38 -229 -175.5 -349 t-363.5 -123l-19 -75q162 -15 162 -144q0 -68 -53.5 -112.5t-136.5 -44.5t-158 34l29 101q65 -19 90 -19q28 0 44.5 11.5t16.5 31.5q0 54 -96 54q-19 0 -31 -2l41 165q-243 28 -371 208t-128 491z" />
<glyph unicode="&#xc8;" horiz-adv-x="1144" d="M129 0v1366h897v-254h-559v-278h461v-254h-461v-326h594v-254h-932zM268 1751h320l149 -272h-221z" />
<glyph unicode="&#xc9;" horiz-adv-x="1144" d="M129 0v1366h897v-254h-559v-278h461v-254h-461v-326h594v-254h-932zM483 1479l150 272h313l-246 -272h-217z" />
<glyph unicode="&#xca;" horiz-adv-x="1144" d="M129 0v1366h897v-254h-559v-278h461v-254h-461v-326h594v-254h-932zM236 1479l217 256h284l213 -256h-256l-102 116l-109 -116h-247z" />
<glyph unicode="&#xcb;" horiz-adv-x="1144" d="M129 0v1366h897v-254h-559v-278h461v-254h-461v-326h594v-254h-932zM258 1477v260h260v-260h-260zM680 1477v260h260v-260h-260z" />
<glyph unicode="&#xcc;" horiz-adv-x="598" d="M-51 1751h319l150 -272h-221zM129 0v1366h338v-1366h-338z" />
<glyph unicode="&#xcd;" horiz-adv-x="598" d="M129 0v1366h338v-1366h-338zM203 1479l149 272h314l-246 -272h-217z" />
<glyph unicode="&#xce;" horiz-adv-x="598" d="M-45 1479l217 256h285l213 -256h-256l-103 116l-108 -116h-248zM129 0v1366h338v-1366h-338z" />
<glyph unicode="&#xcf;" horiz-adv-x="598" d="M-8 1477v260h260v-260h-260zM129 0v1366h338v-1366h-338zM360 1477v260h261v-260h-261z" />
<glyph unicode="&#xd0;" horiz-adv-x="1280" d="M-35 594v240h164v532h410q162 0 252 -18t161 -64q124 -82 192 -237.5t68 -358.5q0 -160 -47 -297t-133 -231q-82 -89 -186 -124.5t-283 -35.5h-434v594h-164zM467 254h59q181 0 258.5 94t77.5 314q0 234 -59 335q-71 115 -248 115h-88v-278h219v-240h-219v-340z" />
<glyph unicode="&#xd1;" horiz-adv-x="1374" d="M129 0v1366h430l219 -496q42 -97 127 -317v813h338v-1366h-338q-32 70 -167 370t-208 461q-5 12 -18 44.5t-20 50.5l-50 116q17 -132 19 -194q5 -131 6 -154v-694h-338zM397 1483q0 115 57 187.5t148 72.5q33 0 62 -7t137 -42q37 -13 61 -13q22 0 33 15.5t14 50.5h148 q-4 -126 -58 -195t-147 -69q-39 0 -219 55q-16 4 -31 4q-23 0 -36 -13.5t-19 -45.5h-150z" />
<glyph unicode="&#xd2;" horiz-adv-x="1302" d="M68 668q0 307 122 495q70 112 188 171t271 59q163 0 274 -52.5t187 -166.5q125 -188 125 -488q0 -310 -139 -512q-139 -201 -451 -201q-280 0 -422 179q-155 198 -155 516zM307 1751h320l149 -272h-221zM438 686q0 -236 33 -342q19 -60 66 -95.5t108 -35.5 q116 0 164.5 109t48.5 368q0 246 -37 342q-20 57 -64.5 89t-103.5 32q-115 0 -165 -109t-50 -358z" />
<glyph unicode="&#xd3;" horiz-adv-x="1302" d="M68 668q0 307 122 495q70 112 188 171t271 59q163 0 274 -52.5t187 -166.5q125 -188 125 -488q0 -310 -139 -512q-139 -201 -451 -201q-280 0 -422 179q-155 198 -155 516zM438 686q0 -236 33 -342q19 -60 66 -95.5t108 -35.5q116 0 164.5 109t48.5 368q0 246 -37 342 q-20 57 -64.5 89t-103.5 32q-115 0 -165 -109t-50 -358zM549 1479l149 272h314l-246 -272h-217z" />
<glyph unicode="&#xd4;" horiz-adv-x="1302" d="M68 668q0 307 122 495q70 112 188 171t271 59q163 0 274 -52.5t187 -166.5q125 -188 125 -488q0 -310 -139 -512q-139 -201 -451 -201q-280 0 -422 179q-155 198 -155 516zM307 1479l217 256h285l213 -256h-256l-102 116l-109 -116h-248zM438 686q0 -236 33 -342 q19 -60 66 -95.5t108 -35.5q116 0 164.5 109t48.5 368q0 246 -37 342q-20 57 -64.5 89t-103.5 32q-115 0 -165 -109t-50 -358z" />
<glyph unicode="&#xd5;" horiz-adv-x="1302" d="M68 668q0 307 122 495q70 112 188 171t271 59q163 0 274 -52.5t187 -166.5q125 -188 125 -488q0 -310 -139 -512q-139 -201 -451 -201q-280 0 -422 179q-155 198 -155 516zM375 1483q0 115 57 187.5t148 72.5q33 0 61 -7t137 -42q37 -13 62 -13q22 0 33 15.5t14 50.5h147 q-4 -126 -58 -195t-147 -69q-29 0 -56.5 7t-162.5 48q-16 4 -30 4q-24 0 -37 -13.5t-19 -45.5h-149zM438 686q0 -236 33 -342q19 -60 66 -95.5t108 -35.5q116 0 164.5 109t48.5 368q0 246 -37 342q-20 57 -64.5 89t-103.5 32q-115 0 -165 -109t-50 -358z" />
<glyph unicode="&#xd6;" horiz-adv-x="1302" d="M68 668q0 307 122 495q70 112 188 171t271 59q163 0 274 -52.5t187 -166.5q125 -188 125 -488q0 -310 -139 -512q-139 -201 -451 -201q-280 0 -422 179q-155 198 -155 516zM324 1477v260h260v-260h-260zM438 686q0 -236 33 -342q19 -60 66 -95.5t108 -35.5 q116 0 164.5 109t48.5 368q0 246 -37 342q-20 57 -64.5 89t-103.5 32q-115 0 -165 -109t-50 -358zM745 1477v260h261v-260h-261z" />
<glyph unicode="&#xd7;" d="M100 1008l144 153l348 -334l332 349l145 -140l-332 -350l348 -330l-143 -149l-350 330l-328 -347l-147 138l332 350z" />
<glyph unicode="&#xd8;" horiz-adv-x="1302" d="M68 668q0 301 122 495q71 113 188.5 171.5t274.5 58.5q211 0 348 -103l119 150l105 -78l-131 -166q74 -109 106.5 -226.5t32.5 -273.5q0 -324 -137 -522q-142 -201 -449 -201q-219 0 -348 103l-123 -156l-98 80l131 170q-141 192 -141 498zM438 664q0 -64 6 -172l377 546 q-28 59 -68.5 87t-99.5 28q-46 0 -82 -18t-58.5 -53.5t-38 -78.5t-23 -102t-10.5 -113t-3 -124zM481 315q53 -102 166 -102q114 0 162.5 109t48.5 366q0 80 -4 168z" />
<glyph unicode="&#xd9;" horiz-adv-x="1236" d="M117 510v856h338v-895q0 -118 16 -164q39 -94 143 -94q59 0 103.5 32.5t56.5 84.5q10 46 10 141v895h338v-895q0 -113 -14 -178t-49 -121q-132 -199 -451 -199q-258 0 -391 148q-58 66 -79 147t-21 242zM297 1751h319l150 -272h-221z" />
<glyph unicode="&#xda;" horiz-adv-x="1236" d="M117 510v856h338v-895q0 -118 16 -164q39 -94 143 -94q59 0 103.5 32.5t56.5 84.5q10 46 10 141v895h338v-895q0 -113 -14 -178t-49 -121q-132 -199 -451 -199q-258 0 -391 148q-58 66 -79 147t-21 242zM510 1479l149 272h314l-246 -272h-217z" />
<glyph unicode="&#xdb;" horiz-adv-x="1236" d="M117 510v856h338v-895q0 -118 16 -164q39 -94 143 -94q59 0 103.5 32.5t56.5 84.5q10 46 10 141v895h338v-895q0 -113 -14 -178t-49 -121q-132 -199 -451 -199q-258 0 -391 148q-58 66 -79 147t-21 242zM283 1479l217 256h284l213 -256h-256l-102 116l-109 -116h-247z " />
<glyph unicode="&#xdc;" horiz-adv-x="1236" d="M117 510v856h338v-895q0 -118 16 -164q39 -94 143 -94q59 0 103.5 32.5t56.5 84.5q10 46 10 141v895h338v-895q0 -113 -14 -178t-49 -121q-132 -199 -451 -199q-258 0 -391 148q-58 66 -79 147t-21 242zM291 1477v260h260v-260h-260zM713 1477v260h260v-260h-260z" />
<glyph unicode="&#xdd;" horiz-adv-x="1107" d="M-35 1366h359l200 -440q12 -26 17.5 -41.5t9 -28.5t6.5 -22q27 74 33 92l207 440h344l-422 -805v-561h-338v561zM465 1479l149 272h314l-246 -272h-217z" />
<glyph unicode="&#xde;" horiz-adv-x="1110" d="M129 0v1366h338v-205h127q100 0 158.5 -9t109.5 -32q98 -44 152.5 -141t54.5 -229q0 -201 -130 -307.5t-376 -106.5h-96v-336h-338zM467 584h53q199 0 199 161q0 162 -199 162h-53v-323z" />
<glyph unicode="&#xdf;" horiz-adv-x="1083" d="M102 0v864q0 147 10.5 217t39.5 121q110 191 395 191q187 0 297 -90t110 -244q0 -98 -50.5 -164t-145.5 -94q130 -28 198 -124t68 -253q0 -200 -105.5 -325.5t-273.5 -125.5q-61 0 -131 27v211q106 0 147 54t41 192q0 116 -43.5 167t-144.5 54v219h14q56 0 88.5 39 t32.5 104q0 62 -29 96.5t-83 34.5q-40 0 -71 -21t-44 -58q-12 -35 -12 -164v-928h-308z" />
<glyph unicode="&#xe0;" horiz-adv-x="1050" d="M59 242q0 122 82 199.5t265 131.5q110 30 237 56v24q0 69 -25 96t-90 27q-111 0 -131 -114l-297 36q26 154 131.5 226.5t303.5 72.5q242 0 344 -108q44 -47 57.5 -102t13.5 -189v-246q0 -247 15 -352h-297l-13 80q-71 -57 -136.5 -82t-147.5 -25q-141 0 -226.5 73.5 t-85.5 195.5zM217 1368h320l149 -272h-221zM383 274q0 -35 25.5 -57t66.5 -22q77 0 168 65v176q-73 -9 -158 -41q-102 -41 -102 -121z" />
<glyph unicode="&#xe1;" horiz-adv-x="1050" d="M59 242q0 122 82 199.5t265 131.5q110 30 237 56v24q0 69 -25 96t-90 27q-111 0 -131 -114l-297 36q26 154 131.5 226.5t303.5 72.5q242 0 344 -108q44 -47 57.5 -102t13.5 -189v-246q0 -247 15 -352h-297l-13 80q-71 -57 -136.5 -82t-147.5 -25q-141 0 -226.5 73.5 t-85.5 195.5zM383 274q0 -35 25.5 -57t66.5 -22q77 0 168 65v176q-73 -9 -158 -41q-102 -41 -102 -121zM438 1096l150 272h313l-246 -272h-217z" />
<glyph unicode="&#xe2;" horiz-adv-x="1050" d="M59 242q0 122 82 199.5t265 131.5q110 30 237 56v24q0 69 -25 96t-90 27q-111 0 -131 -114l-297 36q26 154 131.5 226.5t303.5 72.5q242 0 344 -108q44 -47 57.5 -102t13.5 -189v-246q0 -247 15 -352h-297l-13 80q-71 -57 -136.5 -82t-147.5 -25q-141 0 -226.5 73.5 t-85.5 195.5zM197 1096l217 272h284l213 -272h-256l-102 116l-109 -116h-247zM383 274q0 -35 25.5 -57t66.5 -22q77 0 168 65v176q-73 -9 -158 -41q-102 -41 -102 -121z" />
<glyph unicode="&#xe3;" horiz-adv-x="1050" d="M59 242q0 122 82 199.5t265 131.5q110 30 237 56v24q0 69 -25 96t-90 27q-111 0 -131 -114l-297 36q26 154 131.5 226.5t303.5 72.5q242 0 344 -108q44 -47 57.5 -102t13.5 -189v-246q0 -247 15 -352h-297l-13 80q-71 -57 -136.5 -82t-147.5 -25q-141 0 -226.5 73.5 t-85.5 195.5zM219 1096q0 115 56 191.5t139 76.5q37 0 77.5 -10.5t131.5 -42.5q37 -13 61 -13q22 0 32 14t15 48v8h148q-4 -129 -58.5 -200.5t-146.5 -71.5q-30 0 -58 7t-106 34q-59 20 -86 20q-46 0 -55 -61h-150zM383 274q0 -35 25.5 -57t66.5 -22q77 0 168 65v176 q-73 -9 -158 -41q-102 -41 -102 -121z" />
<glyph unicode="&#xe4;" horiz-adv-x="1050" d="M59 242q0 122 82 199.5t265 131.5q110 30 237 56v24q0 69 -25 96t-90 27q-111 0 -131 -114l-297 36q26 154 131.5 226.5t303.5 72.5q242 0 344 -108q44 -47 57.5 -102t13.5 -189v-246q0 -247 15 -352h-297l-13 80q-71 -57 -136.5 -82t-147.5 -25q-141 0 -226.5 73.5 t-85.5 195.5zM219 1094v260h260v-260h-260zM383 274q0 -35 25.5 -57t66.5 -22q77 0 168 65v176q-73 -9 -158 -41q-102 -41 -102 -121zM641 1094v260h260v-260h-260z" />
<glyph unicode="&#xe5;" horiz-adv-x="1050" d="M59 242q0 122 82 199.5t265 131.5q110 30 237 56v24q0 69 -25 96t-90 27q-111 0 -131 -114l-297 36q26 154 131.5 226.5t303.5 72.5q242 0 344 -108q44 -47 57.5 -102t13.5 -189v-246q0 -247 15 -352h-297l-13 80q-71 -57 -136.5 -82t-147.5 -25q-141 0 -226.5 73.5 t-85.5 195.5zM342 1313q0 91 66.5 156t158.5 65q94 0 160 -65.5t66 -157.5q0 -91 -66 -155t-158 -64q-95 0 -161 64.5t-66 156.5zM383 274q0 -35 25.5 -57t66.5 -22q77 0 168 65v176q-73 -9 -158 -41q-102 -41 -102 -121zM479 1309q0 -34 25.5 -58t62.5 -24q35 0 60.5 24.5 t25.5 59.5t-23.5 58.5t-60.5 23.5q-38 0 -64 -24.5t-26 -59.5z" />
<glyph unicode="&#xe6;" horiz-adv-x="1583" d="M59 244q0 113 70.5 187t228.5 126q97 30 281 68q2 16 2 34q0 61 -27.5 89t-87.5 28q-109 0 -129 -104l-303 35q55 290 416 290q112 0 185 -27.5t130 -90.5q59 63 122 90.5t149 27.5q197 0 306 -136t109 -380v-65h-571q-2 -18 -2 -41q0 -82 39.5 -131t105.5 -49 q56 0 94 32t48 90l286 -28q-29 -151 -142.5 -233.5t-291.5 -82.5q-123 0 -213.5 40t-136.5 114q-157 -154 -360 -154q-140 0 -224 74t-84 197zM379 272q0 -35 24.5 -56t65.5 -21q80 0 188 67q-18 48 -18 168q-145 -31 -202.5 -66t-57.5 -92zM940 582h279q-3 194 -136 194 q-65 0 -99.5 -46.5t-43.5 -147.5z" />
<glyph unicode="&#xe7;" horiz-adv-x="995" d="M59 477q0 241 128 380.5t348 139.5q172 0 277.5 -89.5t125.5 -250.5l-276 -43q-5 77 -38.5 120.5t-88.5 43.5q-146 0 -146 -295t139 -295q57 0 89 39.5t45 128.5l276 -32q-15 -166 -118 -256.5t-283 -96.5l-15 -69q160 -15 160 -142q0 -72 -53 -115.5t-142 -43.5 q-69 0 -153 32l31 103q10 -2 27 -8t20 -7q20 -4 39 -4q63 0 63 43q0 52 -90 52q-21 0 -37 -2l41 167q-172 19 -270.5 152t-98.5 348z" />
<glyph unicode="&#xe8;" horiz-adv-x="1026" d="M59 469q0 250 121.5 389t339.5 139q254 0 365 -198q43 -76 56 -138t13 -219v-24h-571q3 -111 25 -154q38 -69 122 -69q110 0 138 110l284 -22q-71 -310 -432 -310q-221 0 -341 129t-120 367zM184 1368h320l149 -272h-221zM383 584h285q-3 94 -40 143t-104 49 q-64 0 -101.5 -51.5t-39.5 -140.5z" />
<glyph unicode="&#xe9;" horiz-adv-x="1026" d="M59 469q0 250 121.5 389t339.5 139q254 0 365 -198q43 -76 56 -138t13 -219v-24h-571q3 -111 25 -154q38 -69 122 -69q110 0 138 110l284 -22q-71 -310 -432 -310q-221 0 -341 129t-120 367zM383 584h285q-3 94 -40 143t-104 49q-64 0 -101.5 -51.5t-39.5 -140.5z M426 1096l149 272h314l-246 -272h-217z" />
<glyph unicode="&#xea;" horiz-adv-x="1026" d="M59 469q0 250 121.5 389t339.5 139q254 0 365 -198q43 -76 56 -138t13 -219v-24h-571q3 -111 25 -154q38 -69 122 -69q110 0 138 110l284 -22q-71 -310 -432 -310q-221 0 -341 129t-120 367zM164 1096l217 272h285l213 -272h-256l-103 116l-108 -116h-248zM383 584h285 q-3 94 -40 143t-104 49q-64 0 -101.5 -51.5t-39.5 -140.5z" />
<glyph unicode="&#xeb;" horiz-adv-x="1026" d="M59 469q0 250 121.5 389t339.5 139q254 0 365 -198q43 -76 56 -138t13 -219v-24h-571q3 -111 25 -154q38 -69 122 -69q110 0 138 110l284 -22q-71 -310 -432 -310q-221 0 -341 129t-120 367zM180 1094v260h260v-260h-260zM383 584h285q-3 94 -40 143t-104 49 q-64 0 -101.5 -51.5t-39.5 -140.5zM602 1094v260h260v-260h-260z" />
<glyph unicode="&#xec;" horiz-adv-x="512" d="M-80 1368h320l149 -272h-221zM102 0v963h308v-963h-308z" />
<glyph unicode="&#xed;" horiz-adv-x="512" d="M102 0v963h308v-963h-308zM160 1096l149 272h314l-246 -272h-217z" />
<glyph unicode="&#xee;" horiz-adv-x="512" d="M-88 1096l217 272h285l213 -272h-256l-103 116l-108 -116h-248zM102 0v963h308v-963h-308z" />
<glyph unicode="&#xef;" horiz-adv-x="512" d="M-51 1094v260h260v-260h-260zM102 0v963h308v-963h-308zM317 1094v260h261v-260h-261z" />
<glyph unicode="&#xf0;" horiz-adv-x="1046" d="M59 473q0 231 114.5 368.5t328.5 151.5l-58 119l-155 -80l-72 146l162 86l-60 122l189 99l76 -117l157 80l78 -148l-151 -75l200 -348q32 -55 33 -58q49 -86 67.5 -155.5t18.5 -167.5q0 -250 -124 -386.5t-351 -136.5q-236 0 -350 154q-103 144 -103 346zM381 492 q0 -152 34.5 -224.5t106.5 -72.5q73 0 108.5 76.5t35.5 234.5q0 270 -144 270q-141 0 -141 -284z" />
<glyph unicode="&#xf1;" horiz-adv-x="1073" d="M102 0v963h308v-109q161 143 323 143q64 0 118.5 -31t78.5 -83q23 -47 32 -104t9 -161v-618h-307v618q0 132 -105 132q-67 0 -149 -76v-674h-308zM248 1096q0 115 55.5 191.5t138.5 76.5q37 0 77.5 -10.5t131.5 -42.5q37 -13 62 -13q22 0 32 14t15 48v8h147 q-4 -129 -58.5 -200.5t-146.5 -71.5q-30 0 -57 7t-106 34q-59 20 -86 20q-47 0 -56 -61h-149z" />
<glyph unicode="&#xf2;" horiz-adv-x="1046" d="M59 481q0 238 126 377t343 139t339 -136.5t122 -379.5q0 -107 -34 -208t-91 -164q-58 -64 -152 -100t-204 -36q-209 0 -329 136t-120 372zM188 1368h320l149 -272h-221zM381 492q0 -152 35 -224.5t108 -72.5q144 0 144 311q0 270 -144 270q-143 0 -143 -284z" />
<glyph unicode="&#xf3;" horiz-adv-x="1046" d="M59 481q0 238 126 377t343 139t339 -136.5t122 -379.5q0 -107 -34 -208t-91 -164q-58 -64 -152 -100t-204 -36q-209 0 -329 136t-120 372zM381 492q0 -152 35 -224.5t108 -72.5q144 0 144 311q0 270 -144 270q-143 0 -143 -284zM422 1096l149 272h314l-246 -272h-217z " />
<glyph unicode="&#xf4;" horiz-adv-x="1046" d="M59 481q0 238 126 377t343 139t339 -136.5t122 -379.5q0 -107 -34 -208t-91 -164q-58 -64 -152 -100t-204 -36q-209 0 -329 136t-120 372zM180 1096l217 272h285l213 -272h-256l-102 116l-109 -116h-248zM381 492q0 -152 35 -224.5t108 -72.5q144 0 144 311 q0 270 -144 270q-143 0 -143 -284z" />
<glyph unicode="&#xf5;" horiz-adv-x="1046" d="M59 481q0 238 126 377t343 139t339 -136.5t122 -379.5q0 -107 -34 -208t-91 -164q-58 -64 -152 -100t-204 -36q-209 0 -329 136t-120 372zM242 1096q0 115 55.5 191.5t138.5 76.5q37 0 77.5 -10.5t131.5 -42.5q37 -13 62 -13q22 0 32 14t15 48v8h147 q-4 -129 -58.5 -200.5t-146.5 -71.5q-30 0 -58 7t-106 34q-59 20 -86 20q-46 0 -55 -61h-149zM381 492q0 -152 35 -224.5t108 -72.5q144 0 144 311q0 270 -144 270q-143 0 -143 -284z" />
<glyph unicode="&#xf6;" horiz-adv-x="1046" d="M59 481q0 238 126 377t343 139t339 -136.5t122 -379.5q0 -107 -34 -208t-91 -164q-58 -64 -152 -100t-204 -36q-209 0 -329 136t-120 372zM197 1094v260h260v-260h-260zM381 492q0 -152 35 -224.5t108 -72.5q144 0 144 311q0 270 -144 270q-143 0 -143 -284zM618 1094 v260h261v-260h-261z" />
<glyph unicode="&#xf7;" d="M68 582v200h1050v-200h-1050zM467 178v266h254v-266h-254zM467 922v266h254v-266h-254z" />
<glyph unicode="&#xf8;" horiz-adv-x="1046" d="M59 483q0 236 126 375t341 139q136 0 256 -67l84 114l88 -65l-88 -119q123 -138 123 -373q0 -241 -126 -377.5t-349 -136.5q-134 0 -244 58l-86 -127l-90 67l90 129q-125 149 -125 383zM381 494q0 -51 6 -127l240 348q-44 61 -105 61q-141 0 -141 -282zM432 240 q37 -45 90 -45q75 0 110.5 76t35.5 237q0 41 -4 74z" />
<glyph unicode="&#xf9;" horiz-adv-x="1071" d="M102 350v613h308v-574q0 -95 18 -125q27 -43 84 -43q78 0 150 72v670h307v-963h-299v127q-17 -51 -125.5 -102.5t-200.5 -51.5q-68 0 -121.5 32t-81.5 89q-23 49 -31 102t-8 154zM219 1368h320l149 -272h-221z" />
<glyph unicode="&#xfa;" horiz-adv-x="1071" d="M102 350v613h308v-574q0 -95 18 -125q27 -43 84 -43q78 0 150 72v670h307v-963h-299v127q-17 -51 -125.5 -102.5t-200.5 -51.5q-68 0 -121.5 32t-81.5 89q-23 49 -31 102t-8 154zM432 1096l150 272h313l-246 -272h-217z" />
<glyph unicode="&#xfb;" horiz-adv-x="1071" d="M102 350v613h308v-574q0 -95 18 -125q27 -43 84 -43q78 0 150 72v670h307v-963h-299v127q-17 -51 -125.5 -102.5t-200.5 -51.5q-68 0 -121.5 32t-81.5 89q-23 49 -31 102t-8 154zM193 1096l217 272h284l213 -272h-256l-102 116l-109 -116h-247z" />
<glyph unicode="&#xfc;" horiz-adv-x="1071" d="M102 350v613h308v-574q0 -95 18 -125q27 -43 84 -43q78 0 150 72v670h307v-963h-299v127q-17 -51 -125.5 -102.5t-200.5 -51.5q-68 0 -121.5 32t-81.5 89q-23 49 -31 102t-8 154zM207 1094v260h260v-260h-260zM629 1094v260h260v-260h-260z" />
<glyph unicode="&#xfd;" horiz-adv-x="901" d="M-20 963h335l119 -451q26 -99 35 -176q13 85 33 176l100 451h320l-306 -936q-69 -214 -120 -279q-92 -123 -293 -123q-63 0 -168 21v225q67 -21 115 -21q69 0 105.5 33.5t59.5 116.5zM348 1096l150 272h313l-246 -272h-217z" />
<glyph unicode="&#xfe;" horiz-adv-x="1064" d="M102 -354v1720h308v-504q110 135 260 135q152 0 245 -134.5t93 -354.5q0 -198 -66 -342q-40 -87 -123 -140t-180 -53q-68 0 -122 25.5t-107 81.5v-434h-308zM410 281q55 -86 127 -86t109.5 75.5t37.5 218.5q0 124 -34.5 192.5t-96.5 68.5q-68 0 -143 -84v-385z" />
<glyph unicode="&#xff;" horiz-adv-x="901" d="M-20 963h335l119 -451q26 -99 35 -176q13 85 33 176l100 451h320l-306 -936q-69 -214 -120 -279q-92 -123 -293 -123q-63 0 -168 21v225q67 -21 115 -21q69 0 105.5 33.5t59.5 116.5zM123 1094v260h260v-260h-260zM545 1094v260h260v-260h-260z" />
<glyph unicode="&#x152;" horiz-adv-x="1886" d="M66 676q0 327 151 522t404 195q95 0 161.5 -29.5t122.5 -95.5v98h860v-254h-526v-278h428v-254h-428v-326h563v-254h-897v98q-63 -67 -133.5 -96t-171.5 -29q-252 0 -393 186.5t-141 516.5zM459 668q0 -252 50 -353.5t173 -101.5t175 105t52 350q0 192 -19.5 294.5 t-65.5 146.5t-132 44q-65 0 -114 -32.5t-74 -90.5q-45 -106 -45 -362z" />
<glyph unicode="&#x153;" horiz-adv-x="1593" d="M59 485q0 233 123.5 372.5t327.5 139.5q208 0 305 -135q56 71 125.5 103t167.5 32q197 0 305.5 -137.5t108.5 -386.5q0 -30 -2 -55h-566q0 -68 6 -102t23 -60q41 -63 115 -63q54 0 91 29t50 83l281 -22q-31 -152 -136.5 -232t-277.5 -80q-112 0 -187.5 33.5t-125.5 104.5 q-89 -136 -291 -136q-229 0 -342 162q-101 140 -101 350zM381 485q0 -180 45 -237q38 -53 90 -53q72 0 105.5 70.5t33.5 221.5q0 289 -137 289q-63 0 -102 -67q-35 -56 -35 -224zM954 584h281q-2 94 -38 143t-103 49q-68 0 -104 -49.5t-36 -142.5z" />
<glyph unicode="&#x178;" horiz-adv-x="1107" d="M-35 1366h359l200 -440q12 -26 17.5 -41.5t9 -28.5t6.5 -22q27 74 33 92l207 440h344l-422 -805v-561h-338v561zM225 1477v260h260v-260h-260zM647 1477v260h260v-260h-260z" />
<glyph unicode="&#x2c6;" horiz-adv-x="1024" d="M156 1096l217 272h284l213 -272h-256l-102 116l-109 -116h-247z" />
<glyph unicode="&#x2dc;" horiz-adv-x="1024" d="M182 1096q0 115 56 191.5t139 76.5q37 0 77.5 -10.5t131.5 -42.5q37 -13 61 -13q22 0 32 14t15 48v8h148q-4 -129 -58.5 -200.5t-146.5 -71.5q-30 0 -58 7t-106 34q-59 20 -86 20q-46 0 -55 -61h-150z" />
<glyph unicode="&#x2000;" horiz-adv-x="947" />
<glyph unicode="&#x2001;" horiz-adv-x="1894" />
<glyph unicode="&#x2002;" horiz-adv-x="947" />
<glyph unicode="&#x2003;" horiz-adv-x="1894" />
<glyph unicode="&#x2004;" horiz-adv-x="631" />
<glyph unicode="&#x2005;" horiz-adv-x="473" />
<glyph unicode="&#x2006;" horiz-adv-x="315" />
<glyph unicode="&#x2007;" horiz-adv-x="315" />
<glyph unicode="&#x2008;" horiz-adv-x="236" />
<glyph unicode="&#x2009;" horiz-adv-x="378" />
<glyph unicode="&#x200a;" horiz-adv-x="105" />
<glyph unicode="&#x2010;" horiz-adv-x="464" d="M0 348v260h465v-260h-465z" />
<glyph unicode="&#x2011;" horiz-adv-x="464" d="M0 348v260h465v-260h-465z" />
<glyph unicode="&#x2012;" horiz-adv-x="464" d="M0 348v260h465v-260h-465z" />
<glyph unicode="&#x2013;" d="M63 348v260h1059v-260h-1059z" />
<glyph unicode="&#x2014;" horiz-adv-x="1386" d="M0 348v260h1386v-260h-1386z" />
<glyph unicode="&#x2018;" horiz-adv-x="559" d="M123 711v272l235 410l105 -54l-123 -301h96v-327h-313z" />
<glyph unicode="&#x2019;" horiz-adv-x="559" d="M96 737l123 301h-96v328h313v-272l-235 -410z" />
<glyph unicode="&#x201a;" horiz-adv-x="559" d="M96 -299l123 299h-96v328h313v-273l-235 -409z" />
<glyph unicode="&#x201c;" horiz-adv-x="997" d="M123 711v272l235 410l105 -54l-123 -301h96v-327h-313zM561 711v272l236 410l104 -54l-123 -301h96v-327h-313z" />
<glyph unicode="&#x201d;" horiz-adv-x="997" d="M96 737l123 301h-96v328h313v-272l-235 -410zM535 737l122 301h-96v328h313v-272l-235 -410z" />
<glyph unicode="&#x201e;" horiz-adv-x="997" d="M96 -299l123 299h-96v328h313v-273l-235 -409zM535 -299l122 299h-96v328h313v-273l-235 -409z" />
<glyph unicode="&#x2022;" horiz-adv-x="1366" d="M401 692q0 120 83.5 202.5t205.5 82.5q114 0 196.5 -83.5t82.5 -199.5q0 -118 -83 -201t-200 -83t-201 82.5t-84 199.5z" />
<glyph unicode="&#x2026;" horiz-adv-x="1679" d="M123 0v328h313v-328h-313zM682 0v328h313v-328h-313zM1243 0v328h313v-328h-313z" />
<glyph unicode="&#x202f;" horiz-adv-x="378" />
<glyph unicode="&#x2039;" horiz-adv-x="532" d="M55 479l164 387h232l-158 -387l158 -389h-232z" />
<glyph unicode="&#x203a;" horiz-adv-x="532" d="M82 90l160 389l-160 387h233l162 -387l-162 -389h-233z" />
<glyph unicode="&#x205f;" horiz-adv-x="473" />
<glyph unicode="&#x20ac;" horiz-adv-x="1490" d="M68 563l102 240h109q29 287 181.5 438.5t411.5 151.5q138 0 247.5 -46t178.5 -133q41 -54 65 -110.5t46 -151.5l-338 -61q-15 139 -61.5 200.5t-137.5 61.5q-101 0 -155.5 -84.5t-69.5 -265.5h342l-102 -240h-244q21 -350 215 -350q89 0 141 68t72 213l350 -45 q-31 -230 -176.5 -353t-388.5 -123q-419 0 -543 396q-28 88 -37 194h-208z" />
<glyph unicode="&#x2122;" horiz-adv-x="1775" d="M2 1210v156h684v-156h-229v-622h-228v622h-227zM764 588v778h350l107 -391q16 -63 20 -82q5 21 10.5 51t5.5 31l91 391h354v-778h-227v514l-2 35q0 12 2 22q-2 -9 -13 -41l-141 -530h-178l-139 512q-1 5 -5 19t-8 32v-563h-227z" />
</font>
</defs>
</svg>
