<?xml version="1.0" standalone="no"?>
<!DOCTYPE svg PUBLIC "-//W3C//DTD SVG 1.1//EN" "http://www.w3.org/Graphics/SVG/1.1/DTD/svg11.dtd" >
<svg xmlns="http://www.w3.org/2000/svg">
<metadata></metadata>
<defs>
<font id="NewsGothicFSBookBoldItalic" horiz-adv-x="1091" >
<font-face units-per-em="2048" ascent="1638" descent="-410" />
<missing-glyph horiz-adv-x="512" />
<glyph unicode="&#xfb01;" horiz-adv-x="1067" d="M102 791l21 165h149l11 88q12 103 42 164.5t89 104.5q45 32 100 45.5t137 13.5q45 0 109 -6l-23 -190q-65 16 -96 16q-60 0 -90 -41q-19 -25 -29 -107l-10 -88l555 2l-117 -958h-239l96 791h-315l-97 -791h-239l96 791h-150zM850 1145l27 221h239l-26 -221h-240z" />
<glyph unicode="&#xfb02;" horiz-adv-x="1067" d="M102 791l21 165h149l11 88q12 103 42 164.5t89 104.5q45 32 100 45.5t137 13.5q45 0 109 -6l-23 -190q-65 16 -94 16q-62 0 -92 -41q-19 -25 -29 -107l-10 -88h199l-21 -165h-198l-97 -791h-239l96 791h-150zM711 0l166 1366h239l-166 -1366h-239z" />
<glyph unicode="&#xfb03;" horiz-adv-x="1622" d="M102 791l21 165h149l11 88q12 103 42 164.5t89 104.5q45 32 100 45.5t137 13.5q45 0 109 -6l-23 -190q-65 16 -94 16q-62 0 -92 -41q-19 -25 -29 -107l-10 -88h315l11 88q12 103 42 164.5t89 104.5q45 32 100 45.5t137 13.5q44 0 109 -6l-23 -190q-65 16 -94 16 q-62 0 -92 -41q-19 -25 -29 -107l-10 -88l555 2l-117 -958h-239l96 791h-315l-97 -791h-239l96 791h-315l-97 -791h-239l96 791h-150zM1405 1145l27 221h239l-26 -221h-240z" />
<glyph unicode="&#xfb04;" horiz-adv-x="1622" d="M102 791l21 165h149l11 88q12 103 42 164.5t89 104.5q45 32 100 45.5t137 13.5q45 0 109 -6l-23 -190q-65 16 -94 16q-62 0 -92 -41q-19 -25 -29 -107l-10 -88h315l11 88q12 103 42 164.5t89 104.5q45 32 100 45.5t137 13.5q44 0 109 -6l-23 -190q-65 16 -94 16 q-62 0 -92 -41q-19 -25 -29 -107l-10 -88h199l-21 -165h-198l-97 -791h-239l96 791h-315l-97 -791h-239l96 791h-150zM1266 0l166 1366h239l-166 -1366h-239z" />
<glyph horiz-adv-x="0" />
<glyph horiz-adv-x="2048" />
<glyph unicode=" "  horiz-adv-x="512" />
<glyph unicode="&#x09;" horiz-adv-x="512" />
<glyph unicode="&#xa0;" horiz-adv-x="512" />
<glyph unicode="!" horiz-adv-x="559" d="M164 0l29 246h231l-29 -246h-231zM225 434l90 932h260l-149 -932h-201z" />
<glyph unicode="&#x22;" horiz-adv-x="872" d="M225 817l23 549h272l-112 -549h-183zM662 817l22 549h272l-112 -549h-182z" />
<glyph unicode="#" horiz-adv-x="1132" d="M61 383l64 195h164l71 225h-163l65 207h164l111 356h206l-112 -356h237l113 356h207l-113 -356h164l-65 -207h-164l-72 -225h164l-64 -195h-164l-118 -383h-207l119 383h-238l-119 -383h-205l119 383h-164zM494 578h237l72 225h-238z" />
<glyph unicode="$" d="M115 348l256 53q0 -88 47.5 -149.5t120.5 -67.5l47 398q-153 48 -205 75q-82 40 -120.5 123.5t-24.5 190.5q20 170 143 283t305 128l21 164h83l-20 -164q167 -10 262 -103.5t90 -242.5l-235 -37q3 163 -140 193l-47 -375q220 -52 311.5 -153t69.5 -267 q-22 -180 -149 -290.5t-334 -129.5l-25 -206h-84l25 206h-23q-93 0 -184.5 50.5t-142.5 128.5q-50 75 -47 192zM481 1012q-8 -63 28 -107t109 -63l44 350q-73 -12 -122.5 -61.5t-58.5 -118.5zM621 180q93 12 147 60.5t63 126.5q9 71 -30.5 117.5t-132.5 72.5z" />
<glyph unicode="%" horiz-adv-x="1421" d="M178 1026q20 161 109.5 255.5t222.5 94.5q128 0 195.5 -92.5t48.5 -243.5q-20 -158 -110.5 -254t-219.5 -96q-132 0 -198.5 91t-47.5 245zM362 1034q-14 -110 5 -162.5t71 -52.5q56 0 88 52.5t45 168.5q24 207 -79 207q-105 0 -130 -213zM408 0l639 1366h133l-637 -1366 h-135zM829 332q20 161 109.5 253.5t224.5 92.5q129 0 195.5 -95t46.5 -253q-19 -156 -109.5 -247t-226.5 -91q-129 0 -194 91.5t-46 248.5zM1016 344q-27 -225 78 -225q55 0 84.5 50.5t44.5 168.5q24 211 -80 211q-103 0 -127 -205z" />
<glyph unicode="&#x26;" horiz-adv-x="1239" d="M119 356q13 117 85.5 206.5t213.5 166.5q-48 115 -61.5 178t-4.5 133q19 147 129 246.5t254 99.5q133 0 213.5 -90.5t65.5 -224.5q-13 -113 -86.5 -202t-229.5 -185l13 -20q9 -13 30 -43.5t26 -38t20 -29.5t20 -28t17.5 -23t20 -25t21 -23.5t26 -29t30.5 -31.5 q85 126 114 252l203 -39q-55 -199 -162 -325q85 -56 176 -60l-28 -223q-197 3 -328 113q-177 -131 -393 -131q-187 0 -296 106.5t-89 269.5zM354 393q-12 -97 47.5 -163t157.5 -66q115 0 199 72q-119 131 -170 198.5t-88 140.5q-76 -44 -107 -83t-39 -99zM559 1067 q-6 -54 7.5 -107.5t54.5 -136.5q6 4 14 8q70 39 117.5 103.5t54.5 132.5q8 60 -19 97.5t-79 37.5q-57 0 -100 -38.5t-50 -96.5z" />
<glyph unicode="'" horiz-adv-x="436" d="M225 817l23 549h272l-112 -549h-183z" />
<glyph unicode="(" horiz-adv-x="628" d="M229 594q25 203 117.5 450.5t212.5 430.5l180 -60q-122 -224 -188 -422.5t-92 -419.5q-27 -220 -9.5 -421.5t82.5 -421.5l-190 -58q-74 235 -100 385q-20 124 -24 267.5t11 269.5z" />
<glyph unicode=")" horiz-adv-x="628" d="M27 -270q119 217 186.5 419.5t95.5 423.5q27 222 9.5 418t-85.5 424l197 60q74 -184 106 -431.5t7 -449.5q-15 -124 -54 -268.5t-90 -268.5q-68 -162 -194 -385z" />
<glyph unicode="*" horiz-adv-x="819" d="M244 1106l71 158l158 -60l6 162h187l-27 -162l172 51l29 -174l-162 -43l88 -147l-160 -100l-82 157l-141 -143l-121 115l137 133z" />
<glyph unicode="+" d="M141 608l19 148h403l49 405h148l-49 -405h405l-18 -148h-406l-49 -403h-147l49 403h-404z" />
<glyph unicode="," horiz-adv-x="505" d="M109 -219l106 219h-78l29 246h231l-24 -199l-207 -293z" />
<glyph unicode="-" horiz-adv-x="454" d="M45 379l25 199h454l-24 -199h-455z" />
<glyph unicode="." horiz-adv-x="505" d="M137 0l29 246h231l-28 -246h-232z" />
<glyph unicode="/" horiz-adv-x="880" d="M-41 -328l793 1694h186l-793 -1694h-186z" />
<glyph unicode="0" d="M150 680q38 309 199.5 507.5t373.5 198.5q141 0 237 -87t134 -246.5t12 -370.5q-38 -316 -191.5 -509t-365.5 -193q-140 0 -239.5 89t-141.5 248.5t-18 362.5zM395 684q-29 -230 18.5 -370t153.5 -140q37 0 75.5 18.5t64.5 49.5q55 64 97.5 180t59.5 250q26 228 -20 399 q-17 57 -55.5 89t-90.5 32q-118 0 -198 -152q-82 -156 -105 -356z" />
<glyph unicode="1" d="M229 0l23 197h223l115 936h-223l18 135l336 98h127l-143 -1169h221l-23 -197h-674z" />
<glyph unicode="2" d="M80 0l22 197q133 205 437 426q178 128 244 204.5t77 165.5q11 88 -32.5 142.5t-125.5 54.5q-52 0 -101 -24t-81 -66q-34 -48 -65 -150l-232 41q54 194 180.5 294.5t315.5 100.5q201 0 304 -107t81 -292q-24 -185 -168 -319q-53 -47 -215 -154q-128 -86 -208.5 -153 t-172.5 -164h666l-23 -197h-903z" />
<glyph unicode="3" d="M100 324l232 51q17 -106 67 -153.5t142 -47.5q100 0 170.5 63t83.5 164q14 116 -62.5 171t-249.5 55h-55l23 186q151 0 221 23q63 22 101.5 67.5t45.5 108.5q9 77 -35 127.5t-122 50.5q-70 0 -127 -39.5t-111 -124.5l-191 78q74 137 193.5 209.5t271.5 72.5 q177 0 282.5 -99.5t86.5 -250.5q-27 -209 -250 -297q120 -29 178 -117.5t43 -220.5q-23 -186 -170 -303.5t-354 -117.5q-106 0 -192.5 34.5t-141.5 98.5q-35 43 -52.5 87.5t-27.5 123.5z" />
<glyph unicode="4" d="M121 332l22 172l562 862h309l-103 -838h199l-25 -196h-198l-39 -332h-230l39 332h-536zM377 528h305l80 641q-30 -68 -64 -118z" />
<glyph unicode="5" d="M119 266l225 94q29 -101 75 -143.5t124 -42.5q108 0 188.5 85.5t95.5 217.5q15 125 -38.5 206t-151.5 81q-131 0 -231 -158l-201 53l102 707h760l-23 -197h-569l-43 -340q70 69 136.5 99t148.5 30q180 0 280.5 -131.5t75.5 -334.5q-28 -220 -183 -366t-360 -146 q-152 0 -263 77.5t-148 208.5z" />
<glyph unicode="6" d="M160 666q40 322 214.5 521t416.5 199q173 0 262 -100q25 -28 39.5 -57.5t29.5 -83.5l-221 -64q-11 53 -48 81t-95 28q-78 0 -147 -55t-113 -152q-39 -88 -64 -227q160 133 320 133q169 0 261.5 -123t69.5 -315q-26 -209 -168 -340t-342 -131q-149 0 -249 76.5t-144 224.5 q-47 160 -22 385zM412 573q-23 -181 29 -290t161 -109q91 0 157 73t81 191q14 119 -32 187.5t-140 68.5q-132 0 -256 -121z" />
<glyph unicode="7" d="M168 0l684 1169h-580l23 197h874l-10 -92l-717 -1274h-274z" />
<glyph unicode="8" d="M117 360q15 125 105 225.5t220 137.5q-104 32 -156 114t-38 191q19 154 154.5 256t320.5 102q179 0 284.5 -102.5t86.5 -257.5q-12 -100 -77.5 -178.5t-174.5 -124.5q121 -49 178 -140t43 -212q-22 -170 -172 -280.5t-361 -110.5q-201 0 -317 107t-96 273zM365 385 q-12 -92 46.5 -151.5t161.5 -59.5t169.5 55.5t76.5 151.5q12 86 -39 149q-22 32 -116 91q-6 2 -27 16q-25 -12 -31 -16q-36 -20 -75 -39t-56 -28.5t-31 -21.5q-70 -58 -79 -147zM492 1022q-18 -149 165 -221q7 3 17 6q72 29 119.5 89t56.5 132q9 77 -31 119.5t-123 42.5 q-88 0 -141.5 -44t-62.5 -124z" />
<glyph unicode="9" d="M133 221l221 64q10 -52 48.5 -80.5t97.5 -28.5q77 0 147 55.5t111 151.5q32 67 65 227q-163 -133 -319 -133q-169 0 -262 123t-70 315q26 209 167.5 340t340.5 131q149 0 249 -76.5t144 -224.5q49 -166 21 -385q-38 -322 -212.5 -521t-416.5 -199q-173 0 -262 100 q-45 50 -70 141zM418 928q-14 -119 32 -187.5t140 -68.5q129 0 256 121q23 180 -30 289.5t-161 109.5q-92 0 -157 -72.5t-80 -191.5z" />
<glyph unicode=":" horiz-adv-x="505" d="M137 0l29 246h231l-28 -246h-232zM223 713l31 245h231l-30 -245h-232z" />
<glyph unicode=";" horiz-adv-x="505" d="M109 -219l106 219h-78l29 246h231l-24 -199l-207 -293zM223 713l31 245h231l-30 -245h-232z" />
<glyph unicode="&#x3c;" horiz-adv-x="1024" d="M139 594l25 203l942 442l-29 -235l-674 -310l598 -309l-28 -233z" />
<glyph unicode="=" d="M121 444l18 148h957l-19 -148h-956zM162 772l18 148h957l-19 -148h-956z" />
<glyph unicode="&#x3e;" horiz-adv-x="1024" d="M84 150l31 237l671 307l-596 310l29 235l832 -444l-25 -201z" />
<glyph unicode="?" horiz-adv-x="819" d="M180 0l29 244h240l-29 -244h-240zM186 1145q53 106 156.5 170.5t224.5 64.5q148 0 230 -86.5t65 -224.5q-12 -97 -74 -184q-30 -42 -58 -70t-130 -119q-72 -63 -100.5 -123t-40.5 -176h-226l3 19q19 148 72.5 238.5t215.5 240.5q60 56 84.5 91.5t28.5 76.5q7 54 -21 90.5 t-75 36.5q-111 0 -185 -152z" />
<glyph unicode="@" horiz-adv-x="1460" d="M160 674q24 197 135.5 362t282 260t360.5 95q168 0 300.5 -77.5t198 -212t46.5 -294.5q-31 -241 -228 -385q-66 -49 -136.5 -77t-127.5 -28t-91 28.5t-40 80.5q-65 -56 -118 -80t-113 -24q-95 0 -147.5 70.5t-39.5 180.5q14 114 82.5 224t165.5 178.5t189 68.5 q107 0 133 -120l45 90h153l-229 -484q-13 -29 -15.5 -53.5t11.5 -43.5t49 -19q65 0 134 55t118.5 144t60.5 182q16 128 -33 233.5t-150.5 166t-233.5 60.5q-152 0 -286.5 -76t-222.5 -208.5t-108 -294.5q-14 -111 8.5 -223.5t71.5 -176.5q55 -73 164.5 -118t232.5 -45 q90 0 169.5 26.5t209.5 98.5l76 -78q-137 -102 -247.5 -143.5t-246.5 -41.5q-148 0 -275 55t-202 152q-65 87 -94 221.5t-12 270.5zM606 561q-6 -54 13 -85.5t59 -31.5q117 0 196 172l54 111q24 53 30 96q5 40 -15.5 68.5t-55.5 28.5q-55 0 -117.5 -53.5t-108 -137.5 t-55.5 -168z" />
<glyph unicode="A" horiz-adv-x="1107" d="M-14 0l561 1366h346l221 -1366h-268l-53 362h-416l-141 -362h-250zM446 547h322l-68 526q-12 94 -14 117q-7 -35 -20 -72q-5 -8 -23 -55z" />
<glyph unicode="B" horiz-adv-x="1185" d="M143 0l166 1366h447q136 0 202.5 -12.5t122.5 -50.5q66 -44 99 -125.5t22 -171.5q-14 -105 -73.5 -180.5t-157.5 -110.5q104 -32 152.5 -116t33.5 -204q-10 -92 -58.5 -173.5t-123.5 -137.5q-65 -46 -134 -65t-177 -19h-521zM420 203h188q87 0 118.5 6t68.5 29 q43 28 70.5 73.5t33.5 100.5q8 63 -15 114t-67 70q-30 13 -66.5 17.5t-111.5 4.5h-168zM494 805h163q71 0 108 6t69 23q92 48 104 165q15 123 -78 164q-42 17 -143 17h-178z" />
<glyph unicode="C" horiz-adv-x="1218" d="M160 686q38 322 215 511t438 189q116 0 211.5 -42.5t153.5 -120.5q39 -54 57.5 -113t26.5 -154l-256 -41q1 123 -57 196t-158 73q-149 0 -245.5 -126.5t-125.5 -361.5q-31 -252 29 -383t206 -131q213 0 295 285l246 -37q-58 -215 -205 -332.5t-356 -117.5 q-267 0 -391.5 185t-83.5 521z" />
<glyph unicode="D" horiz-adv-x="1247" d="M143 0l166 1366h330q144 0 215 -6.5t107 -20t86 -47.5q126 -88 180 -246.5t28 -363.5q-23 -188 -104 -338.5t-207 -241.5q-83 -58 -174.5 -80t-253.5 -22h-373zM420 203h112q218 0 325.5 114.5t139.5 380.5q38 305 -100 406q-79 59 -262 59h-98z" />
<glyph unicode="E" horiz-adv-x="1087" d="M143 0l166 1366h850l-24 -203h-598l-43 -358h497l-24 -203h-498l-49 -399h631l-25 -203h-883z" />
<glyph unicode="F" horiz-adv-x="1003" d="M143 0l166 1366h813l-24 -203h-561l-43 -358h446l-25 -203h-446l-74 -602h-252z" />
<glyph unicode="G" horiz-adv-x="1230" d="M154 657q41 335 218.5 532t438.5 197q117 0 211.5 -43t144.5 -118q64 -99 72 -271l-242 -34q-6 140 -53 202t-147 62q-150 0 -250 -133t-129 -371q-62 -500 248 -500q121 0 188 63.5t84 194.5l4 33h-254l25 203h491l-82 -674h-186l-10 109q-84 -129 -312 -129 q-255 0 -376.5 180t-83.5 497z" />
<glyph unicode="H" horiz-adv-x="1282" d="M143 0l166 1366h252l-65 -537h491l66 537h252l-166 -1366h-252l76 627h-492l-76 -627h-252z" />
<glyph unicode="I" horiz-adv-x="538" d="M143 0l166 1366h252l-166 -1366h-252z" />
<glyph unicode="J" horiz-adv-x="923" d="M39 281l254 53q6 -154 123 -154q96 0 143 101q20 48 39 194l109 891h251l-112 -932q-29 -226 -146.5 -341.5t-318.5 -115.5q-147 0 -234.5 78t-107.5 226z" />
<glyph unicode="K" horiz-adv-x="1187" d="M143 0l166 1366h252l-76 -618l527 618h276l-471 -535l350 -831h-280l-256 616l-187 -204l-49 -412h-252z" />
<glyph unicode="L" horiz-adv-x="987" d="M143 0l166 1366h252l-141 -1163h565l-24 -203h-818z" />
<glyph unicode="M" horiz-adv-x="1570" d="M143 0l166 1366h426l90 -723q4 -13 13 -72q18 -123 10 -219q12 71 22.5 112t36.5 116q53 151 149 433.5t120 352.5h417l-166 -1366h-239l127 1047q2 17 8 40l4 33q4 35 6 78q-4 -14 -9 -34t-8.5 -31.5t-12 -37t-23.5 -63.5l-377 -1032h-215l-147 1032l-6 53q0 4 -2 14 t-5.5 34t-7.5 65q-3 -107 -12 -166l-125 -1032h-240z" />
<glyph unicode="N" horiz-adv-x="1325" d="M143 0l166 1366h365l274 -725q40 -104 62 -260q-3 156 12 283l86 702h240l-166 -1366h-248l-371 934q-29 71 -59 182q7 -64 -12 -229l-109 -887h-240z" />
<glyph unicode="O" horiz-adv-x="1247" d="M156 664q41 336 214 529t431 193q249 0 372.5 -187.5t83.5 -506.5q-27 -236 -139 -430q-78 -135 -207.5 -208.5t-289.5 -73.5q-255 0 -379 183.5t-86 500.5zM418 672q-62 -490 219 -490q76 0 143 40.5t117 117.5q71 113 98 334q31 253 -26.5 381.5t-200.5 128.5 q-141 0 -230 -130.5t-120 -381.5z" />
<glyph unicode="P" horiz-adv-x="1161" d="M143 0l166 1366h443q109 0 180.5 -13.5t132.5 -45.5q86 -46 128.5 -143.5t27.5 -217.5q-21 -172 -148 -289q-69 -63 -155.5 -89.5t-219.5 -26.5h-237l-66 -541h-252zM485 743h201q128 0 188 43q73 55 89 168q15 133 -72 185q-29 15 -63.5 19.5t-120.5 4.5h-170z" />
<glyph unicode="Q" horiz-adv-x="1247" d="M154 664q41 336 214 529t433 193q248 0 371 -187t83 -503q-22 -179 -83 -325.5t-152 -235.5q-64 -62 -136 -97t-173 -52q-9 -32 -9 -35q-6 -49 15.5 -68.5t81.5 -19.5h207l-21 -172q-168 -4 -203 -4q-169 0 -233 51t-49 174q6 35 16 78q-94 20 -152.5 54t-105.5 95 q-145 186 -104 525zM416 672q-62 -490 219 -490q76 0 143 40.5t117 117.5q71 113 98 334q31 253 -26.5 381.5t-200.5 128.5q-141 0 -230 -130.5t-120 -381.5z" />
<glyph unicode="R" horiz-adv-x="1155" d="M143 0l166 1366h414q136 0 189.5 -7.5t115.5 -35.5q95 -43 145 -138.5t37 -209.5q-14 -111 -87.5 -196t-198.5 -132l211 -647h-275l-188 604l-23 -4h-164l-16 4l-74 -604h-252zM492 797h190q70 0 106 6.5t68 25.5q79 45 92 144q13 113 -61 162q-48 28 -189 28h-161z" />
<glyph unicode="S" horiz-adv-x="1062" d="M88 348l264 55q15 -221 211 -221q94 0 156.5 50t71.5 133q9 77 -39 123.5t-170 78.5q-120 32 -166.5 49.5t-89.5 47.5q-68 47 -98.5 128t-18.5 181q22 183 164 298t344 115q177 0 275.5 -91t101.5 -257l-244 -41q4 91 -39.5 140t-128.5 49q-83 0 -141.5 -48t-67.5 -124 q-9 -82 29.5 -118t173.5 -71q154 -40 239 -96q80 -51 117 -136.5t25 -189.5q-25 -191 -167.5 -307t-354.5 -116q-211 0 -327.5 95.5t-119.5 272.5z" />
<glyph unicode="T" horiz-adv-x="1044" d="M154 1149l26 217h1018l-27 -217h-385l-139 -1149h-252l140 1149h-381z" />
<glyph unicode="U" horiz-adv-x="1216" d="M193 526l102 840h252l-103 -840q-14 -118 -11 -169t24 -89q23 -41 68 -63.5t104 -22.5q74 0 132 31t87 88q29 59 47 209l104 856h252l-104 -856q-26 -222 -119 -338q-72 -89 -191 -140.5t-249 -51.5q-112 0 -205 40.5t-147 112.5q-49 67 -57 139.5t14 253.5z" />
<glyph unicode="V" horiz-adv-x="1024" d="M152 1366h260l129 -870q18 -110 20 -213q18 98 62 213l333 870h246l-555 -1366h-258z" />
<glyph unicode="W" horiz-adv-x="1536" d="M180 1366h258l56 -803q8 -116 -5 -235q17 112 56 235l258 803h266l68 -819q9 -96 10 -129t-4 -90q5 33 24 110q7 27 17.5 62.5t13.5 46.5l244 819h248l-467 -1366h-262l-82 831q-7 76 4 213q-2 -15 -6.5 -42.5t-6 -36.5t-5.5 -28t-7.5 -31.5t-9.5 -32t-14 -42.5 l-281 -831h-246z" />
<glyph unicode="X" horiz-adv-x="1097" d="M0 0l506 713l-307 653h282q15 -36 76 -178t94 -219q1 -3 2.5 -9t5 -19t7.5 -30q15 38 39 76l249 379h258l-450 -645l336 -721h-291l-182 440q-15 41 -23 66q-9 -21 -35 -66l-301 -440h-266z" />
<glyph unicode="Y" horiz-adv-x="1038" d="M139 1366h269l184 -543q17 -56 22 -82q13 41 37 82l326 543h256l-520 -784l-70 -582h-252l68 561z" />
<glyph unicode="Z" horiz-adv-x="970" d="M35 0l20 180l719 983h-579l24 203h885l-21 -178l-721 -985h601l-25 -203h-903z" />
<glyph unicode="[" horiz-adv-x="628" d="M158 -328l207 1694h409l-20 -174h-195l-166 -1346h182l-20 -174h-397z" />
<glyph unicode="\" horiz-adv-x="880" d="M274 1366h185l381 -1694h-187z" />
<glyph unicode="]" horiz-adv-x="628" d="M-8 -328l20 174h183l165 1346h-194l20 174h410l-207 -1694h-397z" />
<glyph unicode="^" horiz-adv-x="1024" d="M102 700l420 672h314l251 -672h-249l-183 484l-303 -484h-250z" />
<glyph unicode="_" horiz-adv-x="1024" d="M0 -104h1024v-215h-1024v215z" />
<glyph unicode="`" horiz-adv-x="1024" d="M412 1362h254l82 -252h-168z" />
<glyph unicode="a" horiz-adv-x="1017" d="M104 256q19 150 159.5 229t471.5 125q12 100 10 131q-6 78 -122 78q-152 0 -189 -125l-223 33q41 126 149.5 192t272.5 66q195 0 281.5 -79.5t66.5 -239.5l-53 -439q-11 -100 -12.5 -127.5t-0.5 -99.5h-231q-7 29 -12 96q-91 -63 -162.5 -89.5t-149.5 -26.5 q-130 0 -200.5 75.5t-55.5 200.5zM342 244q-6 -46 19.5 -73.5t72.5 -27.5q96 0 258 113l21 174q-135 -18 -232 -53q-68 -23 -100.5 -54.5t-38.5 -78.5z" />
<glyph unicode="b" horiz-adv-x="1026" d="M117 0l166 1366h239l-61 -510q134 131 280 131q154 0 232.5 -140t50.5 -366q-28 -227 -146.5 -364t-285.5 -137q-75 0 -131 27.5t-119 96.5l-31 -104h-194zM387 260l19 -20q46 -54 80.5 -73.5t80.5 -19.5q177 0 215 320q20 157 -16 246.5t-119 89.5q-47 0 -96 -28.5 t-113 -94.5z" />
<glyph unicode="c" horiz-adv-x="940" d="M115 463q29 234 172 379t344 145q145 0 235.5 -90.5t96.5 -239.5l-218 -34q6 94 -31.5 146t-111.5 52q-99 0 -161.5 -84t-82.5 -245q-20 -163 21.5 -254t136.5 -91q69 0 119 48.5t76 142.5l209 -29q-37 -154 -151 -241.5t-277 -87.5q-198 0 -300.5 131.5t-76.5 351.5z " />
<glyph unicode="d" horiz-adv-x="1028" d="M117 469q24 217 133 358q57 72 138 116t159 44q70 0 125 -30t106 -95l62 504h239l-166 -1366h-206l-2 125q-73 -79 -138 -112t-145 -33q-167 0 -250 133t-55 356zM356 471q-19 -149 22.5 -237.5t129.5 -88.5q51 0 91 24t106 95l6 37l6 55q9 65 23.5 187t17.5 147 q-28 52 -73.5 82.5t-96.5 30.5q-85 0 -149 -92t-83 -240z" />
<glyph unicode="e" horiz-adv-x="950" d="M117 473q29 236 162 375t329 139q190 0 281.5 -131.5t62.5 -363.5q0 -2 -3 -24t-7 -38h-590q-15 -134 30 -209.5t140 -75.5q129 0 197 158l205 -33q-35 -127 -157.5 -208.5t-279.5 -81.5q-201 0 -299.5 132t-70.5 361zM371 573h366q3 59 0.5 90.5t-14.5 63.5 q-13 43 -49 67.5t-84 24.5q-83 0 -140 -64t-79 -182z" />
<glyph unicode="f" horiz-adv-x="555" d="M102 791l21 165h149l11 88q12 103 42 164.5t89 104.5q45 32 100 45.5t137 13.5q45 0 109 -6l-23 -190q-65 16 -94 16q-62 0 -92 -41q-19 -25 -29 -107l-10 -88h199l-21 -165h-198l-97 -791h-239l96 791h-150z" />
<glyph unicode="g" horiz-adv-x="976" d="M49 -94q6 50 37.5 86t95.5 67q-45 35 -59.5 64t-9.5 74q8 63 55 104.5t149 73.5q-160 89 -139 272q19 148 139.5 243t288.5 95q170 0 250 -96q85 98 186 98q27 0 58 -10l-19 -154q-17 29 -61 29q-46 0 -98 -29q39 -92 28 -174q-17 -140 -132 -233.5t-271 -93.5 q-56 0 -137 20q-80 -26 -86 -68q-4 -25 22 -38q24 -12 63 -15.5t234 -9.5q120 -5 186.5 -27t110.5 -73q55 -61 45 -158q-17 -129 -150 -202t-352 -73q-218 0 -333 60.5t-101 167.5zM223 -53q-6 -57 64 -89t200 -32q302 0 314 98q3 26 -12 42.5t-51 24.5t-93 7 q-101 -1 -210.5 5t-160.5 17q-45 -30 -51 -73zM418 649q-9 -82 26 -131t101 -49t110.5 46.5t53.5 125.5q10 84 -21.5 131t-97.5 47q-45 0 -81.5 -21t-60 -59.5t-30.5 -89.5z" />
<glyph unicode="h" horiz-adv-x="1017" d="M117 0l166 1366h239l-65 -539q164 158 313 158q66 0 120 -31.5t79 -83.5q31 -60 16 -200l-82 -670h-239l75 629q9 79 2 108q-9 28 -34.5 46t-57.5 18q-45 0 -85 -19t-109 -71l-15 -11l-84 -700h-239z" />
<glyph unicode="i" horiz-adv-x="473" d="M117 0l116 958h240l-117 -958h-239zM256 1145l27 221h239l-26 -221h-240z" />
<glyph unicode="j" horiz-adv-x="473" d="M-104 -328l22 183q61 -5 78 -5q60 0 84 28t35 108l118 972h240l-121 -991q-18 -140 -78 -209q-40 -46 -112.5 -72t-161.5 -26q-50 0 -104 12zM256 1145l27 221h239l-26 -221h-240z" />
<glyph unicode="k" horiz-adv-x="960" d="M117 0l166 1366h239l-96 -793l336 385h258l-322 -344l250 -614h-258l-174 430l-125 -135l-35 -295h-239z" />
<glyph unicode="l" horiz-adv-x="473" d="M117 0l166 1366h239l-166 -1366h-239z" />
<glyph unicode="m" horiz-adv-x="1587" d="M117 0l116 958h240l-16 -133q106 86 185 123t157 37q181 0 205 -174q174 174 335 174q134 0 199 -96q46 -70 29 -193l-84 -696h-240l82 668q8 73 -15.5 103t-90.5 30q-53 0 -98.5 -22.5t-112.5 -82.5l-84 -696h-240l74 606q8 69 7 97.5t-11 46.5q-25 51 -95 51 q-94 0 -219 -105l-84 -696h-239z" />
<glyph unicode="n" horiz-adv-x="1021" d="M117 0l116 958h240l-18 -143q135 170 323 170q69 0 126.5 -39t74.5 -98q19 -69 2 -227l-76 -621h-239l75 621q7 65 7 87t-9 40q-9 25 -35 39t-61 14q-97 0 -201 -99l-86 -702h-239z" />
<glyph unicode="o" horiz-adv-x="976" d="M117 479q29 233 162 369.5t331 136.5t297 -136.5t70 -369.5q-22 -183 -123 -317q-132 -182 -369 -182q-198 0 -297 134.5t-71 364.5zM358 489q-44 -344 146 -344q93 0 153 88t82 256q41 330 -147 330q-94 0 -154 -84.5t-80 -245.5z" />
<glyph unicode="p" horiz-adv-x="1034" d="M76 -328l157 1286h240l-18 -147q60 90 130 132t160 42q163 0 240.5 -135.5t48.5 -366.5q-24 -203 -110 -329q-56 -79 -141.5 -126.5t-172.5 -47.5q-91 0 -148.5 45.5t-86.5 140.5l-60 -494h-239zM391 291q39 -68 78.5 -97.5t95.5 -29.5q192 0 230 311q20 168 -15.5 256 t-124.5 88q-54 0 -100 -29t-117 -110z" />
<glyph unicode="q" horiz-adv-x="1021" d="M117 469q24 215 133 352q62 77 144 120.5t165 43.5q72 0 136.5 -30.5t105.5 -84.5l30 88h193l-158 -1286h-239l51 422q-73 -61 -133.5 -87.5t-128.5 -26.5q-163 0 -245 134t-54 355zM354 467q-17 -142 25.5 -222.5t134.5 -80.5q96 0 182 80l58 471q-56 106 -152 106 q-94 0 -160 -95t-88 -259z" />
<glyph unicode="r" horiz-adv-x="724" d="M117 0l116 958h240l-27 -223q89 132 171 192t171 60q15 0 43 -4l-26 -223l-47 2q-72 3 -123.5 -15.5t-102.5 -62.5q-45 -38 -77 -87.5t-37 -88.5l-62 -508h-239z" />
<glyph unicode="s" horiz-adv-x="808" d="M70 250l219 35q5 -75 33.5 -107.5t91.5 -32.5t107 34t50 87q6 40 -21.5 64t-96.5 37q-117 23 -184 55t-101 80q-50 65 -37 172q17 138 131 225.5t275 87.5q150 0 231 -90q31 -33 43.5 -65t13.5 -87l-215 -34q-4 60 -28 84t-78 24q-60 0 -103 -34t-51 -87q-3 -33 10 -53 q11 -15 16.5 -20.5t29.5 -14.5t57 -16.5t110 -24.5q121 -28 178 -100t44 -182q-19 -141 -130.5 -224t-283.5 -83q-149 0 -223 64.5t-88 205.5z" />
<glyph unicode="t" horiz-adv-x="595" d="M90 791l21 165h149l35 279h240l-35 -279h198l-20 -165h-199l-57 -474q-9 -67 -8.5 -84.5t8.5 -31.5q18 -41 82 -41q28 0 98 20l-20 -180q-118 -23 -176 -23q-122 0 -177 52q-43 42 -53.5 97t4.5 175l60 490h-150z" />
<glyph unicode="u" horiz-adv-x="1021" d="M160 354l73 604h240l-74 -604q-12 -100 -11 -127t13 -45q27 -37 93 -37q97 0 202 99l88 714h240l-117 -958h-219l14 127q-86 -83 -153.5 -115t-155.5 -32q-150 0 -211 98q-31 50 -35 97.5t13 178.5z" />
<glyph unicode="v" horiz-adv-x="825" d="M102 958h242l100 -639q8 -58 13 -124q9 26 17.5 55t12.5 41q50 126 136.5 365t109.5 302h221l-397 -958h-268z" />
<glyph unicode="w" horiz-adv-x="1273" d="M131 958h227l62 -550q14 -133 14 -170q9 59 45 170l178 550h234l35 -512q10 -150 6 -208q21 97 26 112l25 68q35 106 105 297.5t88 242.5h202l-385 -958h-219l-37 514q-9 142 -4 193q-23 -105 -55 -193l-174 -514h-221z" />
<glyph unicode="x" horiz-adv-x="905" d="M0 0l391 492l-233 466h264l117 -278l202 278h244l-350 -450l270 -508h-280l-129 319l-240 -319h-256z" />
<glyph unicode="y" horiz-adv-x="843" d="M-14 -305l24 188q73 -33 131 -33q56 0 94.5 34.5t81.5 121.5l-215 952h248l96 -596l7 -28q0 -3 3 -27t7 -61q32 84 45 116l248 596h217l-441 -952q-71 -157 -141 -231q-112 -109 -262 -109q-63 0 -143 29z" />
<glyph unicode="z" horiz-adv-x="876" d="M43 0l16 135l578 658h-465l21 165h749l-18 -141l-570 -651h490l-19 -166h-782z" />
<glyph unicode="{" horiz-adv-x="628" d="M100 434l25 207q63 12 93.5 52.5t41.5 125.5l37 305q20 158 102 226.5t252 68.5q2 0 24 -1t44 -1h61l-26 -217h-33q-58 0 -88.5 -4.5t-51 -22t-27.5 -43.5t-13 -77l-31 -250q-12 -101 -46.5 -156t-111.5 -100q67 -47 86.5 -100t7.5 -156l-30 -252q-9 -69 -5 -92.5 t27 -36.5q28 -19 123 -19h33l-27 -215l-61 -2q-35 -2 -72 -2q-169 0 -234 68t-46 225l39 309q9 72 -13 110t-80 50z" />
<glyph unicode="|" horiz-adv-x="1024" d="M350 -342l209 1708h240l-209 -1708h-240z" />
<glyph unicode="}" horiz-adv-x="628" d="M-20 -324l26 215h33q91 0 131 21q24 15 33 37.5t18 89.5l31 252q12 103 44.5 156t111.5 100q-65 44 -85 99.5t-8 156.5l31 250q11 96 -13.5 121.5t-133.5 25.5h-33l27 217h61q22 0 46 1t26 1q170 0 235 -68.5t45 -226.5l-37 -305q-11 -85 9.5 -125.5t80.5 -52.5l-24 -207 q-61 -12 -92.5 -50t-40.5 -110l-39 -309q-19 -157 -100 -225t-250 -68q-37 0 -72 2z" />
<glyph unicode="~" horiz-adv-x="1366" d="M338 1245q17 29 18 33q78 134 148.5 187t171.5 53q68 0 209 -56q85 -34 114.5 -42.5t61.5 -8.5q51 0 87 23.5t83 87.5l125 -80q-51 -86 -86.5 -128.5t-79.5 -74.5q-89 -59 -186 -59q-37 0 -86.5 15t-198.5 73q-47 18 -86 18q-53 0 -89 -27t-83 -102z" />
<glyph unicode="&#xa1;" horiz-adv-x="559" d="M109 -328l131 887h200l-71 -887h-260zM250 713l31 245h231l-31 -245h-231z" />
<glyph unicode="&#xa2;" d="M221 666q29 233 170.5 379.5t337.5 146.5q55 0 111 -12l92 188l76 -31l-95 -190q70 -41 112 -118t44 -167l-217 -35q4 35 -5 77t-26 67l-289 -590q48 -29 93 -29q69 0 118 48.5t74 142.5l209 -29q-40 -157 -151.5 -243.5t-274.5 -86.5q-70 0 -145 21l-105 -201l-74 31 l103 207q-94 65 -134.5 173.5t-23.5 250.5zM465 686q-9 -70 -6 -119t20 -106l277 559q-34 6 -47 6q-100 0 -162 -86.5t-82 -253.5z" />
<glyph unicode="&#xa3;" d="M156 221q10 94 85 157.5t175 63.5q31 0 51.5 -7t48.5 -27q4 25 0.5 61.5t-15.5 81.5t-28 82h-242l25 196h168q-19 105 -10 201q19 151 127.5 248.5t259.5 97.5q123 0 208.5 -68t108.5 -184l-217 -69q-9 59 -40 93t-75 34q-53 0 -86.5 -38.5t-40.5 -107.5q-11 -85 13 -207 h334l-25 -196h-264q27 -100 35.5 -158.5t3.5 -105.5q-4 -25 -23 -74q10 -7 25.5 -23.5t19.5 -19.5q26 -27 37.5 -35t28.5 -8q29 0 52.5 17.5t61.5 68.5l181 -84q-147 -225 -320 -225q-50 0 -87 23.5t-116 103.5q-84 -127 -227 -127q-114 0 -179.5 66.5t-53.5 168.5zM332 225 q-4 -32 20 -58t58 -26q51 0 92 92q-8 16 -14.5 26.5t-13.5 18.5t-15 12.5t-17 6.5t-20 2q-33 0 -60 -22.5t-30 -51.5z" />
<glyph unicode="&#xa4;" horiz-adv-x="1366" d="M76 190l231 207q-54 100 -59 203.5t29.5 191.5t101.5 173l-184 209l149 135l184 -211q78 49 149.5 71.5t151.5 22.5q78 0 142.5 -21.5t128.5 -70.5l233 207l117 -133l-231 -207q154 -291 -66 -568l182 -209l-147 -133l-184 207q-149 -94 -302 -94q-76 0 -140.5 21.5 t-137.5 72.5l-231 -207zM446 680q-15 -131 67 -224.5t212 -93.5q131 0 236 94t120 226q17 129 -64.5 223t-209.5 94q-135 0 -239.5 -92.5t-121.5 -226.5z" />
<glyph unicode="&#xa5;" d="M215 770l21 172h120l-139 424h262l105 -365q32 -114 55 -276q78 191 129 289l186 352h252l-235 -424h114l-20 -172h-184l-125 -211h223l-21 -172h-237l-47 -387h-252l47 387h-236l21 172h223l-71 211h-191z" />
<glyph unicode="&#xa6;" horiz-adv-x="1024" d="M350 -342l80 655h240l-80 -655h-240zM473 662l86 704h240l-86 -704h-240z" />
<glyph unicode="&#xa7;" d="M92 -2l244 65q25 -94 63.5 -131.5t110.5 -37.5q67 0 116.5 37.5t55.5 93.5q4 36 -12 55q-17 23 -47.5 39t-196.5 88q-99 42 -152 77.5t-81 77.5q-55 82 -43 185q10 88 60 150.5t155 121.5q-91 94 -76 225q19 145 146.5 247t291.5 102q142 0 239 -76t126 -211l-226 -72 q-26 83 -67 119.5t-107 36.5q-58 0 -100.5 -34t-48.5 -85q-7 -37 12 -53q18 -27 48 -43t194 -86q150 -64 215 -135q76 -94 61 -209q-18 -163 -209 -293q84 -93 70 -211q-19 -154 -148.5 -252t-312.5 -98q-325 0 -381 307zM389 604q-6 -47 21.5 -79.5t109.5 -73.5 q19 -10 232 -119q75 75 84 147q7 58 -44 106.5t-171 98.5q-116 49 -144 68q-80 -74 -88 -148z" />
<glyph unicode="&#xa8;" horiz-adv-x="1024" d="M338 1139l27 219h231l-27 -219h-231zM735 1139l27 219h231l-26 -219h-232z" />
<glyph unicode="&#xa9;" horiz-adv-x="1503" d="M150 682q25 205 134.5 370.5t278.5 259t365 93.5q189 0 333 -95t213 -261t44 -367q-18 -150 -87.5 -284t-172 -230t-236.5 -151.5t-277 -55.5t-263 55.5t-198.5 151.5t-115 229.5t-18.5 284.5zM260 684q-21 -166 39 -308t182.5 -225t278.5 -83t298.5 82.5t237 225 t115.5 310.5q13 122 -16.5 239t-94.5 199q-66 79 -171 126.5t-214 47.5q-164 0 -306.5 -79.5t-235 -220t-113.5 -314.5zM512 684q23 193 129.5 306.5t263.5 113.5q125 0 194.5 -68t76.5 -198l-164 -25q0 74 -31 116t-88 42q-86 0 -141 -73t-72 -208q-19 -146 15.5 -221.5 t117.5 -75.5q61 0 102 41.5t66 128.5l158 -24q-35 -134 -124 -206.5t-216 -72.5q-162 0 -237.5 111.5t-49.5 312.5z" />
<glyph unicode="&#xaa;" horiz-adv-x="710" d="M113 621l12 108h641l-12 -108h-641zM233 967q10 86 88 130t267 72l2 27q6 46 -7.5 63t-54.5 17q-82 0 -100 -70l-135 21q47 153 242 153q112 0 162 -46t38 -138l-28 -244q-11 -85 -9 -133h-139q-6 18 -6 49q-92 -61 -170 -61q-75 0 -116.5 44.5t-33.5 115.5zM379 961 q-3 -23 9.5 -37.5t37.5 -14.5q49 0 137 62l10 88q-185 -26 -194 -98z" />
<glyph unicode="&#xab;" horiz-adv-x="757" d="M104 479l205 383h162l-199 -383l105 -385h-162zM408 479l198 383h168l-194 -383l92 -385h-160z" />
<glyph unicode="&#xac;" horiz-adv-x="1024" d="M106 324l27 223h887l-66 -547h-239l39 324h-648z" />
<glyph unicode="&#xad;" horiz-adv-x="454" d="M45 379l25 199h454l-24 -199h-455z" />
<glyph unicode="&#xae;" horiz-adv-x="1503" d="M150 682q25 205 134.5 370.5t278.5 259t365 93.5q189 0 333 -95t213 -261t44 -367q-18 -150 -87.5 -284t-172 -230t-236.5 -151.5t-277 -55.5t-263 55.5t-198.5 151.5t-115 229.5t-18.5 284.5zM260 684q-21 -166 39 -308t182.5 -225t278.5 -83t298.5 82.5t237 225 t115.5 310.5q13 122 -16.5 239t-94.5 199q-66 79 -171 126.5t-214 47.5q-164 0 -306.5 -79.5t-235 -220t-113.5 -314.5zM504 272l100 820h250q81 0 113 -5t69 -22q58 -26 88.5 -84t22.5 -127q-9 -66 -52.5 -117.5t-113.5 -79.5l125 -385h-176l-113 355q-10 -2 -24 -2h-35 l-49 2l-43 -355h-162zM725 756h104q74 0 109 23t41 75q6 57 -26 80.5t-115 23.5h-88z" />
<glyph unicode="&#xaf;" horiz-adv-x="1024" d="M352 1147l23 174h600l-23 -174h-600z" />
<glyph unicode="&#xb0;" horiz-adv-x="778" d="M213 1077q15 129 116.5 219t229.5 90q129 0 206 -90t62 -221q-15 -124 -116.5 -213.5t-227.5 -89.5q-127 0 -206 89.5t-64 215.5zM342 1079q-9 -75 37 -128.5t119 -53.5q71 0 131 53t69 125q9 77 -36.5 132t-120.5 55q-70 0 -130 -55.5t-69 -127.5z" />
<glyph unicode="&#xb1;" d="M68 0l16 147h956l-16 -147h-956zM141 608l19 148h403l49 405h148l-49 -405h405l-18 -148h-406l-43 -348h-147l43 348h-404z" />
<glyph unicode="&#xb2;" horiz-adv-x="733" d="M127 547l16 123q82 123 279 256q112 74 153.5 118.5t47.5 94.5q6 49 -20.5 79.5t-76.5 30.5q-58 0 -93.5 -34t-57.5 -109l-162 27q71 245 324 245q132 0 200.5 -64.5t55.5 -176.5q-15 -113 -109 -195q-44 -35 -137 -92q-81 -52 -128 -87t-102 -87h418l-16 -129h-592z" />
<glyph unicode="&#xb3;" horiz-adv-x="733" d="M137 750l162 32q13 -64 42.5 -91t86.5 -27q63 0 106 35.5t50 93.5q8 65 -39 95t-156 30q-13 0 -43 -3l16 125q106 0 146 13q81 24 90 98q5 42 -23 70t-75 28q-84 0 -148 -100l-135 51q47 87 126 132.5t181 45.5q117 0 186.5 -61t57.5 -152q-6 -58 -44.5 -104.5 t-98.5 -69.5q77 -32 107.5 -79.5t21.5 -120.5q-13 -112 -109 -184t-231 -72q-145 0 -221 79q-23 26 -35 55t-21 81z" />
<glyph unicode="&#xb4;" horiz-adv-x="1024" d="M561 1110l137 252h256l-221 -252h-172z" />
<glyph unicode="&#xb6;" d="M193 999q12 99 71.5 183t147.5 129q110 55 293 55h538l-14 -123h-99l-192 -1571h-172l192 1571h-135l-192 -1571h-172l119 971q-16 -2 -35 -2q-172 0 -270.5 100.5t-79.5 257.5z" />
<glyph unicode="&#xb7;" horiz-adv-x="505" d="M182 383l31 246h231l-30 -246h-232z" />
<glyph unicode="&#xb8;" horiz-adv-x="1024" d="M340 -362l33 81q38 -20 94 -20q26 0 46.5 15.5t23.5 37.5q6 55 -76 55h-47l69 193h90l-45 -129q69 -8 103 -41t28 -88q-8 -59 -59.5 -94t-130.5 -35q-56 0 -129 25z" />
<glyph unicode="&#xb9;" horiz-adv-x="733" d="M223 547l17 129h143l66 538h-144l12 93l222 59h88l-84 -690h141l-16 -129h-445z" />
<glyph unicode="&#xba;" horiz-adv-x="710" d="M111 621l12 108h641l-12 -108h-641zM244 1092q17 134 91.5 211t186.5 77q114 0 171 -77t40 -209q-15 -129 -91.5 -207t-188.5 -78q-110 0 -167 77t-42 206zM389 1098q-21 -185 76 -185q49 0 80.5 47.5t42.5 137.5q21 178 -76 178q-102 0 -123 -178z" />
<glyph unicode="&#xbb;" horiz-adv-x="757" d="M106 94l187 385l-100 383h167l103 -383l-197 -385h-160zM401 94l199 385l-104 383h159l113 -383l-207 -385h-160z" />
<glyph unicode="&#xbc;" horiz-adv-x="1665" d="M223 547l17 129h143l66 538h-144l12 93l222 59h88l-84 -690h141l-16 -129h-445zM528 0l639 1366h136l-637 -1366h-138zM1018 197l14 110l354 512h213l-61 -493h127l-16 -129h-127l-23 -197h-160l23 197h-344zM1178 324h194l45 364q-4 -7 -11 -18.5t-11 -18.5z" />
<glyph unicode="&#xbd;" horiz-adv-x="1665" d="M223 547l17 129h143l66 538h-144l12 93l222 59h88l-84 -690h141l-16 -129h-445zM528 0l639 1366h136l-637 -1366h-138zM995 0l15 123q83 124 278 256q112 74 153.5 118.5t47.5 94.5t-19.5 80t-74.5 30q-59 0 -95.5 -34t-58.5 -109l-160 27q68 245 322 245 q132 0 200.5 -64.5t55.5 -176.5q-15 -113 -109 -195q-44 -35 -135 -92q-131 -81 -231 -174h418l-15 -129h-592z" />
<glyph unicode="&#xbe;" horiz-adv-x="1665" d="M137 750l162 32q13 -64 42.5 -91t86.5 -27q63 0 106 35.5t50 93.5q8 65 -39 95t-156 30q-13 0 -43 -3l16 125q106 0 146 13q81 24 90 98q5 42 -23 70t-75 28q-84 0 -148 -100l-135 51q47 87 126 132.5t181 45.5q117 0 186.5 -61t57.5 -152q-6 -58 -44.5 -104.5 t-98.5 -69.5q77 -32 107.5 -79.5t21.5 -120.5q-13 -112 -109 -184t-231 -72q-145 0 -221 79q-23 26 -35 55t-21 81zM528 0l637 1366h138l-637 -1366h-138zM1016 197l14 110l354 512h213l-61 -493h127l-16 -129h-127l-23 -197h-160l23 197h-344zM1176 324h194l45 364 q-4 -7 -11 -18.5t-11 -18.5z" />
<glyph unicode="&#xbf;" horiz-adv-x="819" d="M78 -51q12 94 74 184q31 41 59 69t129 117q64 56 94 111t39 135l4 25h225q-10 -81 -23 -131.5t-45 -106t-82 -107.5t-138 -130q-58 -51 -82 -85t-29 -71q-6 -44 22 -73t76 -29q113 0 187 149l170 -104q-53 -107 -157.5 -171.5t-227.5 -64.5q-146 0 -228 78.5t-67 204.5z M483 715l31 243h240l-31 -243h-240z" />
<glyph unicode="&#xc0;" horiz-adv-x="1107" d="M-14 0l561 1366h346l221 -1366h-268l-53 362h-416l-141 -362h-250zM446 547h322l-68 526q-12 94 -14 117q-7 -35 -20 -72q-5 -8 -23 -55zM487 1743h254l82 -252h-168z" />
<glyph unicode="&#xc1;" horiz-adv-x="1107" d="M-14 0l561 1366h346l221 -1366h-268l-53 362h-416l-141 -362h-250zM446 547h322l-68 526q-12 94 -14 117q-7 -35 -20 -72q-5 -8 -23 -55zM670 1491l137 252h256l-221 -252h-172z" />
<glyph unicode="&#xc2;" horiz-adv-x="1107" d="M-14 0l561 1366h346l221 -1366h-268l-53 362h-416l-141 -362h-250zM408 1493l235 209h250l182 -209h-207l-114 104l-142 -104h-204zM446 547h322l-68 526q-12 94 -14 117q-7 -35 -20 -72q-5 -8 -23 -55z" />
<glyph unicode="&#xc3;" horiz-adv-x="1107" d="M-14 0l561 1366h346l221 -1366h-268l-53 362h-416l-141 -362h-250zM432 1493q10 106 78.5 173t163.5 67q37 0 59.5 -6.5t126.5 -47.5q27 -12 58 -12q32 0 50.5 17.5t30.5 58.5h127q-20 -118 -82 -181t-157 -63q-53 0 -135 31q-61 24 -78 29.5t-35 5.5q-59 0 -80 -72h-127 zM446 547h322l-68 526q-12 94 -14 117q-7 -35 -20 -72q-5 -8 -23 -55z" />
<glyph unicode="&#xc4;" horiz-adv-x="1107" d="M-14 0l561 1366h346l221 -1366h-268l-53 362h-416l-141 -362h-250zM422 1522l27 219h231l-27 -219h-231zM446 547h322l-68 526q-12 94 -14 117q-7 -35 -20 -72q-5 -8 -23 -55zM819 1522l27 219h231l-26 -219h-232z" />
<glyph unicode="&#xc5;" horiz-adv-x="1107" d="M-14 0l561 1366h346l221 -1366h-268l-53 362h-416l-141 -362h-250zM446 547h322l-68 526q-12 94 -14 117q-7 -35 -20 -72q-5 -8 -23 -55zM563 1671q9 83 77.5 143t152.5 60t136.5 -59.5t43.5 -143.5q-10 -83 -77.5 -142t-150.5 -59q-86 0 -139.5 59t-42.5 142zM682 1671 q-4 -33 18 -56.5t58 -23.5q35 0 62 24t32 58t-16 57t-56 23q-37 0 -66 -24t-32 -58z" />
<glyph unicode="&#xc6;" horiz-adv-x="1826" d="M-27 0l955 1366h968l-24 -203h-596l-45 -370h500l-25 -203h-500l-47 -387h631l-25 -203h-882l43 365h-441l-243 -365h-269zM606 547l342 2l78 627z" />
<glyph unicode="&#xc7;" horiz-adv-x="1216" d="M160 684q40 327 216 516t441 189q201 0 320 -117t120 -316l-251 -36q-18 282 -215 282q-82 0 -154 -50t-121 -142q-65 -122 -90 -312q-31 -260 28 -395t205 -135q47 0 92.5 16.5t73.5 46.5q42 39 67.5 88.5t55.5 145.5l244 -35q-51 -202 -200.5 -326.5t-338.5 -121.5 l-32 -97q65 -8 93.5 -35.5t22.5 -76.5q-6 -54 -49.5 -84.5t-114.5 -30.5q-54 0 -118 20l26 70q49 -14 82 -14q28 0 46.5 12.5t19.5 34.5q6 49 -84 49h-25l51 152q-113 20 -184.5 59t-128.5 111q-142 181 -98 532z" />
<glyph unicode="&#xc8;" horiz-adv-x="1087" d="M143 0l166 1366h850l-24 -203h-598l-43 -358h497l-24 -203h-498l-49 -399h631l-25 -203h-883zM526 1743h254l82 -252h-168z" />
<glyph unicode="&#xc9;" horiz-adv-x="1087" d="M143 0l166 1366h850l-24 -203h-598l-43 -358h497l-24 -203h-498l-49 -399h631l-25 -203h-883zM674 1491l137 252h256l-221 -252h-172z" />
<glyph unicode="&#xca;" horiz-adv-x="1087" d="M143 0l166 1366h850l-24 -203h-598l-43 -358h497l-24 -203h-498l-49 -399h631l-25 -203h-883zM434 1493l236 209h250l182 -209h-207l-115 104l-141 -104h-205z" />
<glyph unicode="&#xcb;" horiz-adv-x="1087" d="M143 0l166 1366h850l-24 -203h-598l-43 -358h497l-24 -203h-498l-49 -399h631l-25 -203h-883zM457 1522l26 219h232l-27 -219h-231zM854 1522l27 219h231l-27 -219h-231z" />
<glyph unicode="&#xcc;" horiz-adv-x="538" d="M143 0l166 1366h252l-166 -1366h-252zM211 1743h254l82 -252h-168z" />
<glyph unicode="&#xcd;" horiz-adv-x="538" d="M143 0l166 1366h252l-166 -1366h-252zM379 1491l137 252h256l-221 -252h-172z" />
<glyph unicode="&#xce;" horiz-adv-x="538" d="M125 1493l235 209h250l183 -209h-207l-115 104l-141 -104h-205zM143 0l166 1366h252l-166 -1366h-252z" />
<glyph unicode="&#xcf;" horiz-adv-x="538" d="M143 0l166 1366h252l-166 -1366h-252zM190 1522l27 219h232l-27 -219h-232zM518 1522l27 219h231l-26 -219h-232z" />
<glyph unicode="&#xd0;" horiz-adv-x="1247" d="M82 627l24 202h138l65 537h330q205 0 271 -12.5t137 -61.5q126 -86 179 -245t27 -367q-23 -186 -104 -336.5t-207 -241.5q-83 -58 -174.5 -80t-251.5 -22h-373l76 627h-137zM420 203h112q216 0 323.5 114.5t139.5 378.5q38 307 -100 408q-79 59 -260 59h-98l-41 -334h284 l-24 -202h-285z" />
<glyph unicode="&#xd1;" horiz-adv-x="1325" d="M143 0l166 1366h365l274 -725q40 -104 62 -260q-3 156 12 283l86 702h240l-166 -1366h-248l-371 934q-29 71 -59 182q7 -64 -12 -229l-109 -887h-240zM590 1493q10 106 78 173t163 67q38 0 61 -7t126 -47q27 -12 57 -12q32 0 51 17.5t31 58.5h127q-20 -118 -82 -181 t-158 -63q-53 0 -135 31q-62 25 -78 30t-34 5q-59 0 -80 -72h-127z" />
<glyph unicode="&#xd2;" horiz-adv-x="1247" d="M156 664q41 336 214 529t431 193q249 0 372.5 -187.5t83.5 -506.5q-27 -236 -139 -430q-78 -135 -207.5 -208.5t-289.5 -73.5q-255 0 -379 183.5t-86 500.5zM418 672q-62 -490 219 -490q76 0 143 40.5t117 117.5q71 113 98 334q31 253 -26.5 381.5t-200.5 128.5 q-141 0 -230 -130.5t-120 -381.5zM578 1743h253l82 -252h-168z" />
<glyph unicode="&#xd3;" horiz-adv-x="1247" d="M156 664q41 336 214 529t431 193q249 0 372.5 -187.5t83.5 -506.5q-27 -236 -139 -430q-78 -135 -207.5 -208.5t-289.5 -73.5q-255 0 -379 183.5t-86 500.5zM418 672q-62 -490 219 -490q76 0 143 40.5t117 117.5q71 113 98 334q31 253 -26.5 381.5t-200.5 128.5 q-141 0 -230 -130.5t-120 -381.5zM741 1491l138 252h256l-222 -252h-172z" />
<glyph unicode="&#xd4;" horiz-adv-x="1247" d="M156 664q41 336 214 529t431 193q249 0 372.5 -187.5t83.5 -506.5q-27 -236 -139 -430q-78 -135 -207.5 -208.5t-289.5 -73.5q-255 0 -379 183.5t-86 500.5zM418 672q-62 -490 219 -490q76 0 143 40.5t117 117.5q71 113 98 334q31 253 -26.5 381.5t-200.5 128.5 q-141 0 -230 -130.5t-120 -381.5zM485 1493l236 209h250l182 -209h-207l-115 104l-141 -104h-205z" />
<glyph unicode="&#xd5;" horiz-adv-x="1247" d="M156 664q41 336 214 529t431 193q249 0 372.5 -187.5t83.5 -506.5q-27 -236 -139 -430q-78 -135 -207.5 -208.5t-289.5 -73.5q-255 0 -379 183.5t-86 500.5zM418 672q-62 -490 219 -490q76 0 143 40.5t117 117.5q71 113 98 334q31 253 -26.5 381.5t-200.5 128.5 q-141 0 -230 -130.5t-120 -381.5zM518 1493q10 106 78.5 173t163.5 67q37 0 59.5 -6.5t126.5 -47.5q27 -12 58 -12q32 0 50.5 17.5t30.5 58.5h127q-20 -118 -82 -181t-157 -63q-53 0 -135 31q-61 24 -78 29.5t-35 5.5q-59 0 -80 -72h-127z" />
<glyph unicode="&#xd6;" horiz-adv-x="1247" d="M156 664q41 336 214 529t431 193q249 0 372.5 -187.5t83.5 -506.5q-27 -236 -139 -430q-78 -135 -207.5 -208.5t-289.5 -73.5q-255 0 -379 183.5t-86 500.5zM418 672q-62 -490 219 -490q76 0 143 40.5t117 117.5q71 113 98 334q31 253 -26.5 381.5t-200.5 128.5 q-141 0 -230 -130.5t-120 -381.5zM516 1522l27 219h233l-26 -219h-234zM897 1522l27 219h233l-27 -219h-233z" />
<glyph unicode="&#xd7;" d="M172 369l352 313l-276 315l119 105l276 -316l352 316l90 -105l-352 -315l277 -313l-119 -105l-275 314l-354 -314z" />
<glyph unicode="&#xd8;" horiz-adv-x="1247" d="M111 51l118 133q-57 106 -74.5 219t1.5 261q41 336 214 529t431 193q106 0 183 -31t146 -102l101 117l63 -70l-108 -124q107 -187 71 -480q-41 -341 -208 -528.5t-428 -187.5q-210 0 -336 129l-115 -132zM414 410l553 651q-35 64 -82.5 93.5t-116.5 29.5 q-141 0 -230 -130.5t-120 -379.5q-22 -192 -4 -264zM446 297q63 -115 191 -115q76 0 144.5 41.5t115.5 116.5q56 89 87.5 270t14.5 342z" />
<glyph unicode="&#xd9;" horiz-adv-x="1216" d="M193 526l102 840h252l-103 -840q-14 -118 -11.5 -169t24.5 -89q23 -41 68 -63.5t104 -22.5q74 0 132 31t87 88q29 59 47 209l104 856h252l-104 -856q-26 -222 -119 -338q-72 -89 -191 -140.5t-249 -51.5q-112 0 -205 40.5t-147 112.5q-49 67 -57 139.5t14 253.5z M569 1743h254l82 -252h-168z" />
<glyph unicode="&#xda;" horiz-adv-x="1216" d="M193 526l102 840h252l-103 -840q-14 -118 -11.5 -169t24.5 -89q23 -41 68 -63.5t104 -22.5q74 0 132 31t87 88q29 59 47 209l104 856h252l-104 -856q-26 -222 -119 -338q-72 -89 -191 -140.5t-249 -51.5q-112 0 -205 40.5t-147 112.5q-49 67 -57 139.5t14 253.5z M725 1491l137 252h256l-221 -252h-172z" />
<glyph unicode="&#xdb;" horiz-adv-x="1216" d="M193 526l102 840h252l-103 -840q-14 -118 -11.5 -169t24.5 -89q23 -41 68 -63.5t104 -22.5q74 0 132 31t87 88q29 59 47 209l104 856h252l-104 -856q-26 -222 -119 -338q-72 -89 -191 -140.5t-249 -51.5q-112 0 -205 40.5t-147 112.5q-49 67 -57 139.5t14 253.5z M477 1493l236 209h250l182 -209h-207l-115 104l-141 -104h-205z" />
<glyph unicode="&#xdc;" horiz-adv-x="1216" d="M193 526l102 840h252l-103 -840q-14 -118 -11.5 -169t24.5 -89q23 -41 68 -63.5t104 -22.5q74 0 132 31t87 88q29 59 47 209l104 856h252l-104 -856q-26 -222 -119 -338q-72 -89 -191 -140.5t-249 -51.5q-112 0 -205 40.5t-147 112.5q-49 67 -57 139.5t14 253.5z M508 1522l27 219h233l-27 -219h-233zM889 1522l26 219h234l-27 -219h-233z" />
<glyph unicode="&#xdd;" horiz-adv-x="1038" d="M139 1366h269l184 -543q17 -56 22 -82q13 41 37 82l326 543h256l-520 -784l-70 -582h-252l68 561zM637 1491l137 252h256l-221 -252h-172z" />
<glyph unicode="&#xde;" horiz-adv-x="1099" d="M143 0l166 1366h252l-24 -205h137q109 0 180 -13.5t131 -45.5q88 -46 130.5 -143t27.5 -216q-21 -171 -148 -288q-70 -63 -157.5 -90t-219.5 -27h-182l-41 -338h-252zM461 541h145q126 0 187 43q77 53 90 166q9 64 -10.5 112.5t-63.5 71.5q-26 15 -60.5 19.5t-121.5 4.5 h-115z" />
<glyph unicode="&#xdf;" horiz-adv-x="1024" d="M117 0l110 903q15 132 37 206.5t58 123.5q59 75 156.5 116.5t215.5 41.5q166 0 259.5 -91t74.5 -237q-11 -90 -67 -155t-146 -93q120 -22 172.5 -120.5t30.5 -262.5q-25 -209 -138 -333t-278 -124q-46 0 -102 19l20 172q12 -2 29 -2q91 0 153.5 74.5t77.5 203.5 q17 151 -43 220q-21 26 -51 36.5t-98 18.5l22 172q160 23 178 170q9 74 -25 119t-101 45q-43 0 -83.5 -22.5t-60.5 -57.5q-30 -58 -45 -185l-117 -958h-239z" />
<glyph unicode="&#xe0;" horiz-adv-x="1017" d="M104 256q19 150 159.5 229t471.5 125q12 100 10 131q-6 78 -122 78q-152 0 -189 -125l-223 33q41 126 149.5 192t272.5 66q195 0 281.5 -79.5t66.5 -239.5l-53 -439q-11 -100 -12.5 -127.5t-0.5 -99.5h-231q-7 29 -12 96q-91 -63 -162.5 -89.5t-149.5 -26.5 q-130 0 -200.5 75.5t-55.5 200.5zM342 244q-6 -46 19.5 -73.5t72.5 -27.5q96 0 258 113l21 174q-135 -18 -232 -53q-68 -23 -100.5 -54.5t-38.5 -78.5zM422 1362h254l82 -252h-168z" />
<glyph unicode="&#xe1;" horiz-adv-x="1017" d="M104 256q19 150 159.5 229t471.5 125q12 100 10 131q-6 78 -122 78q-152 0 -189 -125l-223 33q41 126 149.5 192t272.5 66q195 0 281.5 -79.5t66.5 -239.5l-53 -439q-11 -100 -12.5 -127.5t-0.5 -99.5h-231q-7 29 -12 96q-91 -63 -162.5 -89.5t-149.5 -26.5 q-130 0 -200.5 75.5t-55.5 200.5zM342 244q-6 -46 19.5 -73.5t72.5 -27.5q96 0 258 113l21 174q-135 -18 -232 -53q-68 -23 -100.5 -54.5t-38.5 -78.5zM578 1110l137 252h256l-221 -252h-172z" />
<glyph unicode="&#xe2;" horiz-adv-x="1017" d="M104 256q19 150 159.5 229t471.5 125q12 100 10 131q-6 78 -122 78q-152 0 -189 -125l-223 33q41 126 149.5 192t272.5 66q195 0 281.5 -79.5t66.5 -239.5l-53 -439q-11 -100 -12.5 -127.5t-0.5 -99.5h-231q-7 29 -12 96q-91 -63 -162.5 -89.5t-149.5 -26.5 q-130 0 -200.5 75.5t-55.5 200.5zM342 244q-6 -46 19.5 -73.5t72.5 -27.5q96 0 258 113l21 174q-135 -18 -232 -53q-68 -23 -100.5 -54.5t-38.5 -78.5zM344 1110l227 252h248l166 -252h-207l-98 119l-131 -119h-205z" />
<glyph unicode="&#xe3;" horiz-adv-x="1017" d="M104 256q19 150 159.5 229t471.5 125q12 100 10 131q-6 78 -122 78q-152 0 -189 -125l-223 33q41 126 149.5 192t272.5 66q195 0 281.5 -79.5t66.5 -239.5l-53 -439q-11 -100 -12.5 -127.5t-0.5 -99.5h-231q-7 29 -12 96q-91 -63 -162.5 -89.5t-149.5 -26.5 q-130 0 -200.5 75.5t-55.5 200.5zM342 244q-6 -46 19.5 -73.5t72.5 -27.5q96 0 258 113l21 174q-135 -18 -232 -53q-68 -23 -100.5 -54.5t-38.5 -78.5zM403 1112q14 107 75 173.5t147 66.5q31 0 49.5 -6.5t109.5 -47.5q27 -12 54 -12q29 0 45 17t28 59h113 q-20 -119 -75 -181.5t-140 -62.5q-51 0 -121 31q-6 2 -16 7q-67 27 -84 28q-54 0 -72 -72h-113z" />
<glyph unicode="&#xe4;" horiz-adv-x="1017" d="M104 256q19 150 159.5 229t471.5 125q12 100 10 131q-6 78 -122 78q-152 0 -189 -125l-223 33q41 126 149.5 192t272.5 66q195 0 281.5 -79.5t66.5 -239.5l-53 -439q-11 -100 -12.5 -127.5t-0.5 -99.5h-231q-7 29 -12 96q-91 -63 -162.5 -89.5t-149.5 -26.5 q-130 0 -200.5 75.5t-55.5 200.5zM342 244q-6 -46 19.5 -73.5t72.5 -27.5q96 0 258 113l21 174q-135 -18 -232 -53q-68 -23 -100.5 -54.5t-38.5 -78.5zM365 1139l26 219h232l-27 -219h-231zM762 1139l26 219h232l-27 -219h-231z" />
<glyph unicode="&#xe5;" horiz-adv-x="1017" d="M104 256q19 150 159.5 229t471.5 125q12 100 10 131q-6 78 -122 78q-152 0 -189 -125l-223 33q41 126 149.5 192t272.5 66q195 0 281.5 -79.5t66.5 -239.5l-53 -439q-11 -100 -12.5 -127.5t-0.5 -99.5h-231q-7 29 -12 96q-91 -63 -162.5 -89.5t-149.5 -26.5 q-130 0 -200.5 75.5t-55.5 200.5zM342 244q-6 -46 19.5 -73.5t72.5 -27.5q96 0 258 113l21 174q-135 -18 -232 -53q-68 -23 -100.5 -54.5t-38.5 -78.5zM487 1290q9 83 77.5 143t152.5 60t136.5 -59.5t43.5 -143.5q-10 -83 -77 -141.5t-150 -58.5q-86 0 -139.5 58.5 t-43.5 141.5zM606 1290q-4 -33 18 -56.5t58 -23.5q35 0 62 24t32 58t-15.5 57t-55.5 23q-37 0 -65.5 -24t-33.5 -58z" />
<glyph unicode="&#xe6;" horiz-adv-x="1529" d="M100 250q7 54 27 97.5t50.5 75.5t71.5 57t90.5 43t106.5 32t121 26t133 24q21 3 31 5q8 36 8 56q21 153 -131 153q-135 0 -178 -129l-219 33q77 262 420 262q110 0 178.5 -25t105.5 -79q121 106 285 106q180 0 269 -134.5t61 -363.5q0 -1 -3 -22t-7 -37h-584 q-15 -135 28 -210t136 -75q65 0 112.5 37.5t85.5 118.5l203 -33q-57 -141 -168 -214.5t-266 -73.5q-208 0 -317 153q-190 -153 -390 -153q-135 0 -204.5 72.5t-55.5 197.5zM338 244q-3 -29 7.5 -51.5t33 -35t53.5 -12.5q117 0 273 121q-7 89 -3 131q1 3 3 14t4 19 q-192 -35 -277.5 -78t-93.5 -108zM954 573h365q12 248 -145 248q-83 0 -140 -64t-80 -184z" />
<glyph unicode="&#xe7;" horiz-adv-x="942" d="M115 465q29 233 172 378.5t344 145.5q148 0 240 -90.5t92 -236.5l-218 -33q3 92 -33 140t-106 48q-195 0 -239 -334q-19 -159 21.5 -249.5t131.5 -90.5q134 0 191 201l209 -31q-28 -141 -146.5 -236.5t-263.5 -92.5l-31 -95q62 -8 91.5 -36.5t23.5 -75.5 q-6 -54 -50.5 -84.5t-113.5 -30.5q-62 0 -123 21l31 71q56 -16 82 -16t44 12.5t21 34.5q3 49 -90 49h-20l51 150q-129 29 -193 84q-72 60 -102.5 164.5t-15.5 232.5z" />
<glyph unicode="&#xe8;" horiz-adv-x="950" d="M117 473q29 236 162 375t329 139q190 0 281.5 -131.5t62.5 -363.5q0 -2 -3 -24t-7 -38h-590q-15 -134 30 -209.5t140 -75.5q129 0 197 158l205 -33q-35 -127 -157.5 -208.5t-279.5 -81.5q-201 0 -299.5 132t-70.5 361zM371 573h366q3 59 0.5 90.5t-14.5 63.5 q-13 43 -49 67.5t-84 24.5q-83 0 -140 -64t-79 -182zM383 1362h254l82 -252h-168z" />
<glyph unicode="&#xe9;" horiz-adv-x="950" d="M117 473q29 236 162 375t329 139q190 0 281.5 -131.5t62.5 -363.5q0 -2 -3 -24t-7 -38h-590q-15 -134 30 -209.5t140 -75.5q129 0 197 158l205 -33q-35 -127 -157.5 -208.5t-279.5 -81.5q-201 0 -299.5 132t-70.5 361zM371 573h366q3 59 0.5 90.5t-14.5 63.5 q-13 43 -49 67.5t-84 24.5q-83 0 -140 -64t-79 -182zM553 1110l137 252h256l-221 -252h-172z" />
<glyph unicode="&#xea;" horiz-adv-x="950" d="M117 473q29 236 162 375t329 139q190 0 281.5 -131.5t62.5 -363.5q0 -2 -3 -24t-7 -38h-590q-15 -134 30 -209.5t140 -75.5q129 0 197 158l205 -33q-35 -127 -157.5 -208.5t-279.5 -81.5q-201 0 -299.5 132t-70.5 361zM311 1110l228 252h247l166 -252h-207l-98 119 l-131 -119h-205zM371 573h366q3 59 0.5 90.5t-14.5 63.5q-13 43 -49 67.5t-84 24.5q-83 0 -140 -64t-79 -182z" />
<glyph unicode="&#xeb;" horiz-adv-x="950" d="M117 473q29 236 162 375t329 139q190 0 281.5 -131.5t62.5 -363.5q0 -2 -3 -24t-7 -38h-590q-15 -134 30 -209.5t140 -75.5q129 0 197 158l205 -33q-35 -127 -157.5 -208.5t-279.5 -81.5q-201 0 -299.5 132t-70.5 361zM322 1139l26 219h232l-27 -219h-231zM371 573h366 q3 59 0.5 90.5t-14.5 63.5q-13 43 -49 67.5t-84 24.5q-83 0 -140 -64t-79 -182zM719 1139l26 219h232l-27 -219h-231z" />
<glyph unicode="&#xec;" horiz-adv-x="473" d="M117 0l116 958h240l-117 -958h-239zM123 1362h254l82 -252h-168z" />
<glyph unicode="&#xed;" horiz-adv-x="473" d="M117 0l116 958h240l-117 -958h-239zM307 1110l137 252h256l-221 -252h-172z" />
<glyph unicode="&#xee;" horiz-adv-x="473" d="M57 1110l228 252h247l166 -252h-206l-99 119l-131 -119h-205zM115 0l116 958h240l-117 -958h-239z" />
<glyph unicode="&#xef;" horiz-adv-x="473" d="M102 1139l27 219h231l-26 -219h-232zM117 0l116 958h240l-117 -958h-239zM430 1139l27 219h231l-26 -219h-232z" />
<glyph unicode="&#xf0;" horiz-adv-x="976" d="M117 473q22 195 119 322q64 86 163.5 138t198.5 52q17 0 33 -2l-41 119l-172 -84l-60 137l179 88l-58 154l156 78l67 -148l170 84l60 -139l-168 -84q12 -27 65.5 -144.5t81.5 -181.5q47 -98 62.5 -185t3.5 -188q-29 -233 -163 -371t-329 -138q-198 0 -297 133t-71 360z M358 489q-44 -344 146 -344q92 0 151.5 88t81.5 256q41 330 -145 330q-94 0 -154 -84.5t-80 -245.5z" />
<glyph unicode="&#xf1;" horiz-adv-x="1021" d="M117 0l116 958h240l-18 -143q135 170 323 170q69 0 126.5 -39t74.5 -98q19 -69 2 -227l-76 -621h-239l75 621q7 65 7 87t-9 40q-9 25 -35 39t-61 14q-97 0 -201 -99l-86 -702h-239zM379 1112q14 108 74.5 174t146.5 66q32 0 51 -6.5t109 -47.5q27 -12 53 -12 q29 0 45.5 17t28.5 59h112q-20 -119 -75 -181.5t-140 -62.5q-50 0 -120 31q-56 25 -70.5 30t-30.5 5q-53 0 -71 -72h-113z" />
<glyph unicode="&#xf2;" horiz-adv-x="976" d="M117 479q29 233 162 369.5t331 136.5t297 -136.5t70 -369.5q-22 -183 -123 -317q-132 -182 -369 -182q-198 0 -297 134.5t-71 364.5zM358 489q-44 -344 146 -344q93 0 153 88t82 256q41 330 -147 330q-94 0 -154 -84.5t-80 -245.5zM383 1362h254l82 -252h-168z" />
<glyph unicode="&#xf3;" horiz-adv-x="976" d="M117 479q29 233 162 369.5t331 136.5t297 -136.5t70 -369.5q-22 -183 -123 -317q-132 -182 -369 -182q-198 0 -297 134.5t-71 364.5zM358 489q-44 -344 146 -344q93 0 153 88t82 256q41 330 -147 330q-94 0 -154 -84.5t-80 -245.5zM551 1110l137 252h256l-221 -252h-172z " />
<glyph unicode="&#xf4;" horiz-adv-x="976" d="M117 479q29 233 162 369.5t331 136.5t297 -136.5t70 -369.5q-22 -183 -123 -317q-132 -182 -369 -182q-198 0 -297 134.5t-71 364.5zM311 1110l228 252h247l166 -252h-207l-98 119l-131 -119h-205zM358 489q-44 -344 146 -344q93 0 153 88t82 256q41 330 -147 330 q-94 0 -154 -84.5t-80 -245.5z" />
<glyph unicode="&#xf5;" horiz-adv-x="976" d="M117 479q29 233 162 369.5t331 136.5t297 -136.5t70 -369.5q-22 -183 -123 -317q-132 -182 -369 -182q-198 0 -297 134.5t-71 364.5zM358 489q-44 -344 146 -344q93 0 153 88t82 256q41 330 -147 330q-94 0 -154 -84.5t-80 -245.5zM377 1112q14 108 74.5 174t146.5 66 q32 0 51 -6.5t109 -47.5q27 -12 53 -12q29 0 45.5 17t28.5 59h112q-20 -119 -75 -181.5t-140 -62.5q-50 0 -120 31q-56 25 -70.5 30t-30.5 5q-54 0 -72 -72h-112z" />
<glyph unicode="&#xf6;" horiz-adv-x="976" d="M117 479q29 233 162 369.5t331 136.5t297 -136.5t70 -369.5q-22 -183 -123 -317q-132 -182 -369 -182q-198 0 -297 134.5t-71 364.5zM342 1139l27 219h233l-27 -219h-233zM358 489q-44 -344 146 -344q93 0 153 88t82 256q41 330 -147 330q-94 0 -154 -84.5t-80 -245.5z M723 1139l27 219h233l-27 -219h-233z" />
<glyph unicode="&#xf7;" d="M141 608l19 148h956l-18 -148h-957zM455 211l30 246h232l-31 -246h-231zM541 903l28 246h232l-29 -246h-231z" />
<glyph unicode="&#xf8;" horiz-adv-x="976" d="M102 -16l99 116q-59 77 -79 166.5t-5 210.5q29 235 161.5 371.5t331.5 136.5q131 0 228 -67l84 104l59 -55l-84 -105q110 -142 80 -379q-21 -183 -123 -321q-132 -182 -375 -182q-107 0 -172 36q-31 17 -33 17q-1 1 -18 8l-88 -102zM354 297l357 459q-45 63 -119 63 q-94 0 -154 -84.5t-80 -245.5q-13 -107 -4 -192zM385 209q47 -64 119 -64q191 0 235 351q11 100 0 170z" />
<glyph unicode="&#xf9;" horiz-adv-x="1021" d="M160 354l73 604h240l-74 -604q-12 -100 -11 -127t13 -45q27 -37 93 -37q97 0 202 99l88 714h240l-117 -958h-219l14 127q-86 -83 -153.5 -115t-155.5 -32q-150 0 -211 98q-31 50 -35 97.5t13 178.5zM420 1362h254l82 -252h-168z" />
<glyph unicode="&#xfa;" horiz-adv-x="1021" d="M160 354l73 604h240l-74 -604q-12 -100 -11 -127t13 -45q27 -37 93 -37q97 0 202 99l88 714h240l-117 -958h-219l14 127q-86 -83 -153.5 -115t-155.5 -32q-150 0 -211 98q-31 50 -35 97.5t13 178.5zM582 1110l137 252h256l-221 -252h-172z" />
<glyph unicode="&#xfb;" horiz-adv-x="1021" d="M160 354l73 604h240l-74 -604q-12 -100 -11 -127t13 -45q27 -37 93 -37q97 0 202 99l88 714h240l-117 -958h-219l14 127q-86 -83 -153.5 -115t-155.5 -32q-150 0 -211 98q-31 50 -35 97.5t13 178.5zM348 1110l227 252h248l166 -252h-207l-98 119l-131 -119h-205z" />
<glyph unicode="&#xfc;" horiz-adv-x="1021" d="M160 354l73 604h240l-74 -604q-12 -100 -11 -127t13 -45q27 -37 93 -37q97 0 202 99l88 714h240l-117 -958h-219l14 127q-86 -83 -153.5 -115t-155.5 -32q-150 0 -211 98q-31 50 -35 97.5t13 178.5zM371 1139l26 219h234l-27 -219h-233zM752 1139l26 219h234l-27 -219 h-233z" />
<glyph unicode="&#xfd;" horiz-adv-x="843" d="M-14 -305l24 188q73 -33 131 -33q56 0 94.5 34.5t81.5 121.5l-215 952h248l96 -596l7 -28q0 -3 3 -27t7 -61q32 84 45 116l248 596h217l-441 -952q-71 -157 -141 -231q-112 -109 -262 -109q-63 0 -143 29zM504 1110l137 252h256l-221 -252h-172z" />
<glyph unicode="&#xfe;" horiz-adv-x="1034" d="M76 -328l207 1694h239l-67 -555q60 90 130 132t160 42q163 0 240.5 -135.5t48.5 -366.5q-24 -203 -110 -329q-56 -79 -141.5 -126.5t-172.5 -47.5q-91 0 -148.5 45.5t-86.5 140.5l-60 -494h-239zM391 291q39 -68 78.5 -97.5t95.5 -29.5q192 0 230 311q20 168 -15.5 256 t-124.5 88q-54 0 -100 -29t-117 -110z" />
<glyph unicode="&#xff;" horiz-adv-x="843" d="M-14 -305l24 188q73 -33 131 -33q56 0 94.5 34.5t81.5 121.5l-215 952h248l96 -596l7 -28q0 -3 3 -27t7 -61q32 84 45 116l248 596h217l-441 -952q-71 -157 -141 -231q-112 -109 -262 -109q-63 0 -143 29zM266 1139l27 219h231l-26 -219h-232zM664 1139l26 219h232 l-27 -219h-231z" />
<glyph unicode="&#x152;" horiz-adv-x="1859" d="M158 680q39 310 184 487q76 93 196 156t222 63q75 0 157.5 -36t151.5 -99l10 99h850l-24 -203h-598l-43 -359h499l-24 -202h-500l-47 -383h631l-25 -203h-883l11 94q-86 -63 -159 -88.5t-163 -25.5q-244 0 -364 189t-82 511zM418 676q-29 -243 29 -368.5t200 -125.5 q137 0 228.5 125t119.5 350q32 261 -26 394t-203 133q-138 0 -228.5 -132.5t-119.5 -375.5z" />
<glyph unicode="&#x153;" horiz-adv-x="1558" d="M117 479q29 232 163 370t332 138q196 0 295 -141q138 141 322 141q180 0 269 -133t61 -362l-9 -62h-587q-9 -98 0 -145q9 -64 52.5 -102t108.5 -38q142 0 201 152l205 -39q-43 -126 -160.5 -202t-269.5 -76q-206 0 -283 126q-75 -68 -150 -97t-173 -29q-204 0 -304.5 133 t-72.5 366zM360 498q-43 -353 150 -353q47 0 90 25.5t70 67.5q49 81 69 241q20 174 -10 246q-19 46 -54.5 71t-82.5 25q-92 0 -152 -83t-80 -240zM981 573h365q15 117 -23 182.5t-123 65.5q-82 0 -138 -64t-81 -184z" />
<glyph unicode="&#x178;" horiz-adv-x="1038" d="M139 1366h269l184 -543q17 -56 22 -82q13 41 37 82l326 543h256l-520 -784l-70 -582h-252l68 561zM406 1522l26 219h232l-27 -219h-231zM803 1522l26 219h232l-27 -219h-231z" />
<glyph unicode="&#x2c6;" horiz-adv-x="1024" d="M328 1110l227 252h248l166 -252h-207l-98 119l-132 -119h-204z" />
<glyph unicode="&#x2dc;" horiz-adv-x="1024" d="M352 1112q14 108 74.5 174t146.5 66q32 0 51 -6.5t109 -47.5q27 -12 53 -12q29 0 45.5 17t28.5 59h113q-20 -119 -75 -181.5t-140 -62.5q-51 0 -121 31q-6 2 -16 7q-67 27 -84 28q-54 0 -72 -72h-113z" />
<glyph unicode="&#x2000;" horiz-adv-x="937" />
<glyph unicode="&#x2001;" horiz-adv-x="1874" />
<glyph unicode="&#x2002;" horiz-adv-x="937" />
<glyph unicode="&#x2003;" horiz-adv-x="1874" />
<glyph unicode="&#x2004;" horiz-adv-x="624" />
<glyph unicode="&#x2005;" horiz-adv-x="468" />
<glyph unicode="&#x2006;" horiz-adv-x="312" />
<glyph unicode="&#x2007;" horiz-adv-x="312" />
<glyph unicode="&#x2008;" horiz-adv-x="234" />
<glyph unicode="&#x2009;" horiz-adv-x="374" />
<glyph unicode="&#x200a;" horiz-adv-x="104" />
<glyph unicode="&#x2010;" horiz-adv-x="454" d="M45 379l25 199h454l-24 -199h-455z" />
<glyph unicode="&#x2011;" horiz-adv-x="454" d="M45 379l25 199h454l-24 -199h-455z" />
<glyph unicode="&#x2012;" horiz-adv-x="454" d="M45 379l25 199h454l-24 -199h-455z" />
<glyph unicode="&#x2013;" d="M113 379l24 199h957l-25 -199h-956z" />
<glyph unicode="&#x2014;" horiz-adv-x="1366" d="M47 399l25 199h1366l-25 -199h-1366z" />
<glyph unicode="&#x2018;" horiz-adv-x="505" d="M248 901l22 199l209 293l56 -27l-105 -219h78l-29 -246h-231z" />
<glyph unicode="&#x2019;" horiz-adv-x="505" d="M248 901l104 219h-78l29 246h232l-25 -199l-207 -293z" />
<glyph unicode="&#x201a;" horiz-adv-x="505" d="M109 -219l106 219h-78l29 246h231l-24 -199l-207 -293z" />
<glyph unicode="&#x201c;" horiz-adv-x="874" d="M248 901l22 199l209 293l56 -27l-105 -219h78l-29 -246h-231zM616 901l23 199l209 293l55 -27l-104 -219h78l-29 -246h-232z" />
<glyph unicode="&#x201d;" horiz-adv-x="874" d="M248 901l104 219h-78l29 246h232l-25 -199l-207 -293zM616 901l105 219h-78l29 246h231l-24 -199l-207 -293z" />
<glyph unicode="&#x201e;" horiz-adv-x="874" d="M109 -219l106 219h-78l29 246h231l-24 -199l-207 -293zM477 -219l107 219h-78l29 246h231l-25 -199l-206 -293z" />
<glyph unicode="&#x2022;" horiz-adv-x="1366" d="M485 692q15 120 109 202.5t215 82.5q114 0 186 -83.5t58 -199.5q-13 -118 -106.5 -201t-211.5 -83q-117 0 -190 82.5t-60 199.5z" />
<glyph unicode="&#x2026;" horiz-adv-x="1515" d="M137 0l29 246h231l-28 -246h-232zM643 0l29 246h231l-29 -246h-231zM1149 0l29 246h231l-29 -246h-231z" />
<glyph unicode="&#x202f;" horiz-adv-x="374" />
<glyph unicode="&#x2039;" horiz-adv-x="458" d="M104 477l201 389h168l-190 -389l96 -387h-178z" />
<glyph unicode="&#x203a;" horiz-adv-x="462" d="M106 90l189 387l-102 389h172l106 -389l-190 -387h-175z" />
<glyph unicode="&#x205f;" horiz-adv-x="468" />
<glyph unicode="&#x20ac;" horiz-adv-x="1390" d="M123 465l106 192h105v7q1 6 6 38v7h-186l106 192h123q68 221 232.5 353t375.5 132q115 0 209.5 -42.5t153.5 -120.5q41 -54 59.5 -113t24.5 -154l-256 -41q2 123 -55.5 196t-157.5 73q-110 0 -197.5 -75.5t-128.5 -207.5h393l-106 -192h-330v-7q-1 -10 -6 -45h307 l-106 -192h-205q30 -283 244 -283q212 0 292 285l246 -37q-59 -215 -204.5 -332.5t-354.5 -117.5q-220 0 -345 125t-140 360h-205z" />
<glyph unicode="&#x2122;" horiz-adv-x="1595" d="M152 1231l16 135h635l-17 -135h-235l-78 -643h-168l78 643h-231zM791 588l94 778h272l76 -508l182 508h266l-94 -778h-160l78 614l-239 -614h-142l-100 606l-74 -606h-159z" />
</font>
</defs>
</svg>
