<?xml version="1.0" standalone="no"?>
<!DOCTYPE svg PUBLIC "-//W3C//DTD SVG 1.1//EN" "http://www.w3.org/Graphics/SVG/1.1/DTD/svg11.dtd" >
<svg xmlns="http://www.w3.org/2000/svg">
<metadata></metadata>
<defs>
<font id="NewsGothicFSMediumBoldItalic" horiz-adv-x="1187" >
<font-face units-per-em="2048" ascent="1638" descent="-410" />
<missing-glyph horiz-adv-x="512" />
<glyph unicode="&#xfb01;" horiz-adv-x="1144" d="M133 750l27 213h149l8 57q21 190 91 266q93 107 272 107q75 0 186 -27l-24 -209q-41 14 -78 14q-68 0 -98 -30.5t-39 -106.5l-11 -71h201l-26 -213h-201l-90 -750h-307l90 750h-150zM772 0l117 963h307l-117 -963h-307zM905 1092l33 274h307l-33 -274h-307z" />
<glyph unicode="&#xfb02;" horiz-adv-x="1161" d="M133 750l27 213h149l8 57q21 190 91 266q93 107 272 107q75 0 186 -27l-24 -209q-41 14 -78 14q-68 0 -98 -30.5t-39 -106.5l-11 -71h201l-26 -213h-201l-90 -750h-307l90 750h-150zM772 0l166 1366h307l-166 -1366h-307z" />
<glyph unicode="&#xfb03;" horiz-adv-x="1685" d="M86 752l25 211h149l8 57q15 125 45.5 195.5t87.5 111.5q91 66 232 66q79 0 182 -27l-24 -209q-43 14 -76 14q-67 0 -97.5 -30.5t-39.5 -106.5l-11 -71h260l9 57q15 125 45.5 195.5t87.5 111.5q91 66 231 66q79 0 182 -27l-24 -209q-43 14 -76 14q-68 0 -98 -30.5 t-39 -106.5l-10 -71h198l-24 -211h-199l-92 -752h-307l92 752h-260l-92 -752h-308l93 752h-150zM1278 0l117 963h307l-117 -963h-307zM1411 1092l33 274h307l-33 -274h-307z" />
<glyph unicode="&#xfb04;" horiz-adv-x="1685" d="M86 752l25 211h149l8 57q15 125 45.5 195.5t87.5 111.5q91 66 232 66q79 0 182 -27l-24 -209q-43 14 -76 14q-67 0 -97.5 -30.5t-39.5 -106.5l-11 -71h260l9 57q15 125 45.5 195.5t87.5 111.5q91 66 231 66q79 0 182 -27l-24 -209q-43 14 -76 14q-68 0 -98 -30.5 t-39 -106.5l-10 -71h198l-24 -211h-199l-92 -752h-307l92 752h-260l-92 -752h-308l93 752h-150zM1278 0l166 1366h307l-166 -1366h-307z" />
<glyph horiz-adv-x="0" />
<glyph horiz-adv-x="2048" />
<glyph unicode=" "  horiz-adv-x="512" />
<glyph unicode="&#x09;" horiz-adv-x="512" />
<glyph unicode="&#xa0;" horiz-adv-x="512" />
<glyph unicode="!" horiz-adv-x="655" d="M170 0l39 328h313l-39 -328h-313zM250 457l65 909h355l-158 -909h-262z" />
<glyph unicode="&#x22;" horiz-adv-x="872" d="M225 817l23 549h272l-112 -549h-183zM662 817l22 549h272l-112 -549h-182z" />
<glyph unicode="#" d="M90 383l66 195h163l68 225h-164l68 207h164l110 356h219l-110 -356h211l112 356h220l-113 -356h164l-68 -207h-164l-67 -225h164l-66 -195h-164l-119 -383h-219l119 383h-211l-119 -383h-219l119 383h-164zM539 578h211l67 225h-211z" />
<glyph unicode="$" d="M113 362l307 62q9 -192 133 -219l43 350q-135 38 -190 59q-110 43 -163.5 135.5t-39.5 217.5q23 179 161 297t334 125l21 165h98l-20 -165q170 0 275.5 -104t96.5 -261l-303 -45q4 70 -22 118t-76 60l-39 -315q116 -26 209 -62q258 -100 223 -374q-13 -110 -74 -202.5 t-155 -146.5q-69 -40 -136.5 -58.5t-172.5 -25.5l-25 -204h-98l24 204q-197 9 -306 112.5t-105 276.5zM520 1014q-12 -119 115 -146l35 291q-135 -30 -150 -145zM651 203q72 9 116.5 52.5t53.5 113.5q7 61 -24 98.5t-107 62.5z" />
<glyph unicode="%" horiz-adv-x="1597" d="M209 1036q20 163 111.5 258t228.5 95q143 0 211.5 -94.5t46.5 -262.5q-19 -160 -111.5 -253t-232.5 -93t-208 93t-46 257zM406 -27l765 1422h170l-763 -1422h-172zM410 1032q-12 -103 5 -150.5t68 -47.5q97 0 123 208q24 201 -69 201q-53 0 -83.5 -50.5t-43.5 -160.5z M950 338q20 161 111.5 254.5t228.5 93.5q141 0 209.5 -93t48.5 -257q-22 -168 -113 -260t-237 -92q-136 0 -203 94.5t-45 259.5zM1151 330q-12 -106 4.5 -153.5t67.5 -47.5t80.5 48.5t42.5 156.5q12 110 -4 158.5t-66 48.5q-52 0 -81.5 -50t-43.5 -161z" />
<glyph unicode="&#x26;" horiz-adv-x="1320" d="M111 365q15 118 87.5 208t215.5 170q-79 166 -62 312q17 145 136 239.5t282 94.5q162 0 253.5 -92t72.5 -236q-13 -114 -88 -201.5t-238 -179.5q82 -145 178 -231q30 45 42.5 74t51.5 145l5 12l270 -55q-41 -128 -77.5 -200t-88.5 -130q92 -49 176 -49l-33 -271 q-46 -4 -51 -4q-149 0 -303 111q-106 -57 -198.5 -82t-202.5 -25q-217 0 -333.5 106t-94.5 284zM422 393q-9 -78 44.5 -133t139.5 -55q84 0 139 41q-105 89 -225 291q-86 -54 -98 -144zM633 1061q-8 -73 39 -193q8 9 16 13q120 88 129 184q6 50 -15.5 80.5t-62.5 30.5 q-42 0 -71 -31.5t-35 -83.5z" />
<glyph unicode="'" horiz-adv-x="436" d="M225 817l23 549h272l-112 -549h-183z" />
<glyph unicode="(" horiz-adv-x="681" d="M190 586q19 151 90 332t166 317q31 43 181 227l168 -110q-120 -155 -201 -357.5t-107 -412.5q-56 -463 119 -828l-196 -108q-125 172 -187 438t-33 502z" />
<glyph unicode=")" horiz-adv-x="681" d="M14 -246q266 366 322 828q26 209 -4.5 412t-112.5 358l195 110q100 -172 127 -227q61 -136 88 -317t8 -332q-29 -236 -157.5 -501.5t-297.5 -438.5z" />
<glyph unicode="*" horiz-adv-x="776" d="M199 1079l73 156l174 -64l9 195h190l-31 -195l191 58l31 -174l-185 -49l92 -156l-157 -102l-88 165l-156 -159l-121 114l154 150z" />
<glyph unicode="+" d="M137 582l25 200h426l53 426h201l-54 -426h424l-24 -200h-424l-51 -424h-201l51 424h-426z" />
<glyph unicode="," horiz-adv-x="559" d="M59 -299l160 299h-96l39 328h313l-33 -273l-286 -409z" />
<glyph unicode="-" horiz-adv-x="464" d="M41 348l33 260h465l-33 -260h-465z" />
<glyph unicode="." horiz-adv-x="559" d="M123 0l39 328h313l-39 -328h-313z" />
<glyph unicode="/" horiz-adv-x="849" d="M-72 -354l813 1720h181l-813 -1720h-181z" />
<glyph unicode="0" d="M152 684q40 330 203.5 517.5t412.5 187.5q247 0 360 -185.5t72 -523.5q-35 -280 -172 -473q-160 -232 -444 -232q-298 0 -394 261q-72 185 -38 448zM492 674q-23 -169 -17 -273.5t39.5 -150t99.5 -45.5q104 0 158 108.5t88 382.5q31 252 3.5 357.5t-124.5 105.5 q-104 0 -159.5 -108.5t-87.5 -376.5z" />
<glyph unicode="1" d="M240 0l28 248h238l102 833h-237l20 168q5 1 55.5 16.5t109.5 33t123 37.5t93 30h178l-137 -1118h234l-29 -248h-778z" />
<glyph unicode="2" d="M82 0l27 219q95 131 190.5 220.5t316.5 254.5q126 95 180.5 163.5t63.5 143.5q8 72 -24 115t-95 43q-138 0 -196 -223l-320 57q122 396 545 396q223 0 337 -106.5t91 -293.5q-15 -124 -82 -216.5t-219 -199.5q-221 -156 -301 -218t-121 -107q25 -2 47 -2l133 2h445 l-29 -248h-989z" />
<glyph unicode="3" d="M84 334l328 67q15 -196 178 -196q85 0 143.5 52.5t69.5 137.5q14 113 -54.5 160t-248.5 47h-35l27 229h49q129 0 194 29q40 19 67.5 58t33.5 86q8 69 -29.5 112t-104.5 43q-73 0 -124 -41.5t-97 -138.5l-266 86q88 167 217 245.5t318 78.5q210 0 321.5 -97t91.5 -262 q-24 -221 -266 -289q137 -25 201 -111t47 -224q-25 -200 -183.5 -315.5t-410.5 -115.5q-223 0 -334 85.5t-133 273.5z" />
<glyph unicode="4" d="M104 313l25 201l565 852h422l-100 -819h172l-29 -234h-172l-37 -313h-307l37 313h-576zM440 547h269l45 364l6 68l14 94l4 43q-1 -2 -9 -19.5t-16.5 -36t-25.5 -49.5t-37 -63z" />
<glyph unicode="5" d="M96 279l307 114q10 -91 56 -139.5t119 -48.5q94 0 156 71t77 195q14 110 -28.5 177t-127.5 67q-60 0 -111 -36.5t-85 -103.5l-275 72l121 719h854l-29 -248h-577l-64 -289q60 60 127.5 87.5t155.5 27.5q193 0 300.5 -128t82.5 -329q-25 -197 -151 -335 q-84 -91 -194.5 -134t-264.5 -43q-187 0 -301 77.5t-148 226.5z" />
<glyph unicode="6" d="M156 647q43 344 227 543t459 199q342 0 389 -271l-316 -69q-15 110 -120 110q-60 0 -112 -39.5t-89 -113.5q-35 -66 -72 -230q136 119 301 119q184 0 284 -122.5t77 -317.5q-12 -100 -58 -191t-116 -155q-146 -134 -408 -134q-292 0 -393 215q-88 183 -53 457zM481 504 q-8 -65 6 -132.5t45 -113.5q15 -24 45 -38.5t64 -14.5q77 0 133 66t68 171t-27.5 164.5t-122.5 59.5q-96 0 -194 -95q-17 -66 -17 -67z" />
<glyph unicode="7" d="M168 0l588 983l24 45l29 45q3 7 25 45h-588l28 248h986l-17 -141l-698 -1225h-377z" />
<glyph unicode="8" d="M115 358q15 130 104.5 229t224.5 136q-110 37 -162 114.5t-38 184.5q20 167 164.5 267t365.5 100q216 0 329 -97t91 -264q-24 -215 -260 -305q117 -35 178.5 -132t46.5 -220q-12 -94 -66.5 -174.5t-144.5 -135.5q-66 -40 -165.5 -63t-207.5 -23q-236 0 -359 102t-101 281 zM459 383q-9 -78 35.5 -128t121.5 -50q79 0 135.5 48.5t65.5 123.5q13 104 -55 162q-41 33 -96 65q-110 -59 -154 -105.5t-53 -115.5zM569 1022q-8 -59 23.5 -98.5t120.5 -83.5q139 67 155 182q7 61 -29 99t-102 38q-68 0 -114.5 -38t-53.5 -99z" />
<glyph unicode="9" d="M123 225l313 88q5 -50 37 -79t84 -29q132 0 207 170q25 51 67 221q-75 -69 -144 -98t-159 -29q-183 0 -284 120t-78 310q28 224 184 357t391 133q307 0 408 -232q80 -183 45 -440q-36 -290 -186 -496q-181 -246 -512 -246q-160 0 -250.5 60.5t-122.5 189.5zM514 922 q-12 -103 27 -163.5t118 -60.5q99 0 197 95q22 177 -15 271.5t-126 94.5q-77 0 -133 -66t-68 -171z" />
<glyph unicode=":" horiz-adv-x="559" d="M123 0l39 328h313l-39 -328h-313zM201 635l39 328h313l-39 -328h-313z" />
<glyph unicode=";" horiz-adv-x="559" d="M59 -299l160 299h-96l39 328h313l-33 -273l-286 -409zM201 635l39 328h313l-39 -328h-313z" />
<glyph unicode="&#x3c;" horiz-adv-x="1024" d="M135 551l33 280l946 476l-41 -334l-567 -283l495 -282l-38 -332z" />
<glyph unicode="=" d="M117 406l24 200h1051l-25 -200h-1050zM160 762l24 201h1051l-25 -201h-1050z" />
<glyph unicode="&#x3e;" horiz-adv-x="1024" d="M76 76l41 334l567 282l-496 283l39 332l828 -476l-33 -280z" />
<glyph unicode="?" horiz-adv-x="927" d="M195 1145q66 123 181.5 189.5t264.5 66.5q169 0 262 -88t74 -232q-11 -112 -98 -211q-19 -21 -158 -137q-80 -68 -108 -120t-40 -154h-290q15 139 66.5 230.5t176.5 197.5q89 76 114 108t30 72q6 41 -17 67.5t-63 26.5q-104 0 -164 -147zM215 0l39 328h313l-39 -328h-313 z" />
<glyph unicode="@" horiz-adv-x="1447" d="M143 647q20 158 90 296.5t173.5 237t240 155.5t283.5 57q169 0 302 -78t198.5 -212t46.5 -294q-30 -243 -228 -387q-66 -49 -136.5 -77t-129.5 -28q-57 0 -91 28.5t-38 80.5q-64 -55 -118 -79.5t-113 -24.5q-97 0 -150 70.5t-39 180.5q14 114 82.5 224t165 178.5 t188.5 68.5q53 0 84.5 -28.5t46.5 -91.5l43 90h160l-229 -484q-16 -35 -19 -59q-3 -25 14 -41t48 -16q100 0 198 119.5t115 263.5q25 193 -96 325.5t-322 132.5q-117 0 -231 -49.5t-203 -140.5q-74 -75 -122.5 -184.5t-63.5 -233.5q-29 -246 88.5 -390t347.5 -144 q118 0 206 28.5t222 110.5l72 -92q-140 -106 -249.5 -146.5t-258.5 -40.5q-328 0 -481 220q-128 182 -97 454zM608 567q-7 -52 11 -82t57 -30q110 0 188 166l49 104q24 46 27 90q5 39 -14.5 65.5t-53.5 26.5q-52 0 -110.5 -50.5t-101.5 -130.5t-52 -159z" />
<glyph unicode="A" horiz-adv-x="1148" d="M-14 0l544 1366h426l205 -1366h-348l-41 322h-338l-121 -322h-327zM520 561h225l-34 377q-9 97 -6 205q-46 -175 -56 -205z" />
<glyph unicode="B" horiz-adv-x="1218" d="M129 0l166 1366h498q143 0 210 -15.5t123 -60.5q61 -51 89.5 -125t17.5 -157q-27 -214 -232 -293q104 -22 157 -111.5t38 -214.5q-22 -170 -147 -283q-66 -56 -145 -81t-191 -25h-584zM498 254h108q117 0 176 38t68 120q6 54 -16.5 95.5t-63.5 55.5q-47 17 -137 17h-96z M567 834h109q90 0 133 24q28 17 47 48.5t23 68.5q9 72 -30.5 104.5t-137.5 32.5h-109z" />
<glyph unicode="C" horiz-adv-x="1286" d="M150 678q43 343 222 529t466 186q138 0 241 -46t160 -133q37 -54 54 -110.5t26 -151.5l-344 -61q2 140 -36.5 201t-129.5 61q-120 0 -191.5 -122t-103.5 -384q-53 -434 162 -434q91 0 152 69t98 212l344 -45q-58 -229 -219.5 -353.5t-397.5 -124.5q-284 0 -414 183 t-89 524z" />
<glyph unicode="D" horiz-adv-x="1280" d="M129 0l166 1366h410q162 0 250 -18t151 -64q115 -82 164 -237.5t24 -358.5q-20 -160 -83.5 -297.5t-161.5 -230.5q-92 -89 -200.5 -124.5t-285.5 -35.5h-434zM498 254h59q180 0 268.5 94t114.5 314q31 249 -25.5 349.5t-226.5 100.5h-86z" />
<glyph unicode="E" horiz-adv-x="1144" d="M129 0l166 1366h897l-31 -254h-559l-35 -278h461l-31 -254h-460l-39 -326h594l-31 -254h-932z" />
<glyph unicode="F" horiz-adv-x="1085" d="M129 0l166 1366h895l-31 -254h-557l-35 -278h459l-31 -254h-458l-70 -580h-338z" />
<glyph unicode="G" horiz-adv-x="1255" d="M150 678q41 335 221 525t458 190q128 0 226.5 -43.5t152.5 -122.5q31 -45 47 -100t25 -142l-315 -55q3 116 -38.5 176.5t-121.5 60.5q-118 0 -188 -119t-101 -372q-29 -244 12 -353.5t164 -109.5q88 0 143.5 58.5t69.5 164.5l2 29h-200l32 254h508l-88 -719h-213l-12 102 q-114 -129 -326 -129q-255 0 -376.5 187.5t-81.5 517.5z" />
<glyph unicode="H" horiz-adv-x="1304" d="M129 0l166 1366h338l-66 -532h371l66 532h337l-165 -1366h-338l71 594h-370l-72 -594h-338z" />
<glyph unicode="I" horiz-adv-x="598" d="M129 0l166 1366h338l-166 -1366h-338z" />
<glyph unicode="J" horiz-adv-x="995" d="M55 317l320 60q1 -91 22 -128.5t68 -37.5q73 0 104 84q14 41 35 215l105 856h338l-109 -891q-13 -116 -30.5 -177.5t-51.5 -117.5q-125 -209 -420 -209q-104 0 -173.5 26t-123.5 85q-78 89 -84 235z" />
<glyph unicode="K" horiz-adv-x="1234" d="M129 0l166 1366h338l-66 -532l420 532h373l-483 -547l344 -819h-377l-223 555l-101 -111l-53 -444h-338z" />
<glyph unicode="L" horiz-adv-x="1017" d="M129 0l166 1366h338l-135 -1112h528l-31 -254h-866z" />
<glyph unicode="M" horiz-adv-x="1726" d="M129 0l166 1366h539l81 -690q11 -103 13 -136.5t0 -93.5q1 6 37 132q11 33 18.5 59t11.5 39l228 690h540l-166 -1366h-337l110 905l4 58l15 90l6 59q-15 -46 -62 -174l-338 -938h-268l-109 905q-14 131 -16 207q-3 -25 -18 -151q-22 -187 -64 -529.5t-53 -431.5h-338z " />
<glyph unicode="N" horiz-adv-x="1374" d="M129 0l166 1366h430l160 -496q7 -24 88 -317l98 813h338l-166 -1366h-338l-252 768l-22 63q-12 48 -27 95l-35 116q0 -137 -6 -194q-10 -131 -12 -154l-84 -694h-338z" />
<glyph unicode="O" horiz-adv-x="1302" d="M150 668q35 303 182 495q85 112 209.5 171t277.5 59q163 0 267 -52.5t167 -166.5q102 -188 66 -488q-42 -312 -203 -512q-165 -201 -475 -201q-281 0 -399 179q-132 199 -92 516zM512 344q10 -60 53 -95.5t105 -35.5q116 0 178 109t94 368q29 246 4 342q-12 57 -52 89 t-99 32q-115 0 -178.5 -109t-94.5 -358q-30 -229 -10 -342z" />
<glyph unicode="P" horiz-adv-x="1177" d="M129 0l166 1366h418q152 0 236 -11.5t138 -39.5q94 -47 136.5 -143.5t27.5 -223.5q-23 -196 -166.5 -301.5t-386.5 -105.5h-166l-65 -541h-338zM563 788h123q196 0 217 164q9 85 -32.5 122.5t-145.5 37.5h-123z" />
<glyph unicode="Q" horiz-adv-x="1302" d="M150 668q35 296 182 495q85 113 209.5 171.5t279.5 58.5q160 0 265.5 -53.5t166.5 -165.5q103 -187 66 -480q-26 -214 -109.5 -377t-208.5 -247q-54 -35 -104 -53.5t-127 -32.5q-6 -15 -6 -25q-3 -27 2 -39.5t37.5 -21t82 -10t156.5 -1.5h41l-28 -237h-23l-211 -4 q-191 -3 -263.5 58t-55.5 206q5 42 12 74q-76 15 -122 36.5t-91 61.5q-97 90 -136.5 241.5t-14.5 344.5zM512 344q11 -60 54 -95.5t106 -35.5q116 0 178 109t94 368q29 246 4 342q-12 57 -52 89t-99 32q-117 0 -180.5 -108.5t-94.5 -358.5q-30 -229 -10 -342z" />
<glyph unicode="R" horiz-adv-x="1193" d="M129 0l166 1366h461q123 0 194.5 -10t122.5 -33q94 -44 138.5 -133.5t31.5 -204.5q-17 -135 -89 -224t-193 -124l219 -637h-369l-188 580l-13 -5h-65l-8 5l-70 -580h-338zM567 834h123q183 0 201 139q9 75 -33.5 107t-152.5 32h-103z" />
<glyph unicode="S" horiz-adv-x="1132" d="M98 362l328 68q9 -217 174 -217q70 0 122 43.5t60 108.5q9 69 -33.5 105t-173.5 73q-185 52 -260 106q-66 47 -96 131.5t-18 184.5q25 194 172.5 311t367.5 117q200 0 308.5 -96t105.5 -271l-317 -51q7 83 -29 130.5t-107 47.5q-63 0 -110.5 -39.5t-54.5 -99.5 q-7 -66 37 -101t176 -69q109 -27 174.5 -57.5t111.5 -73.5q113 -104 92 -295q-26 -212 -173 -328.5t-390 -116.5q-229 0 -343 95t-124 294z" />
<glyph unicode="T" horiz-adv-x="1091" d="M150 1112l30 254h1065l-31 -254h-364l-135 -1112h-338l135 1112h-362z" />
<glyph unicode="U" horiz-adv-x="1236" d="M178 510l105 856h338l-109 -895q-15 -111 -4 -164q25 -94 131 -94q59 0 107 32.5t67 84.5q17 53 29 141l108 895h338l-108 -895q-13 -111 -35.5 -176.5t-65.5 -122.5q-156 -199 -475 -199q-258 0 -373 148q-51 66 -62 147t9 242z" />
<glyph unicode="V" horiz-adv-x="1126" d="M152 1366h362l76 -756q18 -201 20 -282q39 148 88 282l275 756h334l-543 -1366h-397z" />
<glyph unicode="W" horiz-adv-x="1687" d="M166 1366h346l35 -817q6 -123 6 -203q42 148 59 203l240 817h346l43 -817q8 -117 4 -203q35 140 51 203l232 817h325l-458 -1366h-363l-41 784q-8 161 -8 240q-48 -179 -59 -207q-6 -27 -6 -33l-232 -784h-367z" />
<glyph unicode="X" horiz-adv-x="1120" d="M-14 0l489 717l-293 649h373l119 -283q8 -38 14 -59q0 -1 1 -11t1 -18q2 5 5.5 11.5t5 10t1.5 5.5l29 59q11 25 17 31l161 254h338l-432 -649l318 -717h-375l-131 317q-26 58 -35 95q-37 -87 -57 -115l-199 -297h-350z" />
<glyph unicode="Y" horiz-adv-x="1107" d="M131 1366h358l148 -440q8 -26 11.5 -41.5t5 -28.5t3.5 -22q13 27 23.5 48l15 30t6.5 14l261 440h344l-521 -805l-67 -561h-338l68 561z" />
<glyph unicode="Z" horiz-adv-x="1050" d="M61 0l27 231l668 881h-541l31 254h930l-27 -227l-672 -885h563l-30 -254h-949z" />
<glyph unicode="[" horiz-adv-x="681" d="M104 -354l211 1720h519l-25 -201h-242l-161 -1319h241l-24 -200h-519z" />
<glyph unicode="\" horiz-adv-x="849" d="M262 1366h180l392 -1720h-181z" />
<glyph unicode="]" horiz-adv-x="681" d="M-31 -354l25 200h242l161 1319h-241l24 201h518l-211 -1720h-518z" />
<glyph unicode="^" horiz-adv-x="1024" d="M111 709l383 665h372l219 -665h-294l-140 440l-245 -440h-295z" />
<glyph unicode="_" horiz-adv-x="1024" d="M0 -109h1024v-198h-1024v198z" />
<glyph unicode="`" horiz-adv-x="1024" d="M377 1368h319l115 -272h-221z" />
<glyph unicode="a" horiz-adv-x="1050" d="M88 242q15 122 106.5 199t280.5 132q96 26 244 56l4 24q8 69 -14 96t-86 27q-57 0 -92 -27.5t-54 -86.5l-293 36q46 154 159.5 226.5t311.5 72.5q243 0 332 -108q38 -48 45 -102.5t-10 -188.5l-29 -246q-31 -245 -28 -352h-297l-4 80q-77 -57 -146 -82t-151 -25 q-141 0 -217.5 74t-61.5 195zM416 274q-5 -35 18 -57t64 -22q75 0 176 65l22 176q-76 -9 -164 -41q-107 -41 -116 -121z" />
<glyph unicode="b" horiz-adv-x="1062" d="M102 0l166 1366h307l-61 -502q115 133 268 133q158 0 235.5 -134t49.5 -361q-26 -218 -131 -363q-56 -75 -140.5 -120.5t-170.5 -45.5q-135 0 -232 117l-28 -90h-263zM442 268q67 -73 121 -73q142 0 180 292q15 128 -11.5 195.5t-90.5 67.5q-36 0 -67 -18.5t-85 -72.5z " />
<glyph unicode="c" horiz-adv-x="995" d="M117 481q29 238 173 377t361 139q174 0 268.5 -87.5t98.5 -252.5l-283 -43q6 75 -22.5 118.5t-85.5 43.5q-152 0 -187 -289q-37 -292 107 -292q58 0 95 37.5t63 123.5l272 -32q-81 -351 -469 -351q-216 0 -318 132.5t-73 375.5z" />
<glyph unicode="d" horiz-adv-x="1067" d="M117 481q26 214 129 350q59 77 139.5 121.5t159.5 44.5q70 0 122 -29.5t99 -95.5l59 494h308l-166 -1366h-269l-4 98q-67 -66 -131 -95.5t-139 -29.5q-169 0 -252 138t-55 370zM440 485q-17 -135 13.5 -212.5t99.5 -77.5q79 0 139 88l6 36l7 54q7 57 19 162t15 127 q-42 88 -125 88q-67 0 -113.5 -71t-60.5 -194z" />
<glyph unicode="e" horiz-adv-x="1026" d="M117 469q31 251 168.5 389.5t355.5 138.5q125 0 212 -50.5t128 -147.5q34 -75 39.5 -130.5t-12.5 -226.5l-2 -24h-572q-12 -114 4 -154q31 -69 115 -69q108 0 152 110l280 -22q-109 -310 -469 -310q-221 0 -324.5 129t-74.5 367zM453 584h284q18 192 -119 192 q-64 0 -107.5 -51t-57.5 -141z" />
<glyph unicode="f" horiz-adv-x="661" d="M86 752l25 211h149l8 57q15 125 45.5 195.5t87.5 111.5q91 66 232 66q79 0 182 -27l-24 -209q-43 14 -76 14q-67 0 -97.5 -30.5t-39.5 -106.5l-11 -71h199l-25 -211h-198l-92 -752h-308l93 752h-150z" />
<glyph unicode="g" horiz-adv-x="1064" d="M53 -145q12 101 133 161q-78 59 -65 152q8 69 59 119.5t150 85.5q-189 80 -164 284q19 153 147 246.5t320 93.5q193 0 291 -92q86 109 235 109q17 0 31 -2l-25 -207q-35 18 -71 18q-38 0 -86 -18q55 -72 43 -164q-17 -142 -147 -226.5t-333 -84.5q-47 0 -112 10 q-57 -18 -60 -55q-2 -8 3 -16t12 -11q18 -11 49.5 -15t191.5 -14q189 -12 228 -17.5t80 -27.5q55 -31 80 -88.5t16 -134.5q-20 -161 -167.5 -245.5t-408.5 -84.5q-217 0 -330.5 59t-99.5 165zM270 -82q-6 -51 66.5 -76.5t224.5 -25.5q247 0 256 78q3 27 -17.5 39t-70.5 12 q-242 0 -428 35q-28 -31 -31 -62zM487 655q-9 -69 19 -108t86 -39q56 0 93 39t46 108q9 72 -17 113t-83 41q-60 0 -97.5 -40t-46.5 -114z" />
<glyph unicode="h" horiz-adv-x="1071" d="M102 0l166 1366h307l-63 -516q60 63 155 105t175 42q69 0 121 -31t71 -85q18 -44 21 -98t-8 -144l-78 -639h-307l73 616q7 52 -4 80q-9 23 -33.5 37.5t-52.5 14.5q-67 0 -153 -76l-82 -672h-308z" />
<glyph unicode="i" horiz-adv-x="512" d="M102 0l117 963h307l-116 -963h-308zM236 1092l32 274h307l-32 -274h-307z" />
<glyph unicode="j" horiz-adv-x="512" d="M-125 -360l29 231q49 -8 69 -8q33 0 62.5 15.5t44.5 41.5q15 27 24 113l115 930h307l-114 -930q-13 -113 -29.5 -172.5t-46.5 -102.5q-87 -131 -313 -131q-57 0 -148 13zM236 1094l32 272h307l-32 -272h-307z" />
<glyph unicode="k" horiz-adv-x="1001" d="M102 0l166 1366h307l-83 -692l239 289h350l-329 -349l249 -614h-348l-141 373l-66 -68l-36 -305h-308z" />
<glyph unicode="l" horiz-adv-x="512" d="M102 0l166 1366h307l-165 -1366h-308z" />
<glyph unicode="m" horiz-adv-x="1591" d="M102 0l117 963h307l-14 -113q90 77 165.5 112t153.5 35q72 0 124 -39t71 -108q79 70 167.5 108.5t168.5 38.5q66 0 118 -29.5t74 -80.5q33 -79 13 -240l-78 -647h-307l73 614q9 72 -8.5 104t-66.5 32q-74 0 -150 -76l-82 -674h-307l74 614q18 136 -74 136q-70 0 -149 -76 l-82 -674h-308z" />
<glyph unicode="n" horiz-adv-x="1073" d="M102 0l117 963h307l-12 -109q178 143 340 143q64 0 114.5 -31t67.5 -83q19 -47 21 -104t-10 -161l-76 -618h-307l75 618q15 132 -90 132q-67 0 -157 -76l-82 -674h-308z" />
<glyph unicode="o" horiz-adv-x="1046" d="M117 481q29 238 172 377t360 139t323 -136.5t75 -379.5q-12 -106 -58.5 -207t-111.5 -165q-66 -64 -164.5 -100t-208.5 -36q-209 0 -312.5 136t-74.5 372zM440 492q-19 -152 7 -224.5t100 -72.5q142 0 182 311q17 133 -11.5 201.5t-99.5 68.5q-144 0 -178 -284z" />
<glyph unicode="p" horiz-adv-x="1064" d="M57 -354l162 1317h307l-12 -101q126 135 277 135q152 0 229 -134.5t49 -354.5q-25 -200 -108 -342q-51 -88 -140 -140.5t-186 -52.5q-68 0 -119.5 25.5t-97.5 81.5l-53 -434h-308zM442 281q45 -86 117 -86t118.5 75.5t65.5 218.5q15 124 -11.5 192.5t-88.5 68.5 q-67 0 -154 -84z" />
<glyph unicode="q" horiz-adv-x="1067" d="M119 485q23 201 121 338q59 82 138.5 128t162.5 46q72 0 125.5 -32.5t97.5 -104.5l45 103h274l-161 -1317h-308l54 432q-111 -105 -250 -105q-166 0 -247 139.5t-52 372.5zM440 489q-17 -139 12.5 -216.5t100.5 -77.5q74 0 139 88l47 379q-46 88 -123 88 q-68 0 -114.5 -69.5t-61.5 -191.5z" />
<glyph unicode="r" horiz-adv-x="784" d="M102 0l117 963h307l-10 -86q0 -1 -0.5 -4t-1.5 -8.5t-2 -10.5l-4 -23l-4 -32l-2 -37q69 110 156.5 169.5t181.5 59.5q5 0 45 -4l-37 -291q-34 11 -66 11q-192 0 -309 -177l-63 -530h-308z" />
<glyph unicode="s" horiz-adv-x="897" d="M94 266l289 19q-1 -52 23 -80.5t69 -28.5q40 0 70.5 24.5t34.5 61.5q5 39 -20.5 62.5t-84.5 35.5q-123 24 -164.5 37.5t-77.5 38.5q-111 78 -92 240q17 143 131.5 232t280.5 89q106 0 183.5 -30.5t115.5 -87.5q21 -31 29 -63.5t8 -86.5l-285 -24q0 88 -78 88 q-38 0 -67 -23.5t-33 -58.5q-6 -61 49 -86q3 -2 5.5 -3t5.5 -2t8.5 -2t12.5 -2.5t19.5 -4t26.5 -5.5t37.5 -8t48.5 -10q261 -53 231 -291q-19 -151 -140.5 -238.5t-313.5 -87.5q-164 0 -244.5 73.5t-77.5 221.5z" />
<glyph unicode="t" horiz-adv-x="649" d="M72 752l24 211h150l33 264h307l-33 -264h199l-25 -211h-199l-49 -385q-9 -77 -4 -101q6 -26 34 -44.5t60 -18.5q23 0 93 22l-27 -225q-89 -12 -203 -12q-153 0 -211 53q-44 38 -56.5 95.5t-0.5 160.5l57 455h-149z" />
<glyph unicode="u" horiz-adv-x="1071" d="M143 350l76 613h307l-69 -574q-12 -93 2 -125q24 -43 80 -43q75 0 157 72l82 670h307l-116 -963h-299l14 127q-23 -51 -137.5 -102.5t-206.5 -51.5q-67 0 -116.5 32t-71.5 89q-17 48 -18.5 103t9.5 153z" />
<glyph unicode="v" horiz-adv-x="897" d="M96 963h338l49 -385q22 -169 19 -336q28 146 96 354l119 367h317l-401 -963h-344z" />
<glyph unicode="w" horiz-adv-x="1454" d="M117 963h323l39 -514q7 -104 0 -213q1 4 2 12q13 69 51 201l152 514h332l24 -498q8 -114 0 -229q19 104 58 229l162 498h311l-389 -963h-334l-29 504q-6 76 -6 190q-9 -45 -20 -88q-34 -120 -101.5 -346t-77.5 -260h-342z" />
<glyph unicode="x" horiz-adv-x="935" d="M-27 0l379 498l-225 465h346l57 -150q18 -47 31 -137q41 92 70 137l92 150h334l-346 -465l254 -498h-359l-67 195q-17 54 -23 112q-19 -52 -61 -112l-131 -195h-351z" />
<glyph unicode="y" horiz-adv-x="901" d="M-10 -354l28 225q64 -21 113 -21q69 0 109.5 33.5t74.5 116.5l-219 963h336l64 -451q14 -95 14 -176q22 85 53 176l156 451h319l-420 -936q-97 -216 -155 -279q-108 -123 -307 -123q-64 0 -166 21z" />
<glyph unicode="z" horiz-adv-x="931" d="M47 0l25 205q42 46 206 228t254 280l25 24q0 3 12 15h-401l25 211h800l-24 -201l-447 -483q-5 -5 -29.5 -28t-37.5 -36h446l-24 -215h-830z" />
<glyph unicode="{" horiz-adv-x="681" d="M164 459l24 207q61 12 93 50t41 109l43 344q19 157 100.5 225t251.5 68q34 0 69 -2l62 -2l-27 -217q-71 1 -106.5 -2.5t-60.5 -21t-33.5 -43.5t-14.5 -80l-35 -285q-12 -103 -44 -155.5t-111 -100.5q74 -50 89.5 -105.5t-3.5 -203.5l-29 -232q-4 -38 -5.5 -58.5 t4.5 -39.5t14.5 -26.5t33.5 -13.5t52 -7t79 -2l-26 -217h-62q-23 0 -49 -1t-27 -1q-166 0 -230 69t-44 226l41 340q11 85 -9.5 125.5t-80.5 52.5z" />
<glyph unicode="|" horiz-adv-x="1024" d="M301 -342l209 1708h338l-209 -1708h-338z" />
<glyph unicode="}" horiz-adv-x="681" d="M-31 -352l27 217q53 1 80.5 2t54.5 7t37.5 13.5t21 26.5t13.5 39t8 59l29 232q19 148 48 204t115 105q-68 47 -87 99t-7 157l35 285q4 36 5 57.5t-5 40t-16.5 27t-34 14.5t-52 7.5t-75.5 0.5l27 217l61 2q35 2 70 2q170 0 235.5 -68t46.5 -225l-43 -344q-9 -71 12.5 -109 t79.5 -50l-24 -207q-63 -12 -93.5 -52.5t-41.5 -125.5l-41 -340q-20 -157 -102 -226t-249 -69q-2 0 -11.5 0.5t-26.5 1t-35 0.5h-62z" />
<glyph unicode="~" horiz-adv-x="1366" d="M342 1255q76 148 161 218.5t185 70.5q64 0 221 -67q76 -34 98.5 -42t45.5 -8q41 0 76.5 28.5t76.5 94.5l146 -137q-82 -155 -163 -220t-194 -65q-42 0 -78 11.5t-141 58.5q-97 43 -139 43q-38 0 -72.5 -27.5t-77.5 -93.5z" />
<glyph unicode="&#xa1;" horiz-adv-x="655" d="M104 -354l156 880h262l-63 -880h-355zM248 635l39 328h313l-39 -328h-313z" />
<glyph unicode="&#xa2;" d="M229 682q31 240 175.5 379t363.5 139q48 0 102 -10l91 178l81 -27l-86 -178q83 -38 128.5 -118t45.5 -185l-282 -43q3 36 1.5 56.5t-11.5 44.5l-244 -498q32 -23 65 -23q57 0 95 39t63 123l273 -33q-83 -350 -465 -350q-66 0 -144 17l-108 -209l-80 36l106 203 q-101 56 -145.5 175.5t-24.5 283.5zM543 707q-6 -51 -4.5 -85t10.5 -94l217 447q-32 4 -43 4q-69 0 -117 -72.5t-63 -199.5z" />
<glyph unicode="&#xa3;" d="M152 229q8 67 45.5 123t94 87.5t120.5 31.5q34 0 58 -9t50 -32q6 42 1 80t-25 117h-246l24 198h154q-40 103 -29 203q20 163 149 262t320 99q198 0 303 -111q32 -37 48.5 -74.5t23.5 -99.5l-287 -100q-8 37 -14.5 58.5t-12.5 33.5t-16 26q-32 37 -69 37t-66.5 -37 t-36.5 -92q-5 -41 4 -80.5t41 -124.5h285l-24 -198h-226q24 -185 -41 -328q75 -66 115 -66q26 0 49 29t60 107l213 -119q-72 -145 -149 -210t-175 -65q-58 0 -105.5 22.5t-119.5 84.5q-63 -59 -120.5 -83t-135.5 -24q-131 0 -202 69.5t-58 184.5zM332 223q-4 -41 22 -71.5 t66 -30.5t65.5 32.5t44.5 106.5q-44 66 -88 66q-25 0 -49.5 -14.5t-41 -38.5t-19.5 -50z" />
<glyph unicode="&#xa4;" horiz-adv-x="1366" d="M76 190l231 207q-54 100 -59 203.5t29.5 191.5t101.5 173l-184 209l149 135l184 -211q78 49 149.5 71.5t151.5 22.5q78 0 142.5 -21.5t128.5 -70.5l233 207l117 -133l-231 -207q154 -291 -66 -568l182 -209l-147 -133l-184 207q-149 -94 -302 -94q-76 0 -140.5 21.5 t-137.5 72.5l-231 -207zM475 680q-14 -119 61 -204t193 -85q120 0 215.5 85.5t108.5 205.5q15 119 -58 204t-190 85q-123 0 -219 -84t-111 -207z" />
<glyph unicode="&#xa5;" d="M188 393l25 207h231l-45 141h-206l24 207h117l-133 418h334l153 -569l289 569h340l-240 -418h119l-25 -207h-208l-84 -141h237l-24 -207h-279l-47 -393h-350l47 393h-275z" />
<glyph unicode="&#xa6;" horiz-adv-x="1024" d="M301 -342l80 655h338l-80 -655h-338zM422 639l88 727h338l-88 -727h-338z" />
<glyph unicode="&#xa7;" d="M104 6l312 92q15 -87 51.5 -124t105.5 -37q54 0 91.5 25t42.5 63q4 34 -26.5 60t-107.5 54q-161 57 -268 123q-164 98 -143 285q12 92 63 160t148 124q-87 78 -72 209q19 154 150.5 251.5t320.5 97.5q158 0 263 -72.5t143 -208.5l-293 -94q-10 66 -52.5 105.5 t-101.5 39.5q-46 0 -78.5 -23.5t-36.5 -60.5q-4 -26 11 -41q13 -18 40.5 -31.5t194.5 -82.5q176 -73 243 -157t52 -212q-23 -174 -207 -295q84 -84 70 -209q-19 -152 -152 -246t-331 -94q-188 0 -299 76.5t-134 222.5zM453 604q-4 -36 6 -52q19 -28 138 -91q49 -26 191 -99 q33 36 51.5 63.5t26 57.5t-7.5 57.5t-53 53.5q-49 29 -266 139q-80 -72 -86 -129z" />
<glyph unicode="&#xa8;" horiz-adv-x="1024" d="M303 1094l33 260h260l-33 -260h-260zM725 1094l33 260h260l-33 -260h-260z" />
<glyph unicode="&#xa9;" horiz-adv-x="1490" d="M143 682q25 205 134.5 370.5t279 259t365.5 93.5q141 0 260 -56t197.5 -152t114.5 -230t17 -285q-24 -201 -134 -366.5t-278.5 -260t-359.5 -94.5t-336 94.5t-214.5 260t-45.5 366.5zM254 684q-21 -166 39 -308t182.5 -225t278.5 -83t298.5 82.5t237 225t115.5 310.5 q13 122 -16.5 239t-94.5 199q-66 79 -171 126.5t-214 47.5q-164 0 -306.5 -79.5t-235 -220t-113.5 -314.5zM481 680q26 204 134 316t280 112q137 0 207.5 -65.5t83.5 -204.5l-215 -37q0 85 -21 119t-73 34q-68 0 -108.5 -70.5t-59.5 -221.5q-30 -252 90 -252q53 0 86.5 39.5 t56.5 128.5l215 -29q-35 -141 -131.5 -217t-241.5 -76q-170 0 -249 110t-54 314z" />
<glyph unicode="&#xaa;" horiz-adv-x="792" d="M147 598l19 145h641l-19 -145h-641zM246 952q7 63 53 106.5t135 74.5q64 19 182 43q3 24 3 41.5t-5 30t-18 18.5t-35 6q-68 0 -86 -68l-172 23q46 151 270 151q147 0 201 -59q22 -26 26 -57t-5 -105l-19 -143q-16 -152 -14 -195h-174l-4 33q-88 -49 -172 -49 q-85 0 -130 40t-36 109zM428 965q-2 -15 4 -27t19.5 -18.5t31.5 -6.5q49 0 113 41l14 115q-170 -24 -182 -104z" />
<glyph unicode="&#xab;" horiz-adv-x="901" d="M113 479l211 387h231l-205 -387l111 -389h-232zM481 479l211 387h232l-205 -387l110 -389h-231z" />
<glyph unicode="&#xac;" horiz-adv-x="1024" d="M104 307l35 293h887l-72 -600h-327l37 307h-560z" />
<glyph unicode="&#xad;" horiz-adv-x="464" d="M41 348l33 260h465l-33 -260h-465z" />
<glyph unicode="&#xae;" horiz-adv-x="1490" d="M143 682q25 205 134.5 370.5t279 259t365.5 93.5q141 0 260 -56t197.5 -152t114.5 -230t17 -285q-24 -201 -134 -366.5t-278.5 -260t-359.5 -94.5t-336 94.5t-214.5 260t-45.5 366.5zM254 684q-21 -166 39 -308t182.5 -225t278.5 -83t298.5 82.5t237 225t115.5 310.5 q13 122 -16.5 239t-94.5 199q-66 79 -171 126.5t-214 47.5q-164 0 -306.5 -79.5t-235 -220t-113.5 -314.5zM479 272l101 820h278q128 0 189 -27q57 -26 84 -80t18 -123q-9 -79 -52 -133t-112 -76l131 -381h-231l-111 344q-4 -2 -10 -2h-33l-41 -342h-211zM743 770h74 q111 0 123 84q5 46 -20.5 65t-94.5 19h-61z" />
<glyph unicode="&#xaf;" horiz-adv-x="1024" d="M324 1137l22 182h655l-22 -182h-655z" />
<glyph unicode="&#xb0;" horiz-adv-x="778" d="M213 1077q15 129 116.5 219t229.5 90q129 0 206 -90t62 -221q-15 -124 -116.5 -213.5t-227.5 -89.5q-127 0 -206 89.5t-64 215.5zM362 1077q-7 -66 34 -112.5t104 -46.5q64 0 117 47t61 110q8 69 -32.5 117.5t-106.5 48.5q-63 0 -116.5 -49t-60.5 -115z" />
<glyph unicode="&#xb1;" d="M53 -100l27 200h1050l-26 -200h-1051zM137 582l25 200h426l53 426h201l-54 -426h424l-24 -200h-424l-43 -357h-201l43 357h-426z" />
<glyph unicode="&#xb2;" horiz-adv-x="735" d="M125 547l18 137q56 75 115 131t186 152q74 56 106 95.5t36 80.5q5 38 -12.5 62t-51.5 24q-39 0 -65.5 -31t-46.5 -100l-201 35q70 245 332 245q135 0 204.5 -64t55.5 -177q-12 -105 -92 -181q-25 -22 -44.5 -36.5t-132.5 -94.5q-93 -69 -151 -118l14 -2l80 2h268 l-20 -160h-598z" />
<glyph unicode="&#xb3;" horiz-adv-x="735" d="M127 756l207 43q5 -61 28 -89t70 -28t81 29.5t40 76.5q8 63 -31 89t-143 26q-15 0 -27 -2l17 150h34q85 0 123.5 21.5t44.5 72.5q4 38 -15 61t-56 23q-43 0 -72 -24.5t-55 -82.5l-170 56q54 105 131 152.5t194 47.5q126 0 194 -59.5t56 -157.5q-8 -61 -43.5 -105 t-93.5 -63q78 -31 107 -77t20 -123q-15 -121 -111 -191t-247 -70q-136 0 -203.5 53.5t-79.5 170.5z" />
<glyph unicode="&#xb4;" horiz-adv-x="1024" d="M496 1096l184 272h313l-280 -272h-217z" />
<glyph unicode="&#xb6;" d="M258 1008q12 101 66.5 181.5t140.5 123.5q60 31 125 42t178 11h532l-14 -129h-102l-199 -1606h-178l199 1606h-146l-198 -1606h-179l127 1026h-26q-167 0 -256.5 97t-69.5 254z" />
<glyph unicode="&#xb7;" horiz-adv-x="559" d="M164 342l41 328h313l-41 -328h-313z" />
<glyph unicode="&#xb8;" horiz-adv-x="1024" d="M334 -365l43 101l8 -2l37 -15q20 -4 33 -4q67 0 73 45q3 27 -18.5 38.5t-77.5 11.5h-24l71 190h113l-37 -98q76 -6 113.5 -43t29.5 -99q-9 -71 -68 -115t-145 -44q-79 0 -151 34z" />
<glyph unicode="&#xb9;" horiz-adv-x="735" d="M217 547l21 160h139l57 477h-139l14 110q31 11 123 39q4 1 107 33h112l-80 -659h140l-21 -160h-473z" />
<glyph unicode="&#xba;" horiz-adv-x="792" d="M147 598l19 145h641l-19 -145h-641zM256 1090q17 134 100 211t209 77q129 0 192 -77t46 -214q-17 -133 -101.5 -208.5t-216.5 -75.5q-123 0 -184.5 77t-44.5 210zM446 1094q-20 -174 62 -174t106 182q18 160 -65 160q-82 0 -103 -168z" />
<glyph unicode="&#xbb;" horiz-adv-x="901" d="M92 90l207 389l-113 387h234l115 -387l-209 -389h-234zM461 90l207 389l-113 387h233l115 -387l-209 -389h-233z" />
<glyph unicode="&#xbc;" horiz-adv-x="1662" d="M217 547l21 160h139l57 477h-139l14 110q31 11 123 39q4 1 107 33h112l-80 -659h140l-21 -160h-473zM463 0l733 1366h172l-735 -1366h-170zM1001 184l15 127l336 508h260l-60 -483h103l-19 -152h-102l-23 -184h-194l22 184h-338zM1192 313h170l41 351z" />
<glyph unicode="&#xbd;" horiz-adv-x="1662" d="M217 547l21 160h139l57 477h-139l14 110q31 11 123 39q4 1 107 33h112l-80 -659h140l-21 -160h-473zM463 0l733 1366h172l-735 -1366h-170zM987 0l17 137q56 76 115.5 131.5t187.5 151.5q72 55 103 95t36 81q5 38 -12.5 62t-51.5 24q-40 0 -65.5 -31t-44.5 -100l-201 35 q68 245 330 245q135 0 204.5 -64t55.5 -177q-12 -103 -92 -180q-35 -31 -176 -131q-92 -68 -152 -119l14 -2l80 2h269l-19 -160h-598z" />
<glyph unicode="&#xbe;" horiz-adv-x="1662" d="M127 756l207 43q5 -61 28 -89t70 -28t81 29.5t40 76.5q8 63 -31 89t-143 26q-15 0 -27 -2l17 150h34q85 0 123.5 21.5t44.5 72.5q4 38 -15 61t-56 23q-43 0 -72 -24.5t-55 -82.5l-170 56q54 105 131 152.5t194 47.5q126 0 194 -59.5t56 -157.5q-8 -61 -43.5 -105 t-93.5 -63q78 -31 107 -77t20 -123q-15 -121 -111 -191t-247 -70q-136 0 -203.5 53.5t-79.5 170.5zM463 0l733 1366h170l-733 -1366h-170zM999 184l15 127l338 508h260l-60 -483h103l-19 -152h-102l-23 -184h-194l22 184h-340zM1192 313h170l41 351z" />
<glyph unicode="&#xbf;" horiz-adv-x="927" d="M72 -68q15 115 100 209q4 5 7 8l6.5 6.5t9.5 8.5t11.5 10.5t18 15.5t24.5 20t34.5 29t44.5 37q76 65 104.5 113.5t40.5 134.5h291q-15 -133 -66 -219t-176 -188q-87 -73 -113 -103.5t-30 -66.5q-3 -31 19.5 -50.5t62.5 -19.5q104 0 162 121l233 -131q-66 -111 -180 -170 t-264 -59q-170 0 -262.5 79.5t-77.5 214.5zM475 635l39 328h313l-39 -328h-313z" />
<glyph unicode="&#xc0;" horiz-adv-x="1148" d="M-14 0l544 1366h426l205 -1366h-348l-41 322h-338l-121 -322h-327zM430 1751h320l116 -272h-221zM520 561h225l-34 377q-9 97 -6 205q-46 -175 -56 -205z" />
<glyph unicode="&#xc1;" horiz-adv-x="1148" d="M-14 0l544 1366h426l205 -1366h-348l-41 322h-338l-121 -322h-327zM520 561h225l-34 377q-9 97 -6 205q-46 -175 -56 -205zM666 1479l182 272h313l-278 -272h-217z" />
<glyph unicode="&#xc2;" horiz-adv-x="1148" d="M-14 0l544 1366h426l205 -1366h-348l-41 322h-338l-121 -322h-327zM403 1479l248 256h285l182 -256h-256l-88 116l-123 -116h-248zM520 561h225l-34 377q-9 97 -6 205q-46 -175 -56 -205z" />
<glyph unicode="&#xc3;" horiz-adv-x="1148" d="M-14 0l544 1366h426l205 -1366h-348l-41 322h-338l-121 -322h-327zM451 1483q15 116 80.5 188t156.5 72q33 0 61.5 -7.5t131.5 -41.5q37 -13 59 -13t35 15.5t20 50.5h148q-20 -126 -82.5 -195t-155.5 -69q-29 0 -55.5 7t-155.5 48q-16 4 -30 4q-45 0 -64 -59h-149z M520 561h225l-34 377q-9 97 -6 205q-46 -175 -56 -205z" />
<glyph unicode="&#xc4;" horiz-adv-x="1148" d="M-14 0l544 1366h426l205 -1366h-348l-41 322h-338l-121 -322h-327zM412 1477l32 260h261l-33 -260h-260zM520 561h225l-34 377q-9 97 -6 205q-46 -175 -56 -205zM834 1477l32 260h260l-32 -260h-260z" />
<glyph unicode="&#xc5;" horiz-adv-x="1148" d="M-14 0l544 1366h426l205 -1366h-348l-41 322h-338l-121 -322h-327zM520 561h225l-34 377q-9 97 -6 205q-46 -175 -56 -205zM559 1671q11 91 85.5 157t166.5 66q94 0 152 -65.5t47 -159.5q-12 -91 -86 -155t-166 -64q-95 0 -153 64.5t-46 156.5zM694 1667q-3 -34 20 -58 t60 -24q35 0 63.5 24.5t32.5 59.5q5 37 -15.5 60.5t-57.5 23.5q-39 0 -69 -25t-34 -61z" />
<glyph unicode="&#xc6;" horiz-adv-x="1882" d="M-27 0l881 1366h1075l-31 -254h-550l-35 -278h454l-30 -254h-455l-39 -326h588l-31 -254h-926l39 322h-376l-187 -322h-377zM680 575h264l68 553z" />
<glyph unicode="&#xc7;" horiz-adv-x="1284" d="M150 676q19 155 69 282t132 225.5t206 153t281 54.5q282 0 401 -179q36 -53 53.5 -110t26.5 -150l-348 -61q0 141 -37.5 201.5t-126.5 60.5q-119 0 -188.5 -120t-100.5 -376q-28 -226 11.5 -335t148.5 -109q54 0 102 27.5t82 78.5q35 53 68 177l340 -47 q-66 -229 -218 -349t-378 -123l-27 -75q159 -15 144 -144q-8 -68 -67 -112.5t-142 -44.5q-85 0 -154 34l41 101q63 -19 88 -19q28 0 46.5 11.5t19.5 31.5q3 26 -21 40t-70 14q-18 0 -30 -2l61 165q-239 28 -345 208t-68 491z" />
<glyph unicode="&#xc8;" horiz-adv-x="1144" d="M129 0l166 1366h897l-31 -254h-559l-35 -278h461l-31 -254h-460l-39 -326h594l-31 -254h-932zM481 1751h320l117 -272h-222z" />
<glyph unicode="&#xc9;" horiz-adv-x="1144" d="M129 0l166 1366h897l-31 -254h-559l-35 -278h461l-31 -254h-460l-39 -326h594l-31 -254h-932zM664 1479l182 272h313l-278 -272h-217z" />
<glyph unicode="&#xca;" horiz-adv-x="1144" d="M129 0l166 1366h897l-31 -254h-559l-35 -278h461l-31 -254h-460l-39 -326h594l-31 -254h-932zM416 1479l248 256h284l182 -256h-256l-88 116l-122 -116h-248z" />
<glyph unicode="&#xcb;" horiz-adv-x="1144" d="M129 0l166 1366h897l-31 -254h-559l-35 -278h461l-31 -254h-460l-39 -326h594l-31 -254h-932zM438 1477l33 260h260l-33 -260h-260zM860 1477l33 260h260l-33 -260h-260z" />
<glyph unicode="&#xcc;" horiz-adv-x="598" d="M129 0l166 1366h338l-166 -1366h-338zM162 1751h319l117 -272h-221z" />
<glyph unicode="&#xcd;" horiz-adv-x="598" d="M129 0l166 1366h338l-166 -1366h-338zM383 1479l182 272h314l-279 -272h-217z" />
<glyph unicode="&#xce;" horiz-adv-x="598" d="M129 0l166 1366h338l-166 -1366h-338zM135 1479l248 256h285l182 -256h-256l-88 116l-123 -116h-248z" />
<glyph unicode="&#xcf;" horiz-adv-x="598" d="M129 0l166 1366h338l-166 -1366h-338zM172 1477l33 260h260l-33 -260h-260zM541 1477l32 260h261l-33 -260h-260z" />
<glyph unicode="&#xd0;" horiz-adv-x="1280" d="M37 594l29 240h163l66 532h410q162 0 250 -18t153 -64q115 -82 164 -237.5t24 -358.5q-20 -160 -83.5 -297.5t-161.5 -230.5q-92 -89 -200.5 -124.5t-287.5 -35.5h-434l72 594h-164zM498 254h59q181 0 270 94t115 314q15 127 11 205t-29 130q-56 115 -234 115h-88 l-35 -278h219l-28 -240h-219z" />
<glyph unicode="&#xd1;" horiz-adv-x="1374" d="M129 0l166 1366h430l160 -496q7 -24 88 -317l98 813h338l-166 -1366h-338l-252 768l-22 63q-12 48 -27 95l-35 116q0 -137 -6 -194q-10 -131 -12 -154l-84 -694h-338zM578 1483q15 116 80.5 188t156.5 72q33 0 61.5 -7.5t131.5 -41.5q37 -13 59 -13t35 15.5t20 50.5h148 q-20 -126 -82.5 -195t-155.5 -69q-29 0 -55.5 7t-155.5 48q-16 4 -30 4q-45 0 -64 -59h-149z" />
<glyph unicode="&#xd2;" horiz-adv-x="1302" d="M150 668q35 303 182 495q85 112 209.5 171t277.5 59q163 0 267 -52.5t167 -166.5q102 -188 66 -488q-42 -312 -203 -512q-165 -201 -475 -201q-281 0 -399 179q-132 199 -92 516zM512 344q10 -60 53 -95.5t105 -35.5q116 0 178 109t94 368q29 246 4 342q-12 57 -52 89 t-99 32q-115 0 -178.5 -109t-94.5 -358q-30 -229 -10 -342zM520 1751h320l116 -272h-221z" />
<glyph unicode="&#xd3;" horiz-adv-x="1302" d="M150 668q35 303 182 495q85 112 209.5 171t277.5 59q163 0 267 -52.5t167 -166.5q102 -188 66 -488q-42 -312 -203 -512q-165 -201 -475 -201q-281 0 -399 179q-132 199 -92 516zM512 344q10 -60 53 -95.5t105 -35.5q116 0 178 109t94 368q29 246 4 342q-12 57 -52 89 t-99 32q-115 0 -178.5 -109t-94.5 -358q-30 -229 -10 -342zM729 1479l182 272h314l-279 -272h-217z" />
<glyph unicode="&#xd4;" horiz-adv-x="1302" d="M150 668q35 303 182 495q85 112 209.5 171t277.5 59q163 0 267 -52.5t167 -166.5q102 -188 66 -488q-42 -312 -203 -512q-165 -201 -475 -201q-281 0 -399 179q-132 199 -92 516zM487 1479l248 256h285l182 -256h-256l-88 116l-123 -116h-248zM512 344q10 -60 53 -95.5 t105 -35.5q116 0 178 109t94 368q29 246 4 342q-12 57 -52 89t-99 32q-115 0 -178.5 -109t-94.5 -358q-30 -229 -10 -342z" />
<glyph unicode="&#xd5;" horiz-adv-x="1302" d="M150 668q35 303 182 495q85 112 209.5 171t277.5 59q163 0 267 -52.5t167 -166.5q102 -188 66 -488q-42 -312 -203 -512q-165 -201 -475 -201q-281 0 -399 179q-132 199 -92 516zM512 344q10 -60 53 -95.5t105 -35.5q116 0 178 109t94 368q29 246 4 342q-12 57 -52 89 t-99 32q-115 0 -178.5 -109t-94.5 -358q-30 -229 -10 -342zM555 1483q15 116 81 188t157 72q33 0 60.5 -7t131.5 -42q37 -13 59 -13q42 0 56 66h147q-20 -126 -82.5 -195t-154.5 -69q-29 0 -55.5 7t-155.5 48q-16 4 -31 4q-23 0 -38 -13.5t-25 -45.5h-150z" />
<glyph unicode="&#xd6;" horiz-adv-x="1302" d="M150 668q35 303 182 495q85 112 209.5 171t277.5 59q163 0 267 -52.5t167 -166.5q102 -188 66 -488q-42 -312 -203 -512q-165 -201 -475 -201q-281 0 -399 179q-132 199 -92 516zM504 1477l33 260h260l-33 -260h-260zM512 344q10 -60 53 -95.5t105 -35.5q116 0 178 109 t94 368q29 246 4 342q-12 57 -52 89t-99 32q-115 0 -178.5 -109t-94.5 -358q-30 -229 -10 -342zM926 1477l32 260h261l-33 -260h-260z" />
<glyph unicode="&#xd7;" d="M156 328l374 350l-307 330l162 153l307 -334l375 349l129 -140l-375 -350l307 -330l-161 -149l-310 330l-370 -347z" />
<glyph unicode="&#xd8;" horiz-adv-x="1302" d="M78 0l151 170q-118 194 -79 498q35 296 182 495q173 230 491 230q110 0 190 -24.5t146 -78.5l137 150l95 -78l-152 -166q61 -110 79.5 -226t-1.5 -274q-41 -326 -201 -522q-168 -201 -473 -201q-219 0 -336 103l-141 -156zM504 492l444 546q-22 60 -58 87.5t-95 27.5 q-149 0 -222 -203q-32 -100 -55 -286q-8 -68 -14 -172zM518 315q40 -102 154 -102t176 109t94 366q11 92 16 168z" />
<glyph unicode="&#xd9;" horiz-adv-x="1236" d="M178 510l105 856h338l-109 -895q-15 -111 -4 -164q25 -94 131 -94q59 0 107 32.5t67 84.5q17 53 29 141l108 895h338l-108 -895q-13 -111 -35.5 -176.5t-65.5 -122.5q-156 -199 -475 -199q-258 0 -373 148q-51 66 -62 147t9 242zM510 1751h319l117 -272h-221z" />
<glyph unicode="&#xda;" horiz-adv-x="1236" d="M178 510l105 856h338l-109 -895q-15 -111 -4 -164q25 -94 131 -94q59 0 107 32.5t67 84.5q17 53 29 141l108 895h338l-108 -895q-13 -111 -35.5 -176.5t-65.5 -122.5q-156 -199 -475 -199q-258 0 -373 148q-51 66 -62 147t9 242zM690 1479l182 272h314l-279 -272h-217z " />
<glyph unicode="&#xdb;" horiz-adv-x="1236" d="M178 510l105 856h338l-109 -895q-15 -111 -4 -164q25 -94 131 -94q59 0 107 32.5t67 84.5q17 53 29 141l108 895h338l-108 -895q-13 -111 -35.5 -176.5t-65.5 -122.5q-156 -199 -475 -199q-258 0 -373 148q-51 66 -62 147t9 242zM463 1479l248 256h284l183 -256h-256 l-88 116l-123 -116h-248z" />
<glyph unicode="&#xdc;" horiz-adv-x="1236" d="M178 510l105 856h338l-109 -895q-15 -111 -4 -164q25 -94 131 -94q59 0 107 32.5t67 84.5q17 53 29 141l108 895h338l-108 -895q-13 -111 -35.5 -176.5t-65.5 -122.5q-156 -199 -475 -199q-258 0 -373 148q-51 66 -62 147t9 242zM471 1477l33 260h260l-33 -260h-260z M893 1477l33 260h260l-33 -260h-260z" />
<glyph unicode="&#xdd;" horiz-adv-x="1107" d="M131 1366h358l148 -440q8 -26 11.5 -41.5t5 -28.5t3.5 -22q13 27 23.5 48l15 30t6.5 14l261 440h344l-521 -805l-67 -561h-338l68 561zM645 1479l182 272h314l-279 -272h-217z" />
<glyph unicode="&#xde;" horiz-adv-x="1110" d="M129 0l166 1366h338l-25 -205h127q100 0 158.5 -9t105.5 -32q93 -44 135 -141.5t25 -228.5q-25 -201 -167 -307.5t-388 -106.5h-96l-41 -336h-338zM537 584h53q201 0 219 161q11 80 -34.5 121t-143.5 41h-53z" />
<glyph unicode="&#xdf;" horiz-adv-x="1083" d="M102 0l105 864q19 148 38 217.5t54 120.5q130 191 418 191q187 0 286 -90t80 -244q-12 -98 -70.5 -164t-156.5 -94q126 -28 182 -124t37 -253q-25 -200 -145.5 -325.5t-288.5 -125.5q-63 0 -127 27l25 211q106 0 154 54t65 192q14 116 -23.5 167t-138.5 54l27 219h14 q57 0 94 39t45 104q8 62 -17 96.5t-79 34.5q-40 0 -73 -21t-52 -58q-10 -22 -16 -52t-17 -112l-112 -928h-308z" />
<glyph unicode="&#xe0;" horiz-adv-x="1050" d="M88 242q15 122 106.5 199t280.5 132q96 26 244 56l4 24q8 69 -14 96t-86 27q-57 0 -92 -27.5t-54 -86.5l-293 36q46 154 159.5 226.5t311.5 72.5q243 0 332 -108q38 -48 45 -102.5t-10 -188.5l-29 -246q-31 -245 -28 -352h-297l-4 80q-77 -57 -146 -82t-151 -25 q-141 0 -217.5 74t-61.5 195zM385 1368h320l114 -272h-221zM416 274q-5 -35 18 -57t64 -22q75 0 176 65l22 176q-76 -9 -164 -41q-107 -41 -116 -121z" />
<glyph unicode="&#xe1;" horiz-adv-x="1050" d="M88 242q15 122 106.5 199t280.5 132q96 26 244 56l4 24q8 69 -14 96t-86 27q-57 0 -92 -27.5t-54 -86.5l-293 36q46 154 159.5 226.5t311.5 72.5q243 0 332 -108q38 -48 45 -102.5t-10 -188.5l-29 -246q-31 -245 -28 -352h-297l-4 80q-77 -57 -146 -82t-151 -25 q-141 0 -217.5 74t-61.5 195zM416 274q-5 -35 18 -57t64 -22q75 0 176 65l22 176q-76 -9 -164 -41q-107 -41 -116 -121zM571 1096l185 272h313l-281 -272h-217z" />
<glyph unicode="&#xe2;" horiz-adv-x="1050" d="M88 242q15 122 106.5 199t280.5 132q96 26 244 56l4 24q8 69 -14 96t-86 27q-57 0 -92 -27.5t-54 -86.5l-293 36q46 154 159.5 226.5t311.5 72.5q243 0 332 -108q38 -48 45 -102.5t-10 -188.5l-29 -246q-31 -245 -28 -352h-297l-4 80q-77 -57 -146 -82t-151 -25 q-141 0 -217.5 74t-61.5 195zM330 1096l252 272h284l178 -272h-256l-88 116l-122 -116h-248zM416 274q-5 -35 18 -57t64 -22q75 0 176 65l22 176q-76 -9 -164 -41q-107 -41 -116 -121z" />
<glyph unicode="&#xe3;" horiz-adv-x="1050" d="M88 242q15 122 106.5 199t280.5 132q96 26 244 56l4 24q8 69 -14 96t-86 27q-57 0 -92 -27.5t-54 -86.5l-293 36q46 154 159.5 226.5t311.5 72.5q243 0 332 -108q38 -48 45 -102.5t-10 -188.5l-29 -246q-31 -245 -28 -352h-297l-4 80q-77 -57 -146 -82t-151 -25 q-141 0 -217.5 74t-61.5 195zM352 1096q13 115 78.5 191.5t149.5 76.5q37 0 76.5 -10.5t125.5 -42.5q37 -13 60 -13t35.5 16.5t21.5 53.5h148q-22 -129 -85 -200.5t-155 -71.5q-30 0 -56 7t-102 34q-56 20 -84 20q-45 0 -63 -61h-150zM416 274q-5 -35 18 -57t64 -22 q75 0 176 65l22 176q-76 -9 -164 -41q-107 -41 -116 -121z" />
<glyph unicode="&#xe4;" horiz-adv-x="1050" d="M88 242q15 122 106.5 199t280.5 132q96 26 244 56l4 24q8 69 -14 96t-86 27q-57 0 -92 -27.5t-54 -86.5l-293 36q46 154 159.5 226.5t311.5 72.5q243 0 332 -108q38 -48 45 -102.5t-10 -188.5l-29 -246q-31 -245 -28 -352h-297l-4 80q-77 -57 -146 -82t-151 -25 q-141 0 -217.5 74t-61.5 195zM352 1094l33 260h260l-33 -260h-260zM416 274q-5 -35 18 -57t64 -22q75 0 176 65l22 176q-76 -9 -164 -41q-107 -41 -116 -121zM774 1094l33 260h260l-33 -260h-260z" />
<glyph unicode="&#xe5;" horiz-adv-x="1050" d="M88 242q15 122 106.5 199t280.5 132q96 26 244 56l4 24q8 69 -14 96t-86 27q-57 0 -92 -27.5t-54 -86.5l-293 36q46 154 159.5 226.5t311.5 72.5q243 0 332 -108q38 -48 45 -102.5t-10 -188.5l-29 -246q-31 -245 -28 -352h-297l-4 80q-77 -57 -146 -82t-151 -25 q-141 0 -217.5 74t-61.5 195zM416 274q-5 -35 18 -57t64 -22q75 0 176 65l22 176q-76 -9 -164 -41q-107 -41 -116 -121zM502 1313q10 91 85 156t167 65q93 0 151 -65t47 -158q-10 -91 -84 -155t-166 -64q-95 0 -153 64t-47 157zM639 1309q-5 -34 18 -58t60 -24 q35 0 63.5 24.5t32.5 59.5q5 35 -16 58.5t-58 23.5q-38 0 -66.5 -24.5t-33.5 -59.5z" />
<glyph unicode="&#xe6;" horiz-adv-x="1583" d="M88 244q13 112 93.5 186t244.5 127q100 29 289 68q6 24 6 34q7 61 -16.5 89t-83.5 28q-37 0 -64.5 -11t-46.5 -34t-31 -59l-299 35q91 290 451 290q76 0 130.5 -12t96 -38t74.5 -68q66 63 132.5 90.5t152.5 27.5q130 0 216.5 -61t121 -177t14.5 -278l-8 -65h-572 q-12 -62 -5 -111t39 -79.5t83 -30.5q56 0 97.5 32t60.5 90l282 -28q-47 -151 -171 -233.5t-302 -82.5q-123 0 -209 40t-123 114q-177 -154 -379 -154q-139 0 -214 74t-60 197zM412 272q-5 -35 17 -56t63 -21q79 0 196 67q-12 46 2 168q-148 -31 -210 -66t-68 -92zM1010 582 h278q21 194 -110 194q-65 0 -105.5 -46.5t-62.5 -147.5z" />
<glyph unicode="&#xe7;" horiz-adv-x="995" d="M117 477q29 241 173.5 380.5t364.5 139.5q172 0 267.5 -89.5t95.5 -250.5l-283 -43q5 77 -23 120.5t-83 43.5q-146 0 -183 -295q-34 -295 105 -295q57 0 93 39.5t61 128.5l272 -32q-35 -165 -150 -256t-295 -97l-22 -69q156 -15 141 -142q-9 -72 -66.5 -115.5 t-146.5 -43.5q-71 0 -149 32l43 103l8 -2l37 -13q20 -4 39 -4q64 0 67 43q6 52 -84 52q-21 0 -37 -2l62 167q-169 19 -251 152t-56 348z" />
<glyph unicode="&#xe8;" horiz-adv-x="1026" d="M117 469q31 251 168.5 389.5t355.5 138.5q125 0 212 -50.5t128 -147.5q34 -75 39.5 -130.5t-12.5 -226.5l-2 -24h-572q-12 -114 4 -154q31 -69 115 -69q108 0 152 110l280 -22q-109 -310 -469 -310q-221 0 -324.5 129t-74.5 367zM352 1368h320l114 -272h-221zM453 584 h284q18 192 -119 192q-64 0 -107.5 -51t-57.5 -141z" />
<glyph unicode="&#xe9;" horiz-adv-x="1026" d="M117 469q31 251 168.5 389.5t355.5 138.5q125 0 212 -50.5t128 -147.5q34 -75 39.5 -130.5t-12.5 -226.5l-2 -24h-572q-12 -114 4 -154q31 -69 115 -69q108 0 152 110l280 -22q-109 -310 -469 -310q-221 0 -324.5 129t-74.5 367zM453 584h284q18 192 -119 192 q-64 0 -107.5 -51t-57.5 -141zM559 1096l184 272h314l-281 -272h-217z" />
<glyph unicode="&#xea;" horiz-adv-x="1026" d="M117 469q31 251 168.5 389.5t355.5 138.5q125 0 212 -50.5t128 -147.5q34 -75 39.5 -130.5t-12.5 -226.5l-2 -24h-572q-12 -114 4 -154q31 -69 115 -69q108 0 152 110l280 -22q-109 -310 -469 -310q-221 0 -324.5 129t-74.5 367zM297 1096l252 272h285l178 -272h-256 l-88 116l-123 -116h-248zM453 584h284q18 192 -119 192q-64 0 -107.5 -51t-57.5 -141z" />
<glyph unicode="&#xeb;" horiz-adv-x="1026" d="M117 469q31 251 168.5 389.5t355.5 138.5q125 0 212 -50.5t128 -147.5q34 -75 39.5 -130.5t-12.5 -226.5l-2 -24h-572q-12 -114 4 -154q31 -69 115 -69q108 0 152 110l280 -22q-109 -310 -469 -310q-221 0 -324.5 129t-74.5 367zM313 1094l33 260h260l-33 -260h-260z M453 584h284q18 192 -119 192q-64 0 -107.5 -51t-57.5 -141zM735 1094l33 260h260l-33 -260h-260z" />
<glyph unicode="&#xec;" horiz-adv-x="512" d="M88 1368h320l114 -272h-221zM102 0l117 963h307l-116 -963h-308z" />
<glyph unicode="&#xed;" horiz-adv-x="512" d="M102 0l117 963h307l-116 -963h-308zM293 1096l184 272h314l-281 -272h-217z" />
<glyph unicode="&#xee;" horiz-adv-x="512" d="M45 1096l252 272h285l178 -272h-256l-88 116l-123 -116h-248zM102 0l117 963h307l-116 -963h-308z" />
<glyph unicode="&#xef;" horiz-adv-x="512" d="M82 1094l33 260h260l-33 -260h-260zM102 0l117 963h307l-116 -963h-308zM451 1094l32 260h260l-32 -260h-260z" />
<glyph unicode="&#xf0;" horiz-adv-x="1046" d="M117 473q19 155 90 275t180 180q101 56 236 65l-43 119l-166 -80l-54 146l172 86l-43 122l201 99l62 -117l166 80l59 -148l-160 -75l158 -348q16 -35 26 -58q38 -86 48 -156t-2 -167q-31 -250 -171.5 -386.5t-367.5 -136.5q-238 0 -332 154q-84 145 -59 346zM440 492 q-19 -152 7 -224.5t98 -72.5q73 0 117.5 76t64.5 235q17 133 -11.5 201.5t-99.5 68.5q-142 0 -176 -284z" />
<glyph unicode="&#xf1;" horiz-adv-x="1073" d="M102 0l117 963h307l-12 -109q178 143 340 143q64 0 114.5 -31t67.5 -83q19 -47 21 -104t-10 -161l-76 -618h-307l75 618q15 132 -90 132q-67 0 -157 -76l-82 -674h-308zM381 1096q13 115 78 191.5t149 76.5q37 0 77 -10.5t126 -42.5q37 -13 59 -13q23 0 36 16.5t22 53.5 h147q-22 -129 -84.5 -200.5t-154.5 -71.5q-30 0 -56 7t-102 34q-56 20 -84 20q-46 0 -64 -61h-149z" />
<glyph unicode="&#xf2;" horiz-adv-x="1046" d="M117 481q29 238 172 377t360 139t323 -136.5t75 -379.5q-12 -106 -58.5 -207t-111.5 -165q-66 -64 -164.5 -100t-208.5 -36q-209 0 -312.5 136t-74.5 372zM356 1368h320l115 -272h-222zM440 492q-19 -152 7 -224.5t100 -72.5q142 0 182 311q17 133 -11.5 201.5 t-99.5 68.5q-144 0 -178 -284z" />
<glyph unicode="&#xf3;" horiz-adv-x="1046" d="M117 481q29 238 172 377t360 139t323 -136.5t75 -379.5q-12 -106 -58.5 -207t-111.5 -165q-66 -64 -164.5 -100t-208.5 -36q-209 0 -312.5 136t-74.5 372zM440 492q-19 -152 7 -224.5t100 -72.5q142 0 182 311q17 133 -11.5 201.5t-99.5 68.5q-144 0 -178 -284zM555 1096 l184 272h314l-281 -272h-217z" />
<glyph unicode="&#xf4;" horiz-adv-x="1046" d="M117 481q29 238 172 377t360 139t323 -136.5t75 -379.5q-12 -106 -58.5 -207t-111.5 -165q-66 -64 -164.5 -100t-208.5 -36q-209 0 -312.5 136t-74.5 372zM313 1096l252 272h285l178 -272h-256l-88 116l-123 -116h-248zM440 492q-19 -152 7 -224.5t100 -72.5 q142 0 182 311q17 133 -11.5 201.5t-99.5 68.5q-144 0 -178 -284z" />
<glyph unicode="&#xf5;" horiz-adv-x="1046" d="M117 481q29 238 172 377t360 139t323 -136.5t75 -379.5q-12 -106 -58.5 -207t-111.5 -165q-66 -64 -164.5 -100t-208.5 -36q-209 0 -312.5 136t-74.5 372zM375 1096q13 115 78 191.5t149 76.5q37 0 77 -10.5t126 -42.5q37 -13 59 -13q23 0 36 16.5t22 53.5h147 q-22 -129 -85 -200.5t-155 -71.5q-30 0 -55 7t-102 34q-56 20 -84 20q-46 0 -64 -61h-149zM440 492q-19 -152 7 -224.5t100 -72.5q72 0 117 76.5t65 234.5q9 67 6 117.5t-17.5 84.5t-39.5 51t-60 17q-144 0 -178 -284z" />
<glyph unicode="&#xf6;" horiz-adv-x="1046" d="M117 481q29 238 172 377t360 139t323 -136.5t75 -379.5q-12 -106 -58.5 -207t-111.5 -165q-66 -64 -164.5 -100t-208.5 -36q-209 0 -312.5 136t-74.5 372zM330 1094l32 260h261l-33 -260h-260zM440 492q-19 -152 7 -224.5t100 -72.5q142 0 182 311q17 133 -11.5 201.5 t-99.5 68.5q-144 0 -178 -284zM752 1094l32 260h260l-32 -260h-260z" />
<glyph unicode="&#xf7;" d="M137 582l25 200h1050l-24 -200h-1051zM487 178l33 266h254l-33 -266h-254zM580 922l32 266h254l-32 -266h-254z" />
<glyph unicode="&#xf8;" horiz-adv-x="1046" d="M90 -29l107 129q-106 148 -80 383q29 236 172 375t358 139q137 0 248 -67l98 114l80 -65l-102 -119q105 -134 78 -373q-31 -242 -173.5 -378t-365.5 -136q-133 0 -238 58l-100 -127zM430 367l283 348q-35 61 -97 61q-142 0 -176 -282q0 -3 -10 -127zM461 240 q31 -45 84 -45q75 0 119.5 75.5t64.5 237.5q4 46 4 74z" />
<glyph unicode="&#xf9;" horiz-adv-x="1071" d="M143 350l76 613h307l-69 -574q-12 -93 2 -125q24 -43 80 -43q75 0 157 72l82 670h307l-116 -963h-299l14 127q-23 -51 -137.5 -102.5t-206.5 -51.5q-67 0 -116.5 32t-71.5 89q-17 48 -18.5 103t9.5 153zM387 1368h320l114 -272h-221z" />
<glyph unicode="&#xfa;" horiz-adv-x="1071" d="M143 350l76 613h307l-69 -574q-12 -93 2 -125q24 -43 80 -43q75 0 157 72l82 670h307l-116 -963h-299l14 127q-23 -51 -137.5 -102.5t-206.5 -51.5q-67 0 -116.5 32t-71.5 89q-17 48 -18.5 103t9.5 153zM565 1096l185 272h313l-281 -272h-217z" />
<glyph unicode="&#xfb;" horiz-adv-x="1071" d="M143 350l76 613h307l-69 -574q-12 -93 2 -125q24 -43 80 -43q75 0 157 72l82 670h307l-116 -963h-299l14 127q-23 -51 -137.5 -102.5t-206.5 -51.5q-67 0 -116.5 32t-71.5 89q-17 48 -18.5 103t9.5 153zM326 1096l252 272h284l178 -272h-256l-88 116l-123 -116h-247z" />
<glyph unicode="&#xfc;" horiz-adv-x="1071" d="M143 350l76 613h307l-69 -574q-12 -93 2 -125q24 -43 80 -43q75 0 157 72l82 670h307l-116 -963h-299l14 127q-23 -51 -137.5 -102.5t-206.5 -51.5q-67 0 -116.5 32t-71.5 89q-17 48 -18.5 103t9.5 153zM340 1094l33 260h260l-33 -260h-260zM762 1094l33 260h260 l-33 -260h-260z" />
<glyph unicode="&#xfd;" horiz-adv-x="901" d="M-10 -354l28 225q64 -21 113 -21q69 0 109.5 33.5t74.5 116.5l-219 963h336l64 -451q14 -95 14 -176q22 85 53 176l156 451h319l-420 -936q-97 -216 -155 -279q-108 -123 -307 -123q-64 0 -166 21zM481 1096l185 272h313l-281 -272h-217z" />
<glyph unicode="&#xfe;" horiz-adv-x="1064" d="M57 -354l211 1720h307l-61 -504q126 135 277 135q152 0 229 -134.5t49 -354.5q-25 -200 -108 -342q-51 -88 -140 -140.5t-186 -52.5q-68 0 -119.5 25.5t-97.5 81.5l-53 -434h-308zM442 281q45 -86 117 -86t118.5 75.5t65.5 218.5q15 124 -11.5 192.5t-88.5 68.5 q-67 0 -154 -84z" />
<glyph unicode="&#xff;" horiz-adv-x="901" d="M-10 -354l28 225q64 -21 113 -21q69 0 109.5 33.5t74.5 116.5l-219 963h336l64 -451q14 -95 14 -176q22 85 53 176l156 451h319l-420 -936q-97 -216 -155 -279q-108 -123 -307 -123q-64 0 -166 21zM256 1094l33 260h260l-33 -260h-260zM678 1094l33 260h260l-33 -260 h-260z" />
<glyph unicode="&#x152;" horiz-adv-x="1886" d="M147 676q40 327 215 522t429 195q95 0 159 -29.5t111 -95.5l10 98h860l-30 -254h-527l-35 -278h428l-30 -254h-428l-39 -326h563l-31 -254h-897l10 98q-70 -67 -144 -96t-175 -29q-252 0 -370.5 186.5t-78.5 516.5zM541 668q-23 -166 -12.5 -267t53 -144.5t125.5 -43.5 q123 0 188 105t96 350q25 185 16.5 292.5t-48 150t-125.5 42.5q-65 0 -119 -32.5t-86 -90.5q-61 -115 -88 -362z" />
<glyph unicode="&#x153;" horiz-adv-x="1593" d="M119 485q28 233 168 372.5t344 139.5q100 0 174.5 -34.5t114.5 -100.5q65 71 138 103t171 32q197 0 289 -137.5t61 -386.5q-1 -5 -3.5 -23.5t-4.5 -31.5h-565q-16 -116 8 -162q31 -63 106 -63q111 0 156 112l276 -22q-50 -153 -164.5 -232.5t-285.5 -79.5 q-219 0 -297 138q-106 -136 -307 -136q-231 0 -322 162q-84 139 -57 350zM440 485q-24 -177 15 -237q30 -53 84 -53q72 0 114.5 70.5t61.5 221.5q34 289 -103 289q-62 0 -110 -67q-42 -58 -62 -224zM1024 584h281q10 94 -19.5 143t-97.5 49t-110 -49t-54 -143z" />
<glyph unicode="&#x178;" horiz-adv-x="1107" d="M131 1366h358l148 -440q8 -26 11.5 -41.5t5 -28.5t3.5 -22q13 27 23.5 48l15 30t6.5 14l261 440h344l-521 -805l-67 -561h-338l68 561zM406 1477l32 260h260l-32 -260h-260zM827 1477l33 260h260l-33 -260h-260z" />
<glyph unicode="&#x2c6;" horiz-adv-x="1024" d="M289 1096l252 272h284l179 -272h-256l-89 116l-122 -116h-248z" />
<glyph unicode="&#x2dc;" horiz-adv-x="1024" d="M315 1096q13 115 78.5 191.5t149.5 76.5q37 0 76.5 -10.5t125.5 -42.5q37 -13 60 -13t35.5 16.5t21.5 53.5h148q-22 -129 -85 -200.5t-155 -71.5q-30 0 -56 7t-102 34q-56 20 -84 20q-45 0 -63 -61h-150z" />
<glyph unicode="&#x2000;" horiz-adv-x="947" />
<glyph unicode="&#x2001;" horiz-adv-x="1894" />
<glyph unicode="&#x2002;" horiz-adv-x="947" />
<glyph unicode="&#x2003;" horiz-adv-x="1894" />
<glyph unicode="&#x2004;" horiz-adv-x="631" />
<glyph unicode="&#x2005;" horiz-adv-x="473" />
<glyph unicode="&#x2006;" horiz-adv-x="315" />
<glyph unicode="&#x2007;" horiz-adv-x="315" />
<glyph unicode="&#x2008;" horiz-adv-x="236" />
<glyph unicode="&#x2009;" horiz-adv-x="378" />
<glyph unicode="&#x200a;" horiz-adv-x="105" />
<glyph unicode="&#x2010;" horiz-adv-x="464" d="M41 348l33 260h465l-33 -260h-465z" />
<glyph unicode="&#x2011;" horiz-adv-x="464" d="M41 348l33 260h465l-33 -260h-465z" />
<glyph unicode="&#x2012;" horiz-adv-x="464" d="M41 348l33 260h465l-33 -260h-465z" />
<glyph unicode="&#x2013;" d="M104 348l33 260h1059l-33 -260h-1059z" />
<glyph unicode="&#x2014;" horiz-adv-x="1386" d="M41 348l33 260h1386l-33 -260h-1386z" />
<glyph unicode="&#x2018;" horiz-adv-x="559" d="M209 711l33 272l286 410l99 -54l-160 -301h96l-41 -327h-313z" />
<glyph unicode="&#x2019;" horiz-adv-x="559" d="M186 737l160 301h-96l39 328h313l-33 -272l-284 -410z" />
<glyph unicode="&#x201a;" horiz-adv-x="559" d="M59 -299l160 299h-96l39 328h313l-33 -273l-286 -409z" />
<glyph unicode="&#x201c;" horiz-adv-x="997" d="M209 711l33 272l286 410l99 -54l-160 -301h96l-41 -327h-313zM647 711l33 272l287 410l98 -54l-160 -301h96l-40 -327h-314z" />
<glyph unicode="&#x201d;" horiz-adv-x="997" d="M186 737l160 301h-96l39 328h313l-33 -272l-284 -410zM625 737l159 301h-96l39 328h313l-32 -272l-285 -410z" />
<glyph unicode="&#x201e;" horiz-adv-x="997" d="M59 -299l160 299h-96l39 328h313l-33 -273l-286 -409zM498 -299l159 299h-96l39 328h313l-32 -273l-287 -409z" />
<glyph unicode="&#x2022;" horiz-adv-x="1366" d="M485 692q15 120 109 202.5t215 82.5q114 0 186 -83.5t58 -199.5q-13 -118 -106.5 -201t-211.5 -83q-117 0 -190 82.5t-60 199.5z" />
<glyph unicode="&#x2026;" horiz-adv-x="1679" d="M123 0l39 328h313l-39 -328h-313zM682 0l39 328h313l-39 -328h-313zM1243 0l39 328h313l-39 -328h-313z" />
<glyph unicode="&#x202f;" horiz-adv-x="378" />
<glyph unicode="&#x2039;" horiz-adv-x="532" d="M113 479l211 387h231l-205 -387l111 -389h-232z" />
<glyph unicode="&#x203a;" horiz-adv-x="532" d="M92 90l207 389l-113 387h234l115 -387l-209 -389h-234z" />
<glyph unicode="&#x205f;" horiz-adv-x="473" />
<glyph unicode="&#x20ac;" horiz-adv-x="1490" d="M135 563l133 240h109q65 287 235.5 438.5t429.5 151.5q138 0 241.5 -46t162.5 -133q35 -54 52 -110.5t28 -151.5l-346 -61q2 140 -36.5 201t-129.5 61q-102 0 -167 -84.5t-102 -265.5h342l-133 -240h-243q-11 -177 31.5 -263.5t140.5 -86.5q90 0 150 68.5t97 212.5 l345 -45q-59 -230 -219.5 -353t-403.5 -123q-420 0 -494 396q-17 78 -14 194h-209z" />
<glyph unicode="&#x2122;" horiz-adv-x="1775" d="M150 1210l18 156h684l-18 -156h-230l-76 -622h-227l76 622h-227zM836 588l94 778h350l59 -391q2 -19 6 -42.5t5 -39.5l163 473h355l-94 -778h-228l64 514l2 47l-13 -31l-206 -530h-179l-77 512q0 18 -4 51l-70 -563h-227z" />
</font>
</defs>
</svg>
